<svg xmlns="http://www.w3.org/2000/svg" width="88.997" height="88.997" viewBox="0 0 88.997 88.997">
  <g id="hacker" transform="translate(-1 -1)">
    <g id="Grupo_157163" data-name="Grupo 157163" transform="translate(2.435 2.435)">
      <g id="Grupo_157143" data-name="Grupo 157143" transform="translate(57.417 17.225)">
        <path id="Trazado_600746" data-name="Trazado 600746" d="M70.709,16.871V31.225A2.879,2.879,0,0,1,67.838,34.1H57.79l-5.153,5.153a2.03,2.03,0,0,1-3.459-1.435V34.1H44.871A2.879,2.879,0,0,1,42,31.225V16.871A2.879,2.879,0,0,1,44.871,14H67.838A2.879,2.879,0,0,1,70.709,16.871Z" transform="translate(-42 -14)" fill="#fcd770"/>
      </g>
      <g id="Grupo_157144" data-name="Grupo 157144" transform="translate(61.724 0)">
        <path id="Trazado_600747" data-name="Trazado 600747" d="M65.1,12.048v1.435H59.354V12.048a4.306,4.306,0,1,0-8.613,0v7.177H45V12.048a10.048,10.048,0,0,1,20.1,0Z" transform="translate(-45 -2)" fill="#969faa"/>
      </g>
      <g id="Grupo_157145" data-name="Grupo 157145" transform="translate(68.901 22.967)">
        <circle id="Elipse_5792" data-name="Elipse 5792" cx="3" cy="3" r="3" transform="translate(-0.336 -0.402)" fill="#b4dd7f"/>
      </g>
      <g id="Grupo_157146" data-name="Grupo 157146" transform="translate(25.838 80.384)">
        <path id="Trazado_600748" data-name="Trazado 600748" d="M48.709,58a5.734,5.734,0,0,1-5.742,5.742H25.742A5.74,5.74,0,0,1,20,58H48.709Z" transform="translate(-20 -58)" fill="#969faa"/>
      </g>
      <g id="Grupo_157147" data-name="Grupo 157147" transform="translate(48.805 80.384)">
        <path id="Trazado_600749" data-name="Trazado 600749" d="M41.742,58h31.58a5.74,5.74,0,0,1-5.742,5.742H36A5.734,5.734,0,0,0,41.742,58Z" transform="translate(-36 -58)" fill="#aab2bd"/>
      </g>
      <g id="Grupo_157148" data-name="Grupo 157148" transform="translate(48.805 51.676)">
        <path id="Trazado_600750" data-name="Trazado 600750" d="M41.742,49.483V66.709H36V40.871a2.765,2.765,0,0,1,.818-1.981A2.8,2.8,0,0,1,38.871,38h2.871Z" transform="translate(-36 -38)" fill="#aab2bd"/>
      </g>
      <g id="Grupo_157149" data-name="Grupo 157149" transform="translate(54.547 51.676)">
        <path id="Trazado_600751" data-name="Trazado 600751" d="M71.58,40.871V66.709H40V38H68.709A2.879,2.879,0,0,1,71.58,40.871Z" transform="translate(-40 -38)" fill="#ccd1d9"/>
      </g>
      <g id="Grupo_157150" data-name="Grupo 157150" transform="translate(66.03 60.288)">
        <ellipse id="Elipse_5793" data-name="Elipse 5793" cx="4.5" cy="4" rx="4.5" ry="4" transform="translate(-0.466 0.276)" fill="#69d6f4"/>
      </g>
      <g id="Grupo_157151" data-name="Grupo 157151" transform="translate(0 51.676)">
        <path id="Trazado_600752" data-name="Trazado 600752" d="M25.4,43,16.34,62.259l-.072-.029-1.794-3.6-9.1,8.412A14.972,14.972,0,0,1,2,57.579v-.029A20.381,20.381,0,0,1,16.641,38a20.047,20.047,0,0,0,8.225,4.88Z" transform="translate(-2 -38)" fill="#5b6570"/>
      </g>
      <g id="Grupo_157152" data-name="Grupo 157152" transform="translate(25.005 50.054)">
        <path id="Trazado_600753" data-name="Trazado 600753" d="M44.023,39.368a23.026,23.026,0,0,0-5.354-2.483l-.014-.014a20.011,20.011,0,0,1-12.661,7.163h-.3L21.085,62.952a13.014,13.014,0,0,1-1.665,4.034l.833.215H43.22V41.363a2.765,2.765,0,0,1,.818-1.981Z" transform="translate(-19.42 -36.87)" fill="#5b6570"/>
      </g>
      <g id="Grupo_157153" data-name="Grupo 157153" transform="translate(8.613 30.647)">
        <path id="Trazado_600754" data-name="Trazado 600754" d="M13.742,27.154A14.375,14.375,0,0,0,25.01,41.178a4.249,4.249,0,0,0-1.22,2.986V47.25l-.99,2.124h-.014l-.531-.115A20.089,20.089,0,0,1,8,30.025a49.19,49.19,0,0,1,.459-6.675,4.315,4.315,0,0,0,3.847,2.368h1.435Z" transform="translate(-8 -23.35)" fill="#969faa"/>
      </g>
      <g id="Grupo_157154" data-name="Grupo 157154" transform="translate(31.278 30.647)">
        <path id="Trazado_600755" data-name="Trazado 600755" d="M25.441,47.336a5.2,5.2,0,0,0,.589-6.646,14.38,14.38,0,0,0,9.546-13.536V25.718H37.01a4.315,4.315,0,0,0,3.847-2.368,49.19,49.19,0,0,1,.459,6.675,20.146,20.146,0,0,1-17.225,19.9h-.3l.3-1.234Z" transform="translate(-23.79 -23.35)" fill="#969faa"/>
      </g>
      <g id="Grupo_157155" data-name="Grupo 157155" transform="translate(9.632)">
        <path id="Trazado_600756" data-name="Trazado 600756" d="M44.194,20.761l2.67,8.713a27.551,27.551,0,0,0-4.723-4.163V25.3a24.539,24.539,0,0,0-28.709,0v.014A27.551,27.551,0,0,0,8.71,29.474,48.38,48.38,0,0,1,21.9,5.014l.99-.99a6.931,6.931,0,0,1,9.79,0l.99.99A48.592,48.592,0,0,1,44.194,20.761Z" transform="translate(-8.71 -2)" fill="#aab2bd"/>
      </g>
      <g id="Grupo_157156" data-name="Grupo 157156" transform="translate(37.321 61.724)">
        <path id="Trazado_600757" data-name="Trazado 600757" d="M28,45H39.483v5.742H28Z" transform="translate(-28 -45)" fill="#fcd770"/>
      </g>
      <g id="Grupo_157157" data-name="Grupo 157157" transform="translate(9.072 23.311)">
        <path id="Trazado_600758" data-name="Trazado 600758" d="M13.6,19.661v8.282H12.167A4.315,4.315,0,0,1,8.32,25.575c.144-1.062.33-2.124.56-3.172A27.551,27.551,0,0,1,13.6,18.24Z" transform="translate(-8.32 -18.24)" fill="#f0d0b4"/>
      </g>
      <g id="Grupo_157158" data-name="Grupo 157158" transform="translate(43.063 23.311)">
        <path id="Trazado_600759" data-name="Trazado 600759" d="M36.723,22.4l.56,3.172a4.315,4.315,0,0,1-3.847,2.368H32v-9.7A27.551,27.551,0,0,1,36.723,22.4Z" transform="translate(-32 -18.24)" fill="#f0d0b4"/>
      </g>
      <g id="Grupo_157159" data-name="Grupo 157159" transform="translate(14.354 25.838)">
        <path id="Trazado_600760" data-name="Trazado 600760" d="M40.709,27.177v1.435a14.38,14.38,0,0,1-9.546,13.536,5.459,5.459,0,0,0-.589-.7L29.225,40.1V32.919a2.892,2.892,0,0,0-2.871-2.871,2.879,2.879,0,0,0-2.871,2.871v9.5a1.522,1.522,0,0,0-.215.215A14.375,14.375,0,0,1,12,28.613V20a4.3,4.3,0,0,0,4.306,4.306h4.077a4.294,4.294,0,0,0,4.077-2.943L24.919,20H27.79l.459,1.364a4.294,4.294,0,0,0,4.077,2.943H36.4A4.3,4.3,0,0,0,40.709,20Z" transform="translate(-12 -20)" fill="#f0d0b4"/>
      </g>
      <g id="Grupo_157160" data-name="Grupo 157160" transform="translate(3.373 45.934)">
        <path id="Trazado_600761" data-name="Trazado 600761" d="M33.906,35.349a5.458,5.458,0,0,1,.589.7,5.2,5.2,0,0,1-.589,6.646l-1.349,1.349-.3,1.234L27.647,64.2a13.014,13.014,0,0,1-1.665,4.034,12.854,12.854,0,0,1-18.3,3.574l-.416-.287A14.7,14.7,0,0,1,4.35,68.781l9.1-8.412,1.794,3.6.072.029,9.058-19.264h.014l.99-2.124V39.526a4.249,4.249,0,0,1,1.22-2.986,1.523,1.523,0,0,1,.215-.215,3.948,3.948,0,0,1,.947-.646L31.121,34h1.435Z" transform="translate(-4.35 -34)" fill="#f0d0b4"/>
      </g>
      <g id="Grupo_157161" data-name="Grupo 157161" transform="translate(25.838 35.886)">
        <path id="Trazado_600762" data-name="Trazado 600762" d="M20,39.373v-9.5A2.879,2.879,0,0,1,22.871,27a2.892,2.892,0,0,1,2.871,2.871v7.177H24.306l-3.359,1.679A3.948,3.948,0,0,0,20,39.373Z" transform="translate(-20 -27)" fill="#f0d0b4"/>
      </g>
      <g id="Grupo_157162" data-name="Grupo 157162" transform="translate(14.354 18.661)">
        <path id="Trazado_600763" data-name="Trazado 600763" d="M40.709,21.072v1.105A4.3,4.3,0,0,1,36.4,26.483H32.326a4.294,4.294,0,0,1-4.077-2.943l-.459-1.364H24.919l-.459,1.364a4.294,4.294,0,0,1-4.077,2.943H16.306A4.3,4.3,0,0,1,12,22.177V19.636a24.539,24.539,0,0,1,28.709,0v1.435Z" transform="translate(-12 -15)" fill="#51565b"/>
      </g>
    </g>
    <g id="Grupo_157164" data-name="Grupo 157164" transform="translate(1 1)">
      <path id="Trazado_600764" data-name="Trazado 600764" d="M52.742,54.483A5.742,5.742,0,1,0,47,48.742,5.748,5.748,0,0,0,52.742,54.483Zm0-8.613a2.871,2.871,0,1,1-2.871,2.871A2.874,2.874,0,0,1,52.742,45.871Z" transform="translate(19.03 17.288)"/>
      <path id="Trazado_600765" data-name="Trazado 600765" d="M85.691,52.676H54.111a4.251,4.251,0,0,0-2.157.6A24.433,24.433,0,0,0,48.938,51.8a21.414,21.414,0,0,0,3.738-12.042,49.622,49.622,0,0,0-14.63-35.32L37.06,3.45A8.423,8.423,0,0,0,31.144,1a8.313,8.313,0,0,0-5.917,2.452l-.985.985a49.622,49.622,0,0,0-14.63,35.32,21.393,21.393,0,0,0,4.941,13.734A21.933,21.933,0,0,0,1,73.693,16.429,16.429,0,0,0,7.89,87.054l.418.3A14.308,14.308,0,0,0,27.277,85.21,7.168,7.168,0,0,0,34.015,90h48.8A7.185,7.185,0,0,0,90,82.82V56.982A4.312,4.312,0,0,0,85.691,52.676Zm1.435,4.306v24.4H58.417V55.547H85.691A1.437,1.437,0,0,1,87.126,56.982ZM54.111,55.547h1.435V81.384H52.676v-24.4A1.437,1.437,0,0,1,54.111,55.547ZM49.8,68.466H41.192V65.595H49.8ZM36.846,57.515a6.431,6.431,0,0,0,1.062-6.368,15.822,15.822,0,0,0,9.026-14.261,5.734,5.734,0,0,0,2.724-.7c.088,1.181.146,2.37.146,3.567A18.756,18.756,0,0,1,36.846,57.515Zm-23.478-26.9a25.752,25.752,0,0,1,1.987-1.929v5.328A2.835,2.835,0,0,1,13,32.74q.159-1.068.367-2.124Zm35.553,0q.207,1.057.367,2.124a2.835,2.835,0,0,1-2.354,1.275V28.687A25.752,25.752,0,0,1,48.921,30.616Zm-4.858-3.446v1.1a2.874,2.874,0,0,1-2.871,2.871H37.118A2.866,2.866,0,0,1,34.4,29.18l-.781-2.343H28.675l-.781,2.344a2.87,2.87,0,0,1-2.724,1.962H21.1a2.874,2.874,0,0,1-2.871-2.871V26.5a23.027,23.027,0,0,1,25.838,0ZM18.225,33.217a5.683,5.683,0,0,0,2.871.8H25.17a5.732,5.732,0,0,0,5.446-3.926l.128-.38h.8l.128.38a5.73,5.73,0,0,0,5.445,3.926h4.074a5.683,5.683,0,0,0,2.871-.8v3.669a12.923,12.923,0,0,1-7.715,11.786l-.9-.9V41.192a4.306,4.306,0,0,0-8.613,0v7.865a13,13,0,0,1-8.613-12.171Zm11.483,7.975a1.435,1.435,0,1,1,2.871,0v5.742h-.339L29.709,48.2ZM26.272,6.466l.985-.985a5.462,5.462,0,0,1,3.887-1.611A5.537,5.537,0,0,1,35.03,5.48l.986.986a46.854,46.854,0,0,1,11.6,19.057,26.537,26.537,0,0,0-16.472-5.862,26.538,26.538,0,0,0-16.47,5.861,46.839,46.839,0,0,1,11.6-19.055ZM12.63,36.19a5.734,5.734,0,0,0,2.724.7A15.888,15.888,0,0,0,25.83,51.741,5.745,5.745,0,0,0,25.4,53.9V56.66l-.342.726a18.534,18.534,0,0,1-12.577-17.63c0-1.2.059-2.386.146-3.567Zm4.1,19.554a21.825,21.825,0,0,0,7.11,4.246l-7.13,15.15-2.94-5.878L11.2,70.545l1.938,3.877L6.031,81a13.618,13.618,0,0,1-2.16-7.335A19.022,19.022,0,0,1,16.727,55.743Zm-.139,31.383a11.334,11.334,0,0,1-6.614-2.114l-.418-.3A13.371,13.371,0,0,1,7.84,83.232l6.635-6.139.676,1.352-1.1,2.328L16.655,82,28.273,57.3V53.9a2.858,2.858,0,0,1,1.586-2.568L32.918,49.8h.5l.927.927a3.763,3.763,0,0,1,0,5.321l-1.635,1.635L27.709,78.249a11.345,11.345,0,0,1-11.122,8.877Zm13.918-8.221,4.372-17.96a21.436,21.436,0,0,0,12.211-6.781A21.587,21.587,0,0,1,50.083,55.5a4.246,4.246,0,0,0-.278,1.477v5.742H38.321v8.613H49.8V81.384H29.7A14.477,14.477,0,0,0,30.505,78.905Zm3.51,8.221a4.315,4.315,0,0,1-4.061-2.871H55.3a4.315,4.315,0,0,1-4.061,2.871Zm48.8,0H56.945a7.108,7.108,0,0,0,1.326-2.871h28.59A4.3,4.3,0,0,1,82.82,87.126Z" transform="translate(-1 -1)"/>
      <path id="Trazado_600766" data-name="Trazado 600766" d="M68.273,18.225H53.919V12.483a2.871,2.871,0,0,1,5.742,0v2.871h8.613V12.483a11.483,11.483,0,0,0-22.967,0v5.742A4.312,4.312,0,0,0,41,22.532V36.886a4.312,4.312,0,0,0,4.306,4.306h2.871v2.277a3.465,3.465,0,0,0,5.915,2.45l4.727-4.727h9.454a4.312,4.312,0,0,0,4.306-4.306V22.532A4.312,4.312,0,0,0,68.273,18.225Zm-20.1-5.742a8.613,8.613,0,0,1,17.225,0H62.532a5.742,5.742,0,0,0-11.483,0v5.742H48.177Zm21.532,24.4a1.437,1.437,0,0,1-1.435,1.435H57.631l-5.569,5.568a.617.617,0,0,1-1.013-.421V38.321H45.306a1.437,1.437,0,0,1-1.435-1.435V22.532A1.437,1.437,0,0,1,45.306,21.1H68.273a1.437,1.437,0,0,1,1.435,1.435Z" transform="translate(16.417 -1)"/>
      <path id="Trazado_600767" data-name="Trazado 600767" d="M53.306,17a4.3,4.3,0,0,0-1.435,8.349v3.135h2.871V25.349A4.3,4.3,0,0,0,53.306,17Zm0,5.742a1.435,1.435,0,1,1,1.435-1.435A1.437,1.437,0,0,1,53.306,22.742Z" transform="translate(19.901 5.967)"/>
    </g>
  </g>
</svg>
