<svg xmlns="http://www.w3.org/2000/svg" width="88.948" height="85.427" viewBox="0 0 88.948 85.427">
  <g id="instalando" transform="translate(0 -10.143)">
    <g id="Grupo_157175" data-name="Grupo 157175" transform="translate(1.302 11.445)">
      <path id="Trazado_600769" data-name="Trazado 600769" d="M193.633,404.01H165.48l4.345-19.06h19.463Z" transform="translate(-138.056 -321.187)" fill="#e0edf1"/>
      <path id="Trazado_600770" data-name="Trazado 600770" d="M280.771,384.95H276.18l4.345,19.06h4.591Z" transform="translate(-229.539 -321.187)" fill="#a8d3d8"/>
      <path id="Trazado_600771" data-name="Trazado 600771" d="M125.272,462.978h42.113v5.515H125.272Z" transform="translate(-104.828 -385.67)" fill="#8ebac5"/>
      <path id="Trazado_600772" data-name="Trazado 600772" d="M334.757,462.978a1.3,1.3,0,0,1,1.3,1.3v2.908a1.3,1.3,0,0,1-1.3,1.3H340.5v-5.515Z" transform="translate(-277.947 -385.67)" fill="#7ca1b1"/>
      <g id="Grupo_157171" data-name="Grupo 157171" transform="translate(0 56.396)">
        <path id="Trazado_600773" data-name="Trazado 600773" d="M89.886,345.336v6.578a2.827,2.827,0,0,1-2.828,2.826H10.329A2.827,2.827,0,0,1,7.5,351.914v-6.578a2.827,2.827,0,0,1,2.828-2.826H87.058A2.827,2.827,0,0,1,89.886,345.336Z" transform="translate(-7.501 -342.51)" fill="#8ebac5"/>
        <path id="Trazado_600774" data-name="Trazado 600774" d="M447.1,342.51h-3.925a2.827,2.827,0,0,1,2.828,2.826v6.578a2.827,2.827,0,0,1-2.828,2.826H447.1a2.827,2.827,0,0,0,2.828-2.826v-6.578A2.827,2.827,0,0,0,447.1,342.51Z" transform="translate(-367.547 -342.51)" fill="#7ca1b1"/>
      </g>
      <path id="Trazado_600775" data-name="Trazado 600775" d="M89.886,147.469v34.505H7.5V147.469a2.827,2.827,0,0,1,2.828-2.826H87.058A2.827,2.827,0,0,1,89.886,147.469Z" transform="translate(-7.501 -122.596)" fill="#e0edf1"/>
      <path id="Trazado_600776" data-name="Trazado 600776" d="M447.1,144.643h-3.925a2.827,2.827,0,0,1,2.828,2.826v34.505h3.925V147.469A2.827,2.827,0,0,0,447.1,144.643Z" transform="translate(-367.547 -122.596)" fill="#a8d3d8"/>
      <path id="Trazado_600777" data-name="Trazado 600777" d="M39.426,177.473H92.7v26.283H39.426Z" transform="translate(-33.884 -149.727)" fill="#ff6148"/>
      <path id="Trazado_600778" data-name="Trazado 600778" d="M310.874,177.473a2.23,2.23,0,0,1,2.23,2.23v21.822a2.23,2.23,0,0,1-2.23,2.23h6.149V177.473Z" transform="translate(-258.21 -149.727)" fill="#ff6148"/>
      <path id="Trazado_600779" data-name="Trazado 600779" d="M75.846,231.86h40.343v5.533H75.846Z" transform="translate(-63.982 -194.673)" fill="#7ca1b1"/>
      <path id="Trazado_600780" data-name="Trazado 600780" d="M70.105,231.86H99.316v5.533H70.105Z" transform="translate(-59.237 -194.673)" fill="#2effc7"/>
      <path id="Trazado_600781" data-name="Trazado 600781" d="M376.1,252.168h13.189v13.189H376.1Z" transform="translate(-312.115 -211.455)" fill="#08a9f1"/>
      <path id="Trazado_600782" data-name="Trazado 600782" d="M422.218,252.168a1.72,1.72,0,0,1,1.721,1.72v9.748a1.721,1.721,0,0,1-1.721,1.721H427.4V252.168Z" transform="translate(-350.225 -211.455)" fill="#0290cf"/>
      <g id="Grupo_157174" data-name="Grupo 157174" transform="translate(35.343 0)">
        <g id="Grupo_157173" data-name="Grupo 157173">
          <path id="Trazado_600783" data-name="Trazado 600783" d="M291.747,22.23,273.891,23.7,256.515,22.23a4.587,4.587,0,0,1,4.587-4.587h26.057A4.587,4.587,0,0,1,291.747,22.23Z" transform="translate(-248.63 -17.643)" fill="#deecf1"/>
          <path id="Trazado_600784" data-name="Trazado 600784" d="M419.375,22.23l-2.118,1.027L415.54,22.23a4.587,4.587,0,0,0-4.588-4.588h3.835A4.589,4.589,0,0,1,419.375,22.23Z" transform="translate(-376.258 -17.642)" fill="#a8d3d8"/>
          <path id="Trazado_600785" data-name="Trazado 600785" d="M218.979,67.046l1.587,7.884-1.587,7.884a7.884,7.884,0,1,1,0-15.768Z" transform="translate(-211.094 -58.47)" fill="#a8d3d8"/>
          <path id="Trazado_600786" data-name="Trazado 600786" d="M239.984,67.042l1.588,7.885-1.588,7.885a7.835,7.835,0,0,1-3.472-.8V67.846A7.859,7.859,0,0,1,239.984,67.042Z" transform="translate(-232.1 -58.466)" fill="#7ca1b1"/>
          <path id="Trazado_600787" data-name="Trazado 600787" d="M452.463,67.046l-1.471,7.884,1.471,7.884a7.884,7.884,0,1,0,0-15.768Z" transform="translate(-409.347 -58.47)" fill="#a8d3d8"/>
          <path id="Trazado_600788" data-name="Trazado 600788" d="M467.91,74.935a7.883,7.883,0,0,1-7.768,7.883c2.441-.109,4.4-3.6,4.4-7.883s-1.96-7.774-4.4-7.883A7.884,7.884,0,0,1,467.91,74.935Z" transform="translate(-416.908 -58.475)" fill="#7ca1b1"/>
          <path id="Trazado_600789" data-name="Trazado 600789" d="M287.827,71.38H260.436a3.92,3.92,0,0,1-3.92-3.92V44.069h35.232v23.39A3.92,3.92,0,0,1,287.827,71.38Z" transform="translate(-248.631 -39.481)" fill="#ffb476"/>
          <path id="Trazado_600790" data-name="Trazado 600790" d="M422.556,44.072v23.39a3.92,3.92,0,0,1-3.922,3.92H414.8a3.92,3.92,0,0,0,3.92-3.92V44.072Z" transform="translate(-379.439 -39.484)" fill="#ffb476"/>
          <g id="Grupo_157172" data-name="Grupo 157172" transform="translate(13.409 9.273)">
            <circle id="Elipse_5794" data-name="Elipse 5794" cx="4.129" cy="4.129" r="4.129" transform="translate(0 0)" fill="#deecf1"/>
            <circle id="Elipse_5795" data-name="Elipse 5795" cx="4.129" cy="4.129" r="4.129" transform="translate(15.926 0)" fill="#deecf1"/>
            <path id="Trazado_600791" data-name="Trazado 600791" d="M318.205,149.251H302.853a2.294,2.294,0,0,1,0-4.587h15.353a2.294,2.294,0,0,1,0,4.587Z" transform="translate(-298.437 -131.887)" fill="#deecf1"/>
          </g>
        </g>
      </g>
    </g>
    <g id="Grupo_157176" data-name="Grupo 157176" transform="translate(0 10.143)">
      <path id="Trazado_600792" data-name="Trazado 600792" d="M33.228,379.029a1.3,1.3,0,1,0,0,2.6h3.489a1.3,1.3,0,1,0,0-2.6Z" transform="translate(-26.384 -314.992)"/>
      <path id="Trazado_600793" data-name="Trazado 600793" d="M105.246,232.5a1.3,1.3,0,0,0,1.3-1.3v-5.533a1.3,1.3,0,0,0-1.3-1.3H63.906a1.3,1.3,0,0,0-1.3,1.3V231.2a1.3,1.3,0,0,0,1.3,1.3h41.34Zm-1.3-2.6H94.419v-2.929h9.525Zm-38.736,0v-2.929H91.815v2.929Z" transform="translate(-51.736 -187.174)"/>
      <path id="Trazado_600794" data-name="Trazado 600794" d="M169.759,285.657h-7.028a1.3,1.3,0,1,0,0,2.6h7.028a1.3,1.3,0,1,0,0-2.6Z" transform="translate(-133.406 -237.829)"/>
      <path id="Trazado_600795" data-name="Trazado 600795" d="M384.387,245.841a1.312,1.312,0,0,0-1.3-1.173H369.9a1.3,1.3,0,0,0-1.3,1.3v13.189a1.312,1.312,0,0,0,1.3,1.3h13.189a1.3,1.3,0,0,0,1.3-1.3V245.97A1.215,1.215,0,0,0,384.387,245.841Zm-4.439,1.431-8.744,8.744v-8.744Zm-6.9,10.585,8.744-8.744v8.744Z" transform="translate(-304.613 -203.955)"/>
      <path id="Trazado_600796" data-name="Trazado 600796" d="M291.7,68.99a5.431,5.431,0,1,0-5.431,5.431A5.437,5.437,0,0,0,291.7,68.99Zm-8.257,0a2.827,2.827,0,1,1,2.827,2.827A2.83,2.83,0,0,1,283.44,68.99Z" transform="translate(-232.084 -54.286)"/>
      <path id="Trazado_600797" data-name="Trazado 600797" d="M378.011,63.559a5.431,5.431,0,1,0,5.431,5.431A5.437,5.437,0,0,0,378.011,63.559Zm0,8.257a2.827,2.827,0,1,1,2.827-2.827,2.83,2.83,0,0,1-2.827,2.827Z" transform="translate(-307.902 -54.286)"/>
      <path id="Trazado_600798" data-name="Trazado 600798" d="M312.007,137.164H296.655a3.6,3.6,0,1,0,0,7.191h15.353a3.6,3.6,0,0,0,0-7.191Zm-6.374,2.6h1.984v1.983h-1.984Zm-2.6,1.984h-1.984v-1.983h1.984Zm-7.366-.992a.993.993,0,0,1,.992-.992h1.787v1.983h-1.787A.993.993,0,0,1,295.663,140.76Zm16.344.992H310.22v-1.983h1.787a.992.992,0,0,1,0,1.983Z" transform="translate(-242.185 -115.114)"/>
      <path id="Trazado_600799" data-name="Trazado 600799" d="M88.948,27.906A9.143,9.143,0,0,0,86.4,21.552a1.3,1.3,0,0,0-1.88,1.8,6.582,6.582,0,0,1-3.452,11V16.032a5.9,5.9,0,0,0-5.889-5.889H49.117a5.9,5.9,0,0,0-5.889,5.889v2.781A9.179,9.179,0,0,0,36.407,32.19H4.13A4.134,4.134,0,0,0,0,36.318V77.245a4.134,4.134,0,0,0,4.13,4.128h26.2l-1.385,6.078h-7.2a1.3,1.3,0,0,0-1.3,1.3v5.515a1.3,1.3,0,0,0,1.3,1.3H63.859a1.3,1.3,0,0,0,1.3-1.3V88.753a1.3,1.3,0,0,0-1.3-1.3h-7.2l-1.385-6.078h5.744a1.3,1.3,0,1,0,0-2.6H4.13A1.527,1.527,0,0,1,2.6,77.245V72.125H82.385v5.119a1.527,1.527,0,0,1-1.526,1.524H67.226a1.3,1.3,0,1,0,0,2.6H80.859a4.134,4.134,0,0,0,4.13-4.128V36.318a4.135,4.135,0,0,0-.076-.788c0-.007,0-.013,0-.02a9.182,9.182,0,0,0,4.04-7.6ZM62.557,92.966H23.049V90.055H62.557Zm-8.566-5.515H31.616L33,81.373h19.6ZM48.45,42.041a2.689,2.689,0,0,1-2.618-2.865V17.334H78.459V39.423a2.621,2.621,0,0,1-2.618,2.618Zm.667-29.294H75.174a3.29,3.29,0,0,1,3.015,1.983H46.1A3.289,3.289,0,0,1,49.117,12.747Zm-5.889,8.705V34.358a6.583,6.583,0,0,1,0-12.905ZM2.6,69.521v-33.2A1.527,1.527,0,0,1,4.13,34.794H38.462A9.155,9.155,0,0,0,43.228,37v.892H6.845a1.3,1.3,0,0,0-1.3,1.3V65.473a1.3,1.3,0,0,0,1.3,1.3h3.314a1.3,1.3,0,0,0,0-2.6H8.147V40.493H43.339a5.231,5.231,0,0,0,5.112,4.152H58.814V64.171H16.294a1.3,1.3,0,0,0,0,2.6H60.116a1.3,1.3,0,0,0,1.3-1.3V44.645H75.841a5.228,5.228,0,0,0,5.222-5.222V37a9.1,9.1,0,0,0,1.321-.29V69.521Z" transform="translate(0 -10.143)"/>
    </g>
  </g>
</svg>
