<svg xmlns="http://www.w3.org/2000/svg" width="78.164" height="65.98" viewBox="0 0 78.164 65.98">
  <g id="Grupo_156779" data-name="Grupo 156779" transform="translate(-145.5 -3887.878)">
    <g id="pagina-web" transform="translate(145.5 3887.878)">
      <g id="Grupo_156769" data-name="Grupo 156769" transform="translate(1.221 1.221)">
        <g id="XMLID_2_" transform="translate(0 0)">
          <path id="Trazado_599414" data-name="Trazado 599414" d="M1378.009,364.06v42.372a2.748,2.748,0,0,1-2.748,2.749h-4.811V364.06Z" transform="translate(-1302.288 -353.204)" fill="#f8f6f7"/>
          <path id="Trazado_599415" data-name="Trazado 599415" d="M247.712,153.468v8.108h-7.559v-.549a2.748,2.748,0,0,0-2.748-2.748H179.55v-4.811a2.748,2.748,0,0,1,2.748-2.748h62.665A2.748,2.748,0,0,1,247.712,153.468Z" transform="translate(-171.99 -150.72)" fill="#e96262"/>
          <path id="Trazado_599416" data-name="Trazado 599416" d="M99.162,550.172v4.811a2.748,2.748,0,0,1-2.748,2.748H33.748A2.748,2.748,0,0,1,31,554.983V512.61H99.162Z" transform="translate(-31 -494.194)" fill="#f8f6f7"/>
          <path id="Trazado_599417" data-name="Trazado 599417" d="M99.162,302.567v7.559H31v-8.108a2.748,2.748,0,0,1,2.748-2.748H96.414a2.748,2.748,0,0,1,2.748,2.748Z" transform="translate(-31 -291.711)" fill="#ffb476"/>
        </g>
      </g>
      <g id="Grupo_156778" data-name="Grupo 156778" transform="translate(0 0)">
        <g id="Grupo_156770" data-name="Grupo 156770" transform="translate(7.559 0)">
          <path id="Trazado_599418" data-name="Trazado 599418" d="M224.933,140.019a1.222,1.222,0,0,1-1.221-1.221V130.69a1.529,1.529,0,0,0-1.527-1.527H159.52a1.529,1.529,0,0,0-1.527,1.527V135.5a1.221,1.221,0,0,1-2.443,0V130.69a3.974,3.974,0,0,1,3.97-3.97h62.665a3.975,3.975,0,0,1,3.97,3.97V138.8A1.221,1.221,0,0,1,224.933,140.019Z" transform="translate(-155.55 -126.72)"/>
        </g>
        <g id="Grupo_156771" data-name="Grupo 156771" transform="translate(68.162 10.856)">
          <path id="Trazado_599419" data-name="Trazado 599419" d="M1352.482,387.624h-4.811a1.221,1.221,0,0,1,0-2.443h4.811a1.529,1.529,0,0,0,1.527-1.527V342.5h-6.338a1.221,1.221,0,0,1,0-2.443h7.559a1.221,1.221,0,0,1,1.221,1.221v42.373A3.974,3.974,0,0,1,1352.482,387.624Z" transform="translate(-1346.45 -340.06)"/>
        </g>
        <g id="Grupo_156772" data-name="Grupo 156772" transform="translate(0 7.559)">
          <path id="Trazado_599420" data-name="Trazado 599420" d="M76.383,288.569a1.222,1.222,0,0,1-1.221-1.221V279.24a1.529,1.529,0,0,0-1.527-1.527H10.97a1.529,1.529,0,0,0-1.527,1.527v8.108a1.221,1.221,0,0,1-2.443,0V279.24a3.974,3.974,0,0,1,3.97-3.97H73.635a3.974,3.974,0,0,1,3.97,3.97v8.108A1.221,1.221,0,0,1,76.383,288.569Z" transform="translate(-7 -275.27)"/>
        </g>
        <g id="Grupo_156776" data-name="Grupo 156776" transform="translate(8.184 12.606)">
          <g id="Grupo_156773" data-name="Grupo 156773" transform="translate(0)">
            <path id="Trazado_599421" data-name="Trazado 599421" d="M169.423,377.637a1.6,1.6,0,1,1,1.6-1.6A1.6,1.6,0,0,1,169.423,377.637Z" transform="translate(-167.82 -374.43)"/>
          </g>
          <g id="Grupo_156774" data-name="Grupo 156774" transform="translate(6.321)">
            <path id="Trazado_599422" data-name="Trazado 599422" d="M293.643,377.637a1.6,1.6,0,1,1,1.6-1.6A1.6,1.6,0,0,1,293.643,377.637Z" transform="translate(-292.04 -374.43)"/>
          </g>
          <g id="Grupo_156775" data-name="Grupo 156775" transform="translate(12.643)">
            <path id="Trazado_599423" data-name="Trazado 599423" d="M417.863,377.637a1.6,1.6,0,1,1,1.6-1.6A1.6,1.6,0,0,1,417.863,377.637Z" transform="translate(-416.26 -374.43)"/>
          </g>
        </g>
        <g id="Grupo_156777" data-name="Grupo 156777" transform="translate(0 18.416)">
          <path id="Trazado_599424" data-name="Trazado 599424" d="M73.635,536.174H10.97A3.974,3.974,0,0,1,7,532.2V489.831a1.222,1.222,0,0,1,1.221-1.221H76.383a1.222,1.222,0,0,1,1.221,1.221V532.2a3.974,3.974,0,0,1-3.97,3.97ZM9.443,491.053V532.2a1.529,1.529,0,0,0,1.527,1.527H73.635a1.529,1.529,0,0,0,1.527-1.527V491.053Z" transform="translate(-7 -488.61)"/>
        </g>
      </g>
    </g>
    <g id="Grupo_156768" data-name="Grupo 156768" transform="translate(164.786 3914.499)">
      <circle id="Elipse_5037" data-name="Elipse 5037" cx="6.454" cy="6.454" r="6.454" transform="translate(9.322 0)" fill="#f06a6a"/>
      <ellipse id="Elipse_5038" data-name="Elipse 5038" cx="6.812" cy="6.454" rx="6.812" ry="6.454" transform="translate(17.928 15.776)" fill="#f06a6a"/>
      <ellipse id="Elipse_5039" data-name="Elipse 5039" cx="6.812" cy="6.454" rx="6.812" ry="6.454" transform="translate(0 15.776)" fill="#f06a6a"/>
    </g>
  </g>
</svg>
