<svg xmlns="http://www.w3.org/2000/svg" width="181" height="182" viewBox="0 0 181 182">
  <g id="Grupo_157342" data-name="Grupo 157342" transform="translate(-710 -3084.2)">
    <ellipse id="Elipse_4991" data-name="Elipse 4991" cx="90.5" cy="91" rx="90.5" ry="91" transform="translate(710 3084.2)" fill="#ffb476"/>
    <g id="Grupo_157341" data-name="Grupo 157341">
      <g id="controlar" transform="translate(743.845 3106.201)">
        <g id="Grupo_156783" data-name="Grupo 156783" transform="translate(12.126 9.97)">
          <g id="Grupo_156780" data-name="Grupo 156780" transform="translate(0 0)">
            <path id="Trazado_599427" data-name="Trazado 599427" d="M105.088,56.986a5.311,5.311,0,0,1,5.3,5.3v97.534a5.311,5.311,0,0,1-5.3,5.3H23.457a5.311,5.311,0,0,1-5.3-5.3V62.287a5.311,5.311,0,0,1,5.3-5.3Z" transform="translate(-18.156 -46.891)" fill="#837683" fill-rule="evenodd"/>
            <path id="Trazado_599428" data-name="Trazado 599428" d="M343.314,165.121h6.841a5.311,5.311,0,0,0,5.3-5.3V62.287a5.311,5.311,0,0,0-5.3-5.3h-6.841Z" transform="translate(-263.223 -46.891)" fill="#685e68" fill-rule="evenodd"/>
            <path id="Trazado_599429" data-name="Trazado 599429" d="M123.195,86.924H50.478a2.388,2.388,0,0,0-2.384,2.384v88.62a2.388,2.388,0,0,0,2.384,2.384h72.717a2.388,2.388,0,0,0,2.384-2.384V89.308A2.388,2.388,0,0,0,123.195,86.924Z" transform="translate(-40.72 -69.455)" fill="#eceff1" fill-rule="evenodd"/>
            <path id="Trazado_599430" data-name="Trazado 599430" d="M343.314,180.311H345.7q.113,0,.223-.01a2.389,2.389,0,0,0,2.161-2.373V89.308a2.389,2.389,0,0,0-2.161-2.373q-.11-.01-.223-.01h-2.384Z" transform="translate(-263.223 -69.455)" fill="#d1d1d6" fill-rule="evenodd"/>
            <path id="Trazado_599431" data-name="Trazado 599431" d="M124.913,22.894h7.555a2.341,2.341,0,0,0,2.189-1.441,9.014,9.014,0,0,1,16.559,0,2.341,2.341,0,0,0,2.189,1.441h7.555a2.388,2.388,0,0,1,2.384,2.384v9.015a2.388,2.388,0,0,1-2.384,2.384H124.913a2.388,2.388,0,0,1-2.384-2.384V25.278a2.388,2.388,0,0,1,2.384-2.384Z" transform="translate(-96.82 -16.003)" fill="#ff6148" fill-rule="evenodd"/>
            <path id="Trazado_599432" data-name="Trazado 599432" d="M158.577,55.375H122.529a2.388,2.388,0,0,0,2.384,2.384h36.048a2.388,2.388,0,0,0,2.384-2.384V46.361a2.389,2.389,0,0,0-2.384-2.384v9.015a2.388,2.388,0,0,1-2.384,2.384Z" transform="translate(-96.82 -37.087)" fill="#c48958" fill-rule="evenodd"/>
          </g>
          <g id="Grupo_156781" data-name="Grupo 156781" transform="translate(19.99 26.103)">
            <path id="Trazado_599433" data-name="Trazado 599433" d="M103.641,153.3a22.3,22.3,0,0,0,2.707,6.529l-1.884,4.243,5,5,4.241-1.884a22.3,22.3,0,0,0,6.531,2.707l1.666,4.328h7.072l1.667-4.329a22.3,22.3,0,0,0,6.529-2.707l4.243,1.884,5-5-1.884-4.241a22.3,22.3,0,0,0,2.707-6.531l4.328-1.666v-7.072l-4.329-1.667a22.3,22.3,0,0,0-2.707-6.529l1.884-4.243-5-5-4.242,1.884a22.3,22.3,0,0,0-6.531-2.707l-1.666-4.329H121.9l-1.666,4.329a22.3,22.3,0,0,0-6.53,2.707l-4.242-1.884-5,5,1.884,4.243a22.3,22.3,0,0,0-2.707,6.529l-4.329,1.667v7.071Z" transform="translate(-99.311 -121.976)" fill="#ffe177" fill-rule="evenodd"/>
            <path id="Trazado_599434" data-name="Trazado 599434" d="M168.792,168.383l1.562.694,5-5-1.884-4.241a22.3,22.3,0,0,0,2.707-6.531l4.329-1.666v-7.072l-4.329-1.667a22.3,22.3,0,0,0-2.707-6.529l1.884-4.243-5-5-1.562.694,4.307,4.307-1.884,4.243a22.3,22.3,0,0,1,2.707,6.529l4.329,1.667v7.072l-4.328,1.666a22.3,22.3,0,0,1-2.707,6.531l1.884,4.241Zm-13.133,5.846h2.256l1.667-4.329a22.3,22.3,0,0,0,6.529-2.707l-1.279-.568a29.89,29.89,0,0,1-7.506,3.275Zm10.453-45.217a22.3,22.3,0,0,0-6.531-2.707l-1.666-4.329h-2.256l1.666,4.329a29.89,29.89,0,0,1,7.508,3.275Zm-23.464,0-4.242-1.884-.694.694,3.959,1.758Q142.153,129.283,142.648,129.011Zm-4.936,39.371.694.694,4.241-1.884q-.5-.272-.977-.568Z" transform="translate(-128.253 -121.975)" fill="#ffd064" fill-rule="evenodd"/>
            <path id="Trazado_599435" data-name="Trazado 599435" d="M154.626,189.793a12.5,12.5,0,1,1,12.5,12.5A12.5,12.5,0,0,1,154.626,189.793Z" transform="translate(-141.001 -163.666)" fill="#eceff1" fill-rule="evenodd"/>
            <path id="Trazado_599436" data-name="Trazado 599436" d="M154.626,189.793a12.5,12.5,0,0,1,12.5-12.5c.295,0,.586.011.876.031a12.5,12.5,0,0,0,0,24.941c-.289.02-.581.031-.876.031a12.5,12.5,0,0,1-12.5-12.5Z" transform="translate(-141.001 -163.666)" fill="#d1d1d6" fill-rule="evenodd"/>
          </g>
          <g id="Grupo_156782" data-name="Grupo 156782" transform="translate(41.428 41.339)">
            <path id="Trazado_599437" data-name="Trazado 599437" d="M374.17,360.226a24.139,24.139,0,0,1-4.075,4.486l11.079,10.86,4.218-4.346Z" transform="translate(-324.835 -316.777)" fill="#a79ba7" fill-rule="evenodd"/>
            <path id="Trazado_599438" data-name="Trazado 599438" d="M383.25,359.923a2.782,2.782,0,0,1-1.206,1.617l11.005,10.933L394.4,371Z" transform="translate(-333.84 -316.549)" fill="#837683" fill-rule="evenodd"/>
            <path id="Trazado_599439" data-name="Trazado 599439" d="M420.225,414.278l4.76-4.906a2.189,2.189,0,0,0-.047-3.086l-13.184-12.793a2.189,2.189,0,0,0-3.086.046l-4.76,4.906a2.189,2.189,0,0,0,.047,3.086l13.184,12.793A2.189,2.189,0,0,0,420.225,414.278Z" transform="translate(-349.857 -341.387)" fill="#ff6148" fill-rule="evenodd"/>
            <path id="Trazado_599440" data-name="Trazado 599440" d="M428.055,393.493l13.184,12.793a2.189,2.189,0,0,1,.047,3.086l-4.76,4.906a2.163,2.163,0,0,1-.591.432,2.191,2.191,0,0,0,2.542-.432l4.76-4.906a2.189,2.189,0,0,0-.047-3.086l-13.184-12.793a2.191,2.191,0,0,0-2.495-.386,2.161,2.161,0,0,1,.544.385Z" transform="translate(-368.108 -341.388)" fill="#e3a76f" fill-rule="evenodd"/>
            <circle id="Elipse_5040" data-name="Elipse 5040" cx="24.008" cy="24.008" r="24.008" transform="translate(0 44.366) rotate(-67.486)" fill="#2effc7"/>
            <path id="Trazado_599441" data-name="Trazado 599441" d="M310.032,213.693a24.008,24.008,0,1,1,0,48.015q-.586,0-1.166-.029a24.007,24.007,0,0,0,0-47.958q.579-.028,1.166-.029Z" transform="translate(-278.687 -206.338)" fill="#60b7ff" fill-rule="evenodd"/>
            <circle id="Elipse_5041" data-name="Elipse 5041" cx="17.239" cy="17.239" r="17.239" transform="translate(8.847 40.704) rotate(-67.486)" fill="#eceff1"/>
            <path id="Trazado_599442" data-name="Trazado 599442" d="M260.85,241.173c.392,0,.78.014,1.165.04a17.238,17.238,0,0,0,0,34.4c-.385.026-.774.04-1.165.04a17.239,17.239,0,1,1,0-34.478Z" transform="translate(-229.506 -227.049)" fill="#d1d1d6" fill-rule="evenodd"/>
          </g>
        </g>
        <path id="Trazado_599443" data-name="Trazado 599443" d="M127.23,117.218l-13.8-13.389a.307.307,0,0,0-.219-.086h-.006a.308.308,0,0,0-.219.094l-4.983,5.133a.323.323,0,0,0-.086.224.313.313,0,0,0,.094.222l13.8,13.389a.322.322,0,0,0,.444-.007l4.983-5.133A.326.326,0,0,0,127.23,117.218ZM102.387,122.9V105.7l-2.926-2.84q-.251.185-.5.362v17.609a1.972,1.972,0,0,1-1.971,1.971H19.5a1.97,1.97,0,0,1-1.971-1.971V27.439A1.972,1.972,0,0,1,19.5,25.468H35.862V22.037H17.425a3.333,3.333,0,0,0-3.33,3.33V122.9a3.333,3.333,0,0,0,3.33,3.33H99.057a3.332,3.332,0,0,0,3.33-3.33ZM37.833,32.614H78.65a1.969,1.969,0,0,0,1.97-1.971V29.409H95.014V59.021A25.385,25.385,0,0,0,84.746,56.7l-3.054-1.175a24.085,24.085,0,0,0-2.148-5.18l1.473-3.318a1.968,1.968,0,0,0-.407-2.192l-5-5a1.974,1.974,0,0,0-2.195-.409L70.1,40.9a24.207,24.207,0,0,0-5.178-2.148l-1.3-3.387a1.974,1.974,0,0,0-1.84-1.261H54.705a1.969,1.969,0,0,0-1.838,1.261l-1.305,3.387A24.133,24.133,0,0,0,46.385,40.9l-3.318-1.475a1.971,1.971,0,0,0-2.192.409l-5,5a1.971,1.971,0,0,0-.407,2.192l1.473,3.321a24.166,24.166,0,0,0-2.146,5.177l-3.387,1.3a1.969,1.969,0,0,0-1.264,1.837v7.072a1.974,1.974,0,0,0,1.264,1.84l3.387,1.3a24.3,24.3,0,0,0,2.146,5.18l-1.473,3.318a1.972,1.972,0,0,0,.407,2.192l5,5a1.97,1.97,0,0,0,2.192.409L46.387,83.5a24.325,24.325,0,0,0,5.176,2.148l1.305,3.387A1.969,1.969,0,0,0,54.705,90.3h5.41c.155.468.325.928.5,1.385H30.675a1.971,1.971,0,0,0,0,3.941H62.6a25.733,25.733,0,0,0,3.631,4.609H30.675a1.971,1.971,0,0,0,0,3.941h40.58a25.522,25.522,0,0,0,23.759,1.3v13.38H21.471V29.409H35.862v1.234a1.97,1.97,0,0,0,1.971,1.97ZM39.8,28.673V18.832h9.677a1.971,1.971,0,0,0,1.917-1.51,7.042,7.042,0,0,1,13.687,0A1.971,1.971,0,0,0,67,18.832h9.677v9.841H39.8ZM80.62,22.037H99.057a3.332,3.332,0,0,1,3.33,3.33v38.78a25.6,25.6,0,0,0-3.43-2.867V27.439a1.973,1.973,0,0,0-1.971-1.971H80.62ZM68.767,62.024a25.717,25.717,0,0,0-7.988,10.4,10.533,10.533,0,1,1,7.988-10.4ZM40.952,74.734a1.974,1.974,0,0,0-.123-1.833,20.308,20.308,0,0,1-2.468-5.953,1.976,1.976,0,0,0-1.209-1.385l-3.068-1.18V60.019l3.068-1.18a1.971,1.971,0,0,0,1.209-1.384A20.371,20.371,0,0,1,40.829,51.5a1.967,1.967,0,0,0,.123-1.833l-1.336-3L42.7,43.577l3.006,1.335a1.972,1.972,0,0,0,1.832-.123A20.256,20.256,0,0,1,53.5,42.321a1.975,1.975,0,0,0,1.382-1.209l1.18-3.067h4.366l1.18,3.067a1.973,1.973,0,0,0,1.384,1.209,20.3,20.3,0,0,1,5.951,2.468,1.975,1.975,0,0,0,1.833.123l3.008-1.335,3.086,3.086-1.336,3a1.972,1.972,0,0,0,.124,1.833,20.257,20.257,0,0,1,2.467,5.953s0,.008,0,.013a25.235,25.235,0,0,0-5.645,2.168A14.471,14.471,0,1,0,58.243,76.672c.4,0,.8-.015,1.2-.049a25.561,25.561,0,0,0-.293,9.734H56.059l-1.18-3.067A1.974,1.974,0,0,0,53.5,82.081a20.263,20.263,0,0,1-5.953-2.468,1.972,1.972,0,0,0-1.832-.123l-3.006,1.335-3.089-3.086ZM84.369,103.86a21.613,21.613,0,1,1,21.612-21.611A21.638,21.638,0,0,1,84.369,103.86Zm19.706-5.36,4.428,4.3-1.67,1.722-4.372-4.241q.849-.85,1.614-1.776Zm25.991,21.907-4.981,5.133a4.259,4.259,0,0,1-6.017.091l-12.74-12.36V122.9a7.279,7.279,0,0,1-7.27,7.271H17.425a7.278,7.278,0,0,1-7.27-7.271V25.367a7.278,7.278,0,0,1,7.27-7.271H35.862V16.862a1.97,1.97,0,0,1,1.971-1.971H48.046a10.988,10.988,0,0,1,20.392,0H78.65a1.969,1.969,0,0,1,1.97,1.971V18.1H99.057a7.279,7.279,0,0,1,7.27,7.271V69.194a25.512,25.512,0,0,1,.043,26.04l5.093,4.944a4.251,4.251,0,0,1,1.685-.377,4.2,4.2,0,0,1,3.027,1.2l13.8,13.389A4.261,4.261,0,0,1,130.066,120.408Zm-45.7-23.2A14.964,14.964,0,1,1,99.333,82.249,14.98,14.98,0,0,1,84.369,97.212Zm0,3.941a18.9,18.9,0,1,1,18.9-18.9A18.926,18.926,0,0,1,84.369,101.153ZM61.277,57.745a1.971,1.971,0,0,1,2.8,2.774L58,66.657a1.967,1.967,0,0,1-1.395.584h0a1.975,1.975,0,0,1-1.395-.576l-2.793-2.793A1.97,1.97,0,1,1,55.2,61.085l1.394,1.392Zm-30.6,55.995a1.971,1.971,0,0,1,0-3.941h54.5a1.971,1.971,0,1,1,0,3.941Zm29.95-96.383a2.383,2.383,0,1,0-2.383,2.384A2.386,2.386,0,0,0,60.625,17.357Z" transform="translate(0 0)" fill="#083142" fill-rule="evenodd"/>
      </g>
    </g>
  </g>
</svg>
