<svg xmlns="http://www.w3.org/2000/svg" width="181" height="182" viewBox="0 0 181 182">
  <g id="Grupo_157340" data-name="Grupo 157340" transform="translate(-290 -3084.2)">
    <ellipse id="Elipse_4990" data-name="Elipse 4990" cx="90.5" cy="91" rx="90.5" ry="91" transform="translate(290 3084.2)" fill="#ffb476"/>
    <g id="estrategia" transform="translate(320.004 3114.201)">
      <path id="Trazado_599405" data-name="Trazado 599405" d="M44.217,70.506V46.072A4.072,4.072,0,0,0,40.145,42H36.072A4.072,4.072,0,0,0,32,46.072V70.506Z" transform="translate(33.162 43.521)" fill="#e24c66"/>
      <path id="Trazado_599406" data-name="Trazado 599406" d="M54.217,78.8V38.072A4.072,4.072,0,0,0,50.145,34H46.072A4.072,4.072,0,0,0,42,38.072V78.8Z" transform="translate(43.523 35.231)" fill="#ff6148"/>
      <path id="Trazado_599407" data-name="Trazado 599407" d="M64.217,80.868v-44.8A4.072,4.072,0,0,0,60.145,32H56.072A4.072,4.072,0,0,0,52,36.072v44.8Z" transform="translate(53.885 33.159)" fill="#2effc7"/>
      <path id="Trazado_599408" data-name="Trazado 599408" d="M28.557,57.054l4.785-4.785,5.274,5.253a4.019,4.019,0,0,0,5.742,0L63.885,38.016l5.274,5.253a4.019,4.019,0,0,0,5.742,0L86.283,31.887v2.4a2.036,2.036,0,0,0,2.036,2.036h4.072a2.036,2.036,0,0,0,2.036-2.036V20.036A2.036,2.036,0,0,0,92.391,18H78.138A2.036,2.036,0,0,0,76.1,20.036v4.072a2.036,2.036,0,0,0,2.036,2.036h2.4L72.03,34.636l-5.274-5.253a4.019,4.019,0,0,0-5.742,0L41.487,48.889l-5.274-5.253a4.019,4.019,0,0,0-5.742,0L25.32,48.787l-.122.322a6.312,6.312,0,0,0,3.356,7.941Z" transform="translate(25.711 18.652)" fill="#3bcde5"/>
      <path id="Trazado_599409" data-name="Trazado 599409" d="M28,54H89.085a2.036,2.036,0,0,1,2.036,2.036v4.072a2.036,2.036,0,0,1-2.036,2.036H28Z" transform="translate(29.017 55.955)" fill="#44657a"/>
      <path id="Trazado_599410" data-name="Trazado 599410" d="M71.106,46.012l-1.955,2.342a9.845,9.845,0,0,1-11.952,2.5l-9.366-5.07a21.06,21.06,0,0,1-8.145,2.036,21.148,21.148,0,0,1-8.084-2c1.324.977,22.337,16.819,22.337,34.574,0,12.217-2.036,16.289-2.036,16.289v4.072H11.181V96.692C11.181,66.15,1,66.15,1,41.716,1,26.729,10.55,13.087,22.95,8.648A24.907,24.907,0,0,1,27.8,7.406a14.07,14.07,0,0,1,5.64-6.231A1.493,1.493,0,0,1,35.615,2.56V7.1a18.3,18.3,0,0,1,4.072.59,17.259,17.259,0,0,1,2.321.692,2,2,0,0,1,1.181,2.484l-1.466,4.378,7,1.4A3.944,3.944,0,0,1,51.9,20.519V23.39L70.434,38.906a5.025,5.025,0,0,1,.672,7.106Z" transform="translate(1.04 1.045)" fill="#e2ebef"/>
      <path id="Trazado_599411" data-name="Trazado 599411" d="M8.072,48H48.8a4.072,4.072,0,0,1,4.072,4.072v6.109H4V52.072A4.072,4.072,0,0,1,8.072,48Z" transform="translate(4.149 49.738)" fill="#d3dce0"/>
      <path id="Trazado_599412" data-name="Trazado 599412" d="M6.072,52H54.941a4.072,4.072,0,0,1,4.072,4.072v8.145a2.036,2.036,0,0,1-2.036,2.036H4.036A2.036,2.036,0,0,1,2,64.217V56.072A4.072,4.072,0,0,1,6.072,52Z" transform="translate(2.076 53.882)" fill="#bfcdd1"/>
      <path id="Trazado_599413" data-name="Trazado 599413" d="M118.1,34.616H103.849a4.072,4.072,0,0,0-4.072,4.072v4.072a4.072,4.072,0,0,0,2.076,3.549l-4.112,4.1L93.918,46.6a6.212,6.212,0,0,0-8.631,0L67.2,64.666l-3.822-3.81a6.208,6.208,0,0,0-8.631,0L51.43,64.171A69.511,69.511,0,0,0,40.45,50.906a21.787,21.787,0,0,0,8.332-1.8l8.538,4.622A11.81,11.81,0,0,0,71.746,50.7L73.7,48.36a7.057,7.057,0,0,0-.929-9.977l-17.792-14.9v-1.92A5.992,5.992,0,0,0,50.169,15.7l-4.738-.949.735-2.2a4.05,4.05,0,0,0-2.4-5.023,22.925,22.925,0,0,0-5.07-1.254V3.6A3.628,3.628,0,0,0,36.924.486,3.437,3.437,0,0,0,33.462.447a15.9,15.9,0,0,0-5.97,6.168C12.245,9.553,0,25.519,0,42.761A61.4,61.4,0,0,0,4.8,67.527a73.1,73.1,0,0,1,5.367,28.555,6.109,6.109,0,0,0-4.052,5.728v2.411a6.109,6.109,0,0,0-4.072,5.734V118.1a4.072,4.072,0,0,0,4.072,4.072H8.149a2.036,2.036,0,1,0,0-4.072H6.112v-8.145a2.036,2.036,0,0,1,2.036-2.036H57.017a2.036,2.036,0,0,1,2.036,2.036V118.1H16.293a2.036,2.036,0,1,0,0,4.072h42.76a4.058,4.058,0,0,0,3.506-2.036H118.1a4.072,4.072,0,0,0,4.072-4.072v-4.072a4.058,4.058,0,0,0-2.036-3.506V69.231a6.109,6.109,0,0,0-6.109-6.109h-4.072a6.109,6.109,0,0,0-6.109,6.109v38.687H99.777V73.3A6.109,6.109,0,0,0,93.668,67.2H89.6A6.109,6.109,0,0,0,83.487,73.3v34.615H79.415V89.593a6.109,6.109,0,0,0-6.109-6.109H69.234a6.109,6.109,0,0,0-6.109,6.109v18.326h-.375a6.109,6.109,0,0,0-3.7-3.7V101.81a6.109,6.109,0,0,0-3.494-5.5,59.75,59.75,0,0,0,1.458-14.864,25.948,25.948,0,0,0-.529-5.074L59.053,73.8l3.822,3.808a6.054,6.054,0,0,0,8.631,0L89.6,59.545l3.822,3.808a6.208,6.208,0,0,0,8.631,0l8.428-8.428a4.072,4.072,0,0,0,3.553,2.089H118.1a4.072,4.072,0,0,0,4.072-4.072V38.689a4.072,4.072,0,0,0-4.072-4.072ZM4.076,42.761c0-14.32,9.366-27.6,21.5-31.432a29.688,29.688,0,0,0-.91,4.63c-9.641,4.2-16.519,15.243-16.519,26.8a2.036,2.036,0,1,0,4.072,0c0-10.222,6.473-20.307,15.055-23.461A2.036,2.036,0,0,0,28.6,17.553a22.805,22.805,0,0,1,2.059-8.208A12.555,12.555,0,0,1,34.619,4.54v7.678a2.036,2.036,0,1,0,4.072,0V10.386a18.92,18.92,0,0,1,3.608.89l-1.466,4.378A2.036,2.036,0,0,0,42.364,18.3l7.006,1.407a1.91,1.91,0,0,1,1.535,1.871v2.857A2.036,2.036,0,0,0,51.635,26L70.179,41.525a2.987,2.987,0,0,1,.407,4.225L68.623,48.1a7.845,7.845,0,0,1-9.415,2.016l-9.366-5.07a2.048,2.048,0,0,0-1.879-.033,19.077,19.077,0,0,1-7.235,1.824,19.222,19.222,0,0,1-7.232-1.81,2.036,2.036,0,0,0-2.059,3.488c.874.65,21.508,16.067,21.508,32.937A53.614,53.614,0,0,1,51.5,95.7H14.239a77.094,77.094,0,0,0-5.626-29.6A57.941,57.941,0,0,1,4.076,42.761Zm6.109,61.085V101.81a2.036,2.036,0,0,1,2.036-2.036H52.944a2.036,2.036,0,0,1,2.036,2.036v2.036Zm52.941,12.217v-4.072H118.1v4.072Zm44.8-46.832a2.036,2.036,0,0,1,2.036-2.036h4.072a2.036,2.036,0,0,1,2.036,2.036v38.687h-8.145ZM87.559,73.3A2.036,2.036,0,0,1,89.6,71.267h4.072A2.036,2.036,0,0,1,95.7,73.3v34.615H87.559ZM67.2,89.593a2.036,2.036,0,0,1,2.036-2.036h4.072a2.036,2.036,0,0,1,2.036,2.036v18.326H67.2Zm50.9-36.651H114.03v-2.4a2.036,2.036,0,0,0-3.476-1.44L99.166,60.492a2.022,2.022,0,0,1-2.851-.012l-5.274-5.253a2.036,2.036,0,0,0-2.877,0L68.623,74.743a2.022,2.022,0,0,1-2.851-.01L60.5,69.48a2.036,2.036,0,0,0-2.877,0l-2.407,2.4a38,38,0,0,0-1.723-4.023l4.135-4.135a2.022,2.022,0,0,1,2.851,0l5.274,5.253a2.036,2.036,0,0,0,2.877,0L88.17,49.464a2.022,2.022,0,0,1,2.851.012l5.274,5.253a2.036,2.036,0,0,0,2.875,0l8.511-8.491a2.036,2.036,0,0,0-1.429-3.478h-2.4V38.689H118.1Z" transform="translate(0 0)" fill="#083142"/>
    </g>
  </g>
</svg>
