<svg xmlns="http://www.w3.org/2000/svg" width="85" height="81.147" viewBox="0 0 85 81.147">
  <g id="Grupo_157339" data-name="Grupo 157339" transform="translate(-390 -2100)">
    <rect id="Rectángulo_44582" data-name="Rectángulo 44582" width="85" height="81.147" rx="10" transform="translate(390 2100)" fill="#083142"/>
    <g id="programacion-web" transform="translate(404 2113)">
      <path id="Trazado_599518" data-name="Trazado 599518" d="M50.816,53.61H6.576A6.582,6.582,0,0,1,0,47.034V7.576A6.582,6.582,0,0,1,6.576,1h44.24a6.582,6.582,0,0,1,6.576,6.576V47.034A6.582,6.582,0,0,1,50.816,53.61ZM6.576,4.587A2.993,2.993,0,0,0,3.587,7.576V47.034a2.993,2.993,0,0,0,2.989,2.989h44.24a2.993,2.993,0,0,0,2.989-2.989V7.576a2.993,2.993,0,0,0-2.989-2.989Z" transform="translate(0)" fill="#fff"/>
      <path id="Trazado_599519" data-name="Trazado 599519" d="M55.6,8.087H1.794a1.794,1.794,0,0,1,0-3.587H55.6a1.794,1.794,0,1,1,0,3.587Z" transform="translate(0 4.87)" fill="#fff"/>
      <path id="Trazado_599520" data-name="Trazado 599520" d="M16.295,23.458a1.795,1.795,0,0,1-1.361-2.963l2.585-3.016-2.587-3.018a1.794,1.794,0,1,1,2.724-2.336l3.587,4.185a1.8,1.8,0,0,1,0,2.336l-3.587,4.185a1.786,1.786,0,0,1-1.361.627Z" transform="translate(20.174 14.608)" fill="#fff"/>
      <path id="Trazado_599521" data-name="Trazado 599521" d="M11.882,23.458a1.8,1.8,0,0,1-1.363-.627L6.931,18.647a1.8,1.8,0,0,1,0-2.336l3.587-4.185a1.794,1.794,0,0,1,2.724,2.336L10.657,17.48,13.245,20.5a1.792,1.792,0,0,1-1.363,2.961Z" transform="translate(9.043 14.608)" fill="#fff"/>
      <path id="Trazado_599522" data-name="Trazado 599522" d="M12.295,29.129a1.793,1.793,0,0,1-1.75-2.2L14.131,11.39a1.794,1.794,0,0,1,3.5.8L14.041,27.738a1.789,1.789,0,0,1-1.746,1.392Z" transform="translate(14.608 12.524)" fill="#fff"/>
    </g>
  </g>
</svg>
