<svg xmlns="http://www.w3.org/2000/svg" width="85" height="81.147" viewBox="0 0 85 81.147">
  <g id="Grupo_156811" data-name="Grupo 156811" transform="translate(-8312 8885)">
    <rect id="Rectángulo_44651" data-name="Rectángulo 44651" width="85" height="81.147" rx="10" transform="translate(8312 -8885)" fill="#083142"/>
    <g id="email" transform="translate(8326 -8873.005)">
      <path id="Trazado_599515" data-name="Trazado 599515" d="M57.437,22.784v-.005c0-.048,0-.1-.007-.143,0-.013,0-.026,0-.039q-.006-.056-.016-.11c0-.014,0-.027-.007-.041-.009-.044-.019-.088-.032-.131l0-.013c-.013-.044-.028-.088-.045-.13-.006-.016-.013-.032-.02-.049s-.025-.058-.039-.086-.016-.033-.024-.049c-.021-.039-.043-.078-.067-.116l-.028-.041q-.028-.041-.058-.081l-.033-.042c-.03-.036-.06-.071-.093-.1l-.008-.008c-.035-.035-.072-.069-.11-.1l-.014-.012L53.959,19.1V11.785a3.931,3.931,0,0,0-3.926-3.926H40.41L32.658,1.426a6.174,6.174,0,0,0-7.88,0L17.026,7.859H7.4a3.931,3.931,0,0,0-3.926,3.926V19.1L.608,21.484.594,21.5c-.038.032-.075.066-.11.1l-.008.008c-.032.033-.063.068-.093.1l-.033.042q-.03.04-.058.081l-.028.041c-.024.038-.046.076-.067.116-.009.016-.016.033-.024.049s-.027.057-.039.086-.014.032-.02.049c-.017.043-.032.086-.045.13l0,.013c-.012.043-.023.087-.032.131,0,.014-.005.027-.007.041q-.01.055-.016.11c0,.013,0,.026,0,.039,0,.047-.007.094-.007.142v.005H0V51.271a6.152,6.152,0,0,0,1.935,4.48c.034.034.068.067.1.1A6.145,6.145,0,0,0,6.17,57.44h45.1A6.145,6.145,0,0,0,55.4,55.848c.036-.03.069-.063.1-.1a6.152,6.152,0,0,0,1.935-4.481V22.785h0ZM7.4,11.224H50.033a.562.562,0,0,1,.561.561V24.875l-.952.79L30.509,41.542a2.806,2.806,0,0,1-3.582,0L7.8,25.665l-.952-.79V11.785a.562.562,0,0,1,.561-.561ZM3.365,51.271V26.362l.724.6h0L20.522,40.6,3.538,52.238a2.79,2.79,0,0,1-.172-.968Zm19.849-8.436,1.564,1.3a6.173,6.173,0,0,0,7.88,0l1.564-1.3,16.4,11.241H6.811Zm13.7-2.235L53.346,26.964h0l.724-.6V51.271a2.79,2.79,0,0,1-.172.968ZM26.927,4.016a2.806,2.806,0,0,1,3.582,0L35.14,7.859H22.3Z" fill="#fff"/>
      <path id="Trazado_599516" data-name="Trazado 599516" d="M131.5,151.678a1.683,1.683,0,0,0,1.683,1.683h15.93a1.683,1.683,0,1,0,0-3.365h-15.93A1.683,1.683,0,0,0,131.5,151.678Z" transform="translate(-116.748 -133.164)" fill="#fff"/>
      <path id="Trazado_599517" data-name="Trazado 599517" d="M133.183,213.36H157.75a1.683,1.683,0,0,0,0-3.365H133.183a1.683,1.683,0,0,0,0,3.365Z" transform="translate(-116.748 -186.433)" fill="#fff"/>
    </g>
  </g>
</svg>
