<svg xmlns="http://www.w3.org/2000/svg" width="181" height="182" viewBox="0 0 181 182">
  <g id="Grupo_157343" data-name="Grupo 157343" transform="translate(-8887 8393)">
    <ellipse id="Elipse_4992" data-name="Elipse 4992" cx="90.5" cy="91" rx="90.5" ry="91" transform="translate(8887 -8393)" fill="#ffb476"/>
    <g id="Layer_2" data-name="Layer 2" transform="translate(8921.5 -8356.805)">
      <path id="Trazado_599444" data-name="Trazado 599444" d="M67.528,2H8V111.9H85.844V20.316Z" transform="translate(19.685 1.79)" fill="#f1f2f2"/>
      <path id="Trazado_599445" data-name="Trazado 599445" d="M4.25,23.5H38.593V34.948H4.25Z" transform="translate(6.263 78.74)" fill="#0a879f"/>
      <path id="Trazado_599446" data-name="Trazado 599446" d="M10.729,23.5h5.82V34.948h-5.82Z" transform="translate(29.452 78.74)" fill="#037989"/>
      <path id="Trazado_599447" data-name="Trazado 599447" d="M7.309,21H44.477a4.309,4.309,0,0,1,4.309,4.309v7.139H3V25.309A4.309,4.309,0,0,1,7.309,21Z" transform="translate(1.79 69.792)" fill="#07d0b9"/>
      <path id="Trazado_599448" data-name="Trazado 599448" d="M15.637,21H11.058a4.313,4.313,0,0,1,4.314,4.313v7.134h4.579V25.313A4.313,4.313,0,0,0,15.637,21Z" transform="translate(30.63 69.792)" fill="#00ba9f"/>
      <path id="Trazado_599449" data-name="Trazado 599449" d="M21.623,56.791H10.175l-4.3-34.43a10.106,10.106,0,1,1,20.056,0Z" transform="translate(11.786 34.001)" fill="#0a879f"/>
      <path id="Trazado_599450" data-name="Trazado 599450" d="M10.147,11a10.033,10.033,0,0,0-2.747.43,10.074,10.074,0,0,1,7.267,10.93l-4.323,34.43h5.527l4.3-34.43A10.106,10.106,0,0,0,10.147,11Z" transform="translate(17.538 34.001)" fill="#037989"/>
      <path id="Trazado_599451" data-name="Trazado 599451" d="M24.579,2H20V21.3a3.6,3.6,0,0,0,3.6,3.6h13.71A1,1,0,0,1,38.316,25.9v86H42.9V20.316Z" transform="translate(62.634 1.79)" fill="#d1d3d4"/>
      <path id="Trazado_599452" data-name="Trazado 599452" d="M21,2V20.316H39.316" transform="translate(66.213 1.79)" fill="#f1f2f2"/>
      <circle id="Elipse_5042" data-name="Elipse 5042" cx="16.027" cy="16.027" r="16.027" transform="translate(59.739 31.264)" fill="#95d6a4"/>
      <path id="Trazado_599453" data-name="Trazado 599453" d="M20.29,8A16.429,16.429,0,0,0,18,8.229a15.954,15.954,0,0,1,0,31.6,16.43,16.43,0,0,0,2.29.229A16.027,16.027,0,1,0,20.29,8Z" transform="translate(55.476 23.264)" fill="#78c2a4"/>
      <g id="Grupo_156784" data-name="Grupo 156784" transform="translate(2.5 1.5)">
        <path id="Trazado_599454" data-name="Trazado 599454" d="M107.15,20.485,88.834,2.169A2.29,2.29,0,0,0,87.213,1.5H27.685A2.29,2.29,0,0,0,25.4,3.79V43.128a11.933,11.933,0,0,0-7,3.778,12.364,12.364,0,0,0-3.008,9.735L19.369,88.5H9.1a6.6,6.6,0,0,0-6.6,6.6v7.139a2.29,2.29,0,0,0,2.29,2.29H8.224v9.158a2.29,2.29,0,0,0,2.29,2.29h95.016a2.29,2.29,0,0,0,2.29-2.29V22.106a2.29,2.29,0,0,0-.669-1.621ZM89.5,9.316l10.5,10.5H89.5ZM19.928,56.074a7.83,7.83,0,0,1,1.9-6.141,8.082,8.082,0,0,1,11.722,0,7.83,7.83,0,0,1,1.9,6.141L31.389,88.5H23.98ZM7.079,95.1A2.024,2.024,0,0,1,9.1,93.082H46.271A2.024,2.024,0,0,1,48.291,95.1V99.95H7.079Zm20.606,16.3H12.8v-6.869H42.567V111.4Zm19.461,0v-6.869H50.58a2.29,2.29,0,0,0,2.29-2.29V95.1a6.6,6.6,0,0,0-6.6-6.6H36l3.984-31.861a12.364,12.364,0,0,0-3.008-9.735,11.933,11.933,0,0,0-7-3.778V6.079H84.924V22.106a2.29,2.29,0,0,0,2.29,2.29H103.24v87Z" transform="translate(-2.5 -1.5)" fill="#083142"/>
        <path id="Trazado_599455" data-name="Trazado 599455" d="M30.908,10.671l-7.537,7.542L20.413,15.25a2.292,2.292,0,0,0-3.242,3.242l4.579,4.579a2.29,2.29,0,0,0,3.242,0l9.158-9.158a2.292,2.292,0,1,0-3.242-3.242Z" transform="translate(47.605 28.92)" fill="#083142"/>
        <path id="Trazado_599456" data-name="Trazado 599456" d="M48.843,19.5H16.79a2.29,2.29,0,1,0,0,4.579H48.843a2.29,2.29,0,1,0,0-4.579Z" transform="translate(40.449 62.924)" fill="#083142"/>
        <path id="Trazado_599457" data-name="Trazado 599457" d="M48.843,17.5H16.79a2.29,2.29,0,0,0,0,4.579H48.843a2.29,2.29,0,1,0,0-4.579Z" transform="translate(40.449 55.765)" fill="#083142"/>
        <path id="Trazado_599458" data-name="Trazado 599458" d="M38.106,21.5H19.79a2.29,2.29,0,1,0,0,4.579H38.106a2.29,2.29,0,1,0,0-4.579Z" transform="translate(51.186 70.082)" fill="#083142"/>
        <path id="Trazado_599459" data-name="Trazado 599459" d="M32.816,7.5A18.316,18.316,0,1,0,51.133,25.816,18.316,18.316,0,0,0,32.816,7.5Zm0,32.054A13.737,13.737,0,1,1,46.554,25.816,13.737,13.737,0,0,1,32.816,39.554Z" transform="translate(40.449 19.975)" fill="#083142"/>
      </g>
    </g>
  </g>
</svg>
