<svg xmlns="http://www.w3.org/2000/svg" width="76.583" height="90" viewBox="0 0 76.583 90">
  <g id="sistema-de-gestion-de-contenidos" transform="translate(-38.164 0.002)">
    <g id="Grupo_156954" data-name="Grupo 156954" transform="translate(39.571 1.404)">
      <g id="Grupo_156951" data-name="Grupo 156951" transform="translate(0 20.094)">
        <path id="Trazado_600125" data-name="Trazado 600125" d="M190.053,403.123h23.184v11H190.053Z" transform="translate(-164.761 -353.762)" fill="#a79ba7" fill-rule="evenodd"/>
        <path id="Trazado_600126" data-name="Trazado 600126" d="M313.484,403.123h1.487v11h-1.487Z" transform="translate(-266.495 -353.762)" fill="#837683" fill-rule="evenodd"/>
        <path id="Trazado_600127" data-name="Trazado 600127" d="M113.433,467.766h50.12V463.9c0-2.125-2.176-3.864-4.836-3.864H118.269c-2.66,0-4.836,1.739-4.836,3.864Z" transform="translate(-101.609 -400.673)" fill="#eceff1" fill-rule="evenodd"/>
        <path id="Trazado_600128" data-name="Trazado 600128" d="M113.433,471.464h50.12V467.6a3.671,3.671,0,0,0-1.917-3.075,3.193,3.193,0,0,1,.43,1.588v3.864H113.433Z" transform="translate(-101.609 -404.371)" fill="#d1d1d6" fill-rule="evenodd"/>
        <path id="Trazado_600129" data-name="Trazado 600129" d="M51.84,122.312h62.426a5.688,5.688,0,0,1,5.671,5.671V167a5.688,5.688,0,0,1-5.671,5.671H51.84A5.688,5.688,0,0,1,46.169,167V127.983a5.688,5.688,0,0,1,5.671-5.671Z" transform="translate(-46.169 -122.312)" fill="#eceff1" fill-rule="evenodd"/>
        <path id="Trazado_600130" data-name="Trazado 600130" d="M122.106,127.95a5.676,5.676,0,0,1,2.478,4.68v39.013a5.688,5.688,0,0,1-5.671,5.671H56.488a5.676,5.676,0,0,1-4.68-2.478,5.63,5.63,0,0,0,3.193.991h62.426a5.688,5.688,0,0,0,5.671-5.671V131.143a5.631,5.631,0,0,0-.991-3.193Z" transform="translate(-50.817 -126.959)" fill="#d1d1d6" fill-rule="evenodd"/>
        <path id="Trazado_600131" data-name="Trazado 600131" d="M73.934,149.29h62.71a.789.789,0,0,1,.786.786V185.35H73.148V150.076A.789.789,0,0,1,73.934,149.29Z" transform="translate(-68.406 -144.548)" fill="#ff6148" fill-rule="evenodd"/>
        <path id="Trazado_600132" data-name="Trazado 600132" d="M415.244,149.29h3.363a.789.789,0,0,1,.786.786v35.274h-4.149Z" transform="translate(-350.368 -144.548)" fill="#e24c34" fill-rule="evenodd"/>
      </g>
      <g id="Grupo_156952" data-name="Grupo 156952" transform="translate(15.7)">
        <path id="Trazado_600133" data-name="Trazado 600133" d="M136.591,8h33.938a1.069,1.069,0,0,1,.783.324l6.216,6.216a1.07,1.07,0,0,1,.324.783V61.8a1.109,1.109,0,0,1-1.107,1.107H136.591a1.109,1.109,0,0,1-1.107-1.107V9.106A1.109,1.109,0,0,1,136.591,8Z" transform="translate(-135.484 -7.999)" fill="#eceff1" fill-rule="evenodd"/>
        <path id="Trazado_600134" data-name="Trazado 600134" d="M136.591,8h2.593V62.911h-2.593a1.109,1.109,0,0,1-1.107-1.107V9.105A1.109,1.109,0,0,1,136.591,8Z" transform="translate(-135.484 -7.998)" fill="#d1d1d6" fill-rule="evenodd"/>
        <path id="Trazado_600135" data-name="Trazado 600135" d="M337.462,8.545a1.105,1.105,0,0,1,.324.228L344,14.989a1.111,1.111,0,0,1,.228.324h-6.215a.555.555,0,0,1-.554-.554Z" transform="translate(-301.958 -8.449)" fill="#a79ba7" fill-rule="evenodd"/>
      </g>
      <g id="Grupo_156953" data-name="Grupo 156953" transform="translate(47.499 9.821)">
        <path id="Trazado_600136" data-name="Trazado 600136" d="M331.91,67.693a9.548,9.548,0,0,1,2.507,1.04l3.138-2.272,2.511,2.511-2.272,3.138a9.555,9.555,0,0,1,1.039,2.507l3.824.612v3.551l-3.824.612a9.553,9.553,0,0,1-1.039,2.507l2.272,3.138-2.511,2.511-3.138-2.272a9.552,9.552,0,0,1-2.507,1.039l-.612,3.824h-3.551l-.612-3.824a9.548,9.548,0,0,1-2.507-1.04l-3.138,2.272-2.511-2.511,2.272-3.138a9.559,9.559,0,0,1-1.039-2.507l-3.824-.612V75.228l3.824-.612a9.553,9.553,0,0,1,1.039-2.507l-2.272-3.138,2.511-2.511,3.138,2.272a9.557,9.557,0,0,1,2.507-1.039l.612-3.824H331.3Z" transform="translate(-316.388 -63.869)" fill="#2effc7" fill-rule="evenodd"/>
        <path id="Trazado_600137" data-name="Trazado 600137" d="M353.02,67.693a9.549,9.549,0,0,1,2.429.994.517.517,0,0,0,.078.046l-.6.437a17.173,17.173,0,0,0-3.333-1.476l-.612-3.824h1.43Zm4.815-.632.829-.6,2.511,2.511L358.9,72.109a9.555,9.555,0,0,1,1.039,2.507l3.824.612v3.551l-3.824.612A9.553,9.553,0,0,1,358.9,81.9l2.272,3.138-2.511,2.511-.829-.6,1.91-1.91L357.474,81.9a9.548,9.548,0,0,0,1.039-2.507l3.824-.612V75.228l-3.824-.612a9.554,9.554,0,0,0-1.039-2.507l2.272-3.138Zm-12.1,18.213L342.6,87.546l-.6-.6,2.912-2.108Q345.313,85.075,345.738,85.274ZM342,67.061l.6-.6,3.138,2.272q-.425.2-.826.437Zm13.449,18.258a9.543,9.543,0,0,1-2.429.994l-.612,3.824h-1.43l.612-3.824a17.173,17.173,0,0,0,3.333-1.476l.6.437A.506.506,0,0,0,355.449,85.319Z" transform="translate(-337.498 -63.869)" fill="#ffd064" fill-rule="evenodd"/>
        <circle id="Elipse_5718" data-name="Elipse 5718" cx="5.661" cy="5.661" r="5.661" transform="translate(5.12 13.139) rotate(-45)" fill="#eceff1"/>
        <path id="Trazado_600138" data-name="Trazado 600138" d="M364.567,106.385a5.712,5.712,0,0,1,.715.045,5.661,5.661,0,0,0,0,11.232,5.661,5.661,0,1,1-.715-11.277Z" transform="translate(-351.432 -98.912)" fill="#d1d1d6" fill-rule="evenodd"/>
      </g>
    </g>
    <path id="Trazado_600139" data-name="Trazado 600139" d="M96.364,24.359a3.839,3.839,0,1,0,3.839-3.84A3.845,3.845,0,0,0,96.364,24.359Zm3.839-6.652a6.652,6.652,0,1,1-6.65,6.652A6.662,6.662,0,0,1,100.2,17.707Zm11.733,48.476a4.272,4.272,0,0,1-4.27,4.264H45.245a4.272,4.272,0,0,1-4.27-4.264V27.169a4.273,4.273,0,0,1,4.27-4.265h8.623v1.93H45.1a2.2,2.2,0,0,0-2.189,2.192V62.3a1.408,1.408,0,0,0,1.41,1.407h64.277A1.408,1.408,0,0,0,110,62.3V35.124l1.741-1.739a2.266,2.266,0,0,0,.191-.24Zm-25.3,7.077H66.265v6.2H86.637Zm10.041,9.01H56.232c-1.857,0-3.433,1.125-3.433,2.458v2.458h47.313V84.727C100.111,83.395,98.536,82.269,96.679,82.269ZM55.27,57.723H97.641a1.405,1.405,0,0,0,1.4-1.406V38.9h2.935a1.405,1.405,0,0,0,1.393-1.184l.473-2.956a11.068,11.068,0,0,0,1.144-.475l2.206,1.6V60.9H45.718V27.647h8.151v28.67A1.4,1.4,0,0,0,55.27,57.723Zm1.41-2.812H96.231V34.632c-.274-.106-.547-.219-.8-.347L93,36.04a1.4,1.4,0,0,1-1.816-.144l-2.512-2.511a1.4,1.4,0,0,1-.141-1.819l1.75-2.425A9.682,9.682,0,0,1,89.8,28l-2.96-.473a1.4,1.4,0,0,1-1.177-1.389V22.584a1.4,1.4,0,0,1,1.177-1.389l2.96-.473a9.654,9.654,0,0,1,.473-1.145l-1.75-2.425a1.4,1.4,0,0,1,.141-1.819l2.512-2.51A1.4,1.4,0,0,1,93,12.678l2.429,1.756c.257-.128.531-.241.8-.348V9.675H90.775a1.407,1.407,0,0,1-1.41-1.406V2.811H56.679Zm35.5-48.048V4.8l2.065,2.063H92.176Zm7.031,8.409.423-2.64h1.152l.423,2.64a1.4,1.4,0,0,0,1.037,1.14,8.131,8.131,0,0,1,2.139.886,1.406,1.406,0,0,0,1.542-.07l2.164-1.569.821.815-1.575,2.167a1.408,1.408,0,0,0-.066,1.542,8.057,8.057,0,0,1,.887,2.138,1.391,1.391,0,0,0,1.136,1.041l2.645.422v1.153l-2.645.423a1.4,1.4,0,0,0-1.136,1.04,8.056,8.056,0,0,1-.887,2.138,1.408,1.408,0,0,0,.066,1.542l1.575,2.167-.821.815-2.164-1.569a1.408,1.408,0,0,0-1.542-.07,8.163,8.163,0,0,1-2.139.886,1.4,1.4,0,0,0-1.037,1.14l-.423,2.64H99.631l-.423-2.64a1.41,1.41,0,0,0-1.045-1.14,8.08,8.08,0,0,1-2.131-.886,1.406,1.406,0,0,0-1.542.07L92.317,33.06l-.813-.815,1.567-2.167a1.409,1.409,0,0,0,.075-1.542,8.04,8.04,0,0,1-.887-2.138,1.412,1.412,0,0,0-1.144-1.04l-2.637-.423V23.783l2.637-.423a1.41,1.41,0,0,0,1.144-1.04,8.04,8.04,0,0,1,.887-2.138,1.409,1.409,0,0,0-.075-1.542L91.5,16.474l.813-.815,2.172,1.569a1.4,1.4,0,0,0,1.542.07,8.08,8.08,0,0,1,2.131-.886A1.409,1.409,0,0,0,99.208,15.271ZM110.609,28a11.352,11.352,0,0,1-.481,1.145l1.758,2.425.05.07V27.784Zm4.138,38.187a7.087,7.087,0,0,1-7.081,7.077H89.457v6.2h7.222c3.441,0,6.244,2.364,6.244,5.269v3.865A1.408,1.408,0,0,1,101.513,90H51.4a1.408,1.408,0,0,1-1.41-1.406V84.727c0-2.905,2.8-5.269,6.244-5.269h7.222v-6.2H45.245a7.087,7.087,0,0,1-7.081-7.077V27.169a7.087,7.087,0,0,1,7.081-7.078h8.623V1.4A1.4,1.4,0,0,1,55.27,0H90.775A1.41,1.41,0,0,1,91.77.41l6.866,6.865a1.429,1.429,0,0,1,.406.994v1.55h2.935A1.405,1.405,0,0,1,103.37,11l.473,2.956a11.066,11.066,0,0,1,1.144.475l2.421-1.756a1.411,1.411,0,0,1,1.824.145l2.512,2.51a1.414,1.414,0,0,1,.141,1.819l-1.758,2.425a11.512,11.512,0,0,1,.481,1.145l2.952.473a1.41,1.41,0,0,1,1.186,1.389v43.6ZM63.918,12.414a1.406,1.406,0,1,1,0-2.812h18a1.406,1.406,0,0,1,0,2.812ZM88.992,46.551H63.918a1.406,1.406,0,1,0,0,2.812H88.992a1.406,1.406,0,1,0,0-2.812Zm0-7.39H63.918a1.406,1.406,0,1,0,0,2.812H88.992a1.406,1.406,0,1,0,0-2.812ZM63.918,34.584H82.856a1.406,1.406,0,0,0,0-2.813H63.918a1.406,1.406,0,1,0,0,2.813Zm0-7.39H82.856a1.406,1.406,0,0,0,0-2.812H63.918a1.406,1.406,0,1,0,0,2.812Zm-1.41-8.8a1.407,1.407,0,0,1,1.41-1.406H82.856a1.406,1.406,0,0,1,0,2.812H63.918a1.407,1.407,0,0,1-1.41-1.406Z" fill-rule="evenodd"/>
  </g>
</svg>
