<svg xmlns="http://www.w3.org/2000/svg" xmlns:xlink="http://www.w3.org/1999/xlink" width="1030.467" height="600.087" viewBox="0 0 1030.467 600.087">
  <defs>
    <clipPath id="clip-path">
      <path id="Rect치ngulo_45234" data-name="Rect치ngulo 45234" d="M55,0h960a15,15,0,0,1,15,15V545a55,55,0,0,1-55,55H15A15,15,0,0,1,0,585V55A55,55,0,0,1,55,0Z" fill="#8f52f5" stroke="#707070" stroke-width="1" opacity="0.094"/>
    </clipPath>
  </defs>
  <g id="Grupo_157319" data-name="Grupo 157319" transform="translate(19042 8267.087)">
    <rect id="Rect치ngulo_45235" data-name="Rect치ngulo 45235" width="1030" height="600" transform="translate(-19042 -8267)" fill="#ffe5cf"/>
    <g id="Enmascarar_grupo_326" data-name="Enmascarar grupo 326" transform="translate(-19041.533 -8267.087)" opacity="0.246" clip-path="url(#clip-path)">
      <g id="Grupo_157318" data-name="Grupo 157318" transform="translate(-94.329 -40.001)">
        <g id="Grupo_157317" data-name="Grupo 157317">
          <g id="Grupo_157316" data-name="Grupo 157316">
            <path id="Trazado_601071" data-name="Trazado 601071" d="M-179.286,6.6a3.324,3.324,0,0,1-2.333-3.352A3.17,3.17,0,0,1-178.8-.166a3.17,3.17,0,0,1,2.837,3.415A3.31,3.31,0,0,1-178.292,6.6V27.46l38.551,46.411v76.575h-.994V74.366l-38.551-46.411Zm2.333-3.352A2.052,2.052,0,0,0-178.8,1.031a2.052,2.052,0,0,0-1.829,2.218,2.15,2.15,0,0,0,1.339,2.107,1.289,1.289,0,0,0,.491.1,1.357,1.357,0,0,0,.5-.1A2.148,2.148,0,0,0-176.953,3.249Z" transform="translate(584.646 492.3)" fill="#eea263"/>
            <path id="Trazado_601072" data-name="Trazado 601072" d="M-170.365,128.951a2.044,2.044,0,0,1,1.259-.45,2.6,2.6,0,0,1,2.331,2.806,2.6,2.6,0,0,1-2.331,2.806,2.6,2.6,0,0,1-2.331-2.806,3.207,3.207,0,0,1,.37-1.508l-14.129-17.01V67.16a3.324,3.324,0,0,1-2.333-3.352,3.17,3.17,0,0,1,2.824-3.415,3.17,3.17,0,0,1,2.837,3.415A3.309,3.309,0,0,1-184.2,67.16v45.134Zm-12.5-65.143a2.052,2.052,0,0,0-1.843-2.218,2.052,2.052,0,0,0-1.829,2.218,2.151,2.151,0,0,0,1.339,2.107,1.289,1.289,0,0,0,.491.1,1.357,1.357,0,0,0,.5-.1A2.147,2.147,0,0,0-182.863,63.808Z" transform="translate(582.721 411.982)" fill="#eea263"/>
            <path id="Trazado_601073" data-name="Trazado 601073" d="M-154.528,73.923h-15.1l-23.982-28.855V17.6a3.306,3.306,0,0,1-2.32-3.367,3.155,3.155,0,0,1,2.824-3.4,3.164,3.164,0,0,1,2.824,3.4,3.331,3.331,0,0,1-2.333,3.367V44.573l23.4,28.153h15.1l10,12.05V134.33a3.311,3.311,0,0,1,2.333,3.352,3.154,3.154,0,0,1-2.824,3.4,3.155,3.155,0,0,1-2.837-3.4,3.3,3.3,0,0,1,2.333-3.352V85.27Zm-36.748-59.689a2.046,2.046,0,0,0-1.829-2.2,2.046,2.046,0,0,0-1.829,2.2,2.163,2.163,0,0,0,1.326,2.123,1.357,1.357,0,0,0,.5.1,1.289,1.289,0,0,0,.49-.1A2.158,2.158,0,0,0-191.276,14.233Zm44.821,123.448a2.047,2.047,0,0,0,1.843,2.2,2.046,2.046,0,0,0,1.829-2.2,2.151,2.151,0,0,0-1.339-2.107,1.289,1.289,0,0,0-.49-.1,1.356,1.356,0,0,0-.5.1A2.148,2.148,0,0,0-146.454,137.682Z" transform="translate(579.985 484.108)" fill="#eea263"/>
            <path id="Trazado_601074" data-name="Trazado 601074" d="M-281.006,127.433v93.625l71.678,86.292-.7.846L-282,221.554V127.928L-401.591-16.046h-84.041v-1.2h84.452Z" transform="translate(485.632 361.804)" fill="#eea263"/>
            <path id="Trazado_601075" data-name="Trazado 601075" d="M-321.512-6.906l45.585,54.879a2.048,2.048,0,0,1,1.251-.444,2.6,2.6,0,0,1,2.331,2.806,2.6,2.6,0,0,1-2.331,2.806,2.6,2.6,0,0,1-2.331-2.806,3.212,3.212,0,0,1,.374-1.518L-320.518-4.016V42.928l64.353,77.475-.7.846-64.644-77.824Z" transform="translate(539.084 532.253)" fill="#eea263"/>
            <path id="Trazado_601076" data-name="Trazado 601076" d="M-245.2-4.589l33.765,40.649h42.682a2.463,2.463,0,0,1,2.259-2.145,2.6,2.6,0,0,1,2.331,2.806,2.6,2.6,0,0,1-2.331,2.806,2.493,2.493,0,0,1-2.287-2.269h-43.065L-245.612-3.392h-19.11l54.633,65.772-.7.846-56.33-67.814Z" transform="translate(556.799 586.579)" fill="#eea263"/>
            <path id="Trazado_601077" data-name="Trazado 601077" d="M-251.6,2.253a2.018,2.018,0,0,1-1.181.4,2.6,2.6,0,0,1-2.331-2.806,2.6,2.6,0,0,1,2.331-2.806,2.6,2.6,0,0,1,2.331,2.806,3.2,3.2,0,0,1-.416,1.6l35.31,42.507h54.419l20.53,24.718v34.759h-.994V69.164l-19.948-24.016h-54.418Z" transform="translate(560.708 543.773)" fill="#eea263"/>
            <path id="Trazado_601078" data-name="Trazado 601078" d="M-383.956,25.371a2.735,2.735,0,0,1-1.833-2.739,2.6,2.6,0,0,1,2.331-2.806,2.6,2.6,0,0,1,2.331,2.806,2.736,2.736,0,0,1-1.833,2.739V133.535l12.231-14.724V87.163l-7.2-8.682V52.53a3.279,3.279,0,0,1-2.346-3.352,3.164,3.164,0,0,1,2.824-3.4,3.165,3.165,0,0,1,2.837,3.4,3.314,3.314,0,0,1-2.32,3.352V77.986l7.2,8.682v32.638l-13.225,15.921v28.352L-412.719,199.4l-.7-.846,29.466-35.474Zm8.347,23.807a2.047,2.047,0,0,0-1.843-2.2,2.046,2.046,0,0,0-1.829,2.2,2.165,2.165,0,0,0,1.352,2.123,1.661,1.661,0,0,0,.477.08,1.375,1.375,0,0,0,.517-.1A2.187,2.187,0,0,0-375.609,49.179Z" transform="translate(509.15 411.435)" fill="#eea263"/>
            <path id="Trazado_601079" data-name="Trazado 601079" d="M-330.125,236.247h71.049a2.467,2.467,0,0,1,2.263-2.161,2.6,2.6,0,0,1,2.331,2.806,2.6,2.6,0,0,1-2.331,2.806,2.487,2.487,0,0,1-2.284-2.253h-71.439L-395.114,159.7h-90.518v-1.2h90.93Z" transform="translate(485.632 149.816)" fill="#eea263"/>
            <path id="Trazado_601080" data-name="Trazado 601080" d="M-248.934,154.06a2.478,2.478,0,0,1,2.275-2.207,2.6,2.6,0,0,1,2.331,2.806,2.6,2.6,0,0,1-2.331,2.806,2.479,2.479,0,0,1-2.275-2.207h-12.675l-33.454-40.274h-54.316l27.566,33.188a2.056,2.056,0,0,1,1.293-.472,2.6,2.6,0,0,1,2.331,2.806,2.6,2.6,0,0,1-2.331,2.806,2.6,2.6,0,0,1-2.331-2.806,3.2,3.2,0,0,1,.353-1.467l-29.282-35.252h57.129L-261.2,154.06Z" transform="translate(529.227 303.417)" fill="#eea263"/>
            <path id="Trazado_601081" data-name="Trazado 601081" d="M-304.783,116.8l17.738,21.354h.013a2.375,2.375,0,0,1,1.538-.575,3.155,3.155,0,0,1,2.824,3.4,3.161,3.161,0,0,1-2.824,3.415,3.17,3.17,0,0,1-2.824-3.415,3.854,3.854,0,0,1,.557-2.011L-305.194,118h-27.415l17.181,20.668a2.514,2.514,0,0,1,1.67-.67,3.155,3.155,0,0,1,2.837,3.4,3.165,3.165,0,0,1-2.837,3.4,3.164,3.164,0,0,1-2.824-3.4,3.894,3.894,0,0,1,.464-1.867L-335.009,116.8Zm17.459,24.179a2.052,2.052,0,0,0,1.829,2.218,2.052,2.052,0,0,0,1.829-2.218,2.046,2.046,0,0,0-1.829-2.2,1.517,1.517,0,0,0-.822.239,1.883,1.883,0,0,0-.729.814A2.535,2.535,0,0,0-287.324,140.983Zm-28.264.415a2.046,2.046,0,0,0,1.829,2.2,2.047,2.047,0,0,0,1.843-2.2,2.047,2.047,0,0,0-1.843-2.2,1.608,1.608,0,0,0-.954.335,1.961,1.961,0,0,0-.676.878A2.463,2.463,0,0,0-315.588,141.4Z" transform="translate(534.688 311.267)" fill="#eea263"/>
            <path id="Trazado_601082" data-name="Trazado 601082" d="M-374.024,39.623v18.51L-390.4,77.848a3.205,3.205,0,0,1,.372,1.511,2.6,2.6,0,0,1-2.331,2.806,2.6,2.6,0,0,1-2.331-2.806,2.6,2.6,0,0,1,2.331-2.806A2.041,2.041,0,0,1-391.1,77l16.086-19.366V40.119l-5.388-6.486V53.875l-15.545,18.714a3.212,3.212,0,0,1,.37,1.508,2.6,2.6,0,0,1-2.331,2.806,2.6,2.6,0,0,1-2.331-2.806,2.6,2.6,0,0,1,2.331-2.806,2.041,2.041,0,0,1,1.259.45l.007-.008,15.245-18.37V27.685a3.316,3.316,0,0,1-2.333-3.367,3.165,3.165,0,0,1,2.837-3.4,3.164,3.164,0,0,1,2.824,3.4,3.331,3.331,0,0,1-2.333,3.367v4.256Zm-5.043-15.305a2.046,2.046,0,0,0-1.829-2.2,2.047,2.047,0,0,0-1.843,2.2A2.155,2.155,0,0,0-381.4,26.44a1.357,1.357,0,0,0,.5.1,1.29,1.29,0,0,0,.491-.1A2.158,2.158,0,0,0-379.067,24.317Z" transform="translate(513.443 526.931)" fill="#eea263"/>
            <path id="Trazado_601083" data-name="Trazado 601083" d="M-105.2,99.834V224.591h-.994V100.329l-34.335-41.337V5.378a2.736,2.736,0,0,1-1.835-2.739A2.6,2.6,0,0,1-140.03-.166,2.6,2.6,0,0,1-137.7,2.64a2.735,2.735,0,0,1-1.832,2.739V58.5Z" transform="translate(597.431 418.154)" fill="#eea263"/>
            <path id="Trazado_601084" data-name="Trazado 601084" d="M-178.918,294.665a3.155,3.155,0,0,1-2.824-3.4,3.849,3.849,0,0,1,.5-1.947l-62.042-74.691h-75.352L-383.776,136.2H-485.629V135h102.264l65.144,78.426h75.352l62.347,75.043a2.4,2.4,0,0,1,1.6-.622,3.161,3.161,0,0,1,2.824,3.415A3.155,3.155,0,0,1-178.918,294.665Zm1.021-5.235a1.619,1.619,0,0,0-1.021-.383,1.5,1.5,0,0,0-.888.287l.013.016a1.971,1.971,0,0,0-.8,1.053.067.067,0,0,0-.013.048,2.092,2.092,0,0,0-.146.814,2.52,2.52,0,0,0,.318,1.229,1.945,1.945,0,0,0,.491.59,1.619,1.619,0,0,0,1.021.383,1.619,1.619,0,0,0,1.021-.383,1.687,1.687,0,0,0,.278-.271,2.489,2.489,0,0,0,.53-1.548A2.353,2.353,0,0,0-177.9,289.43Z" transform="translate(485.633 132.353)" fill="#eea263"/>
            <path id="Trazado_601085" data-name="Trazado 601085" d="M-196.783,178.24l11.457,13.792a2.047,2.047,0,0,1,1.27-.458,2.6,2.6,0,0,1,2.331,2.806,2.6,2.6,0,0,1-2.331,2.806,2.6,2.6,0,0,1-2.331-2.806,3.2,3.2,0,0,1,.365-1.492l-11.755-14.151V122.775l-12.583-15.151h-37.131l-34.63-41.69a2.044,2.044,0,0,1-1.255.448,2.6,2.6,0,0,1-2.331-2.806,2.6,2.6,0,0,1,2.331-2.806,2.6,2.6,0,0,1,2.331,2.806,3.206,3.206,0,0,1-.372,1.511l34.338,41.339h37.131l13.167,15.851Z" transform="translate(550.745 348.304)" fill="#eea263"/>
            <path id="Trazado_601086" data-name="Trazado 601086" d="M-328.49,270.268h71.151a2.559,2.559,0,0,1,2.315-2.614,2.6,2.6,0,0,1,2.331,2.806,2.6,2.6,0,0,1-2.331,2.806,2.385,2.385,0,0,1-2.169-1.8H-328.9l-50.029-60.229h-106.7v-1.2h107.114Z" transform="translate(485.632 33.999)" fill="#eea263"/>
            <path id="Trazado_601087" data-name="Trazado 601087" d="M-347.388,243.878a3.051,3.051,0,0,1-2.784,2.809,3.17,3.17,0,0,1-2.837-3.415,3.165,3.165,0,0,1,2.837-3.4,3.065,3.065,0,0,1,2.784,2.809h87.641l-35.727-43.011h-21.582a3.051,3.051,0,0,1-2.784,2.809,3.17,3.17,0,0,1-2.837-3.415,3.165,3.165,0,0,1,2.837-3.4,3.065,3.065,0,0,1,2.784,2.809h21.993l37.716,45.405Zm-1.034-1.2a1.9,1.9,0,0,0-1.75-1.612,2.047,2.047,0,0,0-1.843,2.2,2.063,2.063,0,0,0,1.843,2.218,1.914,1.914,0,0,0,1.75-1.612,2.291,2.291,0,0,0,.08-.606A2.173,2.173,0,0,0-348.422,242.681Zm30.332-44.208a2.076,2.076,0,0,0-.49-.989.917.917,0,0,0-.2-.207,1.768,1.768,0,0,0-.716-.367,1.214,1.214,0,0,0-.345-.048h-.013a2.052,2.052,0,0,0-1.829,2.218,2.349,2.349,0,0,0,.544,1.548,1.513,1.513,0,0,0,.265.271,1.592,1.592,0,0,0,1.021.383h.013a1.379,1.379,0,0,0,.358-.048.918.918,0,0,0,.345-.128,1.173,1.173,0,0,0,.318-.207,1.251,1.251,0,0,0,.252-.239,2.05,2.05,0,0,0,.371-.654,3.236,3.236,0,0,0,.106-.335,2.171,2.171,0,0,0,.08-.591A2.289,2.289,0,0,0-318.09,198.473Z" transform="translate(528.826 83.519)" fill="#eea263"/>
            <path id="Trazado_601088" data-name="Trazado 601088" d="M-233.545,208.368h20.031a3.054,3.054,0,0,1,2.784-2.809,3.155,3.155,0,0,1,2.824,3.4,3.161,3.161,0,0,1-2.824,3.415,3.04,3.04,0,0,1-2.784-2.809h-20.442L-251,189.041V172.762l-18.361-22.12h-15.477a2.481,2.481,0,0,1-2.277,2.214,2.6,2.6,0,0,1-2.331-2.806,2.6,2.6,0,0,1,2.331-2.806,2.477,2.477,0,0,1,2.274,2.2h15.892l32.174,38.75h13.018a3.052,3.052,0,0,1,2.8-2.809,3.17,3.17,0,0,1,2.824,3.415,3.164,3.164,0,0,1-2.824,3.4,3.066,3.066,0,0,1-2.8-2.809H-237.19l-12.819-15.433v14.587Zm22.815,2.809a2.052,2.052,0,0,0,1.829-2.218,2.046,2.046,0,0,0-1.829-2.2,1.9,1.9,0,0,0-1.75,1.612,2.174,2.174,0,0,0-.08.591,2.292,2.292,0,0,0,.08.606A1.9,1.9,0,0,0-210.729,211.177ZM-220.964,191a2.046,2.046,0,0,0,1.829-2.2,2.052,2.052,0,0,0-1.829-2.218,1.911,1.911,0,0,0-1.763,1.612,2.293,2.293,0,0,0-.08.606,2.175,2.175,0,0,0,.08.591A1.927,1.927,0,0,0-220.964,191Z" transform="translate(549.526 195.109)" fill="#eea263"/>
            <path id="Trazado_601089" data-name="Trazado 601089" d="M-308.839,182.465a3.04,3.04,0,0,1,2.784-2.809,3.17,3.17,0,0,1,2.824,3.415,3.164,3.164,0,0,1-2.824,3.4,3.054,3.054,0,0,1-2.784-2.809h-53.346l-12.553-15.114a2.032,2.032,0,0,1-1.253.447,2.6,2.6,0,0,1-2.331-2.806,2.6,2.6,0,0,1,2.331-2.806,2.6,2.6,0,0,1,2.331,2.806,3.2,3.2,0,0,1-.374,1.515l12.273,14.761Zm2.784,2.809a2.046,2.046,0,0,0,1.829-2.2,2.052,2.052,0,0,0-1.829-2.218,1.9,1.9,0,0,0-1.75,1.612,2.292,2.292,0,0,0-.08.606,2.175,2.175,0,0,0,.08.591A1.9,1.9,0,0,0-306.055,185.274Z" transform="translate(520.582 195.253)" fill="#eea263"/>
            <path id="Trazado_601090" data-name="Trazado 601090" d="M-323.081,346.22v54.806l32.585,39.231a2.045,2.045,0,0,1,1.257-.448,2.6,2.6,0,0,1,2.331,2.806,2.6,2.6,0,0,1-2.331,2.806,2.6,2.6,0,0,1-2.331-2.806,3.209,3.209,0,0,1,.371-1.511l-32.877-39.58V346.714l-46.17-55.581h-63.348v-1.2h63.76Z" transform="translate(502.581 -265.668)" fill="#eea263"/>
            <path id="Trazado_601091" data-name="Trazado 601091" d="M-354.208,372.439l30.186,36.34a2.4,2.4,0,0,1,1.6-.622,3.155,3.155,0,0,1,2.824,3.4,3.161,3.161,0,0,1-2.824,3.415,3.161,3.161,0,0,1-2.824-3.415,3.936,3.936,0,0,1,.5-1.947L-355.2,372.934V318.7l-22.126-26.637a2.411,2.411,0,0,1-1.617.623,3.161,3.161,0,0,1-2.824-3.415,3.155,3.155,0,0,1,2.824-3.4,3.155,3.155,0,0,1,2.824,3.4,3.848,3.848,0,0,1-.5,1.947l22.417,26.988Zm29.961,39.117a2.052,2.052,0,0,0,1.829,2.218,2.052,2.052,0,0,0,1.829-2.218,2.046,2.046,0,0,0-1.829-2.2,1.5,1.5,0,0,0-.888.287,2.013,2.013,0,0,0-.7.846A2.4,2.4,0,0,0-324.247,411.557Zm-52.868-122.283a2.046,2.046,0,0,0-1.829-2.2,2.046,2.046,0,0,0-1.829,2.2,2.052,2.052,0,0,0,1.829,2.218,1.415,1.415,0,0,0,.888-.3,1.76,1.76,0,0,0,.7-.846A2.4,2.4,0,0,0-377.116,289.273Z" transform="translate(519.459 -228.738)" fill="#eea263"/>
            <path id="Trazado_601092" data-name="Trazado 601092" d="M-264.762,288.334a2.042,2.042,0,0,1,1.253-.447,2.6,2.6,0,0,1,2.331,2.806,2.6,2.6,0,0,1-2.331,2.806,2.6,2.6,0,0,1-2.331-2.806,3.2,3.2,0,0,1,.374-1.515l-32.239-38.811V207.58a3.3,3.3,0,0,1-2.333-3.352,3.155,3.155,0,0,1,2.837-3.4,3.154,3.154,0,0,1,2.824,3.4,3.311,3.311,0,0,1-2.333,3.352v42.293Zm-30.61-84.106a2.046,2.046,0,0,0-1.829-2.2,2.047,2.047,0,0,0-1.843,2.2,2.148,2.148,0,0,0,1.339,2.107,1.357,1.357,0,0,0,.5.1,1.289,1.289,0,0,0,.491-.1A2.151,2.151,0,0,0-295.373,204.228Z" transform="translate(546.078 28.464)" fill="#eea263"/>
            <path id="Trazado_601093" data-name="Trazado 601093" d="M-420.409,339.111v-1.2h40.659l24.6,29.637a2.469,2.469,0,0,1,1.6-.606,3.155,3.155,0,0,1,2.824,3.4,3.145,3.145,0,0,1-2.824,3.4,3.145,3.145,0,0,1-2.824-3.4,3.725,3.725,0,0,1,.517-1.947l-24.313-29.286Zm65.038,31.233a2.046,2.046,0,0,0,1.829,2.2,2.046,2.046,0,0,0,1.829-2.2,2.046,2.046,0,0,0-1.829-2.2,1.433,1.433,0,0,0-.875.287,1.691,1.691,0,0,0-.7.846A2.239,2.239,0,0,0-355.371,370.344Z" transform="translate(506.875 -270.564)" fill="#eea263"/>
            <path id="Trazado_601094" data-name="Trazado 601094" d="M-388.909,242.577h-26.149v-1.2H-388.5l34.84,41.942h17.6a2.478,2.478,0,0,1,2.275-2.207,2.6,2.6,0,0,1,2.331,2.806,2.6,2.6,0,0,1-2.331,2.806,2.477,2.477,0,0,1-2.275-2.207h-18.009Z" transform="translate(508.617 -29.481)" fill="#eea263"/>
            <path id="Trazado_601095" data-name="Trazado 601095" d="M-337.792,282.552h-23.889a3.04,3.04,0,0,1-2.784,2.809,3.17,3.17,0,0,1-2.824-3.415,3.164,3.164,0,0,1,2.824-3.4,3.054,3.054,0,0,1,2.784,2.809H-338.2l12.965-15.625-20.283-24.418a2.421,2.421,0,0,1-1.485.527,3.165,3.165,0,0,1-2.837-3.4,3.17,3.17,0,0,1,2.837-3.415,3.17,3.17,0,0,1,2.824,3.415,3.825,3.825,0,0,1-.6,2.075l20.946,25.216Zm-26.673-2.809a2.046,2.046,0,0,0-1.829,2.2,2.052,2.052,0,0,0,1.829,2.218,1.9,1.9,0,0,0,1.75-1.612,2.294,2.294,0,0,0,.08-.606,2.176,2.176,0,0,0-.08-.59A1.9,1.9,0,0,0-364.465,279.743Zm19.289-41.3a2.052,2.052,0,0,0-1.829-2.218,2.052,2.052,0,0,0-1.843,2.218,2.047,2.047,0,0,0,1.843,2.2,1.433,1.433,0,0,0,.756-.207,1.7,1.7,0,0,0,.756-.782A2.326,2.326,0,0,0-345.177,238.439Z" transform="translate(524.175 -17.972)" fill="#eea263"/>
            <path id="Trazado_601096" data-name="Trazado 601096" d="M-353.991,298.833V326.6l16.6,19.994a2.041,2.041,0,0,1,1.259-.45,2.6,2.6,0,0,1,2.331,2.806,2.6,2.6,0,0,1-2.331,2.806,2.6,2.6,0,0,1-2.331-2.806,3.22,3.22,0,0,1,.37-1.507h0L-354.985,327.1v-27.77l-22.47-27.052v-18a3.311,3.311,0,0,1-2.333-3.352,3.154,3.154,0,0,1,2.824-3.4,3.145,3.145,0,0,1,2.824,3.4,3.286,3.286,0,0,1-2.32,3.352v17.508Zm-21.145-47.911a2.046,2.046,0,0,0-1.829-2.2,2.046,2.046,0,0,0-1.83,2.2,2.151,2.151,0,0,0,1.339,2.107,1.289,1.289,0,0,0,.491.1,1.356,1.356,0,0,0,.5-.1A2.156,2.156,0,0,0-375.136,250.921Z" transform="translate(520.104 -104.316)" fill="#eea263"/>
            <path id="Trazado_601097" data-name="Trazado 601097" d="M-358.2,320.512v28.472l9.346,11.252a2.462,2.462,0,0,1,1.617-.622,3.17,3.17,0,0,1,2.824,3.415,3.164,3.164,0,0,1-2.824,3.4,3.165,3.165,0,0,1-2.837-3.4,3.726,3.726,0,0,1,.517-1.947l-9.638-11.6V321.007l-23.836-28.7V256.035a3.3,3.3,0,0,1-2.333-3.352,3.145,3.145,0,0,1,2.824-3.4,3.145,3.145,0,0,1,2.824,3.4,3.286,3.286,0,0,1-2.32,3.352v35.782Zm9.121,42.517a2.047,2.047,0,0,0,1.843,2.2,2.046,2.046,0,0,0,1.829-2.2,2.052,2.052,0,0,0-1.829-2.218,1.511,1.511,0,0,0-.9.287,2.013,2.013,0,0,0-.7.846A2.416,2.416,0,0,0-349.075,363.029Zm-31.631-110.345a2.046,2.046,0,0,0-1.829-2.2,2.046,2.046,0,0,0-1.829,2.2,2.151,2.151,0,0,0,1.339,2.107,1.289,1.289,0,0,0,.491.1,1.356,1.356,0,0,0,.5-.1A2.156,2.156,0,0,0-380.706,252.683Z" transform="translate(518.29 -121.798)" fill="#eea263"/>
            <path id="Trazado_601098" data-name="Trazado 601098" d="M-398.19,8.267a2.739,2.739,0,0,1-1.829-2.737,2.6,2.6,0,0,1,2.331-2.806,2.6,2.6,0,0,1,2.331,2.806A2.735,2.735,0,0,1-397.2,8.268v7.9l7.331,8.81h14.49a3.035,3.035,0,0,1,2.784-2.793,3.155,3.155,0,0,1,2.837,3.4,3.155,3.155,0,0,1-2.837,3.4,3.051,3.051,0,0,1-2.784-2.809h-14.9l-7.914-9.512Zm25.6,19.517a2.047,2.047,0,0,0,1.843-2.2,2.047,2.047,0,0,0-1.843-2.2,1.9,1.9,0,0,0-1.75,1.6,2.291,2.291,0,0,0-.08.606,2.174,2.174,0,0,0,.08.591A1.9,1.9,0,0,0-372.591,27.784Z" transform="translate(513.515 609.152)" fill="#eea263"/>
            <path id="Trazado_601099" data-name="Trazado 601099" d="M-245.872,478.133a3.154,3.154,0,0,1-2.824-3.4,3.726,3.726,0,0,1,.517-1.947l-56.183-67.621V349.737l-60.451-72.776h-68.777v-1.2H-364.4l61.035,73.479v55.428l55.891,67.27a2.523,2.523,0,0,1,1.6-.606,3.145,3.145,0,0,1,2.824,3.4A3.145,3.145,0,0,1-245.872,478.133Zm0-5.6a1.433,1.433,0,0,0-.875.287,1.691,1.691,0,0,0-.7.846,2.239,2.239,0,0,0-.252,1.069,2.046,2.046,0,0,0,1.829,2.2,2.046,2.046,0,0,0,1.829-2.2A2.046,2.046,0,0,0-245.872,472.531Z" transform="translate(502.582 -275.764)" fill="#eea263"/>
            <path id="Trazado_601100" data-name="Trazado 601100" d="M-318.009,53.277a3.155,3.155,0,0,1,2.824-3.4,3.155,3.155,0,0,1,2.824,3.4,3.953,3.953,0,0,1-.5,1.963l65.883,79.3a2.021,2.021,0,0,1,1.172-.393,2.6,2.6,0,0,1,2.331,2.806,2.6,2.6,0,0,1-2.331,2.806,2.6,2.6,0,0,1-2.331-2.806,3.189,3.189,0,0,1,.424-1.606l0,0-65.86-79.272a2.4,2.4,0,0,1-1.6.622A3.161,3.161,0,0,1-318.009,53.277Zm4.415,1.085a2.417,2.417,0,0,0,.239-1.085,2.046,2.046,0,0,0-1.83-2.2,2.046,2.046,0,0,0-1.829,2.2,2.052,2.052,0,0,0,1.829,2.218,1.5,1.5,0,0,0,.888-.287A1.922,1.922,0,0,0-313.594,54.363Z" transform="translate(540.225 423.12)" fill="#eea263"/>
            <path id="Trazado_601101" data-name="Trazado 601101" d="M-251.768,128.764a3.164,3.164,0,0,1,2.824,3.4,3.17,3.17,0,0,1-2.824,3.415,3.17,3.17,0,0,1-2.837-3.415,3.709,3.709,0,0,1,.517-1.931l-50.071-60.28H-261.5a3.04,3.04,0,0,1,2.784-2.809,3.154,3.154,0,0,1,2.824,3.4,3.154,3.154,0,0,1-2.824,3.4A3.024,3.024,0,0,1-261.5,71.15h-40.261l48.374,58.237A2.462,2.462,0,0,1-251.768,128.764Zm-6.947-56.019a2.046,2.046,0,0,0,1.829-2.2,2.046,2.046,0,0,0-1.829-2.2,1.9,1.9,0,0,0-1.75,1.612,2.174,2.174,0,0,0-.08.59,2.291,2.291,0,0,0,.08.606A1.9,1.9,0,0,0-258.714,72.746Zm5.1,59.418a2.052,2.052,0,0,0,1.843,2.218,2.052,2.052,0,0,0,1.829-2.218,2.046,2.046,0,0,0-1.829-2.2,1.511,1.511,0,0,0-.9.287,1.921,1.921,0,0,0-.7.846A2.4,2.4,0,0,0-253.611,132.164Z" transform="translate(544.736 399.741)" fill="#eea263"/>
            <path id="Trazado_601102" data-name="Trazado 601102" d="M-142.625,108.243a3.709,3.709,0,0,1,.517-1.931L-161.33,83.171h-49.236l-39.213-47.209a2.04,2.04,0,0,1-1.249.444,2.6,2.6,0,0,1-2.331-2.806,2.6,2.6,0,0,1,2.331-2.806A2.6,2.6,0,0,1-248.7,33.6a3.225,3.225,0,0,1-.375,1.521l38.917,46.853h49.236l19.5,23.477a2.629,2.629,0,0,1,1.631-.606,3.154,3.154,0,0,1,2.824,3.4,3.154,3.154,0,0,1-2.824,3.4A3.155,3.155,0,0,1-142.625,108.243Zm2.837,2.2a2.046,2.046,0,0,0,1.829-2.2,2.046,2.046,0,0,0-1.829-2.2,1.511,1.511,0,0,0-.9.287,1.922,1.922,0,0,0-.7.846,2.4,2.4,0,0,0-.239,1.069A2.047,2.047,0,0,0-139.788,110.446Z" transform="translate(561.281 481.691)" fill="#eea263"/>
            <path id="Trazado_601103" data-name="Trazado 601103" d="M-145.98,6.585v49.6L-154.8,66.817v37.425l8.5,10.23v6.448l22.47,27.052a2.4,2.4,0,0,1,1.6-.622,3.165,3.165,0,0,1,2.837,3.4,3.17,3.17,0,0,1-2.837,3.415,3.17,3.17,0,0,1-2.824-3.415,3.71,3.71,0,0,1,.517-1.931l-6.225-7.5V155.13l14.352,17.28v43.3l-7.212,8.68v37.2h-.994V177.178l-41.11-49.491V13.607a3.306,3.306,0,0,1-2.32-3.367,3.155,3.155,0,0,1,2.824-3.4,3.155,3.155,0,0,1,2.824,3.4,3.316,3.316,0,0,1-2.333,3.367V127.192l41.11,49.491V222.7l6.217-7.485V172.9l-14.352-17.278v-15.5l-.005,0-15.537-18.689v-6.448l-7.5-9.049v18.034l11.6,13.949a2.4,2.4,0,0,1,1.6-.622,3.161,3.161,0,0,1,2.824,3.415,3.155,3.155,0,0,1-2.824,3.4,3.155,3.155,0,0,1-2.824-3.4,3.849,3.849,0,0,1,.5-1.947l-11.878-14.3V66.322l8.816-10.629V6.585a3.278,3.278,0,0,1-2.346-3.352,3.145,3.145,0,0,1,2.824-3.4,3.145,3.145,0,0,1,2.824,3.4A3.318,3.318,0,0,1-145.98,6.585Zm21.927,144.164a2.052,2.052,0,0,0,1.829,2.218,2.052,2.052,0,0,0,1.843-2.218,2.047,2.047,0,0,0-1.843-2.2,1.5,1.5,0,0,0-.888.287,2.013,2.013,0,0,0-.7.846A2.4,2.4,0,0,0-124.053,150.749ZM-163.386,10.24a2.046,2.046,0,0,0-1.829-2.2,2.046,2.046,0,0,0-1.829,2.2,2.163,2.163,0,0,0,1.326,2.123,1.356,1.356,0,0,0,.5.1,1.289,1.289,0,0,0,.49-.1A2.158,2.158,0,0,0-163.386,10.24Zm19.965,130.471a2.046,2.046,0,0,0,1.829,2.2,2.046,2.046,0,0,0,1.829-2.2,2.052,2.052,0,0,0-1.829-2.218,1.5,1.5,0,0,0-.888.287,1.92,1.92,0,0,0-.7.846A2.416,2.416,0,0,0-143.421,140.71ZM-146.5,1.031a2.046,2.046,0,0,0-1.829,2.2,2.165,2.165,0,0,0,1.352,2.123,1.661,1.661,0,0,0,.477.08,1.375,1.375,0,0,0,.517-.1,2.2,2.2,0,0,0,1.312-2.107A2.046,2.046,0,0,0-146.5,1.031Z" transform="translate(589.068 381.156)" fill="#eea263"/>
            <path id="Trazado_601104" data-name="Trazado 601104" d="M-154.607,135.6v58.7l-3.9,4.694a3.219,3.219,0,0,1,.371,1.51,2.6,2.6,0,0,1-2.331,2.806A2.6,2.6,0,0,1-162.8,200.5a2.6,2.6,0,0,1,2.331-2.806,2.037,2.037,0,0,1,1.257.45v0l3.606-4.341V135.6a3.309,3.309,0,0,1-2.333-3.352,3.17,3.17,0,0,1,2.837-3.415,3.17,3.17,0,0,1,2.824,3.415A3.324,3.324,0,0,1-154.607,135.6Zm-.49-5.57a2.052,2.052,0,0,0-1.843,2.218,2.148,2.148,0,0,0,1.339,2.107,1.357,1.357,0,0,0,.5.1,1.289,1.289,0,0,0,.49-.1,2.151,2.151,0,0,0,1.339-2.107A2.052,2.052,0,0,0-155.1,130.026Z" transform="translate(590.776 233.568)" fill="#eea263"/>
            <path id="Trazado_601105" data-name="Trazado 601105" d="M-349.085-13.656a3.161,3.161,0,0,1,2.824,3.415,3.3,3.3,0,0,1-2.32,3.352V139.94h-.994V-6.889a3.31,3.31,0,0,1-2.333-3.352A3.161,3.161,0,0,1-349.085-13.656Zm-.491,5.522a1.289,1.289,0,0,0,.491.1,1.357,1.357,0,0,0,.5-.1,2.156,2.156,0,0,0,1.326-2.107,2.052,2.052,0,0,0-1.829-2.218,2.052,2.052,0,0,0-1.829,2.218A2.15,2.15,0,0,0-349.576-8.134Z" transform="translate(529.184 524.335)" fill="#eea263"/>
            <path id="Trazado_601106" data-name="Trazado 601106" d="M-360.816,170.3V138.494l9.28-11.172V85.588l-6.27-7.533V15.461a3.316,3.316,0,0,1-2.333-3.368,3.165,3.165,0,0,1,2.837-3.4,3.164,3.164,0,0,1,2.824,3.4,3.331,3.331,0,0,1-2.333,3.368v62.1l6.271,7.533v42.724l-9.28,11.172V170.3a3.311,3.311,0,0,1,2.333,3.352,3.154,3.154,0,0,1-2.824,3.4,3.155,3.155,0,0,1-2.837-3.4A3.3,3.3,0,0,1-360.816,170.3Zm5.342-158.209a2.046,2.046,0,0,0-1.829-2.2,2.047,2.047,0,0,0-1.843,2.2,2.17,2.17,0,0,0,1.339,2.123,1.356,1.356,0,0,0,.5.1,1.289,1.289,0,0,0,.491-.1A2.188,2.188,0,0,0-355.473,12.093Zm-4.839,163.763a2.046,2.046,0,0,0,1.829-2.2,2.15,2.15,0,0,0-1.339-2.107,1.289,1.289,0,0,0-.491-.1,1.357,1.357,0,0,0-.5.1,2.147,2.147,0,0,0-1.339,2.107A2.047,2.047,0,0,0-360.312,175.856Z" transform="translate(525.524 451.552)" fill="#eea263"/>
            <path id="Trazado_601107" data-name="Trazado 601107" d="M-401.586,1.364a2.571,2.571,0,0,1,2.293,2.761,2.705,2.705,0,0,1-1.8,2.7V14.1l6.894,8.3a2,2,0,0,1,1.259-.447,2.56,2.56,0,0,1,2.293,2.761,2.571,2.571,0,0,1-2.293,2.761,2.561,2.561,0,0,1-2.293-2.761,3.028,3.028,0,0,1,.345-1.452l-7.2-8.666V6.822a2.68,2.68,0,0,1-1.79-2.7A2.561,2.561,0,0,1-401.586,1.364Zm7.145,23.349a1.664,1.664,0,0,0,1.5,1.787,1.655,1.655,0,0,0,1.485-1.787,1.655,1.655,0,0,0-1.485-1.787,1.212,1.212,0,0,0-.663.192,1.691,1.691,0,0,0-.7.846A2.245,2.245,0,0,0-394.44,24.713ZM-402.089,5.8a1.114,1.114,0,0,0,.5.112,1.06,1.06,0,0,0,.49-.112,1.75,1.75,0,0,0,.994-1.676,1.655,1.655,0,0,0-1.485-1.787,1.655,1.655,0,0,0-1.485,1.787A1.778,1.778,0,0,0-402.089,5.8Z" transform="translate(512.258 612.829)" fill="#eea263"/>
            <path id="Trazado_601108" data-name="Trazado 601108" d="M-227.936,57.641a3.04,3.04,0,0,1-2.784-2.809h-35.86l-33.779-40.665a2.469,2.469,0,0,1-1.6.606,3.155,3.155,0,0,1-2.837-3.4,3.155,3.155,0,0,1,2.837-3.4,3.154,3.154,0,0,1,2.824,3.4,3.726,3.726,0,0,1-.517,1.947l33.487,40.314h35.449a3.054,3.054,0,0,1,2.784-2.809,3.164,3.164,0,0,1,2.824,3.4A3.17,3.17,0,0,1-227.936,57.641Zm-72.2-46.267a2.046,2.046,0,0,0-1.829-2.2,2.047,2.047,0,0,0-1.843,2.2,2.047,2.047,0,0,0,1.843,2.2,1.433,1.433,0,0,0,.875-.287,1.692,1.692,0,0,0,.7-.846A2.239,2.239,0,0,0-300.133,11.373Zm72.2,40.649a1.9,1.9,0,0,0-1.75,1.612,2.175,2.175,0,0,0-.08.591,2.293,2.293,0,0,0,.08.606,1.9,1.9,0,0,0,1.75,1.612,2.052,2.052,0,0,0,1.829-2.218A2.046,2.046,0,0,0-227.936,52.023Z" transform="translate(544.527 572.113)" fill="#eea263"/>
            <path id="Trazado_601109" data-name="Trazado 601109" d="M-312.335,50.649a3.161,3.161,0,0,1-2.824-3.415,3.155,3.155,0,0,1,2.824-3.4,3.155,3.155,0,0,1,2.824,3.4,3.937,3.937,0,0,1-.5,1.947l46,55.4H-264a2.477,2.477,0,0,1,1.617-.606,3.154,3.154,0,0,1,2.824,3.4,3.154,3.154,0,0,1-2.824,3.4,3.145,3.145,0,0,1-2.824-3.4,3.832,3.832,0,0,1,.5-1.931l-46.015-55.412A2.411,2.411,0,0,1-312.335,50.649Zm48.122,56.721a2.046,2.046,0,0,0,1.829,2.2,2.046,2.046,0,0,0,1.829-2.2,2.046,2.046,0,0,0-1.829-2.2,1.415,1.415,0,0,0-.888.3,1.691,1.691,0,0,0-.7.846A2.281,2.281,0,0,0-264.213,107.37Zm-46.293-60.136a2.046,2.046,0,0,0-1.829-2.2,2.046,2.046,0,0,0-1.829,2.2,2.052,2.052,0,0,0,1.829,2.218,1.415,1.415,0,0,0,.888-.3,1.76,1.76,0,0,0,.7-.846A2.4,2.4,0,0,0-310.506,47.233Z" transform="translate(541.153 461.754)" fill="#eea263"/>
            <path id="Trazado_601110" data-name="Trazado 601110" d="M-164.219,103.1V146.3l-9.412,11.331v21.45a3.317,3.317,0,0,1,2.293,3.336,3.154,3.154,0,0,1-2.824,3.4,3.155,3.155,0,0,1-2.837-3.4,3.3,3.3,0,0,1,2.373-3.352V157.134l9.412-11.331V132.3l-16.319,19.646v26.86l-11.083,13.342v16.119a3.311,3.311,0,0,1,2.333,3.352,3.164,3.164,0,0,1-2.824,3.4,3.155,3.155,0,0,1-2.824-3.4,3.286,3.286,0,0,1,2.32-3.352V191.654l11.083-13.342v-26.86l17.313-20.843v-27.5a2.732,2.732,0,0,1-1.844-2.742,2.6,2.6,0,0,1,2.331-2.806,2.6,2.6,0,0,1,2.331,2.806A2.737,2.737,0,0,1-164.219,103.1ZM-176,182.414a2.047,2.047,0,0,0,1.843,2.2,2.046,2.046,0,0,0,1.829-2.2,2.148,2.148,0,0,0-1.3-2.091,1.227,1.227,0,0,0-.53-.112,1.5,1.5,0,0,0-.464.08A2.152,2.152,0,0,0-176,182.414Zm-18.931,29.206a2.046,2.046,0,0,0,1.829,2.2,2.046,2.046,0,0,0,1.829-2.2,2.151,2.151,0,0,0-1.339-2.107,1.289,1.289,0,0,0-.49-.1,1.357,1.357,0,0,0-.5.1A2.156,2.156,0,0,0-194.935,211.62Z" transform="translate(579.985 271.752)" fill="#eea263"/>
            <path id="Trazado_601111" data-name="Trazado 601111" d="M-190.914,131.572v38.067l-25.851,31.121v26.429a3.309,3.309,0,0,1,2.333,3.352,3.161,3.161,0,0,1-2.824,3.415,3.161,3.161,0,0,1-2.824-3.415,3.3,3.3,0,0,1,2.32-3.352V200.265l25.851-31.121V131.567a2.738,2.738,0,0,1-1.827-2.737,2.6,2.6,0,0,1,2.331-2.806,2.6,2.6,0,0,1,2.331,2.806A2.736,2.736,0,0,1-190.914,131.572Zm-28.171,98.969a2.052,2.052,0,0,0,1.829,2.218,2.052,2.052,0,0,0,1.829-2.218,2.15,2.15,0,0,0-1.339-2.107,1.288,1.288,0,0,0-.491-.1,1.356,1.356,0,0,0-.5.1A2.156,2.156,0,0,0-219.085,230.541Z" transform="translate(572.12 207.393)" fill="#eea263"/>
            <path id="Trazado_601112" data-name="Trazado 601112" d="M-238.979-4.589a2.6,2.6,0,0,1,2.331,2.806,2.6,2.6,0,0,1-2.331,2.806,2.479,2.479,0,0,1-2.275-2.207h-27.239l10.02,12.062-.7.846L-270.894-2.382h29.64A2.479,2.479,0,0,1-238.979-4.589Z" transform="translate(555.57 638.081)" fill="#eea263"/>
            <path id="Trazado_601113" data-name="Trazado 601113" d="M-171.354,27.929V72l40.282,48.5v39.985a2.736,2.736,0,0,1,1.833,2.739,2.6,2.6,0,0,1-2.331,2.806,2.6,2.6,0,0,1-2.331-2.806,2.735,2.735,0,0,1,1.833-2.739V120.994l-40.282-48.5V27.9a2.742,2.742,0,0,1-1.795-2.723,2.6,2.6,0,0,1,2.331-2.806,2.6,2.6,0,0,1,2.331,2.806A2.727,2.727,0,0,1-171.354,27.929Z" transform="translate(587.08 440.746)" fill="#eea263"/>
            <path id="Trazado_601114" data-name="Trazado 601114" d="M-369.923-13.651a2.6,2.6,0,0,1,2.331,2.806,2.767,2.767,0,0,1-1.686,2.683V184.331h-.994V-8.081a2.687,2.687,0,0,1-1.981-2.764A2.6,2.6,0,0,1-369.923-13.651Z" transform="translate(522.558 479.936)" fill="#eea263"/>
            <path id="Trazado_601115" data-name="Trazado 601115" d="M-318.288,150.074a2.479,2.479,0,0,1,2.275,2.209h16.824l27.959,33.659h-65.728a3.052,3.052,0,0,1-2.8,2.809,3.17,3.17,0,0,1-2.824-3.415,3.164,3.164,0,0,1,2.824-3.4,3.066,3.066,0,0,1,2.8,2.809h63.328L-299.6,153.48h-16.413a2.477,2.477,0,0,1-2.275,2.206,2.6,2.6,0,0,1-2.331-2.806A2.6,2.6,0,0,1-318.288,150.074Zm-21.467,33.059a2.046,2.046,0,0,0-1.829,2.2,2.052,2.052,0,0,0,1.829,2.218,1.9,1.9,0,0,0,1.763-1.612,2.294,2.294,0,0,0,.08-.606,2.176,2.176,0,0,0-.08-.59A1.9,1.9,0,0,0-339.755,183.133Z" transform="translate(532.223 214.216)" fill="#eea263"/>
            <path id="Trazado_601116" data-name="Trazado 601116" d="M-286.68,391.043a2.6,2.6,0,0,1,2.331,2.806,2.6,2.6,0,0,1-2.331,2.806,2.6,2.6,0,0,1-2.331-2.806,3.258,3.258,0,0,1,.241-1.223l-67.975-81.833V281.909L-382.3,251.137h-38.1v-1.2h38.513l26.143,31.473V310.3l67.6,81.387A2.09,2.09,0,0,1-286.68,391.043Z" transform="translate(506.876 -153.071)" fill="#eea263"/>
            <path id="Trazado_601117" data-name="Trazado 601117" d="M-218.213,213.191a2.476,2.476,0,0,1-2.274-2.2h-24.036l-11.215-13.5a2.477,2.477,0,0,1-1.617.606,3.145,3.145,0,0,1-2.824-3.4,3.145,3.145,0,0,1,2.824-3.4,3.145,3.145,0,0,1,2.824,3.4,3.848,3.848,0,0,1-.5,1.947l10.924,13.151h23.622a2.479,2.479,0,0,1,2.276-2.212,2.6,2.6,0,0,1,2.331,2.806A2.6,2.6,0,0,1-218.213,213.191Zm-37.313-18.5a2.046,2.046,0,0,0-1.829-2.2,2.046,2.046,0,0,0-1.829,2.2,2.046,2.046,0,0,0,1.829,2.2,1.5,1.5,0,0,0,.888-.287,2.013,2.013,0,0,0,.7-.846A2.4,2.4,0,0,0-255.526,194.693Z" transform="translate(559.06 123.99)" fill="#eea263"/>
            <path id="Trazado_601118" data-name="Trazado 601118" d="M-274.722,260.981a3.17,3.17,0,0,1,2.837,3.415,3.165,3.165,0,0,1-2.837,3.4,3.028,3.028,0,0,1-2.771-2.713h-29.231l-16.929,20.381H-345.01l-48.507-58.413h-21.542v-1.2h21.953l48.507,58.413h20.535l16.929-20.38h29.616A3.077,3.077,0,0,1-274.722,260.981Zm0,5.618a2.056,2.056,0,0,0,1.843-2.2,2.062,2.062,0,0,0-1.843-2.218,1.929,1.929,0,0,0-1.776,1.708,2.139,2.139,0,0,0-.053.511,2,2,0,0,0,.106.686A1.875,1.875,0,0,0-274.722,266.6Z" transform="translate(508.617 -3.44)" fill="#eea263"/>
            <path id="Trazado_601119" data-name="Trazado 601119" d="M-202.665,200.087a3.04,3.04,0,0,1-2.784-2.809h-36.509l-18.467-22.232a2.477,2.477,0,0,1-1.617.606,3.155,3.155,0,0,1-2.837-3.4,3.155,3.155,0,0,1,2.837-3.4,3.154,3.154,0,0,1,2.824,3.4,3.709,3.709,0,0,1-.517,1.931l18.188,21.9h36.1a3.054,3.054,0,0,1,2.784-2.809,3.155,3.155,0,0,1,2.824,3.4A3.161,3.161,0,0,1-202.665,200.087Zm-57.548-27.834a2.046,2.046,0,0,0-1.829-2.2,2.047,2.047,0,0,0-1.843,2.2,2.047,2.047,0,0,0,1.843,2.2,1.5,1.5,0,0,0,.888-.287,2.014,2.014,0,0,0,.7-.846A2.4,2.4,0,0,0-260.213,172.253Zm57.548,22.216a1.9,1.9,0,0,0-1.75,1.612,2.173,2.173,0,0,0-.08.59,2.29,2.29,0,0,0,.08.606,1.914,1.914,0,0,0,1.75,1.612,2.062,2.062,0,0,0,1.829-2.218A2.046,2.046,0,0,0-202.665,194.469Z" transform="translate(557.529 172.907)" fill="#eea263"/>
            <path id="Trazado_601120" data-name="Trazado 601120" d="M-209.278,326.964a3.051,3.051,0,0,1-2.784-2.809h-11.069l-22.974-27.642H-260.2l8.629,10.387a2.039,2.039,0,0,1,1.251-.445,2.6,2.6,0,0,1,2.331,2.806,2.6,2.6,0,0,1-2.331,2.806,2.6,2.6,0,0,1-2.331-2.806,3.206,3.206,0,0,1,.375-1.516l-26.816-32.266V235.707L-308,200.883v40.266a3.309,3.309,0,0,1,2.333,3.352,3.17,3.17,0,0,1-2.837,3.415,3.17,3.17,0,0,1-2.824-3.415A3.324,3.324,0,0,1-309,241.149V197.994l30.9,37.218v39.772l16.9,20.333h15.511l22.961,27.642h10.659a3.035,3.035,0,0,1,2.784-2.793,3.155,3.155,0,0,1,2.837,3.4A3.155,3.155,0,0,1-209.278,326.964ZM-310.335,244.5a2.052,2.052,0,0,0,1.829,2.218,2.062,2.062,0,0,0,1.843-2.218A2.166,2.166,0,0,0-308,242.394a1.356,1.356,0,0,0-.5-.1,1.289,1.289,0,0,0-.491.1A2.151,2.151,0,0,0-310.335,244.5Zm101.057,76.862a1.9,1.9,0,0,0-1.75,1.6,2.292,2.292,0,0,0-.08.607,2.173,2.173,0,0,0,.08.59,1.9,1.9,0,0,0,1.75,1.612,2.047,2.047,0,0,0,1.843-2.2A2.047,2.047,0,0,0-209.278,321.363Z" transform="translate(542.401 -0.477)" fill="#eea263"/>
            <path id="Trazado_601121" data-name="Trazado 601121" d="M-180.739,80.195v21.929l-24.976,30.052v105.8a3.316,3.316,0,0,1,2.333,3.367,3.155,3.155,0,0,1-2.824,3.4,3.155,3.155,0,0,1-2.824-3.4,3.306,3.306,0,0,1,2.32-3.367V131.681l24.976-30.052V80.195a3.3,3.3,0,0,1-2.333-3.352,3.145,3.145,0,0,1,2.824-3.4,3.145,3.145,0,0,1,2.824,3.4A3.286,3.286,0,0,1-180.739,80.195Zm-27.3,161.145a2.046,2.046,0,0,0,1.829,2.2,2.046,2.046,0,0,0,1.829-2.2,2.158,2.158,0,0,0-1.339-2.123,1.289,1.289,0,0,0-.491-.1,1.356,1.356,0,0,0-.5.1A2.163,2.163,0,0,0-208.035,241.34Zm26.792-166.7a2.046,2.046,0,0,0-1.829,2.2,2.151,2.151,0,0,0,1.339,2.107,1.289,1.289,0,0,0,.491.1,1.356,1.356,0,0,0,.5-.1,2.156,2.156,0,0,0,1.326-2.107A2.046,2.046,0,0,0-181.243,74.641Z" transform="translate(575.718 280.526)" fill="#eea263"/>
          </g>
        </g>
      </g>
    </g>
  </g>
</svg>
