<svg xmlns="http://www.w3.org/2000/svg" width="66.962" height="58.258" viewBox="0 0 66.962 58.258">
  <g id="seguridad-de-datos" transform="translate(0 -33.276)">
    <g id="Grupo_107332" data-name="Grupo 107332" transform="translate(0.981 34.257)">
      <path id="Trazado_151025" data-name="Trazado 151025" d="M185.522,40.777H143.059a2.572,2.572,0,0,0-2.572,2.572V94.5a2.572,2.572,0,0,0,2.572,2.572h42.462a2.572,2.572,0,0,0,2.572-2.572V43.349a2.572,2.572,0,0,0-2.572-2.572Z" transform="translate(-123.094 -40.777)" fill="#afafaf"/>
      <path id="Trazado_151027" data-name="Trazado 151027" d="M140.48,164.021h47.608v4.97H140.48Z" transform="translate(-123.088 -147.903)" fill="#dee4f0"/>
      <path id="Trazado_151029" data-name="Trazado 151029" d="M140.48,309.981h47.608v4.97H140.48Z" transform="translate(-123.088 -274.773)" fill="#dee4f0"/>
      <g id="Grupo_107331" data-name="Grupo 107331" transform="translate(26.898 5.86)">
        <circle id="Elipse_4612" data-name="Elipse 4612" cx="2.293" cy="2.293" r="2.293" transform="translate(12.004)" fill="#fff"/>
        <circle id="Elipse_4613" data-name="Elipse 4613" cx="2.293" cy="2.293" r="2.293" transform="translate(24.009)" fill="#fff"/>
        <circle id="Elipse_4614" data-name="Elipse 4614" cx="2.293" cy="2.293" r="2.293" fill="#fff"/>
        <circle id="Elipse_4615" data-name="Elipse 4615" cx="2.293" cy="2.293" r="2.293" transform="translate(12.004 19.995)" fill="#fff"/>
        <circle id="Elipse_4616" data-name="Elipse 4616" cx="2.293" cy="2.293" r="2.293" transform="translate(24.009 19.995)" fill="#fff"/>
        <circle id="Elipse_4617" data-name="Elipse 4617" cx="2.293" cy="2.293" r="2.293" transform="translate(12.004 39.99)" fill="#fff"/>
        <circle id="Elipse_4618" data-name="Elipse 4618" cx="2.293" cy="2.293" r="2.293" transform="translate(24.009 39.99)" fill="#fff"/>
        <circle id="Elipse_4619" data-name="Elipse 4619" cx="2.293" cy="2.293" r="2.293" transform="translate(0 39.99)" fill="#fff"/>
      </g>
      <path id="Trazado_151031" data-name="Trazado 151031" d="M39.662,77.278a3.244,3.244,0,0,1,2.623,3.186v22.91a10.244,10.244,0,0,1-4.6,8.551L27.7,118.517a5.1,5.1,0,0,1-5.613,0L12.1,111.924a10.244,10.244,0,0,1-4.6-8.551V80.462a3.245,3.245,0,0,1,2.625-3.186A32.709,32.709,0,0,0,23.245,71.5a2.769,2.769,0,0,1,3.3,0A32.72,32.72,0,0,0,39.662,77.278Z" transform="translate(-7.5 -67.01)" fill="#2effc7"/>
      <path id="Trazado_151033" data-name="Trazado 151033" d="M90.976,251.859h-11.7a2.479,2.479,0,0,0-2.479,2.479v6.581a2.479,2.479,0,0,0,2.479,2.479h11.7a2.479,2.479,0,0,0,2.479-2.479v-6.581A2.479,2.479,0,0,0,90.976,251.859Z" transform="translate(-67.732 -224.253)" fill="#ffb206"/>
    </g>
    <g id="Grupo_107333" data-name="Grupo 107333" transform="translate(0 33.276)">
      <path id="Trazado_151035" data-name="Trazado 151035" d="M63.408,33.276H39.744a.981.981,0,1,0,0,1.962H63.408A1.593,1.593,0,0,1,65,36.829V49.394H36.747V47.71a4.293,4.293,0,0,0-3.5-4.167A3.274,3.274,0,1,0,27,41.611a31.54,31.54,0,0,1-6.388-3.651,3.776,3.776,0,0,0-1.254-.608,1.762,1.762,0,0,1,1.592-2.115H35.129a.981.981,0,1,0,0-1.962H20.946a3.66,3.66,0,0,0-3.553,4.077,3.765,3.765,0,0,0-1.251.607,31.661,31.661,0,0,1-12.724,5.6A4.234,4.234,0,0,0,0,47.709V70.621A11.2,11.2,0,0,0,5.043,79.99l9.985,6.592a6.071,6.071,0,0,0,2.365.925,3.652,3.652,0,0,0,3.553,4.026H63.408a3.557,3.557,0,0,0,3.553-3.553V36.829a3.557,3.557,0,0,0-3.553-3.553ZM65,68.483H36.747V56.326H65Zm0-17.127v3.008H36.747V51.356ZM30.172,41.1a1.312,1.312,0,0,1,1.122,1.994q-1.229-.326-2.431-.751A1.313,1.313,0,0,1,30.172,41.1ZM6.123,78.353a9.239,9.239,0,0,1-4.162-7.732V47.709a2.269,2.269,0,0,1,1.831-2.223,33.634,33.634,0,0,0,13.517-5.95,1.836,1.836,0,0,1,2.131,0,33.641,33.641,0,0,0,13.515,5.951,2.267,2.267,0,0,1,1.829,2.223V70.62a9.239,9.239,0,0,1-4.162,7.732l-9.982,6.592a4.192,4.192,0,0,1-4.533,0Zm24.049,2.734a1.314,1.314,0,1,1-1.144.67l1-.662A1.331,1.331,0,0,1,30.172,81.087Zm33.236,8.485H20.946a1.742,1.742,0,0,1-1.592-2.064,6.08,6.08,0,0,0,2.367-.925l5.255-3.47a3.274,3.274,0,1,0,5.1-3.376,11.28,11.28,0,0,0,4.675-9.29H65v3.008H39.883a.981.981,0,0,0,0,1.962H65V87.98a1.593,1.593,0,0,1-1.592,1.591Z" transform="translate(0 -33.276)"/>
      <path id="Trazado_151036" data-name="Trazado 151036" d="M87.918,166.819v-.839a.981.981,0,1,0-1.962,0v.839a1.5,1.5,0,0,1-1.5,1.5h-11.7a1.5,1.5,0,0,1-1.5-1.5v-6.581a1.5,1.5,0,0,1,1.5-1.5h11.7a1.5,1.5,0,0,1,1.5,1.5v1.1a.981.981,0,1,0,1.962,0v-1.1a3.465,3.465,0,0,0-2.479-3.317v-6.488a6.832,6.832,0,0,0-13.664,0v6.488a3.465,3.465,0,0,0-2.479,3.317v6.581a3.464,3.464,0,0,0,3.46,3.46h11.7A3.464,3.464,0,0,0,87.918,166.819ZM73.736,150.433a4.87,4.87,0,1,1,9.741,0v6.345H73.736v-6.345Z" transform="translate(-60.233 -129.172)"/>
      <path id="Trazado_151037" data-name="Trazado 151037" d="M304,81.354a3.274,3.274,0,1,0-3.274,3.274A3.278,3.278,0,0,0,304,81.354Zm-4.587,0a1.313,1.313,0,1,1,1.313,1.313A1.314,1.314,0,0,1,299.415,81.354Z" transform="translate(-258.551 -72.22)"/>
      <path id="Trazado_151038" data-name="Trazado 151038" d="M395.79,81.354a3.274,3.274,0,1,0-3.274,3.274A3.278,3.278,0,0,0,395.79,81.354Zm-4.587,0a1.313,1.313,0,1,1,1.313,1.313A1.314,1.314,0,0,1,391.2,81.354Z" transform="translate(-338.334 -72.22)"/>
      <path id="Trazado_151039" data-name="Trazado 151039" d="M300.728,237.512a3.274,3.274,0,1,0-3.274-3.274A3.278,3.278,0,0,0,300.728,237.512Zm0-4.587a1.313,1.313,0,1,1-1.313,1.313A1.314,1.314,0,0,1,300.728,232.925Z" transform="translate(-258.552 -205.109)"/>
      <path id="Trazado_151040" data-name="Trazado 151040" d="M392.516,237.512a3.274,3.274,0,1,0-3.274-3.274A3.278,3.278,0,0,0,392.516,237.512Zm0-4.587a1.313,1.313,0,1,1-1.313,1.313A1.314,1.314,0,0,1,392.516,232.925Z" transform="translate(-338.335 -205.109)"/>
      <path id="Trazado_151041" data-name="Trazado 151041" d="M300.727,383.848A3.274,3.274,0,1,0,304,387.122,3.278,3.278,0,0,0,300.727,383.848Zm0,4.587a1.313,1.313,0,1,1,1.313-1.313A1.314,1.314,0,0,1,300.727,388.435Z" transform="translate(-258.551 -337.999)"/>
      <path id="Trazado_151042" data-name="Trazado 151042" d="M392.516,383.848a3.274,3.274,0,1,0,3.274,3.274A3.278,3.278,0,0,0,392.516,383.848Zm0,4.587a1.313,1.313,0,1,1,1.313-1.313A1.314,1.314,0,0,1,392.516,388.435Z" transform="translate(-338.335 -337.999)"/>
      <path id="Trazado_151043" data-name="Trazado 151043" d="M132.98,280.232v2.578a.981.981,0,1,0,1.962,0v-2.578a.981.981,0,1,0-1.962,0Z" transform="translate(-115.588 -247.081)"/>
    </g>
  </g>
</svg>
