<svg xmlns="http://www.w3.org/2000/svg" xmlns:xlink="http://www.w3.org/1999/xlink" width="169" height="169" viewBox="0 0 169 169">
  <defs>
    <filter id="Trazado_600868" x="0" y="0" width="169" height="169" filterUnits="userSpaceOnUse">
      <feOffset dx="3" dy="3" input="SourceAlpha"/>
      <feGaussianBlur stdDeviation="3" result="blur"/>
      <feFlood flood-opacity="0.231"/>
      <feComposite operator="in" in2="blur"/>
      <feComposite in="SourceGraphic"/>
    </filter>
  </defs>
  <g id="Grupo_157325" data-name="Grupo 157325" transform="translate(-981 -1169)">
    <g transform="matrix(1, 0, 0, 1, 981, 1169)" filter="url(#Trazado_600868)">
      <g id="Trazado_600868-2" data-name="Trazado 600868" transform="translate(6 6)" fill="#fff">
        <path d="M 75.5 148 C 65.71124267578125 148 56.21686935424805 146.0835266113281 47.2806510925293 142.3038330078125 C 42.98537063598633 140.487060546875 38.84234619140625 138.23828125 34.96665191650391 135.6199188232422 C 31.12700080871582 133.0259094238281 27.51628303527832 130.0467681884766 24.23476028442383 126.7652359008789 C 20.95323944091797 123.4837188720703 17.97408676147461 119.8730010986328 15.38008689880371 116.0333480834961 C 12.76171779632568 112.1576538085938 10.51293468475342 108.0146331787109 8.696173667907715 103.7193450927734 C 4.916478157043457 94.78312683105469 3 85.28875732421875 3 75.5 C 3 65.71124267578125 4.916478157043457 56.21686935424805 8.696173667907715 47.2806510925293 C 10.51293468475342 42.98537063598633 12.76171779632568 38.84234619140625 15.38008689880371 34.96665191650391 C 17.97408676147461 31.12700080871582 20.95323944091797 27.51628303527832 24.23476028442383 24.23476028442383 C 27.51628303527832 20.95323944091797 31.12700080871582 17.97408676147461 34.96665191650391 15.38008689880371 C 38.84234619140625 12.76171779632568 42.98537063598633 10.51293468475342 47.2806510925293 8.696173667907715 C 56.21686935424805 4.916478157043457 65.71124267578125 3 75.5 3 C 85.28875732421875 3 94.78312683105469 4.916478157043457 103.7193450927734 8.696173667907715 C 108.0146331787109 10.51293468475342 112.1576538085938 12.76171779632568 116.0333480834961 15.38008689880371 C 119.8730010986328 17.97408676147461 123.4837188720703 20.95323944091797 126.7652359008789 24.23476028442383 C 130.0467681884766 27.51628303527832 133.0259094238281 31.12700080871582 135.6199188232422 34.96665191650391 C 138.23828125 38.84234619140625 140.487060546875 42.98537063598633 142.3038330078125 47.2806510925293 C 146.0835266113281 56.21686935424805 148 65.71124267578125 148 75.5 C 148 85.28875732421875 146.0835266113281 94.78312683105469 142.3038330078125 103.7193450927734 C 140.487060546875 108.0146331787109 138.23828125 112.1576538085938 135.6199188232422 116.0333480834961 C 133.0259094238281 119.8730010986328 130.0467681884766 123.4837188720703 126.7652359008789 126.7652359008789 C 123.4837188720703 130.0467681884766 119.8730010986328 133.0259094238281 116.0333480834961 135.6199188232422 C 112.1576538085938 138.23828125 108.0146331787109 140.487060546875 103.7193450927734 142.3038330078125 C 94.78312683105469 146.0835266113281 85.28875732421875 148 75.5 148 Z" stroke="none"/>
        <path d="M 75.5 6 C 37.17757415771484 6 6 37.17757415771484 6 75.5 C 6 113.8224258422852 37.17757415771484 145 75.5 145 C 113.8224258422852 145 145 113.8224258422852 145 75.5 C 145 37.17757415771484 113.8224258422852 6 75.5 6 M 75.5 0 C 117.1974945068359 0 151 33.80249786376953 151 75.5 C 151 117.1974945068359 117.1974945068359 151 75.5 151 C 33.80249786376953 151 0 117.1974945068359 0 75.5 C 0 33.80249786376953 33.80249786376953 0 75.5 0 Z" stroke="none" fill="#ff6148"/>
      </g>
    </g>
    <g id="XMLID_2341_" transform="translate(1019.383 1188.32)">
      <g id="XMLID_1325_" transform="translate(1.263 19.769)">
        <g id="XMLID_2619_">
          <path id="XMLID_2783_" d="M20.678,0A20.678,20.678,0,1,1,.7,26.03,20.162,20.162,0,0,1,0,20.678,20.678,20.678,0,0,1,20.678,0Z" transform="translate(2.707)" fill="#ffde95"/>
          <g id="XMLID_1353_" transform="translate(0 23.217)">
            <g id="XMLID_1385_">
              <g id="XMLID_1419_">
                <circle id="XMLID_1420_" cx="2.707" cy="2.707" r="2.707" fill="#fff"/>
              </g>
            </g>
          </g>
          <g id="XMLID_1387_" transform="translate(13.041 10.176)">
            <g id="XMLID_1391_">
              <g id="XMLID_2785_">
                <circle id="XMLID_2786_" cx="2.707" cy="2.707" r="2.707" fill="#fff"/>
              </g>
            </g>
          </g>
          <g id="XMLID_1393_" transform="translate(26.872 24.007)">
            <g id="XMLID_1397_">
              <g id="XMLID_2798_">
                <circle id="XMLID_2799_" cx="2.707" cy="2.707" r="2.707" fill="#fff"/>
              </g>
            </g>
          </g>
          <g id="XMLID_1399_" transform="translate(44.833 6.046)">
            <g id="XMLID_1403_">
              <g id="XMLID_2801_">
                <circle id="XMLID_2802_" cx="2.707" cy="2.707" r="2.707" fill="#fff"/>
              </g>
            </g>
          </g>
          <g id="XMLID_1405_" transform="translate(56.758 17.971)">
            <g id="XMLID_1409_">
              <g id="XMLID_2803_">
                <circle id="XMLID_2804_" cx="2.707" cy="2.707" r="2.707" fill="#fff"/>
              </g>
            </g>
          </g>
        </g>
        <g id="XMLID_1352_" transform="translate(12.122 20.678)">
          <path id="XMLID_2771_" d="M0,0H7.4V20.827H0Z" transform="translate(0 35.968)" fill="#b0c0d2"/>
          <path id="XMLID_2770_" d="M0,0H7.4V20.827H0Z" transform="translate(12.473 35.968)" fill="#b0c0d2"/>
          <path id="XMLID_2769_" d="M0,0H7.4V26.989H0Z" transform="translate(24.945 29.807)" fill="#ffb476"/>
          <path id="XMLID_2768_" d="M0,0H7.4V36.173H0Z" transform="translate(37.418 20.623)" fill="#ffb476"/>
          <path id="XMLID_2767_" d="M0,0H7.4V45.672H0Z" transform="translate(49.891 11.124)" fill="#ff6148"/>
          <path id="XMLID_2766_" d="M0,0H7.4V56.8H0Z" transform="translate(62.363)" fill="#ff6148"/>
        </g>
      </g>
      <g id="XMLID_1496_" transform="translate(0 18.506)">
        <path id="XMLID_1515_" d="M4.7,49.594a21.854,21.854,0,0,0,4.6,6.536,1.263,1.263,0,0,0,1.767-1.806,19.347,19.347,0,0,1-4.159-5.968,3.96,3.96,0,0,0,.61-4.433L15.24,36.2a3.958,3.958,0,0,0,3.443.048l8.489,8.489c.024.024.048.045.073.066a3.97,3.97,0,1,0,7.291.226l9.016-9.016A19.42,19.42,0,0,1,14.965,57.279,1.263,1.263,0,0,0,13.7,59.467,21.946,21.946,0,0,0,45.61,33.958l1.743-1.743A3.961,3.961,0,0,0,50.7,32.01l6.544,6.544a3.976,3.976,0,1,0,1.851-1.722l-6.673-6.673a3.97,3.97,0,1,0-7.006.424l-.789.789A21.94,21.94,0,0,0,2.707,40.447c0,.488.018.978.05,1.466A3.969,3.969,0,0,0,4.7,49.594ZM60.728,39a1.443,1.443,0,1,1-1.443,1.443A1.445,1.445,0,0,1,60.728,39ZM48.8,27.078a1.443,1.443,0,1,1-1.443,1.443A1.445,1.445,0,0,1,48.8,27.078ZM15.567,32.652A1.443,1.443,0,1,1,17.011,34.1,1.445,1.445,0,0,1,15.567,32.652ZM30.842,47.926a1.443,1.443,0,1,1,1.443-1.443A1.445,1.445,0,0,1,30.842,47.926ZM24.648,21.032A19.446,19.446,0,0,1,42.7,33.3L32.9,43.091a3.961,3.961,0,0,0-3.923-.114l-.022-.025-8.441-8.441a3.97,3.97,0,1,0-7.061-.1L5.733,42.137a3.948,3.948,0,0,0-.442-.188c-.038-.5-.057-1-.057-1.5A19.437,19.437,0,0,1,24.648,21.032ZM2.526,45.693A1.443,1.443,0,1,1,3.97,47.136,1.445,1.445,0,0,1,2.526,45.693Z" transform="translate(0 -18.506)"/>
        <path id="XMLID_1506_" d="M90.8,200.6a1.263,1.263,0,1,0,0-2.526h-.555V170.422a1.263,1.263,0,0,0-2.526,0v27.653H82.84V143.805h4.877v21.46a1.263,1.263,0,0,0,2.526,0V142.542a1.263,1.263,0,0,0-1.263-1.263h-7.4a1.263,1.263,0,0,0-1.263,1.263v55.532H77.771V153.667a1.263,1.263,0,0,0-1.263-1.263H69.1a1.263,1.263,0,0,0-1.263,1.263v44.408H65.3v-34.91a1.263,1.263,0,0,0-1.263-1.263h-7.4a1.263,1.263,0,0,0-1.263,1.263v34.91H52.826V172.349a1.263,1.263,0,0,0-1.263-1.263h-7.4a1.263,1.263,0,0,0-1.263,1.263v25.726H40.353V178.51a1.263,1.263,0,0,0-1.263-1.263h-7.4a1.263,1.263,0,0,0-1.263,1.263v7.3a1.263,1.263,0,0,0,2.526,0v-6.039h4.877v18.3H32.95v-7.105a1.263,1.263,0,0,0-2.526,0v7.105H27.881V178.51a1.263,1.263,0,0,0-1.263-1.263h-7.4a1.263,1.263,0,0,0-1.263,1.263v19.564H8.272a1.263,1.263,0,0,0,0,2.526H90.8ZM70.368,154.93h4.877v43.145H70.368Zm-12.473,9.5h4.877v33.646H57.9Zm-12.473,9.184H50.3v24.462H45.422Zm-24.945,6.162h4.877v18.3H20.477Z" transform="translate(-5.829 -120.601)"/>
        <path id="XMLID_1505_" d="M487.468,33.577a1.263,1.263,0,0,0,1.263-1.263v-.278a1.263,1.263,0,0,0-2.526,0v.278A1.263,1.263,0,0,0,487.468,33.577Z" transform="translate(-404.316 -28.707)"/>
        <path id="XMLID_1501_" d="M461.932,33.577a1.263,1.263,0,0,0,1.263-1.263v-.278a1.263,1.263,0,0,0-2.526,0v.278A1.263,1.263,0,0,0,461.932,33.577Z" transform="translate(-383.081 -28.707)"/>
        <path id="XMLID_1500_" d="M461.932,64.865h4.27a1.263,1.263,0,0,0,0-2.526h-4.27a1.263,1.263,0,0,0,0,2.526Z" transform="translate(-383.081 -54.956)"/>
        <path id="XMLID_1497_" d="M419.679,89.068h11.386a1.263,1.263,0,0,0,0-2.526H419.679a1.263,1.263,0,0,0,0,2.526Z" transform="translate(-347.944 -75.083)"/>
      </g>
    </g>
  </g>
</svg>
