<svg xmlns="http://www.w3.org/2000/svg" width="66.961" height="68.361" viewBox="0 0 66.961 68.361">
  <g id="security-protech-lock-computer-laptop" transform="translate(-2.614 -1.999)">
    <path id="Trazado_151044" data-name="Trazado 151044" d="M66.011,64.066H5.9a2.279,2.279,0,0,1-2.2-2.883L9.75,39H62.16l6.05,22.183a2.279,2.279,0,0,1-2.2,2.883Z" transform="translate(0.14 5.156)" fill="#ffc8bf"/>
    <path id="Trazado_151046" data-name="Trazado 151046" d="M59.131,9a2.286,2.286,0,0,1,2.279,2.279v31.9H9v-31.9A2.286,2.286,0,0,1,11.279,9Z" transform="translate(0.89 0.976)" fill="#fff3ea"/>
    <path id="Trazado_151048" data-name="Trazado 151048" d="M42.369,53l1.139,4.557H23L24.139,53Z" transform="translate(2.841 7.107)" fill="#ff6148"/>
    <path id="Trazado_151072" data-name="Trazado 151072" d="M1.709,0H23.357a1.709,1.709,0,0,1,1.709,1.709V16.52a1.709,1.709,0,0,1-1.709,1.709H1.709A1.709,1.709,0,0,1,0,16.52V1.709A1.709,1.709,0,0,1,1.709,0Z" transform="translate(23.562 16.812)" fill="#ffb206"/>
    <path id="Trazado_151051" data-name="Trazado 151051" d="M36,11h4.557v4.557H36Z" transform="translate(4.652 1.254)" fill="#ffde95"/>
    <path id="Trazado_151052" data-name="Trazado 151052" d="M42.229,12.116H37.672a4.557,4.557,0,0,0-9.115,0v4.557H24V12.116a9.387,9.387,0,0,1,.285-2.279,9.115,9.115,0,0,1,17.671.057,8.923,8.923,0,0,1,.273,2.222Z" transform="translate(2.98 0.138)" fill="#be860a"/>
    <path id="Trazado_151053" data-name="Trazado 151053" d="M37.115,11.557v4.557H28V11.557a4.557,4.557,0,1,1,9.115,0Z" transform="translate(3.537 0.697)" fill="#fff3ea"/>
    <path id="Trazado_151054" data-name="Trazado 151054" d="M69.455,66.043,63.439,44.008V12.254a3.428,3.428,0,0,0-3.418-3.418H45.745a10.229,10.229,0,0,0-19.3,0H12.169A3.428,3.428,0,0,0,8.75,12.254V44.008L2.735,66.043a3.418,3.418,0,0,0,3.3,4.318H66.151a3.418,3.418,0,0,0,3.3-4.318ZM28.119,12.254a7.975,7.975,0,0,1,15.86-1.139h-2.3A5.7,5.7,0,0,0,30.4,12.254v3.418H28.119ZM44.07,13.394v2.279H41.791V13.394Zm-4.557-1.139v3.418H32.677V12.254a3.418,3.418,0,1,1,6.836,0Zm6.836,5.7a1.139,1.139,0,0,1,1.139,1.139V32.762A1.139,1.139,0,0,1,46.349,33.9H25.841A1.139,1.139,0,0,1,24.7,32.762V19.09a1.139,1.139,0,0,1,1.139-1.139Zm-35.32-5.7a1.139,1.139,0,0,1,1.139-1.139h13.74a9.413,9.413,0,0,0-.068,1.139v3.418a3.428,3.428,0,0,0-3.418,3.418V32.762a3.428,3.428,0,0,0,3.418,3.418H46.349a3.428,3.428,0,0,0,3.418-3.418V19.09a3.428,3.428,0,0,0-3.418-3.418V12.254a9.413,9.413,0,0,0-.068-1.139h13.74a1.139,1.139,0,0,1,1.139,1.139V43.016H11.029ZM67.062,67.638a1.128,1.128,0,0,1-.911.444H6.039a1.128,1.128,0,0,1-.911-.444,1.139,1.139,0,0,1-.194-.991L10.756,45.3H61.434l5.822,21.351A1.139,1.139,0,0,1,67.062,67.638Z" transform="translate(0)"/>
    <path id="Trazado_151055" data-name="Trazado 151055" d="M43.613,52.862A1.139,1.139,0,0,0,42.508,52H24.279a1.139,1.139,0,0,0-1.105.862L22.034,57.42a1.139,1.139,0,0,0,1.105,1.416H43.648a1.139,1.139,0,0,0,1.105-1.416ZM24.6,56.557l.57-2.279h16.45l.57,2.279Z" transform="translate(2.701 6.967)"/>
    <path id="Trazado_151056" data-name="Trazado 151056" d="M27,34H38.393v2.279H27Z" transform="translate(3.398 4.459)"/>
    <path id="Trazado_151057" data-name="Trazado 151057" d="M12,42h4.557v2.279H12Z" transform="translate(1.308 5.574)"/>
    <path id="Trazado_151058" data-name="Trazado 151058" d="M18,42h4.557v2.279H18Z" transform="translate(2.144 5.574)"/>
    <path id="Trazado_151059" data-name="Trazado 151059" d="M24,42h4.557v2.279H24Z" transform="translate(2.98 5.574)"/>
    <path id="Trazado_151060" data-name="Trazado 151060" d="M36,42h4.557v2.279H36Z" transform="translate(4.652 5.574)"/>
    <path id="Trazado_151061" data-name="Trazado 151061" d="M42,42h4.557v2.279H42Z" transform="translate(5.488 5.574)"/>
    <path id="Trazado_151062" data-name="Trazado 151062" d="M48,42h4.557v2.279H48Z" transform="translate(6.324 5.574)"/>
    <path id="Trazado_151063" data-name="Trazado 151063" d="M30,42h4.557v2.279H30Z" transform="translate(3.816 5.574)"/>
    <path id="Trazado_151064" data-name="Trazado 151064" d="M12,46h4.557v2.279H12Z" transform="translate(1.308 6.131)"/>
    <path id="Trazado_151065" data-name="Trazado 151065" d="M18,46h4.557v2.279H18Z" transform="translate(2.144 6.131)"/>
    <path id="Trazado_151066" data-name="Trazado 151066" d="M24,46h4.557v2.279H24Z" transform="translate(2.98 6.131)"/>
    <path id="Trazado_151067" data-name="Trazado 151067" d="M36,46h4.557v2.279H36Z" transform="translate(4.652 6.131)"/>
    <path id="Trazado_151068" data-name="Trazado 151068" d="M42,46h4.557v2.279H42Z" transform="translate(5.488 6.131)"/>
    <path id="Trazado_151069" data-name="Trazado 151069" d="M48,46h4.557v2.279H48Z" transform="translate(6.324 6.131)"/>
    <path id="Trazado_151070" data-name="Trazado 151070" d="M30,46h4.557v2.279H30Z" transform="translate(3.816 6.131)"/>
    <path id="Trazado_151071" data-name="Trazado 151071" d="M31.656,28.213a1.139,1.139,0,0,0,.805-.334L40.437,19.9l-1.611-1.611-7.17,7.17L27.9,21.711l-1.611,1.611,4.557,4.557a1.139,1.139,0,0,0,.806.334Z" transform="translate(3.299 2.27)"/>
  </g>
</svg>
