<svg xmlns="http://www.w3.org/2000/svg" xmlns:xlink="http://www.w3.org/1999/xlink" width="1031" height="600" viewBox="0 0 1031 600">
  <defs>
    <clipPath id="clip-path">
      <path id="ancient-egyptian-paintings-and-hieroglyphs-on-the-wall-in-hatshepsut-temple-egypt" d="M55,0h961a15,15,0,0,1,15,15V545a55,55,0,0,1-55,55H15A15,15,0,0,1,0,585V55A55,55,0,0,1,55,0Z" transform="translate(-15186 -23113)" fill="#8f52f5" opacity="0.101"/>
    </clipPath>
    <radialGradient id="radial-gradient" cx="0.027" cy="0.496" r="0.506" gradientTransform="matrix(1.44, -0.934, 3.78, 0.356, 0.499, 4.656)" gradientUnits="objectBoundingBox">
      <stop offset="0" stop-color="#6f49b7"/>
      <stop offset="0.109" stop-color="#6a46af"/>
      <stop offset="0.272" stop-color="#5e3e9b"/>
      <stop offset="0.468" stop-color="#4a307a"/>
      <stop offset="0.689" stop-color="#2e1e4c"/>
      <stop offset="0.93" stop-color="#0b0712"/>
      <stop offset="1"/>
    </radialGradient>
  </defs>
  <g id="Grupo_157336" data-name="Grupo 157336" transform="translate(12688 12535)">
    <g id="Grupo_157311" data-name="Grupo 157311" transform="translate(-12974 -13064)">
      <path id="ancient-egyptian-paintings-and-hieroglyphs-on-the-wall-in-hatshepsut-temple-egypt-2" data-name="ancient-egyptian-paintings-and-hieroglyphs-on-the-wall-in-hatshepsut-temple-egypt" d="M55,0h961a15,15,0,0,1,15,15V545a55,55,0,0,1-55,55H15A15,15,0,0,1,0,585V55A55,55,0,0,1,55,0Z" transform="translate(286 529)" fill="#fff3ea"/>
      <g id="Enmascarar_grupo_308" data-name="Enmascarar grupo 308" transform="translate(15472 23642)" opacity="0.246" clip-path="url(#clip-path)">
        <g id="Grupo_156929" data-name="Grupo 156929" transform="translate(-15448.562 -23120.893)">
          <g id="Grupo_156928" data-name="Grupo 156928" transform="translate(0 -120.777)">
            <g id="Grupo_156927" data-name="Grupo 156927">
              <path id="Trazado_599967" data-name="Trazado 599967" d="M-178.81,5.959a3.218,3.218,0,0,1-2.809-3.033,3.265,3.265,0,0,1,3.4-3.091A3.269,3.269,0,0,1-174.8,2.925a3.2,3.2,0,0,1-2.809,3.033V24.838L-131.2,66.844v69.307h-1.2V67.292L-178.81,25.286ZM-176,2.925A2.116,2.116,0,0,0-178.22.917a2.112,2.112,0,0,0-2.2,2.008,2.016,2.016,0,0,0,1.612,1.907,2.007,2.007,0,0,0,.59.087,2.115,2.115,0,0,0,.606-.087A2.011,2.011,0,0,0-176,2.925Z" transform="translate(666.816 668.243)" fill="#ffb476"/>
              <path id="Trazado_599968" data-name="Trazado 599968" d="M-166.866,122.444a3,3,0,0,1,1.516-.407,2.682,2.682,0,0,1,2.806,2.539,2.682,2.682,0,0,1-2.806,2.539,2.682,2.682,0,0,1-2.806-2.539,2.35,2.35,0,0,1,.445-1.365l-17.01-15.4v-41.3a3.218,3.218,0,0,1-2.809-3.033,3.265,3.265,0,0,1,3.4-3.091,3.269,3.269,0,0,1,3.415,3.091,3.2,3.2,0,0,1-2.809,3.033v40.85Zm-15.045-58.96a2.116,2.116,0,0,0-2.218-2.008,2.112,2.112,0,0,0-2.2,2.008,2.016,2.016,0,0,0,1.612,1.907,2.007,2.007,0,0,0,.591.087,2.115,2.115,0,0,0,.606-.087A2.011,2.011,0,0,0-181.911,63.484Z" transform="translate(663.294 543.534)" fill="#ffb476"/>
              <path id="Trazado_599969" data-name="Trazado 599969" d="M-146.087,67.935h-18.178l-28.871-26.116V16.959a3.19,3.19,0,0,1-2.793-3.048,3.253,3.253,0,0,1,3.4-3.077,3.263,3.263,0,0,1,3.4,3.077,3.22,3.22,0,0,1-2.809,3.048V41.371l28.169,25.481h18.178l12.034,10.906v44.851a3.206,3.206,0,0,1,2.809,3.033,3.253,3.253,0,0,1-3.4,3.077,3.258,3.258,0,0,1-3.415-3.077,3.191,3.191,0,0,1,2.809-3.033v-44.4Zm-44.24-54.024a2.11,2.11,0,0,0-2.2-1.993,2.11,2.11,0,0,0-2.2,1.993,2.016,2.016,0,0,0,1.6,1.921,2.115,2.115,0,0,0,.606.087,2.007,2.007,0,0,0,.59-.087A2.019,2.019,0,0,0-190.327,13.911Zm53.96,111.731a2.115,2.115,0,0,0,2.218,1.993,2.11,2.11,0,0,0,2.2-1.993,2.016,2.016,0,0,0-1.612-1.907,2.007,2.007,0,0,0-.59-.087,2.115,2.115,0,0,0-.606.087A2.011,2.011,0,0,0-136.367,125.642Z" transform="translate(658.287 659.785)" fill="#ffb476"/>
              <path id="Trazado_599970" data-name="Trazado 599970" d="M-239.286,113.7V198.44l86.292,78.1-.846.766-86.642-78.419V114.149L-384.457-16.159H-485.632v-1.083h101.671Z" transform="translate(485.632 551.753)" fill="#ffb476"/>
              <path id="Trazado_599971" data-name="Trazado 599971" d="M-321.512-6.906l54.879,49.67a3.01,3.01,0,0,1,1.507-.4,2.682,2.682,0,0,1,2.806,2.539,2.682,2.682,0,0,1-2.806,2.539,2.682,2.682,0,0,1-2.806-2.539,2.355,2.355,0,0,1,.45-1.374L-320.315-4.29V38.2l77.473,70.121-.846.766-77.824-70.438Z" transform="translate(583.443 705.044)" fill="#ffb476"/>
              <path id="Trazado_599972" data-name="Trazado 599972" d="M-240.732-4.589-200.082,32.2H-148.7a2.759,2.759,0,0,1,2.72-1.941,2.683,2.683,0,0,1,2.806,2.539,2.683,2.683,0,0,1-2.806,2.539,2.749,2.749,0,0,1-2.753-2.054h-51.845L-241.226-3.506h-23.006l65.772,59.529-.846.766L-267.121-4.589Z" transform="translate(615.859 753.993)" fill="#ffb476"/>
              <path id="Trazado_599973" data-name="Trazado 599973" d="M-250.888,1.758a2.987,2.987,0,0,1-1.422.363,2.682,2.682,0,0,1-2.806-2.539,2.682,2.682,0,0,1,2.806-2.539A2.682,2.682,0,0,1-249.5-.419a2.364,2.364,0,0,1-.5,1.444L-207.5,39.5h65.515l24.715,22.372V93.33h-1.2V62.319l-24.015-21.737h-65.513Z" transform="translate(623.014 715.096)" fill="#ffb476"/>
              <path id="Trazado_599974" data-name="Trazado 599974" d="M-377.948,24.845a2.611,2.611,0,0,1-2.207-2.479,2.682,2.682,0,0,1,2.806-2.539,2.682,2.682,0,0,1,2.806,2.539,2.612,2.612,0,0,1-2.207,2.479v97.9l14.724-13.327V80.772l-8.666-7.858V49.426a3.184,3.184,0,0,1-2.825-3.033,3.263,3.263,0,0,1,3.4-3.077,3.267,3.267,0,0,1,3.415,3.077,3.2,3.2,0,0,1-2.793,3.033v23.04l8.666,7.858v29.54l-15.921,14.41v25.661l-35.825,32.423-.846-.766,35.474-32.107ZM-367.9,46.393a2.115,2.115,0,0,0-2.218-1.993,2.11,2.11,0,0,0-2.2,1.993,2.03,2.03,0,0,0,1.628,1.921,2.607,2.607,0,0,0,.575.072,2.145,2.145,0,0,0,.622-.087A2.039,2.039,0,0,0-367.9,46.393Z" transform="translate(528.668 593.155)" fill="#ffb476"/>
              <path id="Trazado_599975" data-name="Trazado 599975" d="M-298.42,228.868h85.535a2.759,2.759,0,0,1,2.724-1.956,2.683,2.683,0,0,1,2.806,2.539,2.682,2.682,0,0,1-2.806,2.539,2.748,2.748,0,0,1-2.75-2.04h-86l-77.745-70.366H-485.632V158.5h109.469Z" transform="translate(485.632 237.142)" fill="#ffb476"/>
              <path id="Trazado_599976" data-name="Trazado 599976" d="M-227.965,150.238a2.755,2.755,0,0,1,2.739-2,2.682,2.682,0,0,1,2.806,2.539,2.682,2.682,0,0,1-2.806,2.539,2.756,2.756,0,0,1-2.739-2h-15.259L-283.5,114.869h-65.39l33.187,30.038a3.008,3.008,0,0,1,1.556-.428,2.682,2.682,0,0,1,2.806,2.539,2.682,2.682,0,0,1-2.806,2.539,2.682,2.682,0,0,1-2.806-2.539,2.34,2.34,0,0,1,.424-1.327l-35.252-31.906H-283l40.273,36.452Z" transform="translate(565.405 412.132)" fill="#ffb476"/>
              <path id="Trazado_599977" data-name="Trazado 599977" d="M-298.621,116.8l21.354,19.327h.016a3.461,3.461,0,0,1,1.851-.52,3.253,3.253,0,0,1,3.4,3.077,3.254,3.254,0,0,1-3.4,3.091,3.265,3.265,0,0,1-3.4-3.091,2.875,2.875,0,0,1,.67-1.82l-20.987-18.981h-33l20.684,18.706a3.62,3.62,0,0,1,2.011-.607,3.258,3.258,0,0,1,3.415,3.077,3.267,3.267,0,0,1-3.415,3.077,3.263,3.263,0,0,1-3.4-3.077,2.859,2.859,0,0,1,.559-1.69l-22.743-20.57Zm21.019,21.884a2.112,2.112,0,0,0,2.2,2.008,2.112,2.112,0,0,0,2.2-2.008,2.11,2.11,0,0,0-2.2-1.993,2.288,2.288,0,0,0-.99.217,1.993,1.993,0,0,0-.878.737A1.853,1.853,0,0,0-277.6,138.688Zm-34.026.376a2.11,2.11,0,0,0,2.2,1.993,2.115,2.115,0,0,0,2.218-1.993,2.115,2.115,0,0,0-2.218-1.993,2.369,2.369,0,0,0-1.149.3,1.95,1.95,0,0,0-.814.794A1.764,1.764,0,0,0-311.628,139.064Z" transform="translate(575.4 419.096)" fill="#ffb476"/>
              <path id="Trazado_599978" data-name="Trazado 599978" d="M-368.678,37.847V54.6L-388.4,72.444a2.35,2.35,0,0,1,.448,1.368,2.682,2.682,0,0,1-2.806,2.539,2.682,2.682,0,0,1-2.806-2.539,2.682,2.682,0,0,1,2.806-2.539,3,3,0,0,1,1.511.406l19.366-17.527V38.3l-6.486-5.87v18.32l-18.714,16.938a2.353,2.353,0,0,1,.445,1.365,2.682,2.682,0,0,1-2.806,2.539,2.682,2.682,0,0,1-2.806-2.539,2.682,2.682,0,0,1,2.806-2.539,3,3,0,0,1,1.516.407l.008-.007,18.354-16.626V27.043a3.206,3.206,0,0,1-2.809-3.048,3.267,3.267,0,0,1,3.415-3.077,3.263,3.263,0,0,1,3.4,3.077,3.22,3.22,0,0,1-2.809,3.048V30.9Zm-6.071-13.853a2.11,2.11,0,0,0-2.2-1.993,2.115,2.115,0,0,0-2.218,1.993,2.015,2.015,0,0,0,1.612,1.921,2.115,2.115,0,0,0,.606.087,2.007,2.007,0,0,0,.591-.087A2.019,2.019,0,0,0-374.75,23.995Z" transform="translate(536.523 697.586)" fill="#ffb476"/>
              <path id="Trazado_599979" data-name="Trazado 599979" d="M-97.62,90.343V203.259h-1.2V90.791l-41.336-37.414V4.852a2.612,2.612,0,0,1-2.209-2.479,2.683,2.683,0,0,1,2.806-2.539,2.682,2.682,0,0,1,2.806,2.539,2.611,2.611,0,0,1-2.206,2.479V52.928Z" transform="translate(690.213 601.134)" fill="#ffb476"/>
              <path id="Trazado_599980" data-name="Trazado 599980" d="M-116.385,279.511a3.253,3.253,0,0,1-3.4-3.077,2.844,2.844,0,0,1,.606-1.762l-74.692-67.6h-90.715l-78.426-70.982H-485.629V135h123.113l78.426,70.982h90.715l75.059,67.92a3.48,3.48,0,0,1,1.931-.563,3.254,3.254,0,0,1,3.4,3.091A3.253,3.253,0,0,1-116.385,279.511Zm1.229-4.738a2.36,2.36,0,0,0-1.229-.347,2.234,2.234,0,0,0-1.069.26l.016.014a1.948,1.948,0,0,0-.958.953.05.05,0,0,0-.016.043,1.485,1.485,0,0,0-.176.737,1.86,1.86,0,0,0,.383,1.112,1.994,1.994,0,0,0,.59.534,2.36,2.36,0,0,0,1.229.347,2.36,2.36,0,0,0,1.229-.347,1.886,1.886,0,0,0,.335-.246,1.933,1.933,0,0,0,.638-1.4A1.951,1.951,0,0,0-115.156,274.773Z" transform="translate(485.634 223.621)" fill="#ffb476"/>
              <path id="Trazado_599981" data-name="Trazado 599981" d="M-178.652,167.091l13.792,12.483a3,3,0,0,1,1.529-.415,2.682,2.682,0,0,1,2.806,2.539,2.682,2.682,0,0,1-2.806,2.539,2.682,2.682,0,0,1-2.806-2.539,2.34,2.34,0,0,1,.439-1.351l-14.152-12.808V116.89L-195,103.178h-44.7l-41.69-37.733a3,3,0,0,1-1.511.406,2.682,2.682,0,0,1-2.806-2.539,2.682,2.682,0,0,1,2.806-2.539,2.682,2.682,0,0,1,2.806,2.539,2.351,2.351,0,0,1-.448,1.368l41.339,37.415h44.7l15.851,14.347Z" transform="translate(604.782 480.175)" fill="#ffb476"/>
              <path id="Trazado_599982" data-name="Trazado 599982" d="M-296.452,264.551h85.657a2.7,2.7,0,0,1,2.787-2.366,2.682,2.682,0,0,1,2.806,2.539,2.682,2.682,0,0,1-2.806,2.539,2.8,2.8,0,0,1-2.611-1.629h-86.328l-60.229-54.512H-485.632v-1.083h128.953Z" transform="translate(485.632 100.386)" fill="#ffb476"/>
              <path id="Trazado_599983" data-name="Trazado 599983" d="M-346.242,239.3a3.346,3.346,0,0,1-3.352,2.542,3.269,3.269,0,0,1-3.415-3.091,3.267,3.267,0,0,1,3.415-3.077,3.361,3.361,0,0,1,3.352,2.542h105.51l-43.011-38.929h-25.982a3.346,3.346,0,0,1-3.352,2.542,3.269,3.269,0,0,1-3.415-3.091,3.267,3.267,0,0,1,3.415-3.077,3.361,3.361,0,0,1,3.352,2.542h26.477l45.405,41.1Zm-1.245-1.083a2.154,2.154,0,0,0-2.107-1.459,2.115,2.115,0,0,0-2.218,1.993,2.126,2.126,0,0,0,2.218,2.008,2.168,2.168,0,0,0,2.107-1.459,1.6,1.6,0,0,0,.1-.549A1.515,1.515,0,0,0-347.487,238.219Zm36.516-40.012a1.758,1.758,0,0,0-.59-.9,1,1,0,0,0-.239-.188,2.446,2.446,0,0,0-.862-.332,1.918,1.918,0,0,0-.415-.043h-.016a2.112,2.112,0,0,0-2.2,2.008,1.836,1.836,0,0,0,.654,1.4,1.663,1.663,0,0,0,.319.246,2.318,2.318,0,0,0,1.229.347h.016a2.178,2.178,0,0,0,.431-.043,1.351,1.351,0,0,0,.415-.116,1.52,1.52,0,0,0,.383-.188,1.416,1.416,0,0,0,.3-.217,1.808,1.808,0,0,0,.447-.592,2.445,2.445,0,0,0,.128-.3,1.514,1.514,0,0,0,.1-.534A1.593,1.593,0,0,0-310.971,198.206Z" transform="translate(564.672 157.446)" fill="#ffb476"/>
              <path id="Trazado_599984" data-name="Trazado 599984" d="M-222.146,202.567h24.115a3.348,3.348,0,0,1,3.352-2.542,3.253,3.253,0,0,1,3.4,3.077,3.254,3.254,0,0,1-3.4,3.091,3.333,3.333,0,0,1-3.352-2.542h-24.61l-20.524-18.576V170.34l-22.1-20.021H-283.9a2.757,2.757,0,0,1-2.742,2,2.682,2.682,0,0,1-2.806-2.539,2.682,2.682,0,0,1,2.806-2.539,2.756,2.756,0,0,1,2.737,1.992h19.133l38.734,35.072h15.672A3.352,3.352,0,0,1-207,181.766a3.265,3.265,0,0,1,3.4,3.091,3.263,3.263,0,0,1-3.4,3.077,3.367,3.367,0,0,1-3.368-2.542h-16.167l-15.433-13.968v13.2Zm27.467,2.542a2.112,2.112,0,0,0,2.2-2.008,2.11,2.11,0,0,0-2.2-1.993,2.154,2.154,0,0,0-2.107,1.459,1.515,1.515,0,0,0-.1.534,1.6,1.6,0,0,0,.1.549A2.15,2.15,0,0,0-194.68,205.109ZM-207,186.85a2.11,2.11,0,0,0,2.2-1.993,2.112,2.112,0,0,0-2.2-2.008,2.171,2.171,0,0,0-2.123,1.459,1.6,1.6,0,0,0-.1.549,1.516,1.516,0,0,0,.1.534A2.189,2.189,0,0,0-207,186.85Z" transform="translate(602.552 288.636)" fill="#ffb476"/>
              <path id="Trazado_599985" data-name="Trazado 599985" d="M-294.673,180.654a3.333,3.333,0,0,1,3.352-2.542,3.265,3.265,0,0,1,3.4,3.091,3.263,3.263,0,0,1-3.4,3.077,3.348,3.348,0,0,1-3.352-2.542h-64.222l-15.112-13.679a2.984,2.984,0,0,1-1.508.4,2.682,2.682,0,0,1-2.806-2.539,2.682,2.682,0,0,1,2.806-2.539,2.682,2.682,0,0,1,2.806,2.539,2.346,2.346,0,0,1-.45,1.371l14.776,13.36Zm3.352,2.542a2.11,2.11,0,0,0,2.2-1.993,2.112,2.112,0,0,0-2.2-2.008,2.15,2.15,0,0,0-2.107,1.459,1.6,1.6,0,0,0-.1.549,1.515,1.515,0,0,0,.1.534A2.154,2.154,0,0,0-291.321,183.2Z" transform="translate(549.587 284.649)" fill="#ffb476"/>
              <path id="Trazado_599986" data-name="Trazado 599986" d="M-300.55,340.877v49.6l39.229,35.507a3,3,0,0,1,1.513-.406A2.683,2.683,0,0,1-257,428.122a2.683,2.683,0,0,1-2.806,2.539,2.682,2.682,0,0,1-2.806-2.539,2.352,2.352,0,0,1,.447-1.368l-39.58-35.823V341.325l-55.583-50.306h-76.264v-1.083h76.76Z" transform="translate(516.646 -267.971)" fill="#ffb476"/>
              <path id="Trazado_599987" data-name="Trazado 599987" d="M-348.589,364.223l36.34,32.891a3.48,3.48,0,0,1,1.931-.563,3.253,3.253,0,0,1,3.4,3.077,3.254,3.254,0,0,1-3.4,3.091,3.254,3.254,0,0,1-3.4-3.091,2.906,2.906,0,0,1,.607-1.762l-36.676-33.194V315.587l-26.637-24.109a3.5,3.5,0,0,1-1.947.563,3.254,3.254,0,0,1-3.4-3.091,3.253,3.253,0,0,1,3.4-3.077,3.253,3.253,0,0,1,3.4,3.077,2.844,2.844,0,0,1-.607,1.762l26.988,24.426Zm36.069,35.4a2.112,2.112,0,0,0,2.2,2.008,2.112,2.112,0,0,0,2.2-2.008,2.11,2.11,0,0,0-2.2-1.993,2.233,2.233,0,0,0-1.069.26,2.065,2.065,0,0,0-.846.766A1.736,1.736,0,0,0-312.52,399.628Zm-63.647-110.677a2.11,2.11,0,0,0-2.2-1.993,2.11,2.11,0,0,0-2.2,1.993,2.112,2.112,0,0,0,2.2,2.008,2.09,2.09,0,0,0,1.069-.275,1.807,1.807,0,0,0,.846-.766A1.736,1.736,0,0,0-376.167,288.951Z" transform="translate(547.532 -234.161)" fill="#ffb476"/>
              <path id="Trazado_599988" data-name="Trazado 599988" d="M-257.57,280.029a3,3,0,0,1,1.508-.4,2.682,2.682,0,0,1,2.806,2.539,2.682,2.682,0,0,1-2.806,2.539,2.682,2.682,0,0,1-2.806-2.539,2.35,2.35,0,0,1,.45-1.371l-38.812-35.127V206.939a3.191,3.191,0,0,1-2.809-3.033,3.258,3.258,0,0,1,3.415-3.077,3.253,3.253,0,0,1,3.4,3.077,3.206,3.206,0,0,1-2.809,3.033v38.279Zm-36.851-76.123a2.11,2.11,0,0,0-2.2-1.993,2.115,2.115,0,0,0-2.218,1.993,2.011,2.011,0,0,0,1.612,1.907,2.114,2.114,0,0,0,.606.087,2.006,2.006,0,0,0,.591-.087A2.016,2.016,0,0,0-294.421,203.906Z" transform="translate(596.241 95.13)" fill="#ffb476"/>
              <path id="Trazado_599989" data-name="Trazado 599989" d="M-420.409,339v-1.083h48.948l29.621,26.824a3.591,3.591,0,0,1,1.931-.549,3.253,3.253,0,0,1,3.4,3.077,3.243,3.243,0,0,1-3.4,3.077,3.243,3.243,0,0,1-3.4-3.077,2.764,2.764,0,0,1,.622-1.762L-371.955,339Zm78.3,28.269a2.11,2.11,0,0,0,2.2,1.993,2.11,2.11,0,0,0,2.2-1.993,2.11,2.11,0,0,0-2.2-1.993,2.128,2.128,0,0,0-1.053.26,1.736,1.736,0,0,0-.846.766A1.633,1.633,0,0,0-342.111,367.266Z" transform="translate(524.504 -276.956)" fill="#ffb476"/>
              <path id="Trazado_599990" data-name="Trazado 599990" d="M-383.577,242.463h-31.481V241.38h31.977l41.944,37.961h21.185a2.755,2.755,0,0,1,2.739-2,2.682,2.682,0,0,1,2.806,2.539,2.682,2.682,0,0,1-2.806,2.539,2.754,2.754,0,0,1-2.739-2h-21.681Z" transform="translate(527.693 25.936)" fill="#ffb476"/>
              <path id="Trazado_599991" data-name="Trazado 599991" d="M-331.779,278.041h-28.759a3.333,3.333,0,0,1-3.352,2.542,3.265,3.265,0,0,1-3.4-3.091,3.263,3.263,0,0,1,3.4-3.077,3.348,3.348,0,0,1,3.352,2.542h28.265l15.609-14.142-24.418-22.1a3.561,3.561,0,0,1-1.788.477,3.267,3.267,0,0,1-3.415-3.077,3.269,3.269,0,0,1,3.415-3.091,3.265,3.265,0,0,1,3.4,3.091,2.872,2.872,0,0,1-.718,1.878l25.216,22.823ZM-363.89,275.5a2.11,2.11,0,0,0-2.2,1.993,2.112,2.112,0,0,0,2.2,2.008,2.15,2.15,0,0,0,2.107-1.459,1.6,1.6,0,0,0,.1-.549,1.516,1.516,0,0,0-.1-.534A2.154,2.154,0,0,0-363.89,275.5Zm23.221-37.383a2.112,2.112,0,0,0-2.2-2.008,2.116,2.116,0,0,0-2.218,2.008,2.115,2.115,0,0,0,2.218,1.993,2.175,2.175,0,0,0,.91-.188,1.855,1.855,0,0,0,.91-.708A1.722,1.722,0,0,0-340.668,238.115Z" transform="translate(556.162 39.417)" fill="#ffb476"/>
              <path id="Trazado_599992" data-name="Trazado 599992" d="M-348.731,293.962V319.1l19.98,18.1a3,3,0,0,1,1.516-.407,2.682,2.682,0,0,1,2.806,2.539,2.682,2.682,0,0,1-2.806,2.539,2.682,2.682,0,0,1-2.806-2.539,2.36,2.36,0,0,1,.445-1.364h0l-20.333-18.417V294.41l-27.052-24.484V253.632a3.206,3.206,0,0,1-2.809-3.034,3.253,3.253,0,0,1,3.4-3.077,3.243,3.243,0,0,1,3.4,3.077,3.176,3.176,0,0,1-2.793,3.034v15.846ZM-374.187,250.6a2.11,2.11,0,0,0-2.2-1.993,2.11,2.11,0,0,0-2.2,1.993,2.016,2.016,0,0,0,1.612,1.907,2.006,2.006,0,0,0,.591.087,2.114,2.114,0,0,0,.606-.087A2.013,2.013,0,0,0-374.187,250.6Z" transform="translate(548.712 -61.55)" fill="#ffb476"/>
              <path id="Trazado_599993" data-name="Trazado 599993" d="M-352.658,313.752v25.77l11.252,10.184a3.573,3.573,0,0,1,1.947-.563,3.265,3.265,0,0,1,3.4,3.091,3.263,3.263,0,0,1-3.4,3.077,3.267,3.267,0,0,1-3.415-3.077,2.765,2.765,0,0,1,.622-1.762l-11.6-10.5V314.2l-28.7-25.972V255.394a3.191,3.191,0,0,1-2.809-3.033,3.243,3.243,0,0,1,3.4-3.077,3.243,3.243,0,0,1,3.4,3.077,3.176,3.176,0,0,1-2.793,3.033V287.78Zm10.98,38.481a2.115,2.115,0,0,0,2.218,1.993,2.11,2.11,0,0,0,2.2-1.993,2.112,2.112,0,0,0-2.2-2.008,2.252,2.252,0,0,0-1.085.26,2.065,2.065,0,0,0-.846.766A1.749,1.749,0,0,0-341.677,352.233Zm-38.08-99.872a2.11,2.11,0,0,0-2.2-1.993,2.11,2.11,0,0,0-2.2,1.993,2.016,2.016,0,0,0,1.612,1.907,2.006,2.006,0,0,0,.591.087,2.114,2.114,0,0,0,.606-.087A2.013,2.013,0,0,0-379.757,252.361Z" transform="translate(545.392 -82.555)" fill="#ffb476"/>
              <path id="Trazado_599994" data-name="Trazado 599994" d="M-397.817,7.741a2.613,2.613,0,0,1-2.2-2.477,2.682,2.682,0,0,1,2.806-2.539,2.682,2.682,0,0,1,2.806,2.539,2.613,2.613,0,0,1-2.212,2.479V14.89l8.826,7.974h17.444A3.335,3.335,0,0,1-367,20.335a3.258,3.258,0,0,1,3.415,3.077A3.258,3.258,0,0,1-367,26.489a3.346,3.346,0,0,1-3.351-2.542h-17.939l-9.528-8.609ZM-367,25.405a2.115,2.115,0,0,0,2.218-1.993A2.115,2.115,0,0,0-367,21.419a2.156,2.156,0,0,0-2.107,1.444,1.6,1.6,0,0,0-.1.549,1.516,1.516,0,0,0,.1.534A2.154,2.154,0,0,0-367,25.405Z" transform="translate(536.655 773.73)" fill="#ffb476"/>
              <path id="Trazado_599995" data-name="Trazado 599995" d="M-207.6,458.925a3.253,3.253,0,0,1-3.4-3.077,2.764,2.764,0,0,1,.622-1.762l-67.637-61.2V342.716l-72.776-65.869h-82.8v-1.083H-350.3l73.479,66.5v50.167l67.286,60.885a3.673,3.673,0,0,1,1.931-.549,3.243,3.243,0,0,1,3.4,3.077A3.243,3.243,0,0,1-207.6,458.925Zm0-5.07a2.128,2.128,0,0,0-1.053.26,1.736,1.736,0,0,0-.846.766,1.633,1.633,0,0,0-.3.968,2.11,2.11,0,0,0,2.2,1.993,2.11,2.11,0,0,0,2.2-1.993A2.11,2.11,0,0,0-207.6,453.855Z" transform="translate(516.649 -275.764)" fill="#ffb476"/>
              <path id="Trazado_599996" data-name="Trazado 599996" d="M-318.009,52.955a3.253,3.253,0,0,1,3.4-3.077,3.253,3.253,0,0,1,3.4,3.077,2.916,2.916,0,0,1-.606,1.777L-232.5,126.5a3,3,0,0,1,1.411-.355,2.682,2.682,0,0,1,2.806,2.539,2.682,2.682,0,0,1-2.806,2.539,2.682,2.682,0,0,1-2.806-2.539,2.362,2.362,0,0,1,.511-1.453l0,0-79.288-71.748a3.48,3.48,0,0,1-1.931.563A3.254,3.254,0,0,1-318.009,52.955Zm5.315.982a1.748,1.748,0,0,0,.287-.982,2.11,2.11,0,0,0-2.2-1.993,2.11,2.11,0,0,0-2.2,1.993,2.112,2.112,0,0,0,2.2,2.008,2.234,2.234,0,0,0,1.069-.26A1.972,1.972,0,0,0-312.694,53.937Z" transform="translate(585.531 559.765)" fill="#ffb476"/>
              <path id="Trazado_599997" data-name="Trazado 599997" d="M-241.086,122.916a3.263,3.263,0,0,1,3.4,3.077,3.265,3.265,0,0,1-3.4,3.091,3.269,3.269,0,0,1-3.415-3.091,2.754,2.754,0,0,1,.622-1.748l-60.28-54.558H-252.8a3.333,3.333,0,0,1,3.352-2.542,3.253,3.253,0,0,1,3.4,3.077,3.253,3.253,0,0,1-3.4,3.077A3.322,3.322,0,0,1-252.8,70.77h-48.47l58.237,52.709A3.573,3.573,0,0,1-241.086,122.916Zm-8.363-50.7a2.11,2.11,0,0,0,2.2-1.993,2.11,2.11,0,0,0-2.2-1.993,2.154,2.154,0,0,0-2.107,1.459,1.515,1.515,0,0,0-.1.534,1.6,1.6,0,0,0,.1.549A2.157,2.157,0,0,0-249.449,72.214Zm6.144,53.778A2.116,2.116,0,0,0-241.086,128a2.112,2.112,0,0,0,2.2-2.008,2.11,2.11,0,0,0-2.2-1.993,2.252,2.252,0,0,0-1.085.26,1.971,1.971,0,0,0-.846.766A1.736,1.736,0,0,0-243.3,125.993Z" transform="translate(593.785 528.233)" fill="#ffb476"/>
              <path id="Trazado_599998" data-name="Trazado 599998" d="M-120.048,100.892a2.754,2.754,0,0,1,.622-1.748L-142.567,78.2h-59.274l-47.207-42.728a3,3,0,0,1-1.5.4,2.682,2.682,0,0,1-2.806-2.539,2.683,2.683,0,0,1,2.806-2.539,2.683,2.683,0,0,1,2.806,2.539,2.365,2.365,0,0,1-.452,1.377l46.851,42.406h59.274L-118.6,98.364a3.837,3.837,0,0,1,1.963-.549,3.253,3.253,0,0,1,3.4,3.077,3.253,3.253,0,0,1-3.4,3.077A3.258,3.258,0,0,1-120.048,100.892Zm3.415,1.993a2.11,2.11,0,0,0,2.2-1.993,2.11,2.11,0,0,0-2.2-1.993,2.252,2.252,0,0,0-1.085.26,1.97,1.97,0,0,0-.846.766,1.736,1.736,0,0,0-.287.968A2.115,2.115,0,0,0-116.633,102.886Z" transform="translate(624.061 655.703)" fill="#ffb476"/>
              <path id="Trazado_599999" data-name="Trazado 599999" d="M-141.482,5.944V50.839l-10.613,9.62V94.333l10.23,9.259v5.836l27.052,24.484a3.48,3.48,0,0,1,1.931-.563,3.267,3.267,0,0,1,3.415,3.077,3.269,3.269,0,0,1-3.415,3.091,3.265,3.265,0,0,1-3.4-3.091,2.754,2.754,0,0,1,.622-1.748l-7.495-6.785v12.5l17.278,15.639v39.192l-8.682,7.857v33.667h-1.2v-76.4l-49.491-44.794V12.3a3.19,3.19,0,0,1-2.793-3.048,3.253,3.253,0,0,1,3.4-3.077,3.253,3.253,0,0,1,3.4,3.077,3.205,3.205,0,0,1-2.809,3.048V115.1l49.491,44.794v41.649l7.485-6.775V156.477l-17.278-15.638v-14.03l-.006,0-18.7-16.915v-5.836l-9.033-8.19v16.323l13.965,12.625a3.48,3.48,0,0,1,1.931-.563,3.254,3.254,0,0,1,3.4,3.091,3.253,3.253,0,0,1-3.4,3.077,3.253,3.253,0,0,1-3.4-3.077,2.844,2.844,0,0,1,.606-1.762l-14.3-12.943V60.011l10.613-9.62V5.944A3.181,3.181,0,0,1-145.5,2.911a3.243,3.243,0,0,1,3.4-3.077,3.243,3.243,0,0,1,3.4,3.077A3.2,3.2,0,0,1-141.482,5.944Zm26.4,130.481a2.112,2.112,0,0,0,2.2,2.008,2.116,2.116,0,0,0,2.218-2.008,2.115,2.115,0,0,0-2.218-1.993,2.233,2.233,0,0,0-1.069.26,2.065,2.065,0,0,0-.846.766A1.736,1.736,0,0,0-115.085,136.425ZM-162.437,9.252a2.11,2.11,0,0,0-2.2-1.993,2.11,2.11,0,0,0-2.2,1.993,2.016,2.016,0,0,0,1.6,1.921,2.114,2.114,0,0,0,.606.087,2.006,2.006,0,0,0,.59-.087A2.019,2.019,0,0,0-162.437,9.252ZM-138.4,127.339a2.11,2.11,0,0,0,2.2,1.993,2.11,2.11,0,0,0,2.2-1.993,2.112,2.112,0,0,0-2.2-2.008,2.234,2.234,0,0,0-1.069.26,1.971,1.971,0,0,0-.846.766A1.749,1.749,0,0,0-138.4,127.339ZM-142.1.917a2.11,2.11,0,0,0-2.2,1.993,2.03,2.03,0,0,0,1.628,1.921,2.607,2.607,0,0,0,.575.072,2.146,2.146,0,0,0,.622-.087,2.041,2.041,0,0,0,1.58-1.907A2.11,2.11,0,0,0-142.1.917Z" transform="translate(674.909 567.648)" fill="#ffb476"/>
              <path id="Trazado_600000" data-name="Trazado 600000" d="M-152.938,134.954v53.128l-4.694,4.248a2.359,2.359,0,0,1,.447,1.366,2.682,2.682,0,0,1-2.806,2.539A2.682,2.682,0,0,1-162.8,193.7a2.682,2.682,0,0,1,2.806-2.539,2.99,2.99,0,0,1,1.513.407h0l4.341-3.929V134.954a3.2,3.2,0,0,1-2.809-3.033,3.269,3.269,0,0,1,3.415-3.091,3.265,3.265,0,0,1,3.4,3.091A3.218,3.218,0,0,1-152.938,134.954Zm-.59-5.041a2.116,2.116,0,0,0-2.218,2.008,2.011,2.011,0,0,0,1.612,1.907,2.115,2.115,0,0,0,.606.087,2.007,2.007,0,0,0,.59-.087,2.016,2.016,0,0,0,1.612-1.907A2.112,2.112,0,0,0-153.528,129.912Z" transform="translate(678.034 334.664)" fill="#ffb476"/>
              <path id="Trazado_600001" data-name="Trazado 600001" d="M-348.51-13.656a3.255,3.255,0,0,1,3.4,3.091A3.188,3.188,0,0,1-347.9-7.531V125.362h-1.2V-7.531a3.2,3.2,0,0,1-2.809-3.033A3.254,3.254,0,0,1-348.51-13.656Zm-.591,5a2.007,2.007,0,0,0,.591.087,2.116,2.116,0,0,0,.607-.087,2.013,2.013,0,0,0,1.6-1.907,2.112,2.112,0,0,0-2.2-2.008,2.112,2.112,0,0,0-2.2,2.008A2.016,2.016,0,0,0-349.1-8.658Z" transform="translate(565.328 698.518)" fill="#ffb476"/>
              <path id="Trazado_600002" data-name="Trazado 600002" d="M-360.34,154.963V126.174l11.172-10.111V78.29l-7.549-6.818V14.819a3.206,3.206,0,0,1-2.809-3.048,3.267,3.267,0,0,1,3.415-3.077,3.263,3.263,0,0,1,3.4,3.077,3.22,3.22,0,0,1-2.809,3.048V71.024l7.549,6.818v38.669l-11.172,10.111v28.341A3.206,3.206,0,0,1-356.334,158a3.253,3.253,0,0,1-3.4,3.077A3.258,3.258,0,0,1-363.149,158,3.191,3.191,0,0,1-360.34,154.963Zm6.432-143.192a2.11,2.11,0,0,0-2.2-1.993,2.115,2.115,0,0,0-2.218,1.993,2.027,2.027,0,0,0,1.612,1.921,2.115,2.115,0,0,0,.606.087,2.007,2.007,0,0,0,.591-.087A2.044,2.044,0,0,0-353.908,11.771Zm-5.825,148.219a2.11,2.11,0,0,0,2.2-1.993,2.016,2.016,0,0,0-1.612-1.907,2.008,2.008,0,0,0-.591-.087,2.116,2.116,0,0,0-.606.087A2.011,2.011,0,0,0-361.952,158,2.115,2.115,0,0,0-359.734,159.99Z" transform="translate(558.629 630.522)" fill="#ffb476"/>
              <path id="Trazado_600003" data-name="Trazado 600003" d="M-401.118,1.364a2.651,2.651,0,0,1,2.761,2.5A2.582,2.582,0,0,1-400.527,6.3v6.587l8.3,7.511a2.94,2.94,0,0,1,1.516-.4,2.641,2.641,0,0,1,2.761,2.5,2.651,2.651,0,0,1-2.761,2.5,2.64,2.64,0,0,1-2.761-2.5,2.212,2.212,0,0,1,.415-1.314l-8.666-7.844V6.3a2.551,2.551,0,0,1-2.155-2.441A2.64,2.64,0,0,1-401.118,1.364Zm8.6,21.133a1.721,1.721,0,0,0,1.8,1.618,1.706,1.706,0,0,0,1.787-1.618,1.706,1.706,0,0,0-1.787-1.618,1.828,1.828,0,0,0-.8.173,1.736,1.736,0,0,0-.846.766A1.591,1.591,0,0,0-392.516,22.5ZM-401.724,5.38a1.72,1.72,0,0,0,.606.1,1.633,1.633,0,0,0,.59-.1,1.6,1.6,0,0,0,1.2-1.517,1.706,1.706,0,0,0-1.787-1.618,1.706,1.706,0,0,0-1.788,1.618A1.619,1.619,0,0,0-401.724,5.38Z" transform="translate(534.355 777.187)" fill="#ffb476"/>
              <path id="Trazado_600004" data-name="Trazado 600004" d="M-212.265,52.927a3.333,3.333,0,0,1-3.352-2.542h-43.171l-40.665-36.806a3.591,3.591,0,0,1-1.931.549,3.258,3.258,0,0,1-3.415-3.077,3.258,3.258,0,0,1,3.415-3.077,3.253,3.253,0,0,1,3.4,3.077,2.764,2.764,0,0,1-.622,1.762L-258.292,49.3h42.676a3.348,3.348,0,0,1,3.352-2.542,3.263,3.263,0,0,1,3.4,3.077A3.265,3.265,0,0,1-212.265,52.927Zm-86.917-41.876a2.11,2.11,0,0,0-2.2-1.993,2.115,2.115,0,0,0-2.218,1.993,2.115,2.115,0,0,0,2.218,1.993,2.128,2.128,0,0,0,1.053-.26,1.736,1.736,0,0,0,.846-.766A1.633,1.633,0,0,0-299.181,11.051Zm86.917,36.791a2.154,2.154,0,0,0-2.107,1.459,1.516,1.516,0,0,0-.1.534,1.6,1.6,0,0,0,.1.549,2.15,2.15,0,0,0,2.107,1.459,2.112,2.112,0,0,0,2.2-2.008A2.11,2.11,0,0,0-212.265,47.842Z" transform="translate(593.404 739.709)" fill="#ffb476"/>
              <path id="Trazado_600005" data-name="Trazado 600005" d="M-311.76,50a3.254,3.254,0,0,1-3.4-3.091,3.253,3.253,0,0,1,3.4-3.077,3.253,3.253,0,0,1,3.4,3.077,2.906,2.906,0,0,1-.607,1.762l55.38,50.138h.016a3.606,3.606,0,0,1,1.947-.549,3.253,3.253,0,0,1,3.4,3.077,3.253,3.253,0,0,1-3.4,3.077,3.243,3.243,0,0,1-3.4-3.077,2.834,2.834,0,0,1,.606-1.748l-55.4-50.153A3.5,3.5,0,0,1-311.76,50Zm57.934,51.337a2.11,2.11,0,0,0,2.2,1.993,2.11,2.11,0,0,0,2.2-1.993,2.11,2.11,0,0,0-2.2-1.993,2.091,2.091,0,0,0-1.069.274,1.736,1.736,0,0,0-.846.766A1.656,1.656,0,0,0-253.826,101.339Zm-55.731-54.428a2.11,2.11,0,0,0-2.2-1.993,2.11,2.11,0,0,0-2.2,1.993,2.112,2.112,0,0,0,2.2,2.008,2.091,2.091,0,0,0,1.069-.274,1.807,1.807,0,0,0,.846-.766A1.736,1.736,0,0,0-309.557,46.911Z" transform="translate(587.23 636.42)" fill="#ffb476"/>
              <path id="Trazado_600006" data-name="Trazado 600006" d="M-157.753,102.578v39.094l-11.331,10.256v19.414a3.2,3.2,0,0,1,2.761,3.019,3.253,3.253,0,0,1-3.4,3.077,3.258,3.258,0,0,1-3.415-3.077,3.211,3.211,0,0,1,2.857-3.033V151.48l11.331-10.256V129L-178.6,146.785V171.1l-13.342,12.076v14.589a3.206,3.206,0,0,1,2.809,3.033,3.263,3.263,0,0,1-3.4,3.077,3.253,3.253,0,0,1-3.4-3.077,3.176,3.176,0,0,1,2.793-3.033V182.724l13.342-12.076V146.337l20.843-18.865V102.585a2.613,2.613,0,0,1-2.22-2.482,2.682,2.682,0,0,1,2.806-2.539,2.682,2.682,0,0,1,2.806,2.539A2.609,2.609,0,0,1-157.753,102.578Zm-14.188,71.783a2.115,2.115,0,0,0,2.218,1.993,2.11,2.11,0,0,0,2.2-1.993,2,2,0,0,0-1.564-1.892,1.9,1.9,0,0,0-.638-.1,2.356,2.356,0,0,0-.559.072A2.031,2.031,0,0,0-171.942,174.36Zm-22.79,26.434a2.11,2.11,0,0,0,2.2,1.993,2.11,2.11,0,0,0,2.2-1.993,2.016,2.016,0,0,0-1.612-1.907,2.008,2.008,0,0,0-.59-.087,2.116,2.116,0,0,0-.606.087A2.013,2.013,0,0,0-194.732,200.795Z" transform="translate(658.287 385.518)" fill="#ffb476"/>
              <path id="Trazado_600007" data-name="Trazado 600007" d="M-184.968,131.045V165.5l-31.121,28.168v23.921a3.2,3.2,0,0,1,2.809,3.033,3.254,3.254,0,0,1-3.4,3.091,3.254,3.254,0,0,1-3.4-3.091,3.188,3.188,0,0,1,2.793-3.033V193.219l31.121-28.168V131.041a2.611,2.611,0,0,1-2.2-2.477,2.682,2.682,0,0,1,2.806-2.539,2.682,2.682,0,0,1,2.806,2.539A2.615,2.615,0,0,1-184.968,131.045Zm-33.914,89.576a2.112,2.112,0,0,0,2.2,2.008,2.112,2.112,0,0,0,2.2-2.008,2.016,2.016,0,0,0-1.612-1.907,2.006,2.006,0,0,0-.591-.087,2.113,2.113,0,0,0-.606.087A2.013,2.013,0,0,0-218.882,220.621Z" transform="translate(643.895 307.825)" fill="#ffb476"/>
              <path id="Trazado_600008" data-name="Trazado 600008" d="M-232.473-4.589a2.682,2.682,0,0,1,2.806,2.539A2.682,2.682,0,0,1-232.473.49a2.755,2.755,0,0,1-2.739-2H-268L-255.941,9.41l-.848.766L-270.894-2.591h35.683A2.755,2.755,0,0,1-232.473-4.589Z" transform="translate(613.611 800.607)" fill="#ffb476"/>
              <path id="Trazado_600009" data-name="Trazado 600009" d="M-170.785,27.4V67.292l48.5,43.892v36.19a2.612,2.612,0,0,1,2.207,2.479,2.682,2.682,0,0,1-2.806,2.539,2.682,2.682,0,0,1-2.806-2.539,2.611,2.611,0,0,1,2.207-2.479V111.634l-48.5-43.892V27.377a2.6,2.6,0,0,1-2.161-2.464,2.682,2.682,0,0,1,2.806-2.539,2.682,2.682,0,0,1,2.806,2.539A2.619,2.619,0,0,1-170.785,27.4Z" transform="translate(671.271 619.443)" fill="#ffb476"/>
              <path id="Trazado_600010" data-name="Trazado 600010" d="M-369.448-13.651a2.682,2.682,0,0,1,2.806,2.539,2.582,2.582,0,0,1-2.03,2.428V165.54h-1.2V-8.61a2.629,2.629,0,0,1-2.384-2.5A2.682,2.682,0,0,1-369.448-13.651Z" transform="translate(553.203 658.333)" fill="#ffb476"/>
              <path id="Trazado_600011" data-name="Trazado 600011" d="M-313.336,150.074a2.755,2.755,0,0,1,2.739,2h20.254l33.659,30.464h-79.128a3.352,3.352,0,0,1-3.368,2.542,3.265,3.265,0,0,1-3.4-3.091,3.263,3.263,0,0,1,3.4-3.077,3.367,3.367,0,0,1,3.368,2.542h76.24l-31.265-28.3H-310.6a2.754,2.754,0,0,1-2.739,2,2.682,2.682,0,0,1-2.806-2.539A2.682,2.682,0,0,1-313.336,150.074ZM-339.18,180a2.11,2.11,0,0,0-2.2,1.993,2.112,2.112,0,0,0,2.2,2.008,2.156,2.156,0,0,0,2.123-1.459,1.6,1.6,0,0,0,.1-.549,1.516,1.516,0,0,0-.1-.534A2.16,2.16,0,0,0-339.18,180Z" transform="translate(570.888 308.117)" fill="#ffb476"/>
              <path id="Trazado_600012" data-name="Trazado 600012" d="M-259.416,377.65a2.682,2.682,0,0,1,2.806,2.539,2.682,2.682,0,0,1-2.806,2.539,2.682,2.682,0,0,1-2.806-2.539,2.329,2.329,0,0,1,.29-1.106l-81.833-74.066V278.875l-30.77-27.851H-420.4V249.94h46.365l31.473,28.485v26.142l81.387,73.662A2.961,2.961,0,0,1-259.416,377.65Z" transform="translate(524.506 -162.265)" fill="#ffb476"/>
              <path id="Trazado_600013" data-name="Trazado 600013" d="M-209.657,211.112a2.754,2.754,0,0,1-2.737-1.993h-28.937l-13.5-12.22a3.606,3.606,0,0,1-1.947.549,3.243,3.243,0,0,1-3.4-3.077,3.243,3.243,0,0,1,3.4-3.077,3.243,3.243,0,0,1,3.4,3.077,2.843,2.843,0,0,1-.606,1.762l13.151,11.9H-212.4a2.755,2.755,0,0,1,2.74-2,2.682,2.682,0,0,1,2.806,2.539A2.682,2.682,0,0,1-209.657,211.112Zm-44.92-16.742a2.11,2.11,0,0,0-2.2-1.993,2.11,2.11,0,0,0-2.2,1.993,2.11,2.11,0,0,0,2.2,1.993,2.233,2.233,0,0,0,1.069-.26,2.065,2.065,0,0,0,.846-.766A1.736,1.736,0,0,0-254.577,194.371Z" transform="translate(619.996 202.38)" fill="#ffb476"/>
              <path id="Trazado_600014" data-name="Trazado 600014" d="M-246.109,257.647a3.269,3.269,0,0,1,3.415,3.091,3.267,3.267,0,0,1-3.415,3.077,3.356,3.356,0,0,1-3.336-2.456h-35.191l-20.381,18.446h-25.711l-58.4-52.868h-25.935v-1.083h26.429l58.4,52.868h24.722l20.381-18.446h35.654A3.34,3.34,0,0,1-246.109,257.647Zm0,5.085a2.125,2.125,0,0,0,2.218-1.993,2.127,2.127,0,0,0-2.218-2.008,2.153,2.153,0,0,0-2.139,1.546,1.477,1.477,0,0,0-.064.462,1.4,1.4,0,0,0,.128.621A2.158,2.158,0,0,0-246.109,262.732Z" transform="translate(527.692 56.581)" fill="#ffb476"/>
              <path id="Trazado_600015" data-name="Trazado 600015" d="M-189.98,197.123a3.333,3.333,0,0,1-3.352-2.542h-43.953l-22.232-20.122a3.606,3.606,0,0,1-1.947.549,3.258,3.258,0,0,1-3.415-3.077,3.258,3.258,0,0,1,3.415-3.077,3.253,3.253,0,0,1,3.4,3.077,2.754,2.754,0,0,1-.622,1.748l21.9,19.818h43.458a3.348,3.348,0,0,1,3.352-2.542,3.253,3.253,0,0,1,3.4,3.077A3.254,3.254,0,0,1-189.98,197.123Zm-69.281-25.192a2.11,2.11,0,0,0-2.2-1.993,2.115,2.115,0,0,0-2.218,1.993,2.115,2.115,0,0,0,2.218,1.993,2.234,2.234,0,0,0,1.069-.26,2.066,2.066,0,0,0,.846-.766A1.736,1.736,0,0,0-259.261,171.931Zm69.281,20.107a2.154,2.154,0,0,0-2.107,1.459,1.514,1.514,0,0,0-.1.534,1.594,1.594,0,0,0,.1.549,2.168,2.168,0,0,0,2.107,1.459,2.121,2.121,0,0,0,2.2-2.008A2.11,2.11,0,0,0-189.98,192.038Z" transform="translate(617.195 259.596)" fill="#ffb476"/>
              <path id="Trazado_600016" data-name="Trazado 600016" d="M-188.471,314.723a3.346,3.346,0,0,1-3.352-2.542h-13.326l-27.658-25.019h-16.965l10.388,9.4a3,3,0,0,1,1.507-.4,2.682,2.682,0,0,1,2.806,2.539,2.682,2.682,0,0,1-2.806,2.539,2.682,2.682,0,0,1-2.806-2.539,2.352,2.352,0,0,1,.452-1.372l-32.283-29.2v-36l-34.808-31.519v36.444a3.2,3.2,0,0,1,2.809,3.033,3.269,3.269,0,0,1-3.415,3.091,3.265,3.265,0,0,1-3.4-3.091,3.218,3.218,0,0,1,2.809-3.033V197.994l37.2,33.686v36l20.349,18.4H-232.3l27.642,25.019h12.832a3.335,3.335,0,0,1,3.352-2.528,3.258,3.258,0,0,1,3.415,3.077A3.258,3.258,0,0,1-188.471,314.723Zm-121.661-74.637a2.112,2.112,0,0,0,2.2,2.008,2.127,2.127,0,0,0,2.218-2.008,2.028,2.028,0,0,0-1.612-1.907,2.114,2.114,0,0,0-.606-.087,2.006,2.006,0,0,0-.59.087A2.016,2.016,0,0,0-310.132,240.086Zm121.661,69.567a2.157,2.157,0,0,0-2.107,1.444,1.6,1.6,0,0,0-.1.549,1.515,1.515,0,0,0,.1.534,2.154,2.154,0,0,0,2.107,1.459,2.115,2.115,0,0,0,2.218-1.993A2.115,2.115,0,0,0-188.471,309.653Z" transform="translate(589.512 62.062)" fill="#ffb476"/>
              <path id="Trazado_600017" data-name="Trazado 600017" d="M-174.971,79.554V99.4l-30.068,27.2v95.755a3.206,3.206,0,0,1,2.809,3.048,3.253,3.253,0,0,1-3.4,3.077,3.253,3.253,0,0,1-3.4-3.077,3.19,3.19,0,0,1,2.793-3.048v-96.2l30.068-27.2v-19.4a3.191,3.191,0,0,1-2.809-3.033,3.243,3.243,0,0,1,3.4-3.077,3.243,3.243,0,0,1,3.4,3.077A3.176,3.176,0,0,1-174.971,79.554ZM-207.832,225.4a2.11,2.11,0,0,0,2.2,1.993,2.11,2.11,0,0,0,2.2-1.993,2.019,2.019,0,0,0-1.612-1.921,2.006,2.006,0,0,0-.591-.087,2.114,2.114,0,0,0-.606.087A2.016,2.016,0,0,0-207.832,225.4Zm32.255-150.877a2.11,2.11,0,0,0-2.2,1.993,2.016,2.016,0,0,0,1.612,1.907,2.006,2.006,0,0,0,.591.087,2.114,2.114,0,0,0,.606-.087,2.013,2.013,0,0,0,1.6-1.907A2.11,2.11,0,0,0-175.577,74.527Z" transform="translate(650.48 404.965)" fill="#ffb476"/>
            </g>
          </g>
        </g>
      </g>
    </g>
    <g id="Arrow" transform="translate(-12268.104 -12142.826)">
      <path id="Trazado_165596" data-name="Trazado 165596" d="M829.843,775.864l54.281,94.274,9.762-20.5,14.422,6.867c42.6,19.694,108.876,14.659,153.154-22.45,40.391-33.853,53.359-76.319,49.01-103.353-24.107,66.455-116.082,79.835-164.586,57.139l-18.4-8.762,9.761-20.5Z" transform="translate(-829.843 -730.703)" fill="#ff6148"/>
    </g>
    <g id="Thickness" transform="translate(-12268.104 -12114.949)">
      <path id="Trazado_165598" data-name="Trazado 165598" d="M884.124,886.826l-.176-4.528c-3.606-6.261-47.988-83.343-50.758-88.151L933.62,777.986l3.626-2.717-107.4,17.284Z" transform="translate(-829.843 -775.269)" fill="#ff5082" style="mix-blend-mode: screen;isolation: isolate"/>
      <path id="Trazado_165599" data-name="Trazado 165599" d="M1114.166,855.08c25.451-21.331,40.005-46.081,46.208-68.236l-2.343.377c-6.273,21.636-20.637,45.643-45.219,66.245-42.374,35.513-101.938,39.642-141.431,25.942l-.8,1.973C1013.059,896.316,1073.075,889.516,1114.166,855.08Z" transform="translate(-882.546 -779.604)" fill="#ff5082" style="mix-blend-mode: screen;isolation: isolate"/>
    </g>
    <g id="White_circle" data-name="White circle" transform="translate(-12098.563 -12189.84)">
      <path id="Trazado_165601" data-name="Trazado 165601" d="M1100.884,711.442a55.9,55.9,0,1,1,55.9,55.9A55.9,55.9,0,0,1,1100.884,711.442Z" transform="translate(-1100.884 -655.545)" fill="#fff" stroke="#ff6148" stroke-width="4"/>
    </g>
    <g id="_03" data-name="03" transform="translate(-12442.526 -12375.959)">
      <g id="Arrow-2" data-name="Arrow" transform="translate(24.909 28.51)">
        <path id="Trazado_165602" data-name="Trazado 165602" d="M759.027,403.7l-108.784-.127,12.871,18.7-13.158,9.056C611.6,458.387,582.824,518.3,592.822,575.2c9.122,51.906,39.415,84.37,65,94.12-45.5-54.1-11.1-140.447,32.81-171.105l16.789-11.555,12.873,18.7Z" transform="translate(-590.821 -403.578)" fill="#f1a86b"/>
      </g>
      <g id="Thickness-2" data-name="Thickness" transform="translate(24.909 28.51)">
        <path id="Trazado_165604" data-name="Trazado 165604" d="M685.818,403.578l4.009,2.111,101.72.118-36.218,95.055.54,4.5L794.6,403.7Z" transform="translate(-626.396 -403.578)" fill="#ffde95" style="mix-blend-mode: screen;isolation: isolate"/>
        <path id="Trazado_165605" data-name="Trazado 165605" d="M592.822,595.625c5.748,32.708,19.9,57.686,35.989,74.136l.845-2.217c-15.6-16.251-29.209-40.695-34.76-72.284-9.568-54.453,16.638-108.1,48.249-135.454l-1.308-1.681C607.663,487.446,583.544,542.821,592.822,595.625Z" transform="translate(-590.822 -424.005)" fill="url(#radial-gradient)" style="mix-blend-mode: screen;isolation: isolate"/>
      </g>
      <g id="White_circle-2" data-name="White circle" transform="translate(55.916 186.12)">
        <path id="Trazado_165607" data-name="Trazado 165607" d="M640.391,711.44a55.9,55.9,0,1,1,55.9,55.9A55.9,55.9,0,0,1,640.391,711.44Z" transform="translate(-640.391 -655.543)" fill="#fff" stroke="#f1a86b" stroke-width="4"/>
      </g>
    </g>
    <g id="Arrow-3" data-name="Arrow" transform="translate(-12221.973 -12445.559)">
      <path id="Trazado_165608" data-name="Trazado 165608" d="M1083.017,485.988l54.5-94.147-22.633,1.8-1.264-15.923c-4.247-46.745-41.744-101.619-96.02-121.411-49.513-18.053-92.774-8.05-114.01,9.233,69.6-12.351,127.18,60.612,131.777,113.966l1.612,20.318-22.634,1.8Z" transform="translate(-903.592 -246.734)" fill="#083142"/>
    </g>
    <g id="Thickness-3" data-name="Thickness" transform="translate(-12190.16 -12445.555)">
      <path id="Trazado_165610" data-name="Trazado 165610" d="M1203.824,478.713l-3.833,2.417c-3.619,6.253-48.183,83.23-50.962,88.033l-64.211-78.893-4.166-1.783,68.67,84.372Z" transform="translate(-1001.71 -333.609)" fill="#407388" style="mix-blend-mode: screen;isolation: isolate"/>
      <path id="Trazado_165611" data-name="Trazado 165611" d="M1036.647,256.306c-31.2-11.376-59.909-11.605-82.2-5.9l1.5,1.84c21.874-5.385,49.847-4.949,79.979,6.039,51.943,18.941,85.3,68.46,93.183,109.512l2.109-.292C1122.913,323.248,1087.016,274.673,1036.647,256.306Z" transform="translate(-954.45 -246.74)" fill="#407388" style="mix-blend-mode: screen;isolation: isolate"/>
    </g>
    <g id="White_circle-3" data-name="White circle" transform="translate(-12242.584 -12439.301)">
      <path id="Trazado_165613" data-name="Trazado 165613" d="M870.641,312.636a55.9,55.9,0,1,1,55.9,55.9A55.9,55.9,0,0,1,870.641,312.636Z" transform="translate(-870.641 -256.739)" fill="#fff" stroke="#083142" stroke-width="4"/>
    </g>
    <g id="Grupo_157312" data-name="Grupo 157312" transform="translate(-12740.667 -13006.668)">
      <rect id="Rectángulo_35951" data-name="Rectángulo 35951" width="62" height="62" rx="10" transform="translate(377.667 840.667)" fill="none"/>
      <g id="agrietamiento" transform="translate(378 847.9)">
        <g id="Grupo_107782" data-name="Grupo 107782" transform="translate(0.839 0.84)">
          <path id="Trazado_164062" data-name="Trazado 164062" d="M1.75,35.373H61.407V69.707a2.145,2.145,0,0,1-2.145,2.145H3.895A2.145,2.145,0,0,1,1.75,69.707V35.373Z" transform="translate(-1.75 -26.33)" fill="#c7acf5"/>
          <path id="Trazado_164063" data-name="Trazado 164063" d="M4.146,16.5H59.011a2.4,2.4,0,0,1,2.4,2.4v6.648H1.75V18.9a2.4,2.4,0,0,1,2.4-2.4Z" transform="translate(-1.75 -16.5)" fill="#ffb206"/>
          <g id="Grupo_107780" data-name="Grupo 107780" transform="translate(2.995 3.683)">
            <path id="Trazado_164064" data-name="Trazado 164064" d="M81.63,25.863H48.777a.839.839,0,1,1,0-1.677H81.63a.839.839,0,0,1,0,1.677Z" transform="translate(-28.801 -24.186)" fill="#94e0da"/>
            <path id="Trazado_164065" data-name="Trazado 164065" d="M11.056,25.863H8.839a.839.839,0,1,1,0-1.677h2.217a.839.839,0,0,1,0,1.677Z" transform="translate(-8 -24.186)" fill="#94e0da"/>
            <path id="Trazado_164066" data-name="Trazado 164066" d="M24.369,25.863H22.152a.839.839,0,0,1,0-1.677h2.217a.839.839,0,0,1,0,1.677Z" transform="translate(-14.934 -24.186)" fill="#94e0da"/>
            <path id="Trazado_164067" data-name="Trazado 164067" d="M37.68,25.863H35.464a.839.839,0,1,1,0-1.677H37.68a.839.839,0,0,1,0,1.677Z" transform="translate(-21.867 -24.186)" fill="#94e0da"/>
          </g>
          <path id="Trazado_164068" data-name="Trazado 164068" d="M63.389,54.586H59.555V49.842a1.917,1.917,0,0,0-1.917-1.917h-2.56a1.917,1.917,0,0,0-1.917,1.917v.934H49.329v-.934a5.757,5.757,0,0,1,5.75-5.75h2.56a5.757,5.757,0,0,1,5.75,5.75Z" transform="translate(-26.53 -30.871)" fill="#607880"/>
          <g id="Grupo_107781" data-name="Grupo 107781" transform="translate(20.149 23.715)">
            <path id="Trazado_164069" data-name="Trazado 164069" d="M71.356,65.992H65.283l-1.445,3.877h4.284L63.22,82.45h8.136a1.917,1.917,0,0,0,1.917-1.917V67.909a1.917,1.917,0,0,0-1.917-1.917Z" transform="translate(-53.914 -65.992)" fill="#f21857"/>
            <path id="Trazado_164070" data-name="Trazado 164070" d="M48.2,73.7l2.875-7.71H45.717A1.917,1.917,0,0,0,43.8,67.909V80.533a1.917,1.917,0,0,0,1.917,1.917h7.389L53.024,73.7Z" transform="translate(-43.8 -65.992)" fill="#f21857"/>
          </g>
        </g>
        <g id="Grupo_107783" data-name="Grupo 107783" transform="translate(0 0)">
          <path id="Trazado_164071" data-name="Trazado 164071" d="M58.1,14.748H4.672a.839.839,0,1,0,0,1.677H58.1a1.559,1.559,0,0,1,1.557,1.557v5.81H1.677V17.983a.839.839,0,1,0-1.677,0V58.966a2.987,2.987,0,0,0,2.983,2.983H58.351a2.987,2.987,0,0,0,2.983-2.984V17.983A3.238,3.238,0,0,0,58.1,14.748Zm1.557,44.217a1.308,1.308,0,0,1-1.306,1.306H2.983a1.308,1.308,0,0,1-1.306-1.306V25.471h57.98Z" transform="translate(0 -14.748)"/>
          <path id="Trazado_164072" data-name="Trazado 164072" d="M81.63,25.863a.839.839,0,0,0,0-1.677H48.777a.839.839,0,0,0,0,1.677Z" transform="translate(-24.967 -19.664)"/>
          <path id="Trazado_164073" data-name="Trazado 164073" d="M11.056,25.863a.839.839,0,0,0,0-1.677H8.839a.839.839,0,0,0,0,1.677Z" transform="translate(-4.167 -19.664)"/>
          <path id="Trazado_164074" data-name="Trazado 164074" d="M24.369,25.863a.839.839,0,1,0,0-1.677H22.152a.839.839,0,0,0,0,1.677Z" transform="translate(-11.1 -19.664)"/>
          <path id="Trazado_164075" data-name="Trazado 164075" d="M37.68,25.863a.839.839,0,0,0,0-1.677H35.464a.839.839,0,0,0,0,1.677Z" transform="translate(-18.034 -19.664)"/>
          <path id="Trazado_164076" data-name="Trazado 164076" d="M83.289,79.414a.839.839,0,0,0-.839.839v1.917a.839.839,0,0,0,1.677,0V80.253A.839.839,0,0,0,83.289,79.414Z" transform="translate(-42.942 -48.428)"/>
          <path id="Trazado_164077" data-name="Trazado 164077" d="M44.805,70.975H60.33a2.758,2.758,0,0,0,2.755-2.755.839.839,0,0,0-1.677,0A1.08,1.08,0,0,1,60.33,69.3h-6.91L57.877,57.86a.839.839,0,0,0-.782-1.143H54.02l.82-2.2h5.49A1.08,1.08,0,0,1,61.409,55.6a.839.839,0,1,0,1.677,0,2.756,2.756,0,0,0-2.65-2.75V48.939a6.6,6.6,0,0,0-6.589-6.589H51.288A6.6,6.6,0,0,0,44.7,48.939v.934a.838.838,0,0,0,.839.839h3.833a.839.839,0,0,0,.839-.839v-.934a1.079,1.079,0,0,1,1.078-1.078h2.56a1.079,1.079,0,0,1,1.078,1.078v3.9h-.671a.838.838,0,0,0-.785.546l-1.445,3.877A.839.839,0,0,0,52.81,58.4h3.057l-2.875,7.385-.041-4.4a.839.839,0,0,0-.839-.83H48.5l2.452-6.58a.839.839,0,0,0-.786-1.132H44.805a2.758,2.758,0,0,0-2.755,2.755V68.22a2.758,2.758,0,0,0,2.755,2.755Zm9.042-24.794h-2.56a2.758,2.758,0,0,0-2.755,2.755v.1H46.376v-.1a4.917,4.917,0,0,1,4.912-4.912h2.56a4.917,4.917,0,0,1,4.912,4.914v3.9H56.6v-3.9a2.759,2.759,0,0,0-2.755-2.758ZM43.726,55.6A1.08,1.08,0,0,1,44.8,54.517h4.154L46.506,61.1a.839.839,0,0,0,.786,1.131h3.99l.066,7.07H44.805a1.08,1.08,0,0,1-1.078-1.078Z" transform="translate(-21.901 -29.124)"/>
        </g>
      </g>
    </g>
    <path id="Trazado_600972" data-name="Trazado 600972" d="M6.914,12.016A1.2,1.2,0,0,0,6.445,11a6.148,6.148,0,0,0-1.687-.75,11.963,11.963,0,0,1-1.93-.777A3.153,3.153,0,0,1,.891,6.648,2.747,2.747,0,0,1,1.41,5,3.389,3.389,0,0,1,2.9,3.875a5.616,5.616,0,0,1,2.184-.406,5.112,5.112,0,0,1,2.172.441,3.458,3.458,0,0,1,1.48,1.246,3.261,3.261,0,0,1,.527,1.828H6.922A1.534,1.534,0,0,0,6.43,5.77a2.023,2.023,0,0,0-1.383-.434A2.162,2.162,0,0,0,3.711,5.7a1.146,1.146,0,0,0-.477.957,1.1,1.1,0,0,0,.559.93,6.311,6.311,0,0,0,1.645.7A7.106,7.106,0,0,1,8.352,9.781,2.972,2.972,0,0,1,9.266,12a2.737,2.737,0,0,1-1.117,2.316,4.891,4.891,0,0,1-3.008.84,5.808,5.808,0,0,1-2.391-.48,3.783,3.783,0,0,1-1.645-1.316,3.371,3.371,0,0,1-.566-1.937H2.891q0,1.883,2.25,1.883a2.189,2.189,0,0,0,1.3-.34A1.106,1.106,0,0,0,6.914,12.016ZM13.086,15H10.82V6.547h2.266Zm-2.4-10.641a1.112,1.112,0,0,1,.34-.836,1.277,1.277,0,0,1,.926-.328,1.28,1.28,0,0,1,.922.328,1.105,1.105,0,0,1,.344.836,1.108,1.108,0,0,1-.348.844,1.448,1.448,0,0,1-1.836,0A1.108,1.108,0,0,1,10.688,4.359Zm8.836,8.3a.727.727,0,0,0-.41-.652,4.659,4.659,0,0,0-1.316-.426q-3.016-.633-3.016-2.562a2.323,2.323,0,0,1,.934-1.879,3.766,3.766,0,0,1,2.441-.754,4.053,4.053,0,0,1,2.574.758A2.388,2.388,0,0,1,21.7,9.117H19.438a1.092,1.092,0,0,0-.312-.8A1.322,1.322,0,0,0,18.148,8a1.351,1.351,0,0,0-.883.258.814.814,0,0,0-.312.656.7.7,0,0,0,.355.605,3.657,3.657,0,0,0,1.2.4,9.8,9.8,0,0,1,1.422.379,2.336,2.336,0,0,1,1.789,2.273,2.2,2.2,0,0,1-.992,1.871,4.28,4.28,0,0,1-2.562.715,4.47,4.47,0,0,1-1.887-.379,3.166,3.166,0,0,1-1.293-1.039,2.414,2.414,0,0,1-.469-1.426h2.141a1.179,1.179,0,0,0,.445.922,1.766,1.766,0,0,0,1.109.32,1.635,1.635,0,0,0,.98-.246A.766.766,0,0,0,19.523,12.664Zm6.352-8.2V6.547H27.32V8.2H25.875v4.219a1.007,1.007,0,0,0,.18.672.9.9,0,0,0,.688.2,3.6,3.6,0,0,0,.664-.055v1.711a4.648,4.648,0,0,1-1.367.2,2.156,2.156,0,0,1-2.422-2.4V8.2H22.383V6.547h1.234V4.469Zm6.594,10.688a4.15,4.15,0,0,1-3.027-1.141,4.054,4.054,0,0,1-1.168-3.039v-.219a5.106,5.106,0,0,1,.492-2.277A3.612,3.612,0,0,1,30.16,6.934a3.914,3.914,0,0,1,2.059-.543,3.508,3.508,0,0,1,2.73,1.094,4.444,4.444,0,0,1,1,3.1v.922H30.563a2.1,2.1,0,0,0,.66,1.328,2,2,0,0,0,1.395.5,2.437,2.437,0,0,0,2.039-.945l1.109,1.242a3.389,3.389,0,0,1-1.375,1.121A4.511,4.511,0,0,1,32.469,15.156Zm-.258-6.945a1.411,1.411,0,0,0-1.09.455,2.357,2.357,0,0,0-.535,1.3h3.141V9.788a1.681,1.681,0,0,0-.406-1.165A1.456,1.456,0,0,0,32.211,8.211Zm7.133-1.664.07.945a2.971,2.971,0,0,1,2.43-1.1A2.255,2.255,0,0,1,44.086,7.68a2.9,2.9,0,0,1,2.539-1.289,2.521,2.521,0,0,1,2.047.8,3.681,3.681,0,0,1,.672,2.41V15H47.078V9.6A1.616,1.616,0,0,0,46.8,8.544a1.245,1.245,0,0,0-.992-.333,1.409,1.409,0,0,0-1.406.971L44.406,15H42.148V9.6a1.6,1.6,0,0,0-.289-1.065,1.257,1.257,0,0,0-.984-.329,1.463,1.463,0,0,0-1.391.8V15H37.227V6.547ZM55.977,15a2.507,2.507,0,0,1-.227-.758,2.732,2.732,0,0,1-2.133.914,3,3,0,0,1-2.059-.719,2.312,2.312,0,0,1-.816-1.812,2.389,2.389,0,0,1,1-2.062,4.915,4.915,0,0,1,2.879-.727h1.039V9.352a1.393,1.393,0,0,0-.3-.937,1.183,1.183,0,0,0-.949-.352,1.345,1.345,0,0,0-.895.273.929.929,0,0,0-.324.75H50.93a2.268,2.268,0,0,1,.453-1.359,3,3,0,0,1,1.281-.98,4.669,4.669,0,0,1,1.859-.355A3.689,3.689,0,0,1,57,7.176a2.747,2.747,0,0,1,.918,2.207v3.664a4.041,4.041,0,0,0,.336,1.82V15Zm-1.867-1.57a1.945,1.945,0,0,0,.922-.223,1.462,1.462,0,0,0,.625-.6V11.156h-.844q-1.7,0-1.8,1.172L53,12.461a.9.9,0,0,0,.3.7A1.153,1.153,0,0,0,54.109,13.43Zm10.125-.766a.727.727,0,0,0-.41-.652,4.659,4.659,0,0,0-1.316-.426q-3.016-.633-3.016-2.562a2.323,2.323,0,0,1,.934-1.879,3.766,3.766,0,0,1,2.441-.754,4.053,4.053,0,0,1,2.574.758,2.388,2.388,0,0,1,.965,1.969H64.148a1.092,1.092,0,0,0-.312-.8A1.322,1.322,0,0,0,62.859,8a1.351,1.351,0,0,0-.883.258.814.814,0,0,0-.312.656.7.7,0,0,0,.355.605,3.657,3.657,0,0,0,1.2.4,9.8,9.8,0,0,1,1.422.379A2.336,2.336,0,0,1,66.43,12.57a2.2,2.2,0,0,1-.992,1.871,4.28,4.28,0,0,1-2.562.715,4.47,4.47,0,0,1-1.887-.379A3.166,3.166,0,0,1,59.7,13.738a2.414,2.414,0,0,1-.469-1.426h2.141a1.179,1.179,0,0,0,.445.922,1.766,1.766,0,0,0,1.109.32,1.635,1.635,0,0,0,.98-.246A.766.766,0,0,0,64.234,12.664Zm7.281-1.953A5.094,5.094,0,0,1,72.4,7.563a2.877,2.877,0,0,1,2.426-1.172,2.589,2.589,0,0,1,2.039.922V3h2.266V15H77.094l-.109-.9a2.657,2.657,0,0,1-2.172,1.055,2.869,2.869,0,0,1-2.395-1.176A5.258,5.258,0,0,1,71.516,10.711Zm2.258.161a3.355,3.355,0,0,0,.414,1.829,1.348,1.348,0,0,0,1.2.636,1.51,1.51,0,0,0,1.477-.887V9.1a1.489,1.489,0,0,0-1.461-.887Q73.773,8.211,73.773,10.872Zm11,4.285a4.15,4.15,0,0,1-3.027-1.141,4.054,4.054,0,0,1-1.168-3.039v-.219A5.106,5.106,0,0,1,81.07,8.48a3.612,3.612,0,0,1,1.395-1.547,3.914,3.914,0,0,1,2.059-.543,3.508,3.508,0,0,1,2.73,1.094,4.444,4.444,0,0,1,1,3.1v.922H82.867a2.1,2.1,0,0,0,.66,1.328,2,2,0,0,0,1.395.5,2.437,2.437,0,0,0,2.039-.945l1.109,1.242A3.389,3.389,0,0,1,86.7,14.754,4.511,4.511,0,0,1,84.773,15.156Zm-.258-6.945a1.411,1.411,0,0,0-1.09.455,2.357,2.357,0,0,0-.535,1.3h3.141V9.788a1.681,1.681,0,0,0-.406-1.165A1.456,1.456,0,0,0,84.516,8.211ZM95.9,15H93.633V6.547H95.9ZM93.5,4.359a1.112,1.112,0,0,1,.34-.836,1.465,1.465,0,0,1,1.848,0,1.105,1.105,0,0,1,.344.836,1.108,1.108,0,0,1-.348.844,1.448,1.448,0,0,1-1.836,0A1.108,1.108,0,0,1,93.5,4.359Zm6.336,2.188.07.977a2.951,2.951,0,0,1,2.43-1.133,2.453,2.453,0,0,1,2,.789,3.682,3.682,0,0,1,.672,2.359V15H102.75V9.581a1.47,1.47,0,0,0-.312-1.045,1.4,1.4,0,0,0-1.039-.325,1.553,1.553,0,0,0-1.43.814V15H97.711V6.547Zm7.5,8.453V8.2h-1.258V6.547h1.258V5.828a2.918,2.918,0,0,1,.816-2.207,3.162,3.162,0,0,1,2.285-.785,5.321,5.321,0,0,1,1.148.155l-.023,1.736a2.878,2.878,0,0,0-.687-.07q-1.273,0-1.273,1.205v.685h1.68V8.2H109.6V15Zm4.766-4.3a5.013,5.013,0,0,1,.484-2.242A3.546,3.546,0,0,1,113.98,6.93a4.069,4.069,0,0,1,2.113-.539,3.849,3.849,0,0,1,2.793,1.047,4.2,4.2,0,0,1,1.207,2.844l.016.578a4.418,4.418,0,0,1-1.086,3.121,4.209,4.209,0,0,1-5.832,0A4.5,4.5,0,0,1,112.1,10.8Zm2.258.16a3.16,3.16,0,0,0,.453,1.843,1.628,1.628,0,0,0,2.578.008,3.457,3.457,0,0,0,.461-2.015,3.128,3.128,0,0,0-.461-1.831,1.5,1.5,0,0,0-1.3-.649,1.474,1.474,0,0,0-1.281.646A3.516,3.516,0,0,0,114.359,10.856ZM126.25,8.664a6.134,6.134,0,0,0-.812-.062,1.654,1.654,0,0,0-1.68.867V15H121.5V6.547h2.133l.063,1.008a2.092,2.092,0,0,1,1.883-1.164,2.366,2.366,0,0,1,.7.1Zm3.2-2.117.07.945a2.971,2.971,0,0,1,2.43-1.1A2.255,2.255,0,0,1,134.2,7.68a2.9,2.9,0,0,1,2.539-1.289,2.521,2.521,0,0,1,2.047.8,3.681,3.681,0,0,1,.672,2.41V15h-2.266V9.6a1.616,1.616,0,0,0-.281-1.053,1.245,1.245,0,0,0-.992-.333,1.409,1.409,0,0,0-1.406.971L134.516,15h-2.258V9.6a1.6,1.6,0,0,0-.289-1.065,1.257,1.257,0,0,0-.984-.329,1.463,1.463,0,0,0-1.391.8V15h-2.258V6.547ZM146.086,15a2.507,2.507,0,0,1-.227-.758,2.732,2.732,0,0,1-2.133.914,3,3,0,0,1-2.059-.719,2.312,2.312,0,0,1-.816-1.812,2.389,2.389,0,0,1,1-2.062,4.915,4.915,0,0,1,2.879-.727h1.039V9.352a1.393,1.393,0,0,0-.3-.937,1.183,1.183,0,0,0-.949-.352,1.345,1.345,0,0,0-.895.273.929.929,0,0,0-.324.75h-2.258a2.268,2.268,0,0,1,.453-1.359,3,3,0,0,1,1.281-.98,4.669,4.669,0,0,1,1.859-.355,3.689,3.689,0,0,1,2.48.785,2.747,2.747,0,0,1,.918,2.207v3.664a4.041,4.041,0,0,0,.336,1.82V15Zm-1.867-1.57a1.945,1.945,0,0,0,.922-.223,1.462,1.462,0,0,0,.625-.6V11.156h-.844q-1.7,0-1.8,1.172l-.008.133a.9.9,0,0,0,.3.7A1.153,1.153,0,0,0,144.219,13.43Zm9.063-.094a1.481,1.481,0,0,0,1.016-.344,1.2,1.2,0,0,0,.406-.914h2.117a2.9,2.9,0,0,1-.469,1.574,3.093,3.093,0,0,1-1.262,1.109,3.949,3.949,0,0,1-1.77.395A3.67,3.67,0,0,1,150.461,14a4.56,4.56,0,0,1-1.047-3.184v-.148a4.508,4.508,0,0,1,1.039-3.117A3.627,3.627,0,0,1,153.3,6.391a3.555,3.555,0,0,1,2.543.9,3.2,3.2,0,0,1,.973,2.4H154.7a1.551,1.551,0,0,0-.406-1.072,1.51,1.51,0,0,0-2.223.163,3.333,3.333,0,0,0-.4,1.866v.235a3.375,3.375,0,0,0,.4,1.878A1.377,1.377,0,0,0,153.281,13.336ZM160.492,15h-2.266V6.547h2.266Zm-2.4-10.641a1.112,1.112,0,0,1,.34-.836,1.465,1.465,0,0,1,1.848,0,1.105,1.105,0,0,1,.344.836,1.109,1.109,0,0,1-.348.844,1.448,1.448,0,0,1-1.836,0A1.109,1.109,0,0,1,158.094,4.359ZM162,10.7a5.013,5.013,0,0,1,.484-2.242,3.546,3.546,0,0,1,1.395-1.523,4.069,4.069,0,0,1,2.113-.539,3.849,3.849,0,0,1,2.793,1.047,4.2,4.2,0,0,1,1.207,2.844l.016.578a4.418,4.418,0,0,1-1.086,3.121,4.209,4.209,0,0,1-5.832,0A4.5,4.5,0,0,1,162,10.8Zm2.258.16a3.16,3.16,0,0,0,.453,1.843,1.628,1.628,0,0,0,2.578.008,3.457,3.457,0,0,0,.461-2.015,3.128,3.128,0,0,0-.461-1.831,1.5,1.5,0,0,0-1.3-.649,1.474,1.474,0,0,0-1.281.646A3.516,3.516,0,0,0,164.258,10.856ZM166.438,3H168.9l-2.164,2.422H164.9Zm7.039,3.547.07.977a2.951,2.951,0,0,1,2.43-1.133,2.453,2.453,0,0,1,2,.789,3.682,3.682,0,0,1,.672,2.359V15h-2.258V9.581a1.47,1.47,0,0,0-.312-1.045,1.4,1.4,0,0,0-1.039-.325,1.553,1.553,0,0,0-1.43.814V15h-2.258V6.547Z" transform="translate(-12478 -12480)" fill="#12263f"/>
    <path id="Trazado_600973" data-name="Trazado 600973" d="M42.8,16.754H40V23H36.486V5.938h6.34A7.167,7.167,0,0,1,47.49,7.285a4.651,4.651,0,0,1,1.641,3.809,5.249,5.249,0,0,1-.756,2.912,5.155,5.155,0,0,1-2.291,1.857l3.691,6.973V23H46ZM40,13.906h2.836a2.9,2.9,0,0,0,2.051-.674,2.408,2.408,0,0,0,.727-1.857,2.578,2.578,0,0,0-.686-1.9,2.849,2.849,0,0,0-2.1-.691H40ZM55.154,23h-3.4V10.32h3.4Zm-3.6-15.961a1.668,1.668,0,0,1,.51-1.254,2.2,2.2,0,0,1,2.771,0,1.658,1.658,0,0,1,.516,1.254A1.663,1.663,0,0,1,54.832,8.3a2.172,2.172,0,0,1-2.754,0A1.663,1.663,0,0,1,51.557,7.039Zm12.223,16.2a6.225,6.225,0,0,1-4.541-1.711,6.082,6.082,0,0,1-1.752-4.559v-.328a7.66,7.66,0,0,1,.738-3.416,5.418,5.418,0,0,1,2.092-2.32,5.871,5.871,0,0,1,3.088-.814,5.262,5.262,0,0,1,4.1,1.641,6.667,6.667,0,0,1,1.494,4.652v1.383H60.92a3.146,3.146,0,0,0,.99,1.992A2.993,2.993,0,0,0,64,20.5a3.656,3.656,0,0,0,3.059-1.418l1.664,1.863a5.084,5.084,0,0,1-2.062,1.682A6.767,6.767,0,0,1,63.779,23.234Zm-.387-10.418a2.116,2.116,0,0,0-1.635.683,3.535,3.535,0,0,0-.8,1.954h4.711v-.271a2.521,2.521,0,0,0-.609-1.748A2.183,2.183,0,0,0,63.393,12.816ZM77.783,19.5a1.091,1.091,0,0,0-.615-.979,6.989,6.989,0,0,0-1.975-.639q-4.523-.949-4.523-3.844a3.484,3.484,0,0,1,1.4-2.818,5.649,5.649,0,0,1,3.662-1.131,6.08,6.08,0,0,1,3.861,1.137,3.582,3.582,0,0,1,1.447,2.953H77.654a1.639,1.639,0,0,0-.469-1.2,1.984,1.984,0,0,0-1.465-.475,2.027,2.027,0,0,0-1.324.387,1.221,1.221,0,0,0-.469.984,1.044,1.044,0,0,0,.533.908,5.485,5.485,0,0,0,1.8.6,14.693,14.693,0,0,1,2.133.568q2.684.984,2.684,3.41a3.307,3.307,0,0,1-1.488,2.807,6.42,6.42,0,0,1-3.844,1.072,6.706,6.706,0,0,1-2.83-.568,4.748,4.748,0,0,1-1.939-1.559,3.621,3.621,0,0,1-.7-2.139h3.211a1.768,1.768,0,0,0,.668,1.383,2.649,2.649,0,0,0,1.664.48,2.452,2.452,0,0,0,1.471-.369A1.149,1.149,0,0,0,77.783,19.5Zm4.98-2.93a7.431,7.431,0,0,1,1.389-4.7A4.5,4.5,0,0,1,87.9,10.086a3.946,3.946,0,0,1,3.246,1.43l.141-1.2h3.07V22.578a5.419,5.419,0,0,1-.756,2.895,4.854,4.854,0,0,1-2.127,1.875,7.477,7.477,0,0,1-3.211.645,6.953,6.953,0,0,1-2.719-.557,4.825,4.825,0,0,1-2-1.436l1.5-2.062a3.967,3.967,0,0,0,3.07,1.418,2.9,2.9,0,0,0,2.1-.721,2.7,2.7,0,0,0,.75-2.045v-.68a3.917,3.917,0,0,1-3.082,1.324,4.488,4.488,0,0,1-3.7-1.787,7.429,7.429,0,0,1-1.412-4.74Zm3.387.241a4.652,4.652,0,0,0,.691,2.714,2.2,2.2,0,0,0,1.9.983,2.35,2.35,0,0,0,2.215-1.165V13.982a2.345,2.345,0,0,0-2.191-1.165,2.211,2.211,0,0,0-1.916,1A5.244,5.244,0,0,0,86.15,16.807Zm10.277-.264a7.52,7.52,0,0,1,.727-3.363,5.319,5.319,0,0,1,2.092-2.285,6.1,6.1,0,0,1,3.17-.809,5.774,5.774,0,0,1,4.189,1.57,6.3,6.3,0,0,1,1.811,4.266l.023.867a6.627,6.627,0,0,1-1.629,4.682,6.313,6.313,0,0,1-8.748.006A6.744,6.744,0,0,1,96.428,16.7Zm3.387.24a4.74,4.74,0,0,0,.68,2.764,2.442,2.442,0,0,0,3.867.012,5.186,5.186,0,0,0,.691-3.022,4.692,4.692,0,0,0-.691-2.746,2.248,2.248,0,0,0-1.945-.974,2.211,2.211,0,0,0-1.922.968A5.274,5.274,0,0,0,99.814,16.783ZM117.393,19.5a1.091,1.091,0,0,0-.615-.979,6.989,6.989,0,0,0-1.975-.639q-4.523-.949-4.523-3.844a3.484,3.484,0,0,1,1.4-2.818,5.649,5.649,0,0,1,3.662-1.131,6.08,6.08,0,0,1,3.861,1.137,3.582,3.582,0,0,1,1.447,2.953h-3.387a1.639,1.639,0,0,0-.469-1.2,1.984,1.984,0,0,0-1.465-.475,2.027,2.027,0,0,0-1.324.387,1.221,1.221,0,0,0-.469.984,1.044,1.044,0,0,0,.533.908,5.485,5.485,0,0,0,1.8.6,14.693,14.693,0,0,1,2.133.568q2.684.984,2.684,3.41a3.307,3.307,0,0,1-1.488,2.807,6.42,6.42,0,0,1-3.844,1.072,6.706,6.706,0,0,1-2.83-.568,4.748,4.748,0,0,1-1.939-1.559,3.621,3.621,0,0,1-.7-2.139h3.211a1.768,1.768,0,0,0,.668,1.383,2.649,2.649,0,0,0,1.664.48,2.452,2.452,0,0,0,1.471-.369A1.149,1.149,0,0,0,117.393,19.5Zm10.922-2.93a7.641,7.641,0,0,1,1.33-4.723,4.316,4.316,0,0,1,3.639-1.758,3.884,3.884,0,0,1,3.059,1.383V5h3.4V23h-3.059l-.164-1.348a3.985,3.985,0,0,1-3.258,1.582,4.3,4.3,0,0,1-3.592-1.764A7.887,7.887,0,0,1,128.314,16.566Zm3.387.241a5.033,5.033,0,0,0,.621,2.743,2.022,2.022,0,0,0,1.8.954,2.265,2.265,0,0,0,2.215-1.33V14.147a2.233,2.233,0,0,0-2.191-1.33Q131.7,12.816,131.7,16.807Zm16.5,6.427a6.225,6.225,0,0,1-4.541-1.711,6.082,6.082,0,0,1-1.752-4.559v-.328a7.66,7.66,0,0,1,.738-3.416,5.418,5.418,0,0,1,2.092-2.32,5.871,5.871,0,0,1,3.088-.814,5.262,5.262,0,0,1,4.1,1.641,6.667,6.667,0,0,1,1.494,4.652v1.383h-8.074a3.146,3.146,0,0,0,.99,1.992,2.993,2.993,0,0,0,2.092.75,3.656,3.656,0,0,0,3.059-1.418l1.664,1.863a5.084,5.084,0,0,1-2.062,1.682A6.767,6.767,0,0,1,148.2,23.234Zm-.387-10.418a2.116,2.116,0,0,0-1.635.683,3.535,3.535,0,0,0-.8,1.954h4.711v-.271a2.521,2.521,0,0,0-.609-1.748A2.183,2.183,0,0,0,147.814,12.816ZM20.279,52.5a2.221,2.221,0,0,0,1.523-.516,1.807,1.807,0,0,0,.609-1.371h3.176a4.344,4.344,0,0,1-.7,2.361,4.64,4.64,0,0,1-1.893,1.664,5.923,5.923,0,0,1-2.654.592,5.5,5.5,0,0,1-4.289-1.729,6.84,6.84,0,0,1-1.57-4.775v-.223a6.762,6.762,0,0,1,1.559-4.676,5.441,5.441,0,0,1,4.277-1.746,5.333,5.333,0,0,1,3.814,1.354,4.792,4.792,0,0,1,1.459,3.6H22.412a2.327,2.327,0,0,0-.609-1.608,2.032,2.032,0,0,0-1.547-.619,2.04,2.04,0,0,0-1.787.863,5,5,0,0,0-.6,2.8v.352a5.063,5.063,0,0,0,.6,2.817A2.065,2.065,0,0,0,20.279,52.5ZM31.1,55H27.7V42.32h3.4ZM27.5,39.039a1.668,1.668,0,0,1,.51-1.254,2.2,2.2,0,0,1,2.771,0,1.79,1.79,0,0,1-.006,2.52,2.172,2.172,0,0,1-2.754,0A1.663,1.663,0,0,1,27.5,39.039Zm17.813,9.738a7.678,7.678,0,0,1-1.3,4.752,4.309,4.309,0,0,1-3.633,1.705,3.959,3.959,0,0,1-3.293-1.582L36.932,55H33.885V37h3.387v6.457a3.857,3.857,0,0,1,3.082-1.371,4.344,4.344,0,0,1,3.639,1.705,7.689,7.689,0,0,1,1.318,4.8Zm-3.387-.258a5.072,5.072,0,0,0-.609-2.815,2.058,2.058,0,0,0-1.816-.888,2.233,2.233,0,0,0-2.227,1.328v5.019a2.263,2.263,0,0,0,2.25,1.34,2.092,2.092,0,0,0,2.156-1.622A8.392,8.392,0,0,0,41.924,48.519Zm11.309,6.715a6.225,6.225,0,0,1-4.541-1.711,6.082,6.082,0,0,1-1.752-4.559v-.328a7.66,7.66,0,0,1,.738-3.416A5.418,5.418,0,0,1,49.77,42.9a5.871,5.871,0,0,1,3.088-.814,5.262,5.262,0,0,1,4.1,1.641,6.667,6.667,0,0,1,1.494,4.652v1.383H50.373a3.146,3.146,0,0,0,.99,1.992,2.993,2.993,0,0,0,2.092.75,3.656,3.656,0,0,0,3.059-1.418l1.664,1.863a5.084,5.084,0,0,1-2.062,1.682A6.767,6.767,0,0,1,53.232,55.234Zm-.387-10.418a2.116,2.116,0,0,0-1.635.683,3.535,3.535,0,0,0-.8,1.954h4.711v-.271a2.521,2.521,0,0,0-.609-1.748A2.183,2.183,0,0,0,52.846,44.816Zm14.648.68a9.2,9.2,0,0,0-1.219-.094,2.481,2.481,0,0,0-2.52,1.3V55H60.369V42.32h3.2l.094,1.512a3.138,3.138,0,0,1,2.824-1.746,3.549,3.549,0,0,1,1.055.152Zm8.5,6a1.091,1.091,0,0,0-.615-.979,6.989,6.989,0,0,0-1.975-.639q-4.523-.949-4.523-3.844a3.484,3.484,0,0,1,1.4-2.818,5.649,5.649,0,0,1,3.662-1.131A6.08,6.08,0,0,1,77.8,43.223a3.582,3.582,0,0,1,1.447,2.953H75.861a1.639,1.639,0,0,0-.469-1.2,1.984,1.984,0,0,0-1.465-.475,2.027,2.027,0,0,0-1.324.387,1.221,1.221,0,0,0-.469.984,1.044,1.044,0,0,0,.533.908,5.485,5.485,0,0,0,1.8.6,14.692,14.692,0,0,1,2.133.568q2.684.984,2.684,3.41a3.307,3.307,0,0,1-1.488,2.807,6.42,6.42,0,0,1-3.844,1.072,6.706,6.706,0,0,1-2.83-.568,4.748,4.748,0,0,1-1.939-1.559,3.621,3.621,0,0,1-.7-2.139h3.211a1.768,1.768,0,0,0,.668,1.383,2.649,2.649,0,0,0,1.664.48,2.452,2.452,0,0,0,1.471-.369A1.149,1.149,0,0,0,75.99,51.5ZM87.3,55.234a6.225,6.225,0,0,1-4.541-1.711,6.082,6.082,0,0,1-1.752-4.559v-.328a7.66,7.66,0,0,1,.738-3.416,5.418,5.418,0,0,1,2.092-2.32,5.871,5.871,0,0,1,3.088-.814,5.262,5.262,0,0,1,4.1,1.641,6.667,6.667,0,0,1,1.494,4.652v1.383H84.439a3.146,3.146,0,0,0,.99,1.992,2.993,2.993,0,0,0,2.092.75,3.656,3.656,0,0,0,3.059-1.418l1.664,1.863a5.084,5.084,0,0,1-2.062,1.682A6.767,6.767,0,0,1,87.3,55.234Zm-.387-10.418a2.116,2.116,0,0,0-1.635.683,3.535,3.535,0,0,0-.8,1.954h4.711v-.271a2.521,2.521,0,0,0-.609-1.748A2.183,2.183,0,0,0,86.912,44.816Zm7.031,3.75a7.431,7.431,0,0,1,1.389-4.7,4.5,4.5,0,0,1,3.744-1.781,3.946,3.946,0,0,1,3.246,1.43l.141-1.2h3.07V54.578a5.419,5.419,0,0,1-.756,2.895,4.854,4.854,0,0,1-2.127,1.875,7.477,7.477,0,0,1-3.211.645,6.953,6.953,0,0,1-2.719-.557,4.825,4.825,0,0,1-2-1.436l1.5-2.062a3.967,3.967,0,0,0,3.07,1.418,2.9,2.9,0,0,0,2.1-.721,2.7,2.7,0,0,0,.75-2.045v-.68a3.917,3.917,0,0,1-3.082,1.324,4.488,4.488,0,0,1-3.7-1.787,7.429,7.429,0,0,1-1.412-4.74Zm3.387.241a4.652,4.652,0,0,0,.691,2.714,2.2,2.2,0,0,0,1.9.983,2.35,2.35,0,0,0,2.215-1.165V45.982a2.345,2.345,0,0,0-2.191-1.165,2.211,2.211,0,0,0-1.916,1A5.244,5.244,0,0,0,97.33,48.807Zm18.4,4.9a4.247,4.247,0,0,1-3.469,1.523,4.005,4.005,0,0,1-3.111-1.172,5,5,0,0,1-1.1-3.434V42.32h3.387v8.2q0,1.983,1.8,1.983a2.445,2.445,0,0,0,2.367-1.2V42.32h3.4V55h-3.187ZM128.689,45.5a9.2,9.2,0,0,0-1.219-.094,2.481,2.481,0,0,0-2.52,1.3V55h-3.387V42.32h3.2l.094,1.512a3.138,3.138,0,0,1,2.824-1.746,3.549,3.549,0,0,1,1.055.152Zm5.2,9.5h-3.4V42.32h3.4Zm-3.6-15.961a1.668,1.668,0,0,1,.51-1.254,2.2,2.2,0,0,1,2.771,0,1.79,1.79,0,0,1-.006,2.52,2.172,2.172,0,0,1-2.754,0A1.663,1.663,0,0,1,130.295,39.039Zm5.859,9.527a7.641,7.641,0,0,1,1.33-4.723,4.316,4.316,0,0,1,3.639-1.758,3.884,3.884,0,0,1,3.059,1.383V37h3.4V55h-3.059l-.164-1.348a3.985,3.985,0,0,1-3.258,1.582,4.3,4.3,0,0,1-3.592-1.764A7.887,7.887,0,0,1,136.154,48.566Zm3.387.241a5.033,5.033,0,0,0,.621,2.743,2.022,2.022,0,0,0,1.8.954,2.265,2.265,0,0,0,2.215-1.33V46.147a2.233,2.233,0,0,0-2.191-1.33Q139.541,44.816,139.541,48.807ZM157.553,55a3.761,3.761,0,0,1-.34-1.137,4.1,4.1,0,0,1-3.2,1.371,4.5,4.5,0,0,1-3.088-1.078,3.467,3.467,0,0,1-1.225-2.719,3.583,3.583,0,0,1,1.494-3.094,7.373,7.373,0,0,1,4.318-1.09h1.559v-.727a2.089,2.089,0,0,0-.451-1.406,1.775,1.775,0,0,0-1.424-.527,2.018,2.018,0,0,0-1.342.41,1.393,1.393,0,0,0-.486,1.125h-3.387a3.4,3.4,0,0,1,.68-2.039,4.493,4.493,0,0,1,1.922-1.471,7,7,0,0,1,2.789-.533,5.534,5.534,0,0,1,3.721,1.178,4.12,4.12,0,0,1,1.377,3.311v5.5a6.062,6.062,0,0,0,.5,2.73V55Zm-2.8-2.355a2.917,2.917,0,0,0,1.383-.334,2.194,2.194,0,0,0,.938-.9v-2.18h-1.266q-2.543,0-2.707,1.758l-.012.2a1.356,1.356,0,0,0,.445,1.043A1.73,1.73,0,0,0,154.752,52.645Zm7.793-4.078a7.641,7.641,0,0,1,1.33-4.723,4.316,4.316,0,0,1,3.639-1.758,3.884,3.884,0,0,1,3.059,1.383V37h3.4V55h-3.059l-.164-1.348a3.985,3.985,0,0,1-3.258,1.582,4.3,4.3,0,0,1-3.592-1.764A7.887,7.887,0,0,1,162.545,48.566Zm3.387.241a5.033,5.033,0,0,0,.621,2.743,2.022,2.022,0,0,0,1.8.954,2.265,2.265,0,0,0,2.215-1.33V46.147a2.233,2.233,0,0,0-2.191-1.33Q165.932,44.816,165.932,48.807Z" transform="translate(-12277 -12226)" fill="#12263f"/>
    <path id="Trazado_600974" data-name="Trazado 600974" d="M5.219,12.18,7.8,3.625h2.609L6.445,15H4L.055,3.625h2.6Zm10.953,1.961a2.831,2.831,0,0,1-2.312,1.016,2.67,2.67,0,0,1-2.074-.781,3.335,3.335,0,0,1-.73-2.289V6.547h2.258v5.467q0,1.322,1.2,1.322a1.63,1.63,0,0,0,1.578-.8V6.547h2.266V15H16.234ZM22.445,15H20.18V3h2.266Zm3.938-8.453.07.977a2.951,2.951,0,0,1,2.43-1.133,2.453,2.453,0,0,1,2,.789,3.682,3.682,0,0,1,.672,2.359V15H29.3V9.581a1.47,1.47,0,0,0-.312-1.045,1.4,1.4,0,0,0-1.039-.325,1.553,1.553,0,0,0-1.43.814V15H24.258V6.547Zm10.773,8.609a4.15,4.15,0,0,1-3.027-1.141,4.054,4.054,0,0,1-1.168-3.039v-.219a5.106,5.106,0,0,1,.492-2.277,3.612,3.612,0,0,1,1.395-1.547,3.914,3.914,0,0,1,2.059-.543,3.508,3.508,0,0,1,2.73,1.094,4.444,4.444,0,0,1,1,3.1v.922H35.25a2.1,2.1,0,0,0,.66,1.328,2,2,0,0,0,1.395.5,2.437,2.437,0,0,0,2.039-.945l1.109,1.242a3.389,3.389,0,0,1-1.375,1.121A4.511,4.511,0,0,1,37.156,15.156ZM36.9,8.211a1.411,1.411,0,0,0-1.09.455,2.357,2.357,0,0,0-.535,1.3h3.141V9.788a1.681,1.681,0,0,0-.406-1.165A1.456,1.456,0,0,0,36.9,8.211Zm9.766.453a6.134,6.134,0,0,0-.812-.062,1.654,1.654,0,0,0-1.68.867V15H41.914V6.547h2.133l.063,1.008a2.092,2.092,0,0,1,1.883-1.164,2.366,2.366,0,0,1,.7.1ZM52.414,15a2.507,2.507,0,0,1-.227-.758,2.732,2.732,0,0,1-2.133.914A3,3,0,0,1,48,14.438a2.312,2.312,0,0,1-.816-1.812,2.389,2.389,0,0,1,1-2.062,4.915,4.915,0,0,1,2.879-.727h1.039V9.352a1.393,1.393,0,0,0-.3-.937,1.183,1.183,0,0,0-.949-.352,1.345,1.345,0,0,0-.895.273.929.929,0,0,0-.324.75H47.367a2.268,2.268,0,0,1,.453-1.359,3,3,0,0,1,1.281-.98,4.669,4.669,0,0,1,1.859-.355,3.689,3.689,0,0,1,2.48.785,2.747,2.747,0,0,1,.918,2.207v3.664a4.041,4.041,0,0,0,.336,1.82V15Zm-1.867-1.57a1.945,1.945,0,0,0,.922-.223,1.462,1.462,0,0,0,.625-.6V11.156H51.25q-1.7,0-1.8,1.172l-.008.133a.9.9,0,0,0,.3.7A1.153,1.153,0,0,0,50.547,13.43Zm13.164-2.578a5.119,5.119,0,0,1-.867,3.168,2.872,2.872,0,0,1-2.422,1.137,2.639,2.639,0,0,1-2.2-1.055l-.1.9H56.094V3h2.258V7.3a2.571,2.571,0,0,1,2.055-.914,2.9,2.9,0,0,1,2.426,1.137,5.126,5.126,0,0,1,.879,3.2Zm-2.258-.172A3.381,3.381,0,0,0,61.047,8.8a1.372,1.372,0,0,0-1.211-.592,1.489,1.489,0,0,0-1.484.885v3.346a1.509,1.509,0,0,0,1.5.893,1.4,1.4,0,0,0,1.438-1.081A5.6,5.6,0,0,0,61.453,10.679ZM67.484,15H65.219V6.547h2.266Zm-2.4-10.641a1.112,1.112,0,0,1,.34-.836,1.465,1.465,0,0,1,1.848,0,1.105,1.105,0,0,1,.344.836,1.108,1.108,0,0,1-.348.844,1.448,1.448,0,0,1-1.836,0A1.108,1.108,0,0,1,65.086,4.359ZM71.727,15H69.461V3h2.266Zm4.242,0H73.7V6.547h2.266ZM73.57,4.359a1.112,1.112,0,0,1,.34-.836,1.465,1.465,0,0,1,1.848,0,1.105,1.105,0,0,1,.344.836,1.108,1.108,0,0,1-.348.844,1.448,1.448,0,0,1-1.836,0A1.108,1.108,0,0,1,73.57,4.359ZM82.727,15a2.507,2.507,0,0,1-.227-.758,2.732,2.732,0,0,1-2.133.914,3,3,0,0,1-2.059-.719,2.312,2.312,0,0,1-.816-1.812,2.389,2.389,0,0,1,1-2.062,4.915,4.915,0,0,1,2.879-.727h1.039V9.352a1.393,1.393,0,0,0-.3-.937,1.183,1.183,0,0,0-.949-.352,1.345,1.345,0,0,0-.895.273.929.929,0,0,0-.324.75H77.68a2.268,2.268,0,0,1,.453-1.359,3,3,0,0,1,1.281-.98,4.669,4.669,0,0,1,1.859-.355,3.689,3.689,0,0,1,2.48.785,2.747,2.747,0,0,1,.918,2.207v3.664a4.041,4.041,0,0,0,.336,1.82V15Zm-1.867-1.57a1.945,1.945,0,0,0,.922-.223,1.462,1.462,0,0,0,.625-.6V11.156h-.844q-1.7,0-1.8,1.172l-.008.133a.9.9,0,0,0,.3.7A1.153,1.153,0,0,0,80.859,13.43Zm5.2-2.719a5.094,5.094,0,0,1,.887-3.148,2.877,2.877,0,0,1,2.426-1.172,2.589,2.589,0,0,1,2.039.922V3h2.266V15H91.633l-.109-.9a2.657,2.657,0,0,1-2.172,1.055,2.869,2.869,0,0,1-2.395-1.176A5.258,5.258,0,0,1,86.055,10.711Zm2.258.161a3.355,3.355,0,0,0,.414,1.829,1.348,1.348,0,0,0,1.2.636,1.51,1.51,0,0,0,1.477-.887V9.1a1.489,1.489,0,0,0-1.461-.887Q88.313,8.211,88.313,10.872Zm11,4.285a4.15,4.15,0,0,1-3.027-1.141,4.054,4.054,0,0,1-1.168-3.039v-.219a5.106,5.106,0,0,1,.492-2.277A3.612,3.612,0,0,1,97,6.934a3.914,3.914,0,0,1,2.059-.543,3.508,3.508,0,0,1,2.73,1.094,4.444,4.444,0,0,1,1,3.1v.922H97.406a2.1,2.1,0,0,0,.66,1.328,2,2,0,0,0,1.395.5,2.437,2.437,0,0,0,2.039-.945l1.109,1.242a3.389,3.389,0,0,1-1.375,1.121A4.511,4.511,0,0,1,99.313,15.156Zm-.258-6.945a1.411,1.411,0,0,0-1.09.455,2.357,2.357,0,0,0-.535,1.3h3.141V9.788a1.681,1.681,0,0,0-.406-1.165A1.456,1.456,0,0,0,99.055,8.211Zm9.594,4.453a.727.727,0,0,0-.41-.652,4.659,4.659,0,0,0-1.316-.426q-3.016-.633-3.016-2.562a2.323,2.323,0,0,1,.934-1.879,3.766,3.766,0,0,1,2.441-.754,4.053,4.053,0,0,1,2.574.758,2.388,2.388,0,0,1,.965,1.969h-2.258a1.092,1.092,0,0,0-.312-.8A1.322,1.322,0,0,0,107.273,8a1.351,1.351,0,0,0-.883.258.814.814,0,0,0-.312.656.7.7,0,0,0,.355.605,3.657,3.657,0,0,0,1.2.4,9.8,9.8,0,0,1,1.422.379,2.336,2.336,0,0,1,1.789,2.273,2.2,2.2,0,0,1-.992,1.871,4.28,4.28,0,0,1-2.562.715,4.47,4.47,0,0,1-1.887-.379,3.166,3.166,0,0,1-1.293-1.039,2.414,2.414,0,0,1-.469-1.426h2.141a1.179,1.179,0,0,0,.445.922,1.766,1.766,0,0,0,1.109.32,1.635,1.635,0,0,0,.98-.246A.766.766,0,0,0,108.648,12.664Z" transform="translate(-12535 -12070)" fill="#12263f"/>
    <path id="Trazado_600975" data-name="Trazado 600975" d="M7.438,12.656H3.328L2.547,15H.055L4.289,3.625H6.461L10.719,15H8.227Zm-3.477-1.9H6.8L5.375,6.5Zm9.414-4.211.07.945a2.971,2.971,0,0,1,2.43-1.1A2.255,2.255,0,0,1,18.117,7.68a2.9,2.9,0,0,1,2.539-1.289,2.521,2.521,0,0,1,2.047.8,3.681,3.681,0,0,1,.672,2.41V15H21.109V9.6a1.616,1.616,0,0,0-.281-1.053,1.245,1.245,0,0,0-.992-.333,1.409,1.409,0,0,0-1.406.971L18.438,15H16.18V9.6a1.6,1.6,0,0,0-.289-1.065,1.257,1.257,0,0,0-.984-.329,1.463,1.463,0,0,0-1.391.8V15H11.258V6.547ZM29,15.156a4.15,4.15,0,0,1-3.027-1.141A4.054,4.054,0,0,1,24.8,10.977v-.219A5.106,5.106,0,0,1,25.3,8.48a3.612,3.612,0,0,1,1.395-1.547,3.914,3.914,0,0,1,2.059-.543,3.508,3.508,0,0,1,2.73,1.094,4.444,4.444,0,0,1,1,3.1v.922H27.094a2.1,2.1,0,0,0,.66,1.328,2,2,0,0,0,1.395.5,2.437,2.437,0,0,0,2.039-.945L32.3,13.633a3.389,3.389,0,0,1-1.375,1.121A4.511,4.511,0,0,1,29,15.156Zm-.258-6.945a1.411,1.411,0,0,0-1.09.455,2.357,2.357,0,0,0-.535,1.3h3.141V9.788a1.681,1.681,0,0,0-.406-1.165A1.456,1.456,0,0,0,28.742,8.211Zm7.094-1.664.07.977a2.951,2.951,0,0,1,2.43-1.133,2.453,2.453,0,0,1,2,.789,3.682,3.682,0,0,1,.672,2.359V15H38.75V9.581a1.47,1.47,0,0,0-.312-1.045A1.4,1.4,0,0,0,37.4,8.211a1.553,1.553,0,0,0-1.43.814V15H33.711V6.547ZM47.617,15a2.507,2.507,0,0,1-.227-.758,2.732,2.732,0,0,1-2.133.914,3,3,0,0,1-2.059-.719,2.312,2.312,0,0,1-.816-1.812,2.389,2.389,0,0,1,1-2.062,4.915,4.915,0,0,1,2.879-.727H47.3V9.352a1.393,1.393,0,0,0-.3-.937,1.183,1.183,0,0,0-.949-.352,1.345,1.345,0,0,0-.895.273.929.929,0,0,0-.324.75H42.57a2.268,2.268,0,0,1,.453-1.359,3,3,0,0,1,1.281-.98,4.669,4.669,0,0,1,1.859-.355,3.689,3.689,0,0,1,2.48.785,2.747,2.747,0,0,1,.918,2.207v3.664a4.041,4.041,0,0,0,.336,1.82V15ZM45.75,13.43a1.945,1.945,0,0,0,.922-.223,1.462,1.462,0,0,0,.625-.6V11.156h-.844q-1.7,0-1.8,1.172l-.008.133a.9.9,0,0,0,.3.7A1.153,1.153,0,0,0,45.75,13.43Zm8.141-.25h4.133V15H51.008V13.625l3.977-5.258H51.125V6.547H57.9v1.33ZM64.336,15a2.507,2.507,0,0,1-.227-.758,2.732,2.732,0,0,1-2.133.914,3,3,0,0,1-2.059-.719,2.312,2.312,0,0,1-.816-1.812,2.389,2.389,0,0,1,1-2.062,4.915,4.915,0,0,1,2.879-.727h1.039V9.352a1.393,1.393,0,0,0-.3-.937,1.183,1.183,0,0,0-.949-.352,1.345,1.345,0,0,0-.895.273.929.929,0,0,0-.324.75H59.289a2.268,2.268,0,0,1,.453-1.359,3,3,0,0,1,1.281-.98,4.669,4.669,0,0,1,1.859-.355,3.689,3.689,0,0,1,2.48.785,2.747,2.747,0,0,1,.918,2.207v3.664a4.041,4.041,0,0,0,.336,1.82V15Zm-1.867-1.57a1.945,1.945,0,0,0,.922-.223,1.462,1.462,0,0,0,.625-.6V11.156h-.844q-1.7,0-1.8,1.172l-.008.133a.9.9,0,0,0,.3.7A1.153,1.153,0,0,0,62.469,13.43Zm10.125-.766a.727.727,0,0,0-.41-.652,4.659,4.659,0,0,0-1.316-.426q-3.016-.633-3.016-2.562a2.323,2.323,0,0,1,.934-1.879,3.766,3.766,0,0,1,2.441-.754,4.053,4.053,0,0,1,2.574.758,2.388,2.388,0,0,1,.965,1.969H72.508a1.092,1.092,0,0,0-.312-.8A1.322,1.322,0,0,0,71.219,8a1.351,1.351,0,0,0-.883.258.814.814,0,0,0-.312.656.7.7,0,0,0,.355.605,3.657,3.657,0,0,0,1.2.4A9.8,9.8,0,0,1,73,10.3a2.336,2.336,0,0,1,1.789,2.273,2.2,2.2,0,0,1-.992,1.871,4.28,4.28,0,0,1-2.562.715,4.47,4.47,0,0,1-1.887-.379,3.166,3.166,0,0,1-1.293-1.039,2.414,2.414,0,0,1-.469-1.426h2.141a1.179,1.179,0,0,0,.445.922,1.766,1.766,0,0,0,1.109.32,1.635,1.635,0,0,0,.98-.246A.766.766,0,0,0,72.594,12.664Z" transform="translate(-11921 -12199)" fill="#12263f"/>
    <g id="riesgo" transform="translate(-12212.542 -12290.27)">
      <g id="Grupo_108397" data-name="Grupo 108397" transform="translate(6.354 6.354)">
        <g id="Grupo_108396" data-name="Grupo 108396">
          <g id="Grupo_108395" data-name="Grupo 108395">
            <g id="Grupo_108394" data-name="Grupo 108394">
              <g id="Grupo_108393" data-name="Grupo 108393">
                <g id="Grupo_108392" data-name="Grupo 108392">
                  <circle id="Elipse_4870" data-name="Elipse 4870" cx="24.051" cy="24.051" r="24.051" fill="#e01650"/>
                  <path id="Trazado_165668" data-name="Trazado 165668" d="M35.6,57.564q-.992.084-2.008.083a24.05,24.05,0,0,1,0-48.1q1.016,0,2.008.083a24.051,24.051,0,0,0,0,47.935Z" transform="translate(-9.545 -9.545)" fill="#e01650"/>
                  <path id="Trazado_165669" data-name="Trazado 165669" d="M144.168,33.6a24.051,24.051,0,0,1-24.05,24.05q-1.016,0-2.008-.083a24.051,24.051,0,0,0,0-47.935q.992-.084,2.008-.083a24.051,24.051,0,0,1,24.05,24.05Z" transform="translate(-96.067 -9.545)" fill="#e01650"/>
                </g>
              </g>
            </g>
          </g>
        </g>
      </g>
      <g id="Grupo_108401" data-name="Grupo 108401" transform="translate(28.209 16.208)">
        <g id="Grupo_108400" data-name="Grupo 108400" transform="translate(0 0)">
          <g id="Grupo_108399" data-name="Grupo 108399">
            <circle id="Elipse_4871" data-name="Elipse 4871" cx="2.195" cy="2.195" r="2.195" transform="translate(0.001 24.003)" fill="#ffb206"/>
            <path id="Trazado_165670" data-name="Trazado 165670" d="M120.35,180.463a2.2,2.2,0,1,1,0-3.94,2.195,2.195,0,0,0,0,3.94Z" transform="translate(-117.185 -152.294)" fill="#ffb206"/>
            <g id="Grupo_108398" data-name="Grupo 108398" transform="translate(0.006)">
              <path id="Trazado_165671" data-name="Trazado 165671" d="M117.216,60.268V76.48a2.237,2.237,0,0,0,2.232,2.247,2.19,2.19,0,0,0,2.148-2.189V60.268a2.19,2.19,0,1,0-4.379,0Z" transform="translate(-117.216 -58.077)" fill="#ffb206"/>
              <path id="Trazado_165672" data-name="Trazado 165672" d="M120.388,78.495a2.209,2.209,0,0,1-.94.23,2.236,2.236,0,0,1-2.231-2.248V60.266a2.19,2.19,0,0,1,3.158-1.965,2.2,2.2,0,0,0-1.221,1.965V76.477A2.276,2.276,0,0,0,120.388,78.495Z" transform="translate(-117.217 -58.075)" fill="#ffb206"/>
            </g>
          </g>
        </g>
      </g>
      <g id="Grupo_108402" data-name="Grupo 108402" transform="translate(5.542 5.542)">
        <path id="Trazado_165673" data-name="Trazado 165673" d="M30.405,5.542A24.863,24.863,0,1,0,55.269,30.405,24.891,24.891,0,0,0,30.405,5.542Zm0,48.1A23.239,23.239,0,1,1,53.644,30.405,23.265,23.265,0,0,1,30.405,53.644Z" transform="translate(-5.542 -5.542)"/>
        <path id="Trazado_165674" data-name="Trazado 165674" d="M210.6,82.938a.812.812,0,0,0-1.476.678,20.693,20.693,0,0,1,1.162,10.33.812.812,0,1,0,1.609.22A22.244,22.244,0,0,0,210.6,82.938Z" transform="translate(-167.734 -66.847)"/>
        <path id="Trazado_165675" data-name="Trazado 165675" d="M209.117,150.253a.813.813,0,0,0-1,.564,22.316,22.316,0,0,1-.977,2.774.812.812,0,1,0,1.493.639,24,24,0,0,0,1.049-2.976A.812.812,0,0,0,209.117,150.253Z" transform="translate(-166.155 -120.847)"/>
        <path id="Trazado_165676" data-name="Trazado 165676" d="M116.218,76.352a3.016,3.016,0,0,0,3-3V57.08a3,3,0,0,0-6,0V73.292A3.051,3.051,0,0,0,116.218,76.352ZM114.839,57.08a1.378,1.378,0,0,1,2.755,0V73.35a1.384,1.384,0,0,1-1.351,1.377,1.426,1.426,0,0,1-1.4-1.435Z" transform="translate(-91.354 -44.223)"/>
        <path id="Trazado_165677" data-name="Trazado 165677" d="M116.2,172.3a3.008,3.008,0,1,0,3.008,3.008A3.011,3.011,0,0,0,116.2,172.3Zm0,4.391a1.383,1.383,0,1,1,1.383-1.383A1.385,1.385,0,0,1,116.2,176.689Z" transform="translate(-91.332 -138.441)"/>
      </g>
    </g>
    <g id="threat" transform="translate(-12069.598 -12179.254)">
      <g id="Grupo_87655" data-name="Grupo 87655" transform="translate(0.931 24.641)">
        <path id="Trazado_149809" data-name="Trazado 149809" d="M29.22,108.923H60.442a2.125,2.125,0,0,1,2.116,2.116V144.6a2.122,2.122,0,0,1-2.116,2.113H9.608A2.119,2.119,0,0,1,7.5,144.6V111.039a2.122,2.122,0,0,1,2.112-2.116Z" transform="translate(-7.496 -108.923)" fill="#fff" fill-rule="evenodd"/>
      </g>
      <g id="Grupo_87656" data-name="Grupo 87656" transform="translate(22.081 60.294)">
        <path id="Trazado_149810" data-name="Trazado 149810" d="M191.3,398.114l-7.147-2.141-6.38,2.141V403l6.764,1.954L191.3,403Z" transform="translate(-177.776 -395.973)" fill="#d2b7ff" fill-rule="evenodd"/>
      </g>
      <g id="Grupo_87657" data-name="Grupo 87657" transform="translate(5.864 47.277)">
        <path id="Trazado_149811" data-name="Trazado 149811" d="M51.872,291.21a4.676,4.676,0,0,0-4.662,4.662v4.641l36.279-.021v-4.658a4.671,4.671,0,0,0-4.658-4.662C74.06,291.171,56.959,291.21,51.872,291.21Z" transform="translate(-47.21 -291.171)" fill="#3d095a" fill-rule="evenodd"/>
      </g>
      <g id="Grupo_87658" data-name="Grupo 87658" transform="translate(0.931 56.618)">
        <path id="Trazado_149812" data-name="Trazado 149812" d="M12.428,366.378H7.495v3.7a2.119,2.119,0,0,0,2.112,2.113H60.441a2.122,2.122,0,0,0,2.116-2.113v-3.7H30.567l-18.139.021Z" transform="translate(-7.495 -366.378)" fill="#d2b7ff" fill-rule="evenodd"/>
      </g>
      <g id="Grupo_87659" data-name="Grupo 87659" transform="translate(13.937 67.318)">
        <path id="Trazado_149813" data-name="Trazado 149813" d="M133.88,452.527H114.652a2.449,2.449,0,0,0-2.443,2.44v1.8a.647.647,0,0,0,.644.644h28.522a.648.648,0,0,0,.648-.644v-1.8a2.448,2.448,0,0,0-2.443-2.44Z" transform="translate(-112.209 -452.527)" fill="#d2b7ff" fill-rule="evenodd"/>
      </g>
      <g id="Grupo_87660" data-name="Grupo 87660" transform="translate(41.701 13.619)">
        <path id="Trazado_149814" data-name="Trazado 149814" d="M338.751,31.205,335.983,36a1.912,1.912,0,0,0,1.634,2.831h17.206A1.912,1.912,0,0,0,356.457,36l-4.3-7.45-4.3-7.45a1.913,1.913,0,0,0-3.271,0l-4.3,7.45Z" transform="translate(-335.743 -20.183)" fill="#ffb206" fill-rule="evenodd"/>
      </g>
      <g id="Grupo_87661" data-name="Grupo 87661" transform="translate(33.322 47.277)">
        <path id="Trazado_149815" data-name="Trazado 149815" d="M272.449,291.171h-1.528c-.76,0-1.651,0-2.634,0a4.612,4.612,0,0,1,2.524.75,4.666,4.666,0,0,1,2.134,3.912v4.658l4.162,0v-4.658A4.671,4.671,0,0,0,272.449,291.171Z" transform="translate(-268.287 -291.171)" fill="#29063c" fill-rule="evenodd"/>
      </g>
      <g id="Grupo_87662" data-name="Grupo 87662" transform="translate(10.11 31.221)">
        <path id="Trazado_149816" data-name="Trazado 149816" d="M83.264,161.9c-2.7,0-2.454,5.482.613,5.482h.947c1.535-2.141,1.1-3.788-.426-5.482Z" transform="translate(-81.394 -161.905)" fill="#f5a96c" fill-rule="evenodd"/>
      </g>
      <g id="Grupo_87663" data-name="Grupo 87663" transform="translate(33.911 31.221)">
        <path id="Trazado_149817" data-name="Trazado 149817" d="M273.817,167.387h1.063c3.067,0,3.317-5.482.613-5.482h-1.225C272.824,163.507,272.592,165.183,273.817,167.387Z" transform="translate(-273.025 -161.905)" fill="#f5a96c" fill-rule="evenodd"/>
      </g>
      <g id="Grupo_87664" data-name="Grupo 87664" transform="translate(12.155 40.924)">
        <path id="Trazado_149818" data-name="Trazado 149818" d="M101.9,240.3a6.321,6.321,0,0,0-4.035,5.605,6.071,6.071,0,0,0,6.052,6.056l5.021,0C110.589,247.579,106.562,238.326,101.9,240.3Z" transform="translate(-97.865 -240.025)" fill="#ffde95" fill-rule="evenodd"/>
      </g>
      <g id="Grupo_87665" data-name="Grupo 87665" transform="translate(24.973 41.165)">
        <path id="Trazado_149819" data-name="Trazado 149819" d="M203.131,243.562c-3.024.313-1.732,6.433-2.06,10.087l4.943,0a6.072,6.072,0,0,0,6.052-6.053c0-.162-.007-.324-.021-.482a6.36,6.36,0,0,0-3.957-5.119C206.208,241.721,205.849,243.281,203.131,243.562Z" transform="translate(-201.066 -241.96)" fill="#ffde95" fill-rule="evenodd"/>
      </g>
      <g id="Grupo_87666" data-name="Grupo 87666" transform="translate(18.817 41.66)">
        <path id="Trazado_149820" data-name="Trazado 149820" d="M151.5,251.5c0,3.053,1.972,5.556,4.412,5.641h1.75c2.429-.1,4.391-2.6,4.391-5.641v-3.715c-3.89-2.556-6.954-2.356-10.552.028Z" transform="translate(-151.498 -245.945)" fill="#ffbc85" fill-rule="evenodd"/>
      </g>
      <g id="Grupo_87667" data-name="Grupo 87667" transform="translate(13.539 33.025)">
        <path id="Trazado_149821" data-name="Trazado 149821" d="M111.657,184.6a14.3,14.3,0,0,0,2.627,2.331,12.094,12.094,0,0,0,2.711,1.4,6.054,6.054,0,0,0,5.07,0,12.47,12.47,0,0,0,2.771-1.433,14.777,14.777,0,0,0,2.627-2.3,13.011,13.011,0,0,0,2.708-4.493l-6.123-2.26c-1.51-.556-2.95-1.525-4.517-1.408-1.172.088-2.257,1.039-3.422,1.408l-7.1,2.26A13.074,13.074,0,0,0,111.657,184.6Z" transform="translate(-109.006 -176.427)" fill="#7f17b7" fill-rule="evenodd"/>
      </g>
      <g id="Grupo_87668" data-name="Grupo 87668" transform="translate(13.113 17.663)">
        <path id="Trazado_149822" data-name="Trazado 149822" d="M127.616,63.69c-.4-14.647-22.044-14.57-22.04.053V64.4L117.128,66.3,127.616,64.4Z" transform="translate(-105.576 -52.74)" fill="#3d095a" fill-rule="evenodd"/>
      </g>
      <g id="Grupo_87669" data-name="Grupo 87669" transform="translate(13.113 29.327)">
        <path id="Trazado_149823" data-name="Trazado 149823" d="M116.526,152.622c1.567-.116,2.908,1.408,4.517,1.408h6.123c.092-.268.165-.535.229-.8a8.373,8.373,0,0,0,.222-1.884v-4.693h-22.04v4.922a7.187,7.187,0,0,0,.2,1.658c.063.264.137.532.225.8h7.1C114.325,154.03,115.353,152.71,116.526,152.622Z" transform="translate(-105.576 -146.654)" fill="#fed1a3" fill-rule="evenodd"/>
      </g>
      <g id="Grupo_87670" data-name="Grupo 87670" transform="translate(23.841 17.661)">
        <path id="Trazado_149824" data-name="Trazado 149824" d="M191.95,52.729c4.338,1.077,8.056,4.605,8.221,10.6v1.067h3.091V63.68C203.058,56.293,197.456,52.652,191.95,52.729Z" transform="translate(-191.95 -52.728)" fill="#29063c" fill-rule="evenodd"/>
      </g>
      <g id="Grupo_87671" data-name="Grupo 87671" transform="translate(31.492 29.327)">
        <path id="Trazado_149825" data-name="Trazado 149825" d="M254.118,148.193v2.8a8.377,8.377,0,0,1-.218,1.887c-.007.028-.014.06-.021.088-.06.236-.127.472-.208.711-.039.116-.081.236-.123.352h3.211c.092-.268.165-.535.229-.8a8.373,8.373,0,0,0,.222-1.884v-4.693h-3.091v1.539Z" transform="translate(-253.548 -146.654)" fill="#ffbc85" fill-rule="evenodd"/>
      </g>
      <g id="Grupo_87672" data-name="Grupo 87672" transform="translate(21.834 36.704)">
        <path id="Trazado_149826" data-name="Trazado 149826" d="M185.45,206.043a13.324,13.324,0,0,1-2.584,4.141,15.235,15.235,0,0,1-1.595,1.528c-.187.151-.38.3-.574.447-.151.113-.3.222-.458.327s-.338.225-.514.331a11.948,11.948,0,0,1-2.257,1.1,10.412,10.412,0,0,1-1.271.38c-.137.028-.271.056-.4.081q.264.085.518.159a7.84,7.84,0,0,0,1.711.289,7.152,7.152,0,0,0,1.042-.13,9.885,9.885,0,0,0,1.493-.426,12.471,12.471,0,0,0,2.771-1.433,14.776,14.776,0,0,0,2.627-2.3,13.011,13.011,0,0,0,2.708-4.493H185.45Z" transform="translate(-175.792 -206.043)" fill="#3d095a" fill-rule="evenodd"/>
      </g>
      <g id="Grupo_87673" data-name="Grupo 87673" transform="translate(29.541 41.196)">
        <path id="Trazado_149827" data-name="Trazado 149827" d="M239.044,243.451a6.234,6.234,0,0,1,2.5,3.884c.025.144.046.3.056.444a4.374,4.374,0,0,1,.025.482,6.075,6.075,0,0,1-3.781,5.609h.38a6.072,6.072,0,0,0,6.052-6.052c0-.162-.007-.324-.021-.482a6.36,6.36,0,0,0-3.957-5.119A14.844,14.844,0,0,1,239.044,243.451Z" transform="translate(-237.843 -242.215)" fill="#ffca53" fill-rule="evenodd"/>
      </g>
      <g id="Grupo_87674" data-name="Grupo 87674" transform="translate(18.817 43.499)">
        <path id="Trazado_149828" data-name="Trazado 149828" d="M151.5,260.781v3.236c0,1.313,6.056,2.57,8.369,1.053.19-.123.37-.021.359.419v1.651a6.769,6.769,0,0,1-.338,2.13,6.06,6.06,0,0,0,2.162-4.8v-3.715a12.48,12.48,0,0,1-2.771,1.433,9.882,9.882,0,0,1-1.493.426,7.152,7.152,0,0,1-1.042.13,7.832,7.832,0,0,1-1.711-.289q-.254-.074-.518-.158c-.1-.035-.2-.07-.306-.109a12.09,12.09,0,0,1-2.711-1.4Z" transform="translate(-151.498 -260.753)" fill="#f5a96c" fill-rule="evenodd"/>
      </g>
      <g id="Grupo_87675" data-name="Grupo 87675" transform="translate(51.085 32.271)">
        <path id="Trazado_149829" data-name="Trazado 149829" d="M411.3,170.353V194.7h4.908V170.353H411.3Z" transform="translate(-411.299 -170.353)" fill="#f6f6f6" fill-rule="evenodd"/>
      </g>
      <g id="Grupo_87676" data-name="Grupo 87676" transform="translate(48.973 56.618)">
        <path id="Trazado_149830" data-name="Trazado 149830" d="M401.312,366.378H396.4v3.7a2.119,2.119,0,0,1-2.112,2.113h4.9a2.122,2.122,0,0,0,2.116-2.113Z" transform="translate(-394.291 -366.378)" fill="#a7f" fill-rule="evenodd"/>
      </g>
      <g id="Grupo_87677" data-name="Grupo 87677" transform="translate(50.966 13.619)">
        <path id="Trazado_149831" data-name="Trazado 149831" d="M410.335,20.6a15.63,15.63,0,0,1,3.792,10.531V31.4a16.618,16.618,0,0,1-1.824,7.436h7.848A1.912,1.912,0,0,0,421.785,36l-4.3-7.45-4.3-7.45A1.928,1.928,0,0,0,410.335,20.6Z" transform="translate(-410.335 -20.18)" fill="#e3a009" fill-rule="evenodd"/>
      </g>
      <g id="Grupo_87678" data-name="Grupo 87678" transform="translate(22.081 62.435)">
        <path id="Trazado_149832" data-name="Trazado 149832" d="M177.776,413.209v2.535h9.887c1.053.141,1.179.521,1.179.866v1.482H191.3v-4.883Z" transform="translate(-177.776 -413.209)" fill="#a7f" fill-rule="evenodd"/>
      </g>
      <g id="Grupo_87679" data-name="Grupo 87679" transform="translate(36.833 67.318)">
        <path id="Trazado_149833" data-name="Trazado 149833" d="M303.468,454.967a2.448,2.448,0,0,0-2.443-2.44H296.55a2.446,2.446,0,0,1,2.44,2.44v1.8a.645.645,0,0,1-.644.644h4.475a.648.648,0,0,0,.648-.644Z" transform="translate(-296.55 -452.527)" fill="#a7f" fill-rule="evenodd"/>
      </g>
      <g id="Grupo_87680" data-name="Grupo 87680" transform="translate(0 12.688)">
        <path id="Trazado_149834" data-name="Trazado 149834" d="M222.8,167.38a.936.936,0,0,0,.2-.022l2.074-.454a.932.932,0,1,0-.4-1.82l-2.074.454a.932.932,0,0,0,.2,1.842Z" transform="translate(-194.31 -146.137)"/>
        <path id="Trazado_149835" data-name="Trazado 149835" d="M139.2,166.905l2.074.454a.932.932,0,1,0,.4-1.82l-2.074-.454a.931.931,0,0,0-.4,1.82Z" transform="translate(-121.273 -146.138)"/>
        <path id="Trazado_149836" data-name="Trazado 149836" d="M63.221,28.974l-4.3-7.45-4.3-7.45h0a2.826,2.826,0,0,0-2.45-1.385h0a2.772,2.772,0,0,0-2.432,1.386l-4.3,7.45L44.173,23.71H35.066a11.073,11.073,0,0,0-2.97-4.074,12.33,12.33,0,0,0-8.262-2.9,12.065,12.065,0,0,0-8.013,3.054A10.763,10.763,0,0,0,13.1,23.71H3.044A3.049,3.049,0,0,0,0,26.757V60.322a3.047,3.047,0,0,0,3.044,3.044H21.149v3.02H16.381a3.377,3.377,0,0,0-3.375,3.372v1.8a1.577,1.577,0,0,0,1.576,1.576H43.1a1.579,1.579,0,0,0,1.579-1.576v-1.8a3.377,3.377,0,0,0-3.375-3.372H36.539v-3.02H53.877a3.049,3.049,0,0,0,3.047-3.044V33.2h3.857a2.822,2.822,0,0,0,2.424-1.429,2.772,2.772,0,0,0,.016-2.8ZM14.045,30.259h8.068a.932.932,0,0,0,0-1.863H14.048c.131-6.638,5.146-9.735,9.811-9.8h.155a9.879,9.879,0,0,1,9.527,6.321l.008.021a11.579,11.579,0,0,1,.664,3.459h-8.1a.932.932,0,1,0,0,1.863h8.106v3.762a7.383,7.383,0,0,1-.2,1.671c-.006.027-.014.054-.021.08H28.58a4.374,4.374,0,0,1-1.8-.618,5.338,5.338,0,0,0-2.791-.787,4.62,4.62,0,0,0-2.039.828,3.017,3.017,0,0,1-1.313.577h-6.4c-.006-.026-.014-.053-.02-.079a6.269,6.269,0,0,1-.176-1.443V30.259Zm12.236,13.8a7.742,7.742,0,0,1-2.218.5,7.747,7.747,0,0,1-2.218-.5,11.282,11.282,0,0,1-2.5-1.3l-.013-.009a13.423,13.423,0,0,1-2.363-2.068.926.926,0,0,0-.172-.194,12.567,12.567,0,0,1-1.887-2.854h5.732a4.389,4.389,0,0,0,2.289-.853,3.265,3.265,0,0,1,1.2-.558,3.883,3.883,0,0,1,1.818.6,5.873,5.873,0,0,0,2.631.816h4.739A13.4,13.4,0,0,1,26.281,44.056ZM35.042,46.8a5.127,5.127,0,0,1-5.121,5.121H28.645A7.256,7.256,0,0,0,30.3,47.213V43.979a15.785,15.785,0,0,0,1.908-1.648A5.231,5.231,0,0,1,35.042,46.8Zm-6.6-1.66v2.076c0,2.5-1.586,4.624-3.489,4.708H23.264c-1.914-.064-3.515-2.194-3.515-4.709v-2.05a12.136,12.136,0,0,0,1.463.645,9.469,9.469,0,0,0,2.807.611h.09a9.465,9.465,0,0,0,2.807-.611,12.647,12.647,0,0,0,1.523-.67Zm-8.893,6.787H18.208A5.128,5.128,0,0,1,13.087,46.8a5.322,5.322,0,0,1,2.891-4.474A15.531,15.531,0,0,0,17.885,44v3.216A7.257,7.257,0,0,0,19.544,51.925ZM1.863,26.757a1.184,1.184,0,0,1,1.181-1.185h9.471a14,14,0,0,0-.333,3.093h0V30.29h-.2a2.573,2.573,0,0,0-2.171,1.147,3.936,3.936,0,0,0-.63,2.219c0,1.929,1.2,3.979,3.414,3.979h.292a13.812,13.812,0,0,0,1.857,3.254,7.139,7.139,0,0,0-3.5,5.495h-.714a5.6,5.6,0,0,0-5.593,5.593v3.709H1.863Zm10.465,8.99c-.938-.18-1.286-1.31-1.286-2.091a2.106,2.106,0,0,1,.3-1.161.713.713,0,0,1,.637-.342h.2v2.1a8,8,0,0,0,.146,1.5Zm28.98,32.5a1.512,1.512,0,0,1,1.512,1.508v1.508H14.869V69.758a1.512,1.512,0,0,1,1.512-1.508H41.308Zm-18.3-1.863v-3.02H34.676v3.02Zm32.049-6.064A1.184,1.184,0,0,1,53.877,61.5H3.044a1.182,1.182,0,0,1-1.181-1.181V57.549h3.8a.922.922,0,0,0,.392,0H20.342a.932.932,0,1,0,0-1.863H6.8V51.977a3.734,3.734,0,0,1,3.73-3.73h.85a7,7,0,0,0,6.833,5.542l5.044,0c.033,0,.066,0,.1,0h1.479c.045,0,.089,0,.133,0l4.958,0a7,7,0,0,0,6.84-5.574h.722a3.732,3.732,0,0,1,3.726,3.73v3.749l-16.662,0a.932.932,0,0,0,0,1.863l30.512,0Zm0-4.635H43.074V51.939a5.6,5.6,0,0,0-5.589-5.593h-.6A7.132,7.132,0,0,0,33.46,40.9a13.7,13.7,0,0,0,1.9-3.268h.41c2.217,0,3.414-2.05,3.414-3.979a3.936,3.936,0,0,0-.63-2.219,2.573,2.573,0,0,0-2.171-1.147h-.294V28.613s0-.009,0-.013,0-.008,0-.013a14.188,14.188,0,0,0-.4-3.014H43.1l-1.963,3.4a2.823,2.823,0,0,0,.025,2.814A2.77,2.77,0,0,0,43.575,33.2H55.061V55.686ZM35.913,35.764a9.151,9.151,0,0,0,.172-1.743V32.153h.294a.713.713,0,0,1,.637.342,2.106,2.106,0,0,1,.3,1.161C37.317,34.469,36.939,35.659,35.913,35.764Zm25.678-4.921a.943.943,0,0,1-.81.5H43.575a.926.926,0,0,1-.8-.482.943.943,0,0,1-.025-.951l4.3-7.45,4.3-7.45a.928.928,0,0,1,.82-.455h0a.947.947,0,0,1,.837.454l4.3,7.45,4.3,7.45A.928.928,0,0,1,61.591,30.842Z" transform="translate(0 -12.688)"/>
        <path id="Trazado_149837" data-name="Trazado 149837" d="M413.544,61.683a.932.932,0,0,0-.932.932V68.04a.932.932,0,1,0,1.863,0V62.615A.932.932,0,0,0,413.544,61.683Z" transform="translate(-361.364 -55.598)"/>
        <path id="Trazado_149838" data-name="Trazado 149838" d="M413.544,136.406a.932.932,0,0,0-.932.932v.046a.932.932,0,1,0,1.863,0v-.046A.932.932,0,0,0,413.544,136.406Z" transform="translate(-361.364 -121.04)"/>
      </g>
    </g>
    <g id="Multi_System" data-name="Multi System" transform="translate(-12219 -12414)">
      <path id="Trazado_165678" data-name="Trazado 165678" d="M61,43v4a2.006,2.006,0,0,1-2,2H5a2.006,2.006,0,0,1-2-2V43Z" fill="#5c379b"/>
      <path id="Trazado_165679" data-name="Trazado 165679" d="M3,43H61v2H3Z" fill="#5c379b"/>
      <path id="Trazado_165680" data-name="Trazado 165680" d="M52,39l1-6H50V11H28a4.963,4.963,0,0,0-4.06,2.1A7,7,0,1,0,11.26,18H10a3,3,0,0,0,0,6h4v9H11l1,6Z" fill="#00d7df"/>
      <path id="Trazado_165681" data-name="Trazado 165681" d="M61,5V43H3V5A2.006,2.006,0,0,1,5,3H59a2.006,2.006,0,0,1,2,2Z" fill="#ff93b2"/>
      <path id="Trazado_165682" data-name="Trazado 165682" d="M61,5V43H3v-.58A82.51,82.51,0,0,0,39,27,82.038,82.038,0,0,0,60.12,3.34,2.005,2.005,0,0,1,61,5Z" fill="#ff5082"/>
      <path id="Trazado_165683" data-name="Trazado 165683" d="M14,11H50V35H14Z" fill="#ffb206"/>
      <path id="Trazado_165684" data-name="Trazado 165684" d="M50,11V35H14.27A59.179,59.179,0,0,0,40,22a57.775,57.775,0,0,0,9.71-11Z" fill="#e3a009"/>
      <path id="Trazado_165685" data-name="Trazado 165685" d="M44,61H20l3-4H41Z" fill="#a7f"/>
      <path id="Trazado_165686" data-name="Trazado 165686" d="M42.5,59h-21L23,57H41Z" fill="#5c379b"/>
      <path id="Trazado_165687" data-name="Trazado 165687" d="M38,49l1,8H25l1-8Z" fill="#a7f"/>
      <path id="Trazado_165688" data-name="Trazado 165688" d="M38.5,53h-13l.5-4H38Z" fill="#2488ff"/>
      <path id="Trazado_165689" data-name="Trazado 165689" d="M38.5,53h-13l.5-4H38Z" fill="#5c379b"/>
      <path id="Trazado_165690" data-name="Trazado 165690" d="M37,21a3,3,0,0,1-3,3H10a3,3,0,0,1,0-6h1.26a7,7,0,1,1,12.68-4.9A4.993,4.993,0,0,1,32.58,18H34A3,3,0,0,1,37,21Z" fill="#d2b7ff"/>
      <path id="Trazado_165691" data-name="Trazado 165691" d="M37,21a3,3,0,0,1-3,3H10a2.991,2.991,0,0,1-2.36-1.15A25.66,25.66,0,0,0,20,18a25.291,25.291,0,0,0,6.18-6.66A5.006,5.006,0,0,1,33,16a4.941,4.941,0,0,1-.42,2H34A3,3,0,0,1,37,21Z" fill="#a7f"/>
      <path id="Trazado_165692" data-name="Trazado 165692" d="M53,33l-1,6H12l-1-6H29v2h6V33H53Z" fill="#898890"/>
      <path id="Trazado_165693" data-name="Trazado 165693" d="M59,2H5A3.009,3.009,0,0,0,2,5V47a3.009,3.009,0,0,0,3,3H24.87l-.75,6H23a1.014,1.014,0,0,0-.8.4l-3,4A1,1,0,0,0,20,62H44a1,1,0,0,0,.8-1.6l-3-4A1.014,1.014,0,0,0,41,56H39.88l-.75-6H59a3.009,3.009,0,0,0,3-3V5a3.009,3.009,0,0,0-3-3ZM40.5,58,42,60H22l1.5-2ZM26.13,56l.75-6H37.12l.75,6ZM60,47a1,1,0,0,1-1,1H5a1,1,0,0,1-1-1V44H60Zm0-5H4V5A1,1,0,0,1,5,4H59a1,1,0,0,1,1,1Z"/>
      <path id="Trazado_165694" data-name="Trazado 165694" d="M53.76,32.35A1.011,1.011,0,0,0,53,32H51V11a1,1,0,0,0-1-1H28a5.954,5.954,0,0,0-3.52,1.15A8,8,0,1,0,9.59,17.02,4,4,0,0,0,10,25h3v7H11a1,1,0,0,0-.99,1.16l1,6A1,1,0,0,0,12,40H52a1,1,0,0,0,.99-.84l1-6a1,1,0,0,0-.23-.81ZM49,12V32H35a1,1,0,0,0-1,1v1H30V33a1,1,0,0,0-1-1H15V25h2v2a3.009,3.009,0,0,0,3,3H39V28H20a1,1,0,0,1-1-1V25H34a4,4,0,0,0,0-8h-.08A6.634,6.634,0,0,0,34,16a5.979,5.979,0,0,0-1.54-4ZM10,23a2,2,0,0,1,0-4h1.26a1.02,1.02,0,0,0,.89-.54,1,1,0,0,0-.07-1.03A5.938,5.938,0,0,1,11,14a6,6,0,0,1,11.95-.77.992.992,0,0,0,.75.84,1.013,1.013,0,0,0,1.06-.39,3.995,3.995,0,0,1,6.91,3.92.989.989,0,0,0,.91,1.4H34a2,2,0,0,1,0,4ZM51.15,38H12.85l-.67-4H28v1a1,1,0,0,0,1,1h6a1,1,0,0,0,1-1V34H51.82Z"/>
      <path id="Trazado_165695" data-name="Trazado 165695" d="M41,28h2v2H41Z"/>
      <path id="Trazado_165696" data-name="Trazado 165696" d="M45,17v7h2V17a3,3,0,0,0-3-3H38v2h6A1,1,0,0,1,45,17Z"/>
      <path id="Trazado_165697" data-name="Trazado 165697" d="M45,26h2v2H45Z"/>
    </g>
  </g>
</svg>
