<svg xmlns="http://www.w3.org/2000/svg" xmlns:xlink="http://www.w3.org/1999/xlink" width="434.991" height="274.648" viewBox="0 0 434.991 274.648">
  <defs>
    <linearGradient id="linear-gradient" x1="0.239" y1="0.723" x2="-0.228" y2="1.335" gradientUnits="objectBoundingBox">
      <stop offset="0" stop-color="#4042e2"/>
      <stop offset="1" stop-color="#4f52ff"/>
    </linearGradient>
    <clipPath id="clip-path">
      <path id="Trazado_150647" data-name="Trazado 150647" d="M1054.655,472.726a4.363,4.363,0,0,0-2.484-3.719l-69.261-32.895a4.356,4.356,0,0,0-3.738,0l-69.261,32.895a4.364,4.364,0,0,0-2.484,3.719c-2.048,40.072,7.208,73.508,27.53,99.422a122.867,122.867,0,0,0,44.24,35.285,4.367,4.367,0,0,0,3.687,0,122.868,122.868,0,0,0,44.24-35.285C1047.447,546.233,1056.7,512.8,1054.655,472.726Z" transform="translate(-907.148 -435.69)" fill="url(#linear-gradient)"/>
    </clipPath>
    <linearGradient id="linear-gradient-2" x1="-5.547" y1="-0.401" x2="-4.444" y2="-3.398" gradientUnits="objectBoundingBox">
      <stop offset="0" stop-color="#53d8ff"/>
      <stop offset="1" stop-color="#3840f7"/>
    </linearGradient>
    <linearGradient id="linear-gradient-3" x1="-7.689" y1="-0.763" x2="-6.935" y2="-1.509" xlink:href="#linear-gradient-2"/>
    <linearGradient id="linear-gradient-4" x1="0.961" y1="0.171" x2="-0.715" y2="1.365" xlink:href="#linear-gradient-2"/>
    <linearGradient id="linear-gradient-5" x1="76.716" y1="0.5" x2="77.716" y2="0.5" gradientUnits="objectBoundingBox">
      <stop offset="0" stop-color="#ff928e"/>
      <stop offset="1" stop-color="#feb3b1"/>
    </linearGradient>
    <linearGradient id="linear-gradient-6" x1="257.442" y1="0.5" x2="258.442" y2="0.5" xlink:href="#linear-gradient-5"/>
    <linearGradient id="linear-gradient-7" x1="269.016" y1="0.5" x2="270.016" y2="0.5" xlink:href="#linear-gradient-5"/>
    <linearGradient id="linear-gradient-8" x1="83.991" y1="-1.615" x2="81.707" y2="1.548" xlink:href="#linear-gradient-5"/>
    <linearGradient id="linear-gradient-9" x1="68.872" y1="-2.795" x2="67.033" y2="5.663" xlink:href="#linear-gradient-5"/>
    <linearGradient id="linear-gradient-10" x1="94.752" y1="-1.142" x2="92.103" y2="2.815" xlink:href="#linear-gradient-5"/>
    <linearGradient id="linear-gradient-11" x1="3.372" y1="1.177" x2="1.399" y2="0.715" xlink:href="#linear-gradient-5"/>
    <linearGradient id="linear-gradient-12" x1="175.554" y1="358.356" x2="178.256" y2="355.818" xlink:href="#linear-gradient-5"/>
    <linearGradient id="linear-gradient-13" x1="0.632" y1="0.253" x2="0.148" y2="1.367" xlink:href="#linear-gradient-5"/>
    <linearGradient id="linear-gradient-14" x1="0.748" y1="-0.748" x2="0.526" y2="0.549" xlink:href="#linear-gradient-5"/>
    <linearGradient id="linear-gradient-15" x1="0.688" y1="-0.048" x2="0.103" y2="2.27" xlink:href="#linear-gradient-5"/>
    <linearGradient id="linear-gradient-16" x1="26.901" y1="-0.126" x2="26.883" y2="1.067" xlink:href="#linear-gradient-5"/>
    <linearGradient id="linear-gradient-17" x1="125.586" y1="-1.231" x2="125.5" y2="2.543" xlink:href="#linear-gradient-5"/>
  </defs>
  <g id="Grupo_157180" data-name="Grupo 157180" transform="translate(-161.081 -152)">
    <path id="Trazado_150612" data-name="Trazado 150612" d="M580.058,333.618c-6.721-2.8-14.412-2.641-21.755-3.481s-15.271-3.237-18.87-9.09c-3.3-5.371-1.918-12.271,1.572-17.543s8.782-9.323,13.755-13.509c11.3-9.51,21.564-20.458,27.2-33.456s6.141-28.33-1.392-40.517-24.024-20.087-38.933-16.5c-7.429,1.79-13.788,6.059-20.785,8.943s-15.706,4.217-22.03.261c-6.269-3.922-7.956-11.464-11.544-17.549-6.169-10.46-18.58-16.931-31.326-19.673a78.986,78.986,0,0,0-55.021,8.383c-16.116,9.286-27.814,24.639-31.678,41.573l.871-4.1c-17.247,5.229-34.385-6.623-49.492-15.793-20.045-12.168-43.434-20.8-67.569-20.709s-48.924,9.916-62.089,28.226-12.014,45.123,5.433,60.218c6.213,5.375,14.018,9.1,20.008,14.68s9.957,14.2,6.094,21.148c-5.4,9.709-20.462,9.18-32.036,12.079-16.789,4.205-29.444,19.308-29.391,35.075s12.81,30.8,29.627,34.913c6.059,1.482,12.573,1.7,18.17,4.27s9.991,8.789,7.23,13.891c-1.153,2.131-3.34,3.676-4.58,5.766-2.968,5,.657,11.531,6.09,14.372s12.025,2.976,18.3,3.036l265.6,2.546c13.136.126,26.637.2,38.906-4.054,16.459-5.7,28.6-18.43,38.881-31.389,7.651-9.648,14.867-20.144,16.49-31.929S591.974,338.589,580.058,333.618Z" transform="translate(0 -14.255)" fill="#e01650" opacity="0.102"/>
    <g id="Grupo_107127" data-name="Grupo 107127" transform="translate(176.452 221.009)">
      <path id="Trazado_150613" data-name="Trazado 150613" d="M332.734,663.241s-24.892-105.105-76.482-162.448a6.548,6.548,0,0,0-11.192,2.631C235.9,536.864,218.329,638.3,332.734,663.241Z" transform="translate(-238.283 -498.61)" fill="#e01650"/>
      <path id="Trazado_150614" data-name="Trazado 150614" d="M389.864,782.456a.286.286,0,0,1-.371.433c-10.615-7.895-51.652-46.687-66.8-123.989a.2.2,0,0,1,.386-.1C328.231,676.719,349.293,742.793,389.864,782.456Z" transform="translate(-305.884 -626.794)" fill="#ff93b2"/>
    </g>
    <g id="Grupo_107128" data-name="Grupo 107128" transform="translate(162.641 313.965)">
      <path id="Trazado_150615" data-name="Trazado 150615" d="M169.178,966.511a.546.546,0,0,1,.341-1.009,104.878,104.878,0,0,1,68.125,37.754c23.092,28.41,34.639,52.125,38.578,61.121a2.54,2.54,0,0,1-2.577,3.547c-11.453-1.141-43.355-6.011-56.7-25.483C207.938,1029.3,185.915,976.846,169.178,966.511Z" transform="translate(-168.915 -965.499)" fill="#87c998"/>
      <path id="Trazado_150616" data-name="Trazado 150616" d="M306.715,1051.289s30.122,11.367,77.462,82.08C384.177,1133.369,332.836,1064.824,306.715,1051.289Z" transform="translate(-279.28 -1034.208)" fill="#d2b7ff"/>
    </g>
    <g id="Grupo_107129" data-name="Grupo 107129" transform="translate(492.568 152)">
      <path id="Trazado_150617" data-name="Trazado 150617" d="M1829.308,152.468a.739.739,0,0,0-1.418.164c-1.682,11.8-6.291,54.108,10.709,73.328,19.864,22.457,34.313,27.647,29.672,65.121-4.592,37.081-16.98,102.834-11.654,122.446a.986.986,0,0,0,.779.716h0a.981.981,0,0,0,1.151-1.022c-.334-5.785-1.463-30.81,2.426-53.614,4.431-25.985,23.582-90.685,14.674-141.166C1867.3,171.135,1836.487,170.075,1829.308,152.468Z" transform="translate(-1826.036 -152)" fill="#e01650"/>
      <path id="Trazado_150618" data-name="Trazado 150618" d="M1880.983,245.227a63.423,63.423,0,0,1,4.76,4.193c1.528,1.462,3,2.985,4.422,4.549s2.793,3.18,4.14,4.814c.67.82,1.3,1.668,1.958,2.5s1.262,1.7,1.895,2.551a113.017,113.017,0,0,1,6.808,10.733l.778,1.387.738,1.409c.481.945,1,1.87,1.443,2.834l1.371,2.871,1.268,2.918c.217.484.412.977.6,1.473l.577,1.483.577,1.483.521,1.5c.338,1.006.713,2,1.018,3.015l.915,3.048c.16.506.28,1.023.411,1.537l.387,1.543.387,1.543c.12.516.217,1.038.326,1.557.21,1.039.432,2.077.631,3.117l.488,3.143c.181,1.045.279,2.1.389,3.155l.166,1.58c.052.527.123,1.052.141,1.582.113,2.116.263,4.229.219,6.347a92.567,92.567,0,0,1-.812,12.644.307.307,0,0,1-.61-.061v-.008a100.515,100.515,0,0,0-1.006-25l-.549-3.08c-.215-1.021-.453-2.037-.677-3.055-.117-.508-.221-1.019-.349-1.524l-.409-1.51-.409-1.51c-.137-.5-.265-1.008-.431-1.5a109.584,109.584,0,0,0-4.262-11.752,125.6,125.6,0,0,0-12.168-21.828c-.6-.854-1.188-1.718-1.8-2.565s-1.228-1.69-1.862-2.52q-1.88-2.508-3.869-4.936c-2.646-3.238-5.423-6.389-8.383-9.354l-.005-.006a.2.2,0,0,1,.265-.3Z" transform="translate(-1869.784 -226.631)" fill="#ff93b2"/>
    </g>
    <g id="Grupo_107130" data-name="Grupo 107130" transform="translate(217.117 162.072)">
      <path id="Trazado_150619" data-name="Trazado 150619" d="M483.22,331.986s9.923-75.636-9.758-126.432a4.624,4.624,0,0,0-8.049-1.07C450.981,224.267,413.942,286.829,483.22,331.986Z" transform="translate(-442.533 -202.588)" fill="#87c998"/>
      <path id="Trazado_150620" data-name="Trazado 150620" d="M555.947,409.464a.2.2,0,0,1-.354.193c-5.028-7.874-22.394-43.777-13.01-98.613a.141.141,0,0,1,.28.031C541.771,324.2,539.107,373.1,555.947,409.464Z" transform="translate(-520.473 -289.356)" fill="#d2b7ff"/>
    </g>
    <g id="Grupo_107131" data-name="Grupo 107131" transform="translate(526.584 238.166)">
      <path id="Trazado_150621" data-name="Trazado 150621" d="M1998.7,759.462a1.166,1.166,0,0,1-.96-1.029c-.571-5.582-3.257-36.461,5.253-52.855,9.38-18.069,24.51-34.882,17.118-77.929-4.188-24.387-1.559-37.682-.227-42.292a.784.784,0,0,1,1.464-.118c3.84,8.227,19.863,42.875,22.361,53.595,2.842,12.2,4.72,35.919-14.5,46.757-18.913,10.668-35.99,37.762-29.164,72.5a1.167,1.167,0,0,1-1.351,1.37Z" transform="translate(-1996.89 -584.786)" fill="#87c998"/>
      <path id="Trazado_150622" data-name="Trazado 150622" d="M2017.42,1182.4a1.4,1.4,0,0,1-1.127-1.085c-1.055-4.953-5.069-28.692,11.178-43.253,16.945-15.185,29.323-16.188,32.631-25.7a.605.605,0,0,1,1.166.055c1.894,8.523,6.572,37.979-15.964,49.335-22.361,11.268-25.879,16.439-26.253,19.461a1.393,1.393,0,0,1-1.631,1.186Z" transform="translate(-2011.46 -1006.992)" fill="#e01650"/>
      <path id="Trazado_150623" data-name="Trazado 150623" d="M2067.3,1153.382a26.284,26.284,0,0,1-1.6,4.533,32.788,32.788,0,0,1-2.307,4.232,31.425,31.425,0,0,1-2.915,3.867,30.84,30.84,0,0,1-7.474,6.207,33.546,33.546,0,0,1-4.4,2.127l-1.145.428-1.091.4c-.364.124-.718.272-1.072.421s-.713.286-1.056.456a27.856,27.856,0,0,0-4.013,2.22,28.633,28.633,0,0,0-11.065,14.314,44.59,44.59,0,0,0-2.275,9.042c-.225,1.549-.384,3.11-.488,4.678-.086,1.568-.141,3.142-.146,4.719v0a.254.254,0,0,1-.508.018c-.117-1.584-.2-3.174-.186-4.767s.084-3.188.223-4.782a43.45,43.45,0,0,1,.694-4.756,37.51,37.51,0,0,1,1.241-4.666,31.288,31.288,0,0,1,4.411-8.64,27.661,27.661,0,0,1,7.035-6.758,29.793,29.793,0,0,1,4.268-2.388c.365-.183.745-.329,1.119-.489s.75-.318,1.134-.452l2.219-.808a31.123,31.123,0,0,0,7.983-4.5,34.388,34.388,0,0,0,3.434-3.085,37.506,37.506,0,0,0,3-3.54,36.316,36.316,0,0,0,4.576-8.137l0-.012a.207.207,0,0,1,.394.124Z" transform="translate(-2019.852 -1039.972)" fill="#ff93b2"/>
    </g>
    <g id="Grupo_107134" data-name="Grupo 107134" transform="translate(211.103 222.793)">
      <g id="Grupo_107133" data-name="Grupo 107133" transform="translate(15.544 0)">
        <path id="Trazado_150624" data-name="Trazado 150624" d="M799.716,693.546a5.486,5.486,0,0,1-5.472,5.467H498.334a5.486,5.486,0,0,1-5.472-5.467L490.4,523.495c0-3.007,3.543-8.877,10.035-8.436l289.2-7.483a13.789,13.789,0,0,1,14.15,14.1Z" transform="translate(-490.4 -507.572)" fill="#29063c"/>
        <path id="Trazado_150625" data-name="Trazado 150625" d="M824.765,714.387a5.193,5.193,0,0,1-5.177,5.177H535.922a5.192,5.192,0,0,1-5.177-5.177l-2.324-154.374c.274-9.29,8.418-12.629,13.356-12.432l277.168-7.436a9.691,9.691,0,0,1,9.943,9.917Z" transform="translate(-520.851 -533.657)" fill="#dee4f0"/>
        <g id="Grupo_107132" data-name="Grupo 107132" transform="translate(11.414 14.863)" opacity="0.52">
          <path id="Trazado_150626" data-name="Trazado 150626" d="M553.18,991.611a.39.39,0,0,1-.39-.384l-.184-12.52a.39.39,0,0,1,.78-.011l.184,12.519a.391.391,0,0,1-.385.4Z" transform="translate(-551.636 -899.451)" fill="#fff"/>
          <path id="Trazado_150627" data-name="Trazado 150627" d="M548.825,643.7a.39.39,0,0,1-.39-.384l-.7-47.95a10.124,10.124,0,0,1,2.924-7.59c3.505-3.359,8.992-3.186,9.224-3.181l88.514-2.375a.4.4,0,0,1,.4.38.39.39,0,0,1-.38.4l-88.536,2.375c-.247-.012-5.414-.168-8.682,2.964a9.37,9.37,0,0,0-2.683,7.023l.7,47.942a.391.391,0,0,1-.385.4Z" transform="translate(-547.731 -582.223)" fill="#fff"/>
        </g>
        <path id="Trazado_150628" data-name="Trazado 150628" d="M600.565,752.483c.3-12.759.186-125.745-.546-135.5s14.465-11.588,37.8-12.686,220.2-5.446,225.268-5.857c11.394-.924,13.752,16.106,12.612,53.078-.856,27.776-2.276,73.532-2.929,94.574a11.611,11.611,0,0,1-11.584,11.254c-47.374.13-228.945.651-241.033,1.011C606.242,758.767,600.447,757.542,600.565,752.483Z" transform="translate(-578.174 -580.317)" fill="#fff"/>
      </g>
      <path id="Trazado_150847" data-name="Trazado 150847" d="M7.471,0H341.4a7.471,7.471,0,1,1,0,14.941H7.471A7.471,7.471,0,0,1,7.471,0Z" transform="translate(0 185.179)" fill="#29063c"/>
    </g>
    <g id="Grupo_107138" data-name="Grupo 107138" transform="translate(291.492 189.816)">
      <path id="Trazado_150629" data-name="Trazado 150629" d="M999.647,393.447a17.459,17.459,0,0,0-9.943-14.63l-74.09-35.188a17.478,17.478,0,0,0-15,0l-74.09,35.188a17.459,17.459,0,0,0-9.943,14.63C809.637,500.871,878.516,540.012,901.1,549.9a17.5,17.5,0,0,0,14.044,0C937.718,540.012,1006.6,500.871,999.647,393.447Z" transform="translate(-816.096 -341.94)" fill="#500c75"/>
      <path id="Trazado_150630" data-name="Trazado 150630" d="M1161.8,383.211a.975.975,0,0,1-.419-1.856l17.506-8.314a.975.975,0,1,1,.837,1.762l-17.506,8.314A.97.97,0,0,1,1161.8,383.211Z" transform="translate(-1092.187 -366.772)" fill="#8f52f5"/>
      <path id="Trazado_150631" data-name="Trazado 150631" d="M842.633,487.52a.975.975,0,0,1-.974-.942c-.235-6.986-.112-14.267.366-21.643a12.391,12.391,0,0,1,7.059-10.379l49.841-23.671a.975.975,0,1,1,.837,1.762L849.92,456.318a10.441,10.441,0,0,0-5.949,8.743c-.473,7.312-.6,14.53-.363,21.452a.976.976,0,0,1-.942,1.008Z" transform="translate(-836.477 -413.1)" fill="#8f52f5"/>
      <g id="Grupo_107137" data-name="Grupo 107137" transform="translate(18.128 18.665)">
        <path id="Trazado_150632" data-name="Trazado 150632" d="M1054.655,472.726a4.363,4.363,0,0,0-2.484-3.719l-69.261-32.895a4.356,4.356,0,0,0-3.738,0l-69.261,32.895a4.364,4.364,0,0,0-2.484,3.719c-2.048,40.072,7.208,73.508,27.53,99.422a122.867,122.867,0,0,0,44.24,35.285,4.367,4.367,0,0,0,3.687,0,122.868,122.868,0,0,0,44.24-35.285C1047.447,546.233,1056.7,512.8,1054.655,472.726Z" transform="translate(-907.148 -435.69)" fill="#ffb476"/>
        <g id="Grupo_107136" data-name="Grupo 107136" clip-path="url(#clip-path)">
          <g id="Grupo_107135" data-name="Grupo 107135" transform="translate(-21.336 -21.306)">
            <path id="Trazado_150633" data-name="Trazado 150633" d="M1578.071,1131.245a11.06,11.06,0,0,1-6.744,2c-4.554-.484-6.611-7.455-4.112-13.586,1.785-4.379,7.729-2.535,10.979-1.124a1.551,1.551,0,0,0,2.158-1.438l-.077-15.758,17.75-.086a2.06,2.06,0,0,1,1.844,3.005,20.469,20.469,0,0,0-2.1,6.1c-.735,4.808,4.6,9.587,9.653,9.057a9.958,9.958,0,0,0,8.547-10.41,7.573,7.573,0,0,0-1.76-4.352,2.056,2.056,0,0,1,1.634-3.308l15.514-.075.081,16.67a1.085,1.085,0,0,0,1.783.827c9.509-8.091,18.865,8.017,12.694,12.094-4.729,3.125-10.141.894-12.789-.59a1.087,1.087,0,0,0-1.623.952l.078,16.145-16.047.078a2.058,2.058,0,0,1-1.665-3.295,10.178,10.178,0,0,0,2.245-5.306c.48-5.313-4.592-8.323-8.643-9.344s-9.845,3.618-9.063,8.419a50.3,50.3,0,0,0,1.809,7.152,2.06,2.06,0,0,1-1.967,2.693l-17.748-.023-.073-15.181A1.546,1.546,0,0,0,1578.071,1131.245Z" transform="translate(-1413.602 -947.436)" fill="url(#linear-gradient-2)"/>
            <path id="Trazado_150634" data-name="Trazado 150634" d="M1895.474,1056.769c2.648,1.485,8.061,3.715,12.789.59,6.171-4.078-3.185-20.185-12.694-12.094a1.085,1.085,0,0,1-1.783-.827l-.081-16.67,17.954-.087a2.061,2.061,0,0,0,1.846-2.961,26.275,26.275,0,0,1-2.4-7.329c-.785-5.307,5.269-8.49,10.33-7.823s8.125,6.721,7.634,9.758c-.228,1.41-1.451,3.289-2.7,4.9a2.063,2.063,0,0,0,1.637,3.33l17.535-.085.078,16.105a1.6,1.6,0,0,0,2.57,1.255c4.408-3.39,9.912-1.932,11.61,2.67,2.05,5.553.557,10.618-5.255,11.405a9.626,9.626,0,0,1-8.867-3.422s.049,10.117.086,17.665l-17.616-.551a2.062,2.062,0,0,0-1.78,3.2,16.893,16.893,0,0,1,2.751,6.745c.785,5.56-3.742,10.639-8.546,10.662s-10.641-4.247-9.41-11.081a28.4,28.4,0,0,1,1.5-5.526,2.058,2.058,0,0,0-1.93-2.817l-16.8.082-.078-16.145A1.087,1.087,0,0,1,1895.474,1056.769Z" transform="translate(-1675.95 -873.934)" fill="url(#linear-gradient-3)"/>
            <path id="Trazado_150635" data-name="Trazado 150635" d="M1396.909,1061.626c2.767,1.534,6.725,1.768,10.153-5.463,4.946-10.433-4.465-12.5-10.471-9.819a2.309,2.309,0,0,1-3.242-2.108l-.067-13.8,14.865-.073a2.068,2.068,0,0,0,1.909-2.863,17.5,17.5,0,0,1-1.392-6.03c-.28-5.522,4.252-9.749,10.577-8.942s7.869,6.177,7.124,8.8a26.339,26.339,0,0,1-3.248,5.722,2.062,2.062,0,0,0,1.711,3.23l17.005-.082.076,15.758a1.551,1.551,0,0,1-2.158,1.438c-3.251-1.411-9.195-3.255-10.979,1.124-2.5,6.131-.443,13.1,4.112,13.586a11.059,11.059,0,0,0,6.743-2,1.546,1.546,0,0,1,2.357,1.315l.074,15.181-15.448-.02a2.31,2.31,0,0,1-1.893-3.614,10.3,10.3,0,0,0,1.874-5.014c.231-4.553-3.331-9.087-7.885-9.333s-10.353,3.1-10.076,8.156a14.187,14.187,0,0,0,2.686,6.74,2.3,2.3,0,0,1-1.909,3.595l-15.9-.018-.065-13.448A2.319,2.319,0,0,1,1396.909,1061.626Z" transform="translate(-1275.158 -876.297)" fill="#ffb476"/>
            <path id="Trazado_150636" data-name="Trazado 150636" d="M1373.205,593.176c3.116-2.168,8.663-4.3,12.949,3.5,2.233,4.063-1.213,9.11-7.279,9.708a11.93,11.93,0,0,1-6.695-1.125,1.539,1.539,0,0,0-2.218,1.4l.073,14.991-16.531.08a2.131,2.131,0,0,0-1.827,3.208c5.725,9.8-3.414,14.009-5.709,13.849-2.53-.177-10.375-1.531-10.4-7.347a14.216,14.216,0,0,1,1.6-6.522,2.137,2.137,0,0,0-1.894-3.132l-14.244.069-.069-14.332a2.312,2.312,0,0,0-3.142-2.153,19.549,19.549,0,0,1-8.416,1.415c-6.071-.476-7.63-8.972-4.111-13.335,2.6-3.222,7.451-.927,11.129.871a2.306,2.306,0,0,0,3.3-2.1l-.084-17.345,17.808-.086a1.911,1.911,0,0,0,1.617-2.919,20.264,20.264,0,0,1-2.543-5.674c-1.033-4.294,4.516-7.377,9.067-7.641s7.854,3.007,8.132,8.316a7.636,7.636,0,0,1-1.4,4.844,1.908,1.908,0,0,0,1.582,2.995l16.814-.082.084,17.287A1.542,1.542,0,0,0,1373.205,593.176Z" transform="translate(-1203.199 -512.769)" fill="#ffb476"/>
            <path id="Trazado_150637" data-name="Trazado 150637" d="M1639.148,831.749a9.877,9.877,0,0,0,8.133.982c7.071-1.931,6.661-8.377,5.254-11.531-1.184-2.657-8.112-5.734-12.966-2.167a1.546,1.546,0,0,1-2.476-1.222l-.074-15.263,17.9-.087a2.127,2.127,0,0,0,1.9-3.078,17.178,17.178,0,0,1-1.76-6.265c-.535-6.067,4.761-8.969,10.073-8.694,4.607.238,10.386,6.9,5.431,14.143a2.128,2.128,0,0,0,1.778,3.319l15.8-.077.091,18.713c-4.922-5.792-12.069-4.24-14.823,1.589s-.452,11.129,5.873,11.6a8.867,8.867,0,0,0,6.779-2.109,1.086,1.086,0,0,1,1.813.8l.073,15.1-15.514.075a2.056,2.056,0,0,0-1.634,3.308,7.578,7.578,0,0,1,1.76,4.352,9.958,9.958,0,0,1-8.547,10.41c-5.055.53-10.389-4.249-9.653-9.057a20.461,20.461,0,0,1,2.1-6.1,2.06,2.06,0,0,0-1.844-3.005l-17.75.086-.07-14.508A1.542,1.542,0,0,1,1639.148,831.749Z" transform="translate(-1470.183 -693.672)" fill="url(#linear-gradient-4)"/>
            <path id="Trazado_150638" data-name="Trazado 150638" d="M1178.5,595.334c-3.678-1.8-8.53-4.093-11.129-.871-3.519,4.363-1.96,12.859,4.111,13.335a19.551,19.551,0,0,0,8.416-1.415,2.312,2.312,0,0,1,3.142,2.152l.069,14.332-17.589.085a2.132,2.132,0,0,0-1.833,3.2c3.742,6.579,3.223,14.649-8.234,13.84-9.662-.682-7.541-8.907-5.6-13.449a2.128,2.128,0,0,0-1.979-2.951l-16.4.079-.072-14.9a1.992,1.992,0,0,1,2.925-1.771c2.211,1.17,5.283,2.309,7.827,1.447,4.544-1.539,4.5-10.548,1.45-13.868-1.963-2.137-6.48-.576-9.45.808a1.991,1.991,0,0,1-2.833-1.8l-.085-17.458,16.038-.078a1.916,1.916,0,0,0,1.631-2.9,13.717,13.717,0,0,1-1.895-6.206c-.28-5.562,8.057-7.141,11.6-7.147,3.188-.006,10.293,4.471,4.33,13.152a1.916,1.916,0,0,0,1.572,3.015l17.207-.083.084,17.345A2.306,2.306,0,0,1,1178.5,595.334Z" transform="translate(-1065.283 -513.786)" fill="#ff6148"/>
            <path id="Trazado_150639" data-name="Trazado 150639" d="M1432.478,431.558c-2.735-1.707-7.261-3.584-10.476-.087-4.905,5.334-2.022,13.1,3.672,14.017a9.268,9.268,0,0,0,6.8-1.611,1.548,1.548,0,0,1,2.439,1.253l.066,13.653-16.814.082a1.908,1.908,0,0,1-1.583-2.995,7.636,7.636,0,0,0,1.4-4.844c-.279-5.309-3.582-8.58-8.132-8.316s-10.1,3.347-9.067,7.641a20.273,20.273,0,0,0,2.543,5.674,1.911,1.911,0,0,1-1.617,2.919l-17.808.086-.062-12.9a2.312,2.312,0,0,1,3.471-2.016,8.454,8.454,0,0,0,6.872.7c7.071-2.057,6.02-10.144,1.449-14.168-2.531-2.228-5.893-1.115-8.389.323a2.317,2.317,0,0,1-3.485-1.987l-.072-14.838,17.657-.086a1.643,1.643,0,0,1,1.49,2.361,23.81,23.81,0,0,0-2.424,8.135c-.479,5.566,6.607,6.555,11.159,6.78,4.114.2,10.464-6.617,4.344-14.708a1.646,1.646,0,0,1,1.295-2.647l17.556-.085.08,16.343A1.544,1.544,0,0,1,1432.478,431.558Z" transform="translate(-1267.475 -396.931)" fill="#ff6148"/>
            <path id="Trazado_150640" data-name="Trazado 150640" d="M862.953,436.954c-3.59-1.67-9.381-1.553-11.177.623-2.514,3.047-3.9,15.307,4.12,15.153a12.737,12.737,0,0,0,6.886-1.9,1.99,1.99,0,0,1,3.088,1.653l.065,13.347-17.257.084a1.912,1.912,0,0,1-1.563-3.028,12.88,12.88,0,0,0,2.483-5.322c.487-3.8-4.085-8.072-8.888-7.8s-10.357,2.326-9.827,7.381a13.024,13.024,0,0,0,2.289,5.835A1.917,1.917,0,0,1,831.614,466l-17.019.082-.069-14.161s-13.222,7.052-14.278-2c-.962-8.248.268-13.584,10.852-10.892a2.683,2.683,0,0,0,3.35-2.606l-.068-14.089,17.025-.083a1.642,1.642,0,0,1,1.535,2.259,23.96,23.96,0,0,0-1.682,6.339c-.484,4.554,3.323,7.317,9.393,7.541,5.5.2,8.686-6.23,4.875-13.816a1.639,1.639,0,0,1,1.433-2.4l18.761-.091.063,12.991A2.022,2.022,0,0,1,862.953,436.954Z" transform="translate(-799.984 -403.487)" fill="#ff6148"/>
            <path id="Trazado_150641" data-name="Trazado 150641" d="M1120.214,362.719c2.5-1.437,5.859-2.551,8.389-.323,4.571,4.024,5.622,12.111-1.448,14.168a8.454,8.454,0,0,1-6.872-.7,2.312,2.312,0,0,0-3.471,2.016l.062,12.9-17.207.083a1.915,1.915,0,0,1-1.572-3.014c5.963-8.681-1.142-13.158-4.33-13.152-3.54.006-11.878,1.585-11.6,7.147a13.717,13.717,0,0,0,1.895,6.206,1.916,1.916,0,0,1-1.631,2.9l-16.038.078-.065-13.347a1.99,1.99,0,0,0-3.088-1.653,12.738,12.738,0,0,1-6.886,1.9c-8.024.154-6.634-12.106-4.12-15.153,1.8-2.176,7.587-2.294,11.177-.623a2.022,2.022,0,0,0,2.832-1.879l-.063-12.991,17.551-.085a1.645,1.645,0,0,0,1.4-2.5,20.842,20.842,0,0,1-3.189-9.127c-.281-5.815,6.29-6.605,11.346-6.883,4.465-.245,9.762,7.993,5.386,14.736a1.646,1.646,0,0,0,1.374,2.556l16.607-.08.072,14.838A2.317,2.317,0,0,0,1120.214,362.719Z" transform="translate(-1000.443 -328.676)" fill="#ffb476"/>
            <path id="Trazado_150642" data-name="Trazado 150642" d="M894,807.442a18.6,18.6,0,0,1-2.677-6.62c-.526-4.3,4.764-8.368,11.09-7.64a8.88,8.88,0,0,1,5.693,14.1,2.128,2.128,0,0,0,1.794,3.31l15.982-.078.071,14.734a2,2,0,0,1-3.221,1.579c-5.565-4.213-14.268-5.127-13.807,5.517.413,9.522,8.2,7.718,12.461,6a1.994,1.994,0,0,1,2.75,1.834l.072,14.851-15.817.077a2.061,2.061,0,0,1-1.718-3.218,14.507,14.507,0,0,0,2.572-5.637c.487-3.8-2.572-8.838-7.629-8.813s-9.855,1.565-9.318,7.884a18.916,18.916,0,0,0,1.9,6.86,2.065,2.065,0,0,1-1.826,3l-17.619.085-.066-13.512a2.674,2.674,0,0,1,3.709-2.488,16.851,16.851,0,0,0,4.519,1.311c4.049.486,6.779-5.36,6.375-10.163-.318-3.782-6.055-8.155-11.066-6.107a2.666,2.666,0,0,1-3.634-2.49l-.054-11.057,17.652-.086A2.133,2.133,0,0,0,894,807.442Z" transform="translate(-859.689 -700.632)" fill="#ff6148"/>
            <path id="Trazado_150643" data-name="Trazado 150643" d="M895.061,1030.56a18.919,18.919,0,0,1-1.9-6.86c-.536-6.319,4.261-7.86,9.319-7.885s8.116,5.018,7.629,8.814a14.511,14.511,0,0,1-2.572,5.637,2.061,2.061,0,0,0,1.718,3.218l15.817-.077.073,15.134a1.987,1.987,0,0,0,3,1.708,13.478,13.478,0,0,1,7.112-1.719c8.6-.042,12.187,10.056,5.12,12.947-4.686,1.917-9.829,1.324-12.762.707a1.99,1.99,0,0,0-2.4,1.961l.078,16.043-15.339.075a2.3,2.3,0,0,1-1.964-3.526,22.628,22.628,0,0,0,2.844-5.716c.743-3.172-2.825-8.956-8.9-9.18s-8.584,2.823-9.06,8.895a10.569,10.569,0,0,0,1.432,6.189,2.305,2.305,0,0,1-2.019,3.423l-16.455.08-.071-14.671a2.677,2.677,0,0,1,3.46-2.575c4.094,1.249,10.417,1.8,11.056-6.342.784-9.989-4.953-9.611-10.828-6.92a2.675,2.675,0,0,1-3.777-2.429l-.067-13.844,17.619-.085A2.065,2.065,0,0,0,895.061,1030.56Z" transform="translate(-860.557 -879.009)" fill="#ffb476"/>
            <path id="Trazado_150644" data-name="Trazado 150644" d="M891.95,574.3a13.024,13.024,0,0,1-2.289-5.835c-.53-5.055,5.023-7.1,9.827-7.381s9.376,4,8.888,7.8a12.879,12.879,0,0,1-2.483,5.322,1.912,1.912,0,0,0,1.563,3.028l17.257-.084.085,17.458a1.991,1.991,0,0,0,2.833,1.8c2.97-1.384,7.487-2.945,9.45-.808,3.051,3.32,3.094,12.329-1.45,13.868-2.545.862-5.616-.277-7.827-1.447a1.992,1.992,0,0,0-2.925,1.771l.072,14.9-15.982.078a2.128,2.128,0,0,1-1.794-3.31,8.88,8.88,0,0,0-5.693-14.1c-6.325-.728-11.616,3.344-11.09,7.64a18.6,18.6,0,0,0,2.677,6.62,2.133,2.133,0,0,1-1.813,3.238l-17.652.086-.083-17.162a2.675,2.675,0,0,1,3.806-2.445c2.114,1,4.723,5.149,6.72,4.889,4.043-.526,5-9.539,4.224-14.387-.593-3.7-6.377-1.831-11.009.3a2.68,2.68,0,0,1-3.809-2.413l-.079-16.318,17.019-.082A1.917,1.917,0,0,0,891.95,574.3Z" transform="translate(-858.761 -514.805)" fill="#ffb476"/>
            <path id="Trazado_150645" data-name="Trazado 150645" d="M1126.567,1060.89c2.933.617,8.076,1.21,12.762-.707,7.067-2.89,3.478-12.988-5.12-12.947a13.481,13.481,0,0,0-7.113,1.719,1.987,1.987,0,0,1-3-1.708l-.073-15.134,17.368-.084a2.068,2.068,0,0,0,1.76-3.124,11.826,11.826,0,0,1-1.723-5.728c-.023-4.8,5.77-9.637,11.084-8.9s9.126,4.681,8.135,8.772a16.014,16.014,0,0,1-3.066,5.55,2.064,2.064,0,0,0,1.624,3.348l18.427-.089.067,13.8a2.31,2.31,0,0,0,3.242,2.108c6.006-2.684,15.417-.614,10.471,9.819-3.428,7.231-7.385,7-10.153,5.463a2.319,2.319,0,0,0-3.466,2.02l.065,13.448-16.873-.02a2.3,2.3,0,0,0-2.009,3.432,15.022,15.022,0,0,1,2,8.426c-.47,7.258-5.261,10.141-10.57,10.419s-10.9-5-9.412-11.334a22.214,22.214,0,0,1,3.142-7.077,2.3,2.3,0,0,0-1.949-3.55l-17.934.087-.078-16.043A1.99,1.99,0,0,1,1126.567,1060.89Z" transform="translate(-1059.506 -877.714)" fill="#ff6148"/>
            <path id="Trazado_150646" data-name="Trazado 150646" d="M1395.413,905.2a13.809,13.809,0,0,0,4.139,1.391c8.837,1.415,7.593-9.507,3.02-13.853-2.328-2.213-5.055-1.456-7.172-.18a2.319,2.319,0,0,1-3.538-1.955l-.072-14.871,14.244-.069a2.137,2.137,0,0,1,1.894,3.132,14.215,14.215,0,0,0-1.6,6.522c.028,5.816,7.874,7.17,10.4,7.347,2.295.16,11.434-4.052,5.709-13.849a2.131,2.131,0,0,1,1.827-3.208l16.531-.08.074,15.263a1.546,1.546,0,0,0,2.476,1.222c4.854-3.567,11.782-.49,12.966,2.167,1.406,3.154,1.817,9.6-5.255,11.531a9.876,9.876,0,0,1-8.132-.982,1.542,1.542,0,0,0-2.36,1.318l.07,14.508-17.005.082a2.062,2.062,0,0,1-1.712-3.23,26.342,26.342,0,0,0,3.248-5.721c.746-2.625-.8-8-7.124-8.8s-10.857,3.42-10.577,8.942a17.5,17.5,0,0,0,1.392,6.03,2.069,2.069,0,0,1-1.909,2.864l-14.865.072-.065-13.528A2.316,2.316,0,0,1,1395.413,905.2Z" transform="translate(-1273.963 -766.651)" fill="#ff6148"/>
          </g>
        </g>
      </g>
    </g>
    <g id="Grupo_107143" data-name="Grupo 107143" transform="translate(406.085 207.427)">
      <g id="Grupo_107139" data-name="Grupo 107139" transform="translate(62.223 113.433)">
        <path id="Trazado_150648" data-name="Trazado 150648" d="M1705.407,1102.351a1.184,1.184,0,0,0,1.2-.9l18.9-100.049a1.1,1.1,0,0,0-1-1.251,1.209,1.209,0,0,0-1.4.89l-18.9,100.048a1.1,1.1,0,0,0,1,1.251A1.394,1.394,0,0,0,1705.407,1102.351Z" transform="translate(-1704.19 -1000.131)" fill="#5c379b"/>
        <path id="Trazado_150649" data-name="Trazado 150649" d="M1936.048,1107.583a1.383,1.383,0,0,0,.242-.022,1.1,1.1,0,0,0,.951-1.278l-22.28-98.747a1.214,1.214,0,0,0-1.431-.849,1.1,1.1,0,0,0-.951,1.278l22.28,98.747A1.19,1.19,0,0,0,1936.048,1107.583Z" transform="translate(-1871.07 -1005.363)" fill="#5c379b"/>
        <path id="Trazado_150650" data-name="Trazado 150650" d="M1777.847,1121.942h32.3a1.092,1.092,0,1,0,0-2.171h-32.3a1.092,1.092,0,1,0,0,2.171Z" transform="translate(-1762.209 -1095.951)" fill="#bdd0fb"/>
        <path id="Trazado_150651" data-name="Trazado 150651" d="M1780.966,1121.942h31.126a1.089,1.089,0,1,0,0-2.171h-31.126a1.089,1.089,0,1,0,0,2.171Z" transform="translate(-1764.742 -1095.951)" fill="#5c379b"/>
        <path id="Trazado_150652" data-name="Trazado 150652" d="M1777.847,1212.8h32.3a1.092,1.092,0,1,0,0-2.171h-32.3a1.092,1.092,0,1,0,0,2.171Z" transform="translate(-1762.209 -1168.723)" fill="#bdd0fb"/>
        <path id="Trazado_150653" data-name="Trazado 150653" d="M1763.118,1212.8h39.157a1.092,1.092,0,1,0,0-2.171h-39.157a1.092,1.092,0,1,0,0,2.171Z" transform="translate(-1750.412 -1168.723)" fill="#5c379b"/>
        <path id="Trazado_150654" data-name="Trazado 150654" d="M1777.847,1303.665h32.3a1.092,1.092,0,1,0,0-2.171h-32.3a1.092,1.092,0,1,0,0,2.171Z" transform="translate(-1762.209 -1241.494)" fill="#bdd0fb"/>
        <path id="Trazado_150655" data-name="Trazado 150655" d="M1744.332,1303.665H1791.2a1.092,1.092,0,1,0,0-2.171h-46.871a1.092,1.092,0,1,0,0,2.171Z" transform="translate(-1735.367 -1241.494)" fill="#5c379b"/>
        <path id="Trazado_150656" data-name="Trazado 150656" d="M1777.847,1394.526h43.966a1.092,1.092,0,1,0,0-2.171h-43.966a1.092,1.092,0,1,0,0,2.171Z" transform="translate(-1762.209 -1314.265)" fill="#bdd0fb"/>
        <path id="Trazado_150657" data-name="Trazado 150657" d="M1729.137,1394.526H1782.8a1.092,1.092,0,1,0,0-2.171h-53.664a1.092,1.092,0,1,0,0,2.171Z" transform="translate(-1723.197 -1314.265)" fill="#5c379b"/>
      </g>
      <g id="Grupo_107141" data-name="Grupo 107141" transform="translate(0 0)">
        <path id="Trazado_150658" data-name="Trazado 150658" d="M1755.324,694.819c10.886-.9,13.731,1.349,13.731,1.349l-5.231,8.259s-10.7-.211-18.361-6.119a18.706,18.706,0,0,0,3.069-4.581A14.413,14.413,0,0,0,1755.324,694.819Z" transform="translate(-1675.022 -641.298)" fill="#ff6148"/>
        <path id="Trazado_150659" data-name="Trazado 150659" d="M1707.852,617.668a.334.334,0,0,1,.635-.128l1.389,2.964a3.088,3.088,0,0,1,.246,1.837l-.487,1.725a2.977,2.977,0,0,0,.607,2.37,20.722,20.722,0,0,0,7.865,6.118,18.712,18.712,0,0,1-3.069,4.581,18.775,18.775,0,0,1-6.535-9.073,1.457,1.457,0,0,1-1.028-1.448Z" transform="translate(-1644.598 -580.126)" fill="url(#linear-gradient-5)"/>
        <path id="Trazado_150660" data-name="Trazado 150660" d="M1461.432,465.036c3.116-2.168,8.664-4.3,12.949,3.5,2.233,4.062-1.213,9.109-7.28,9.708a11.928,11.928,0,0,1-6.7-1.125,1.539,1.539,0,0,0-2.218,1.4l.073,14.991-16.531.08a2.132,2.132,0,0,0-1.827,3.208c5.725,9.8-3.414,14.01-5.709,13.849-2.53-.177-10.375-1.531-10.4-7.347a14.215,14.215,0,0,1,1.6-6.522,2.137,2.137,0,0,0-1.894-3.132l-14.244.069-.07-14.332a2.312,2.312,0,0,0-3.142-2.152,19.55,19.55,0,0,1-8.416,1.414c-6.071-.476-7.63-8.972-4.111-13.335,2.6-3.222,7.451-.927,11.129.871a2.306,2.306,0,0,0,3.3-2.1l-.084-17.345,17.808-.086a1.911,1.911,0,0,0,1.617-2.919,20.264,20.264,0,0,1-2.543-5.674c-1.032-4.294,4.516-7.377,9.067-7.641s7.854,3.007,8.132,8.316a7.637,7.637,0,0,1-1.4,4.844,1.908,1.908,0,0,0,1.583,2.995l16.814-.082.084,17.286A1.542,1.542,0,0,0,1461.432,465.036Z" transform="translate(-1391.661 -430.392)" fill="#636363"/>
        <path id="Trazado_150661" data-name="Trazado 150661" d="M1904.117,1096.929s.788,1.242.986,4.721a.567.567,0,0,1-.563.6h-6.165a.364.364,0,0,1-.346-.478,9.865,9.865,0,0,1,3.891-5.165Z" transform="translate(-1797.199 -963.965)" fill="#29063c"/>
        <path id="Trazado_150662" data-name="Trazado 150662" d="M1918.452,1085.082l-.349,2.923a.549.549,0,0,1-.48.483,4.864,4.864,0,0,1-1.3-.012.9.9,0,0,1-.745-.9v-2.823Z" transform="translate(-1811.266 -954.476)" fill="url(#linear-gradient-6)"/>
        <path id="Trazado_150663" data-name="Trazado 150663" d="M1811.946,1096.606a8.609,8.609,0,0,1,1.155,4.352,1.089,1.089,0,0,1-1.1,1.065h-9.574a.458.458,0,0,1-.263-.834,41.685,41.685,0,0,1,7.948-4.583Z" transform="translate(-1720.28 -963.965)" fill="#29063c"/>
        <path id="Trazado_150664" data-name="Trazado 150664" d="M1845.514,1075.105l-.744,3.611a.745.745,0,0,1-.881.586,2.69,2.69,0,0,1-.842-.352.855.855,0,0,1-.382-.872l.769-4.374Z" transform="translate(-1752.862 -945.622)" fill="url(#linear-gradient-7)"/>
        <path id="Trazado_150665" data-name="Trazado 150665" d="M1857.39,828.6a10.367,10.367,0,0,1,3.073,5.023c.486,2.743-1.379,47.324-1.379,47.324s-2.586.43-3.919-.377c0,0-1.581-28.933-2.783-35.618,0,0-6.3,29.97-8.048,35.386,0,0-2.491.3-3.295-.171,0,0,1.651-38.85,3.725-45.757Z" transform="translate(-1751.57 -749.315)" fill="#5c379b"/>
        <path id="Trazado_150666" data-name="Trazado 150666" d="M1897.212,880.628a.289.289,0,0,1-.074-.01.293.293,0,0,1-.209-.357l1.1-4.214a.293.293,0,0,1,.125-.172l2.373-1.522a.292.292,0,1,1,.316.492l-2.277,1.46-1.07,4.1A.292.292,0,0,1,1897.212,880.628Z" transform="translate(-1796.324 -785.925)" fill="#3d095a"/>
        <path id="Trazado_150667" data-name="Trazado 150667" d="M1736.135,695.809c3.832-4.13,11.132-6,15.358-6.761a3.876,3.876,0,0,1,4.333,2.458c1.9,5.112,7.074,18.413,8.077,20.7.823,1.876,1.681,3.707,2.227,4.852a1.375,1.375,0,0,1-.642,1.832,100.48,100.48,0,0,1-12.547,4.41.89.89,0,0,1-1.139-.856,2.781,2.781,0,0,0-.4-1.431l-9.823-16.37c-6.123,6.789-11.485,7.41-15.6,5.924a30.958,30.958,0,0,0,1.363-6.434C1733.427,703.09,1736.135,695.809,1736.135,695.809Z" transform="translate(-1659.417 -637.5)" fill="#ff6148"/>
        <path id="Trazado_150668" data-name="Trazado 150668" d="M1682.306,753.451l1.1-1.464c3.555,2.442,6.527,3.021,8.96,2.6a30.988,30.988,0,0,1-1.363,6.434C1685.575,759.067,1682.306,753.451,1682.306,753.451Z" transform="translate(-1624.44 -687.959)" fill="url(#linear-gradient-8)"/>
        <path id="Trazado_150669" data-name="Trazado 150669" d="M1638.392,746.851l-6.187.241-5.7-3.182c.818-.513,5.442.535,5.442.535s4.833-.731,6.142-.733c1.087,0,.931,1.561.847,2.091-.017.108-.031.173-.031.173Z" transform="translate(-1579.751 -681.332)" fill="url(#linear-gradient-9)"/>
        <path id="Trazado_150670" data-name="Trazado 150670" d="M1804.286,651.21l3.265,7.966s-3.751,2.6-6.768,2.349l-1.629-7.163Z" transform="translate(-1718.023 -607.246)" fill="url(#linear-gradient-10)"/>
        <g id="Grupo_107140" data-name="Grupo 107140" transform="translate(77.615 34.853)">
          <path id="Trazado_150671" data-name="Trazado 150671" d="M1787.739,622.052c-.075.106-2.362,8.367-2.362,8.367l4.745,1.206,3.331-7.508S1788.99,620.279,1787.739,622.052Z" transform="translate(-1784.605 -618.372)" fill="url(#linear-gradient-11)"/>
          <path id="Trazado_150672" data-name="Trazado 150672" d="M1788.559,612.334l-1.444,4.09a.6.6,0,0,1-.075.146c-.2.279-.94,1.187-1.823.369a5.448,5.448,0,0,0-2.229-1.529.605.605,0,0,0-.689.435,26.191,26.191,0,0,0-.8,3.986.6.6,0,0,0,.491.651,19.518,19.518,0,0,0,4.532.377.606.606,0,0,0,.51-.352c.452-.988,1.837-3.985,2.353-4.761.483-.728,1.669-.707,2.166-.663a.6.6,0,0,0,.446-.146,1.57,1.57,0,0,0,.1-2.52.607.607,0,0,1,.014-.873,1.573,1.573,0,0,0,.2-2.338,2.22,2.22,0,0,0-2.649-.634.606.606,0,0,1-.729-.269.479.479,0,0,0-.495-.231.6.6,0,0,1-.636-.612,1.809,1.809,0,0,0-1.4-1.888c-2.072-.645-3.365,1.357-3.493,2.851s2.159,2.066,3.5,1.965c1.023-.077,1.782.937,2.087,1.427A.6.6,0,0,1,1788.559,612.334Z" transform="translate(-1781.498 -605.447)" fill="#12263f"/>
          <path id="Trazado_150673" data-name="Trazado 150673" d="M1818.409,653.632s.335-2.594,1.414-2.721,2.13.759,1.057,2.216C1819.545,654.938,1818.409,653.632,1818.409,653.632Z" transform="translate(-1811.06 -641.85)" fill="url(#linear-gradient-12)"/>
        </g>
      </g>
      <g id="Grupo_107142" data-name="Grupo 107142" transform="translate(30.41 22.158)">
        <path id="Trazado_150674" data-name="Trazado 150674" d="M1556.764,559.085h-2.275v-9.456a7.261,7.261,0,0,1,6.2-7.3l4.653-.589a6.867,6.867,0,0,1,5.527,1.8,7.5,7.5,0,0,1,2.376,5.505v8.255h-2.275v-8.255a5.08,5.08,0,0,0-1.61-3.729,4.651,4.651,0,0,0-3.744-1.216l-4.653.589a4.919,4.919,0,0,0-4.2,4.945Z" transform="translate(-1552.48 -541.684)" fill="#fff"/>
        <path id="Trazado_150675" data-name="Trazado 150675" d="M1545.738,613.773l19.948-1.152a1.441,1.441,0,0,1,1.492,1.472v16.479a1.445,1.445,0,0,1-1.414,1.474H1546.3a1.442,1.442,0,0,1-1.413-1.426l-.479-15.327A1.451,1.451,0,0,1,1545.738,613.773Z" transform="translate(-1544.402 -598.496)" fill="#fff"/>
        <path id="Trazado_150676" data-name="Trazado 150676" d="M1591.5,643.426l-1.207-3.62a1.25,1.25,0,0,1,.264-1.25,3.5,3.5,0,0,0,.944-2.567,3.287,3.287,0,1,0-6.571.16,3.476,3.476,0,0,0,1.218,2.662,1.254,1.254,0,0,1,.381,1.35l-1.089,3.264a1.215,1.215,0,0,0,1.106,1.623h3.848A1.215,1.215,0,0,0,1591.5,643.426Z" transform="translate(-1576.863 -614.598)" fill="#636363"/>
      </g>
    </g>
    <g id="Grupo_107145" data-name="Grupo 107145" transform="translate(179.206 345.23)">
      <path id="Trazado_150677" data-name="Trazado 150677" d="M261.317,1189.33s-8.338,4.619-9.028,12.437-.058,40.265,16.663,48.252,38.853,6.146,47.325,5.273,13.169-6.631,14.218-10.595,2.744-18.732-6.168-23.495-18.273-12.061-27.626-19.167S271.318,1183.328,261.317,1189.33Z" transform="translate(-252.117 -1174.697)" fill="#083142"/>
      <path id="Trazado_150678" data-name="Trazado 150678" d="M591.442,1369.652s-2.251.119-2.526,4.749a26.741,26.741,0,0,0,12.268,5.792c.529.084-.74-3.612-.931-4.113C599.344,1373.7,596.486,1372.163,591.442,1369.652Z" transform="translate(-521.86 -1320.453)" fill="#3d095a"/>
      <path id="Trazado_150679" data-name="Trazado 150679" d="M472.571,1271.017h4.749s14.576-16.1,24.137-17.722c0,0,6.655,8.495-.354,24.367a2.317,2.317,0,0,1-3.317,1.093,1.9,1.9,0,0,1-.758-.9l.564-13.552s-12.434,10.875-14.595,12.973S469.849,1278.091,472.571,1271.017Z" transform="translate(-428.334 -1227.261)" fill="#7142c1"/>
      <path id="Trazado_150680" data-name="Trazado 150680" d="M659.511,1494.925a17.855,17.855,0,0,0-9.739-4.262l-1.548.947a16.88,16.88,0,0,0,2.791,2.994,19.491,19.491,0,0,0,6.339,2.549C659.416,1497.428,659.72,1496.182,659.511,1494.925Z" transform="translate(-569.36 -1417.37)" fill="#3d095a"/>
      <path id="Trazado_150681" data-name="Trazado 150681" d="M600.252,1392.338c-1.226.4-1.765,2.134-4.877.985a27.539,27.539,0,0,1-6.4-3.371c-.026.224-.047.458-.062.707,0,0,5.5,5.234,12.552,6.347a.7.7,0,0,0,.758-.945A17.7,17.7,0,0,0,600.252,1392.338Z" transform="translate(-521.86 -1336.711)" fill="#29063c"/>
      <path id="Trazado_150682" data-name="Trazado 150682" d="M672.235,1512.269a16.349,16.349,0,0,0-1.5-1.489c.21,1.257-.095,2.5-2.158,2.228a19.488,19.488,0,0,1-6.339-2.549,13.7,13.7,0,0,0,9.227,3.542A1.046,1.046,0,0,0,672.235,1512.269Z" transform="translate(-580.586 -1433.225)" fill="#29063c"/>
      <path id="Trazado_150683" data-name="Trazado 150683" d="M436.745,1359.567l22.24.241s12.7,10.508,15,26.531c0,0,.383,1.178-1.913,1.38a44.087,44.087,0,0,1-12.685-13.882c-6.139-10.872-18.3-5.978-18.3-5.978-4-2.881-9.643-3.468-13.9-4.428Z" transform="translate(-392.335 -1312.375)" fill="#5c379b"/>
      <path id="Trazado_150684" data-name="Trazado 150684" d="M462.007,1269.584s2.394,12,14.125,16.745l4.173-.492.984,1.57-9.788.312a26.77,26.77,0,0,1-12.8-12.343C458.555,1275.078,456.114,1270.037,462.007,1269.584Z" transform="translate(-417.072 -1240.308)" fill="url(#linear-gradient-13)"/>
      <path id="Trazado_150685" data-name="Trazado 150685" d="M381.643,1240.99a64.09,64.09,0,0,1-3.308-14.592,31.426,31.426,0,0,1,3.237-2.45.9.9,0,0,0,.352-1.167c-.915-1.9-6.451-9.341-6.865-9.444-2.254-.562-11.5-4.957-18.006,3.947-2.794,3.822.554,15.585,13.229,27.767l2.615.5Z" transform="translate(-335.425 -1193.995)" fill="#ff6148"/>
      <path id="Trazado_150686" data-name="Trazado 150686" d="M415.372,1293.437s7.564,8.956,17.235,10.266c0,0,2.5-2.278,4.358-1.465s4.407,4.4,4.407,4.4H428.954s-11.741-.414-17.608-7.534C411.818,1296.617,413.232,1295.129,415.372,1293.437Z" transform="translate(-379.644 -1259.411)" fill="url(#linear-gradient-14)"/>
      <path id="Trazado_150687" data-name="Trazado 150687" d="M402.64,1188.134l-1.655,5.52a.607.607,0,0,0,.236.676,6.166,6.166,0,0,0,5.736.576.9.9,0,0,0,.579-.773l.392-4.809Z" transform="translate(-371.325 -1175.074)" fill="url(#linear-gradient-15)"/>
      <g id="Grupo_107144" data-name="Grupo 107144" transform="translate(26.835 0)">
        <path id="Trazado_150688" data-name="Trazado 150688" d="M414.075,1150.5s-.814,5.722-3.012,7.482-6.481.435-7.927-3.879l2.882-7.376Z" transform="translate(-399.904 -1141.913)" fill="url(#linear-gradient-16)"/>
        <path id="Trazado_150689" data-name="Trazado 150689" d="M392.692,1132.126a.283.283,0,0,0,.368-.227,7.392,7.392,0,0,1,.678-2.286s-.21-.751,1.9.383,5.272,2.8,7.135,1.808c1.817-.967,3.657-5.835-1.144-4.933a.283.283,0,0,1-.337-.3,2.921,2.921,0,0,0-1.884-3.231,2.68,2.68,0,0,0-3.093.71.282.282,0,0,1-.441-.007,3.267,3.267,0,0,0-4.03-1.214c-1.721.758-1.988,1.818-1.96,2.479a.282.282,0,0,1-.4.269,1.7,1.7,0,0,0-2.186.649c-1.122,1.406.481,2.626.963,2.945a.284.284,0,0,1,.128.234c0,.731.118,3.922,1.717,5.721a.286.286,0,0,0,.475-.082l1.231-2.933a.285.285,0,0,1,.35-.161Z" transform="translate(-386.903 -1122.537)" fill="#12263f"/>
        <path id="Trazado_150690" data-name="Trazado 150690" d="M406.824,1164.577s-.752-3.062-1.894-2.068.3,3.182,1.606,3.6Z" transform="translate(-401.009 -1154.392)" fill="url(#linear-gradient-17)"/>
      </g>
      <path id="Trazado_150691" data-name="Trazado 150691" d="M559.013,1280.942l5.575-18.593A1.9,1.9,0,0,1,566.28,1261l7.528-.515a1.067,1.067,0,0,1,1.08,1.418l-6.232,17.756a1.563,1.563,0,0,1-1.318,1.037l-7.413.823Z" transform="translate(-497.911 -1233.017)" fill="#500c75"/>
      <path id="Trazado_150692" data-name="Trazado 150692" d="M602.656,1293.466c-.416.84-1.135,1.333-1.606,1.1s-.514-1.1-.1-1.943,1.135-1.333,1.606-1.1S603.072,1292.626,602.656,1293.466Z" transform="translate(-531.272 -1257.832)" fill="#bdd0fb"/>
      <path id="Trazado_150693" data-name="Trazado 150693" d="M497.205,1357.238h-.036l-15.795-.8a.708.708,0,0,1,.071-1.414l15.795.8a.708.708,0,0,1-.035,1.415Z" transform="translate(-435.192 -1308.736)" fill="#500c75"/>
      <path id="Trazado_150694" data-name="Trazado 150694" d="M461.708,1253.491h0a.2.2,0,0,1-.195-.2,33.43,33.43,0,0,0-1.273-7.7.2.2,0,0,1,.375-.11,33.86,33.86,0,0,1,1.288,7.815A.2.2,0,0,1,461.708,1253.491Z" transform="translate(-418.797 -1220.892)" fill="#c5442f"/>
      <path id="Trazado_150695" data-name="Trazado 150695" d="M412.041,1263.026a.2.2,0,0,1-.153-.074,39.143,39.143,0,0,1-4.687-7.463.195.195,0,1,1,.363-.143c1.171,2.966,4.6,7.32,4.63,7.364a.195.195,0,0,1-.153.316Z" transform="translate(-376.313 -1228.805)" fill="#c5442f"/>
      <path id="Trazado_150696" data-name="Trazado 150696" d="M373.819,1293.85l-.145-.062c-5.021-2.15-8.119-8.139-8.15-8.2a.2.2,0,1,1,.347-.177c.03.058,3.007,5.809,7.812,7.955l.482-.682a.2.2,0,1,1,.318.225Z" transform="translate(-342.928 -1252.899)" fill="#c5442f"/>
    </g>
    <g id="Grupo_107148" data-name="Grupo 107148" transform="translate(238.514 292.193)">
      <g id="Grupo_107146" data-name="Grupo 107146">
        <path id="Trazado_150697" data-name="Trazado 150697" d="M550.411,858.263a1.213,1.213,0,0,1,.935-2.111c11.873,1.228,43.33,8.025,65.1,45.2,27.308,46.64,48.06,55.441,66.362,56.512a59.97,59.97,0,0,1-40.2-1.41C589.577,935.535,566.128,872.039,550.411,858.263Z" transform="translate(-550.001 -856.145)" fill="#e01650"/>
        <path id="Trazado_150698" data-name="Trazado 150698" d="M629.259,910.61a47.615,47.615,0,0,1,6.459,4.011l.774.548.755.573,1.511,1.147q1.477,1.187,2.94,2.395a126.937,126.937,0,0,1,10.864,10.563c3.469,3.681,6.6,7.656,9.706,11.637l2.239,3.056,1.12,1.529.56.764.533.782,4.255,6.244a152.868,152.868,0,0,0,18.9,23.016q5.234,5.317,10.939,10.145c.942.813,1.91,1.593,2.863,2.391.965.783,1.942,1.552,2.919,2.32.989.751,1.973,1.511,2.978,2.235s2.018,1.46,3.011,2.13l.033.022a1.35,1.35,0,0,1-1.482,2.257c-2.188-1.4-4.226-2.861-6.262-4.387-1.006-.77-2.012-1.54-3.006-2.326s-1.978-1.582-2.947-2.4c-3.887-3.248-7.6-6.7-11.157-10.3-1.8-1.777-3.508-3.654-5.219-5.521-.846-.942-1.654-1.919-2.483-2.877l-1.235-1.443c-.414-.479-.793-.988-1.192-1.48l-2.363-2.977c-.778-1-1.5-2.04-2.258-3.058-1.533-2.019-2.9-4.155-4.312-6.261-.713-1.059-1.38-2.1-2.061-3.147L664.6,949.06l-.509-.785-.535-.767-1.071-1.533-2.143-3.068-2.243-2.992c-.753-.994-1.482-2.007-2.28-2.965l-2.348-2.911c-.776-.977-1.61-1.9-2.412-2.857a125.382,125.382,0,0,0-10.345-10.794q-1.382-1.257-2.785-2.5l-1.434-1.2-.717-.6-.736-.575c-.493-.38-.978-.774-1.479-1.143l-1.511-1.1c-1.021-.7-2.056-1.424-3.119-2.016l-.016-.009a.362.362,0,0,1,.338-.64Z" transform="translate(-613.059 -899.736)" fill="#ff93b2"/>
      </g>
      <g id="Grupo_107147" data-name="Grupo 107147" transform="translate(37.9 87.181)">
        <path id="Trazado_150699" data-name="Trazado 150699" d="M740.857,1298.366a.638.638,0,0,1-.106-1.209c5.777-2.451,21.983-7.313,41.444,4.268,24.417,14.53,36.2,13.31,44.9,9.153a31.528,31.528,0,0,1-18.861,9.563C778.513,1323.984,751.591,1300.714,740.857,1298.366Z" transform="translate(-740.362 -1294.026)" fill="#87c998"/>
        <path id="Trazado_150700" data-name="Trazado 150700" d="M789.081,1314.987c5.422-.183,10.683,1.065,15.777,2.658,2.562.777,5.037,1.791,7.51,2.806,1.212.558,2.439,1.091,3.64,1.674l3.569,1.773a84.432,84.432,0,0,0,14.444,5.687q3.728,1.112,7.549,1.883,1.9.4,3.821.717c.639.1,1.279.2,1.917.282s1.289.172,1.889.233l.042,0a1.35,1.35,0,0,1-.209,2.691c-1.4-.075-2.714-.22-4.056-.4s-2.657-.4-3.977-.645c-2.636-.506-5.241-1.16-7.816-1.916a75.07,75.07,0,0,1-14.875-6.134c-1.189-.628-2.3-1.247-3.458-1.873s-2.327-1.175-3.489-1.767l-1.771-.827c-.592-.273-1.178-.561-1.781-.806-1.2-.51-2.4-1.026-3.613-1.491a65.622,65.622,0,0,0-7.422-2.448l-1.9-.48c-.637-.131-1.272-.292-1.913-.4a29.466,29.466,0,0,0-3.849-.5l-.038,0a.361.361,0,0,1,.006-.721Z" transform="translate(-779.101 -1310.8)" fill="#d2b7ff"/>
      </g>
    </g>
    <g id="Grupo_107149" data-name="Grupo 107149" transform="translate(237.342 293.306)">
      <path id="Trazado_150701" data-name="Trazado 150701" d="M550.908,1269.043l-.368-1.135a.591.591,0,1,1,1.124-.364l0,.005.007.022.343,1.094.007.022a.585.585,0,0,1-1.115.355Z" transform="translate(-549.238 -1186.422)" fill="#ffde95"/>
      <path id="Trazado_150702" data-name="Trazado 150702" d="M546.318,1249.836l-.217-1.174a.609.609,0,0,1,1.2-.221v.005l0,.023.2,1.13,0,.023a.6.6,0,0,1-1.188.214Z" transform="translate(-545.698 -1171.051)" fill="#ffde95"/>
      <path id="Trazado_150703" data-name="Trazado 150703" d="M544.187,1230.214l-.07-1.191a.628.628,0,0,1,1.253-.073v.028l.056,1.146v.023a.622.622,0,0,1-1.242.067Z" transform="translate(-544.117 -1155.367)" fill="#ffde95"/>
      <path id="Trazado_150704" data-name="Trazado 150704" d="M544.128,1210.487l.07-1.19a.646.646,0,0,1,1.29.075v.028l-.078,1.146v.022a.641.641,0,0,1-1.278-.081Z" transform="translate(-544.125 -1139.612)" fill="#ffde95"/>
      <path id="Trazado_150705" data-name="Trazado 150705" d="M546.029,1190.916l.2-1.175a.664.664,0,0,1,1.31.222v.006l0,.021-.2,1.131,0,.021a.659.659,0,0,1-1.3-.226Z" transform="translate(-545.641 -1123.994)" fill="#ffde95"/>
      <path id="Trazado_150706" data-name="Trazado 150706" d="M550.008,1171.717l.318-1.147a.683.683,0,0,1,1.316.365l0,.006-.006.02-.318,1.1-.006.02a.677.677,0,0,1-1.3-.369Z" transform="translate(-548.815 -1108.682)" fill="#ffde95"/>
      <path id="Trazado_150707" data-name="Trazado 150707" d="M555.909,1153.067l.429-1.11a.7.7,0,1,1,1.309.505l0,.006-.007.019-.425,1.069-.008.018a.7.7,0,0,1-1.3-.507Z" transform="translate(-553.524 -1093.816)" fill="#ffde95"/>
      <path id="Trazado_150708" data-name="Trazado 150708" d="M563.593,1135.117l.532-1.065a.72.72,0,1,1,1.288.644l0,.006-.009.018-.524,1.023-.009.018a.714.714,0,0,1-1.275-.645Z" transform="translate(-559.655 -1079.516)" fill="#ffde95"/>
      <path id="Trazado_150709" data-name="Trazado 150709" d="M572.943,1118.012l.63-1.011a.738.738,0,1,1,1.254.781l0,.006-.011.017-.617.97-.011.017a.733.733,0,0,1-1.24-.781Z" transform="translate(-567.115 -1065.9)" fill="#ffde95"/>
      <path id="Trazado_150710" data-name="Trazado 150710" d="M583.865,1101.893l.724-.949a.757.757,0,1,1,1.2.917l0,.006-.013.017-.706.908-.013.017a.751.751,0,0,1-1.191-.916Z" transform="translate(-575.828 -1053.08)" fill="#ffde95"/>
      <path id="Trazado_150711" data-name="Trazado 150711" d="M596.276,1086.921l.8-.876a.775.775,0,0,1,1.142,1.048l0,0-.013.014-.785.841-.013.015a.77.77,0,0,1-1.13-1.046Z" transform="translate(-585.729 -1041.185)" fill="#ffde95"/>
      <path id="Trazado_150712" data-name="Trazado 150712" d="M609.976,1073.119l.874-.806a.785.785,0,0,1,1.065,1.154l0,0-.014.013-.851.776-.014.013a.782.782,0,0,1-1.057-1.152Z" transform="translate(-596.662 -1030.221)" fill="#ffde95"/>
      <path id="Trazado_150713" data-name="Trazado 150713" d="M624.764,1060.462l.933-.736a.8.8,0,1,1,.986,1.249l0,0-.014.011-.909.709-.014.011a.792.792,0,0,1-.979-1.246Z" transform="translate(-608.466 -1020.171)" fill="#ffde95"/>
      <path id="Trazado_150714" data-name="Trazado 150714" d="M640.475,1048.953l.982-.667a.806.806,0,1,1,.905,1.333l0,0-.014.009-.958.643-.014.01a.8.8,0,0,1-.9-1.331Z" transform="translate(-621.009 -1011.034)" fill="#ffde95"/>
      <path id="Trazado_150715" data-name="Trazado 150715" d="M656.964,1038.563l1.023-.6a.816.816,0,0,1,.826,1.408l0,0-.014.008-1,.579-.014.008a.813.813,0,0,1-.819-1.405Z" transform="translate(-634.175 -1002.788)" fill="#ffde95"/>
      <path id="Trazado_150716" data-name="Trazado 150716" d="M674.1,1029.255l1.057-.535a.827.827,0,0,1,.747,1.475l0,0-.013.007-1.034.516-.013.007a.823.823,0,0,1-.74-1.471Z" transform="translate(-647.861 -995.403)" fill="#ffde95"/>
      <path id="Trazado_150717" data-name="Trazado 150717" d="M691.778,1020.979l1.085-.474a.837.837,0,0,1,.67,1.534l0,0-.013.005-1.063.458-.013.005a.834.834,0,0,1-.664-1.53Z" transform="translate(-661.978 -988.839)" fill="#ffde95"/>
      <path id="Trazado_150718" data-name="Trazado 150718" d="M709.894,1013.686l1.108-.416a.847.847,0,1,1,.6,1.586l0,0-.012,0-1.086.4-.012,0a.844.844,0,0,1-.589-1.582Z" transform="translate(-676.45 -983.057)" fill="#ffde95"/>
      <path id="Trazado_150719" data-name="Trazado 150719" d="M728.367,1007.324l1.126-.361a.858.858,0,1,1,.523,1.634h0l-.012,0-1.1.347-.012,0a.855.855,0,0,1-.517-1.629Z" transform="translate(-691.207 -978.017)" fill="#ffde95"/>
      <path id="Trazado_150720" data-name="Trazado 150720" d="M747.132,1001.848l1.142-.308a.868.868,0,1,1,.453,1.676h0l-.011,0-1.121.3-.011,0a.865.865,0,0,1-.447-1.671Z" transform="translate(-706.2 -973.682)" fill="#ffde95"/>
      <path id="Trazado_150721" data-name="Trazado 150721" d="M766.121,997.206l1.152-.26a.879.879,0,0,1,.387,1.714h0l-.01,0-1.133.25-.01,0a.876.876,0,0,1-.381-1.709Z" transform="translate(-721.374 -970.009)" fill="#ffde95"/>
      <path id="Trazado_150722" data-name="Trazado 150722" d="M785.292,993.331l1.161-.214a.889.889,0,0,1,.323,1.748h0l-.01,0-1.142.2-.01,0a.886.886,0,0,1-.317-1.743Z" transform="translate(-736.695 -966.948)" fill="#ffde95"/>
      <path id="Trazado_150723" data-name="Trazado 150723" d="M804.605,990.206l1.168-.17a.9.9,0,1,1,.259,1.78h-.015l-1.149.161h-.01a.9.9,0,0,1-.253-1.774Z" transform="translate(-752.128 -964.484)" fill="#ffde95"/>
      <path id="Trazado_150724" data-name="Trazado 150724" d="M824.027,987.823l1.174-.125a.906.906,0,1,1,.191,1.8h-.011l-1.154.121h-.01a.9.9,0,0,1-.19-1.8Z" transform="translate(-767.65 -962.616)" fill="#ffde95"/>
      <path id="Trazado_150725" data-name="Trazado 150725" d="M843.555,986.157l1.177-.083a.909.909,0,0,1,.129,1.814h-.011l-1.158.08h-.009a.908.908,0,0,1-.127-1.812Z" transform="translate(-783.262 -961.317)" fill="#ffde95"/>
      <path id="Trazado_150726" data-name="Trazado 150726" d="M863.132,985.16l1.179-.044a.913.913,0,1,1,.068,1.824h-.01l-1.161.041H863.2a.912.912,0,0,1-.066-1.822Z" transform="translate(-798.914 -960.552)" fill="#ffde95"/>
      <path id="Trazado_150727" data-name="Trazado 150727" d="M882.734,984.8l1.179-.006a.916.916,0,1,1,.009,1.832h-.01l-1.162,0h-.009a.915.915,0,0,1-.008-1.83Z" transform="translate(-814.588 -960.296)" fill="#ffde95"/>
      <path id="Trazado_150728" data-name="Trazado 150728" d="M902.343,984.935l1.178.03a.919.919,0,0,1-.046,1.838h-.01l-1.162-.031H902.3a.918.918,0,0,1,.048-1.836Z" transform="translate(-830.267 -960.407)" fill="#ffde95"/>
      <path id="Trazado_150729" data-name="Trazado 150729" d="M921.936,985.627l1.176.063a.923.923,0,0,1-.1,1.843H923l-1.161-.065h-.008a.922.922,0,0,1,.1-1.841Z" transform="translate(-845.936 -960.96)" fill="#ffde95"/>
      <path id="Trazado_150730" data-name="Trazado 150730" d="M941.5,986.872l1.174.1a.926.926,0,1,1-.15,1.847h-.009l-1.159-.1h-.007a.925.925,0,0,1,.152-1.845Z" transform="translate(-861.582 -961.956)" fill="#ffde95"/>
      <path id="Trazado_150731" data-name="Trazado 150731" d="M961.025,988.64l1.169.125a.93.93,0,0,1-.2,1.849h-.009l-1.155-.126h-.007a.929.929,0,0,1,.2-1.847Z" transform="translate(-877.197 -963.37)" fill="#ffde95"/>
      <path id="Trazado_150732" data-name="Trazado 150732" d="M980.48,990.9l1.167.154a.933.933,0,0,1-.244,1.85h-.008l-1.153-.154h-.007a.932.932,0,0,1,.245-1.848Z" transform="translate(-892.758 -965.175)" fill="#ffde95"/>
      <path id="Trazado_150733" data-name="Trazado 150733" d="M999.895,993.619l1.164.181a.937.937,0,1,1-.287,1.851h-.008l-1.151-.181h-.006a.936.936,0,0,1,.289-1.849Z" transform="translate(-908.286 -967.353)" fill="#ffde95"/>
      <path id="Trazado_150734" data-name="Trazado 150734" d="M1019.243,996.774l1.16.206a.94.94,0,1,1-.328,1.851h-.007l-1.148-.206h-.006a.939.939,0,0,1,.33-1.849Z" transform="translate(-923.763 -969.877)" fill="#ffde95"/>
      <path id="Trazado_150735" data-name="Trazado 150735" d="M1038.522,1000.339l1.153.229a.943.943,0,1,1-.367,1.851h-.007l-1.142-.229h-.006a.942.942,0,0,1,.368-1.849Z" transform="translate(-939.186 -972.729)" fill="#ffde95"/>
      <path id="Trazado_150736" data-name="Trazado 150736" d="M1057.718,1004.281l1.149.25a.947.947,0,0,1-.4,1.85h-.007l-1.138-.25h-.005a.946.946,0,0,1,.4-1.848Z" transform="translate(-954.543 -975.884)" fill="#ffde95"/>
      <path id="Trazado_150737" data-name="Trazado 150737" d="M1076.836,1008.579l1.145.271a.95.95,0,0,1-.438,1.85h-.006l-1.135-.271h0a.949.949,0,0,1,.439-1.847Z" transform="translate(-969.838 -979.323)" fill="#ffde95"/>
      <path id="Trazado_150738" data-name="Trazado 150738" d="M1095.883,1013.211l1.139.29a.954.954,0,0,1-.47,1.849h-.006l-1.13-.29h0a.953.953,0,0,1,.471-1.846Z" transform="translate(-985.077 -983.029)" fill="#ffde95"/>
      <path id="Trazado_150739" data-name="Trazado 150739" d="M1114.848,1018.15l1.134.306a.957.957,0,1,1-.5,1.848h-.005l-1.126-.306h0a.956.956,0,0,1,.5-1.846Z" transform="translate(-1000.252 -986.982)" fill="#ffde95"/>
      <path id="Trazado_150740" data-name="Trazado 150740" d="M1133.742,1023.336l1.13.317a.961.961,0,1,1-.52,1.85h0l-1.126-.318h0a.96.96,0,0,1,.52-1.848Z" transform="translate(-1015.373 -991.133)" fill="#ffde95"/>
      <path id="Trazado_150741" data-name="Trazado 150741" d="M1152.589,1028.68l1.125.324a.961.961,0,0,1-.531,1.847l-1.125-.321a.962.962,0,1,1,.527-1.851Z" transform="translate(-1030.46 -995.412)" fill="#ffde95"/>
      <path id="Trazado_150742" data-name="Trazado 150742" d="M1171.439,1034.113l1.124.324a.956.956,0,0,1-.526,1.839l-1.126-.321a.958.958,0,0,1,.526-1.842Z" transform="translate(-1045.561 -999.763)" fill="#ffde95"/>
      <path id="Trazado_150743" data-name="Trazado 150743" d="M1190.291,1039.51l1.124.318h0a.952.952,0,0,1-.515,1.832l-1.129-.316a.953.953,0,1,1,.514-1.835h0Z" transform="translate(-1060.667 -1004.087)" fill="#ffde95"/>
      <path id="Trazado_150744" data-name="Trazado 150744" d="M1209.176,1044.777l1.126.306h0a.947.947,0,0,1-.495,1.829l-1.134-.3a.949.949,0,0,1,.493-1.832h.006Z" transform="translate(-1075.803 -1008.307)" fill="#ffde95"/>
      <path id="Trazado_150745" data-name="Trazado 150745" d="M1228.116,1049.82l1.13.289h0a.943.943,0,0,1-.465,1.827l-1.141-.289a.944.944,0,0,1,.463-1.83h.007Z" transform="translate(-1090.987 -1012.349)" fill="#ffde95"/>
      <path id="Trazado_150746" data-name="Trazado 150746" d="M1247.148,1054.546l1.134.266h.007a.938.938,0,0,1-.426,1.827l-1.147-.266a.939.939,0,0,1,.424-1.83h.008Z" transform="translate(-1106.248 -1016.138)" fill="#ffde95"/>
      <path id="Trazado_150747" data-name="Trazado 150747" d="M1266.26,1058.851l1.138.237.008,0a.933.933,0,0,1-.378,1.828l-1.154-.237a.935.935,0,1,1,.376-1.831h.01Z" transform="translate(-1121.577 -1019.59)" fill="#ffde95"/>
      <path id="Trazado_150748" data-name="Trazado 150748" d="M1285.467,1062.637l1.143.2h.009a.929.929,0,0,1-.321,1.83l-1.161-.2a.93.93,0,1,1,.319-1.833h.011Z" transform="translate(-1136.985 -1022.626)" fill="#ffde95"/>
      <path id="Trazado_150749" data-name="Trazado 150749" d="M1304.781,1065.806l1.148.161.01,0a.924.924,0,0,1-.255,1.831l-1.169-.161a.926.926,0,0,1,.253-1.834h.013Z" transform="translate(-1152.482 -1025.168)" fill="#ffde95"/>
      <path id="Trazado_150750" data-name="Trazado 150750" d="M1324.2,1068.25l1.152.112h.012a.92.92,0,0,1-.176,1.831l-1.177-.112a.921.921,0,0,1,.174-1.834h.015Z" transform="translate(-1168.067 -1027.129)" fill="#ffde95"/>
      <path id="Trazado_150751" data-name="Trazado 150751" d="M1343.7,1069.831l1.156.058h.013a.915.915,0,0,1-.09,1.828l-1.182-.057a.917.917,0,1,1,.088-1.831h.016Z" transform="translate(-1183.726 -1028.399)" fill="#ffde95"/>
      <path id="Trazado_150752" data-name="Trazado 150752" d="M1363.256,1070.48h1.17a.911.911,0,0,1,0,1.821l-1.185,0a.912.912,0,0,1,0-1.824h.016Z" transform="translate(-1199.427 -1028.92)" fill="#ffde95"/>
      <path id="Trazado_150753" data-name="Trazado 150753" d="M1382.813,1069.873l1.153-.062h.015a.906.906,0,0,1,.1,1.81l-1.184.066a.907.907,0,1,1-.1-1.812h.017Z" transform="translate(-1215.131 -1028.382)" fill="#ffde95"/>
      <path id="Trazado_150754" data-name="Trazado 150754" d="M1402.314,1068.185l1.147-.126.016,0a.9.9,0,0,1,.2,1.782l-1.179.138a.9.9,0,1,1-.209-1.79h.007Z" transform="translate(-1230.794 -1026.976)" fill="#ffde95"/>
      <path id="Trazado_150755" data-name="Trazado 150755" d="M1421.73,1065.333l1.136-.2.017,0a.883.883,0,0,1,.31,1.739l-1.169.212a.887.887,0,0,1-.317-1.746h.006Z" transform="translate(-1246.398 -1024.627)" fill="#ffde95"/>
      <path id="Trazado_150756" data-name="Trazado 150756" d="M1440.928,1061.2l1.118-.276.018,0a.869.869,0,0,1,.422,1.686l-1.153.293a.874.874,0,0,1-.43-1.693h.006Z" transform="translate(-1261.83 -1021.245)" fill="#ffde95"/>
      <path id="Trazado_150757" data-name="Trazado 150757" d="M1459.805,1055.7l1.092-.358.019-.006a.856.856,0,0,1,.539,1.624l-1.128.378a.86.86,0,1,1-.547-1.63l.006,0Z" transform="translate(-1277.006 -1016.756)" fill="#ffde95"/>
      <path id="Trazado_150758" data-name="Trazado 150758" d="M1478.211,1048.744l1.059-.445.02-.008a.841.841,0,0,1,.658,1.549l-1.1.47a.846.846,0,0,1-.666-1.555l.006,0Z" transform="translate(-1291.805 -1011.096)" fill="#ffde95"/>
      <path id="Trazado_150759" data-name="Trazado 150759" d="M1496,1040.279l1.016-.535.02-.01a.828.828,0,0,1,.776,1.462l-1.051.563a.832.832,0,1,1-.786-1.467l.005,0Z" transform="translate(-1306.113 -1004.219)" fill="#ffde95"/>
      <path id="Trazado_150760" data-name="Trazado 150760" d="M1513.01,1030.3c.321-.208.646-.412.962-.625a.814.814,0,0,1,.913,1.348c-.331.226-.665.441-1,.659a.818.818,0,1,1-.9-1.368l0,0Z" transform="translate(-1319.795 -996.125)" fill="#ffde95"/>
      <path id="Trazado_150761" data-name="Trazado 150761" d="M1528.967,1018.624l.886-.724.02-.016a.8.8,0,0,1,1.017,1.235l-.921.763a.8.8,0,1,1-1.027-1.238l0,0Z" transform="translate(-1332.634 -986.651)" fill="#ffde95"/>
      <path id="Trazado_150762" data-name="Trazado 150762" d="M1543.625,1005.375l.806-.815.017-.017a.786.786,0,0,1,1.122,1.1l-.834.855a.79.79,0,0,1-1.132-1.1l0,0Z" transform="translate(-1344.429 -975.924)" fill="#ffde95"/>
      <path id="Trazado_150763" data-name="Trazado 150763" d="M1556.85,990.717l.719-.893.015-.019a.771.771,0,0,1,1.206.962l-.74.937a.777.777,0,0,1-1.219-.963l0-.005Z" transform="translate(-1355.069 -964.077)" fill="#ffde95"/>
      <path id="Trazado_150764" data-name="Trazado 150764" d="M1568.559,974.859l.624-.962.013-.02a.747.747,0,0,1,1.258.8l-.637,1.01a.754.754,0,1,1-1.276-.8l0,0Z" transform="translate(-1364.489 -951.278)" fill="#ffde95"/>
      <path id="Trazado_150765" data-name="Trazado 150765" d="M1578.579,957.906l.518-1.023.011-.021a.722.722,0,0,1,1.293.644l-.526,1.072a.73.73,0,0,1-1.31-.643l0,0Z" transform="translate(-1372.549 -937.605)" fill="#ffde95"/>
      <path id="Trazado_150766" data-name="Trazado 150766" d="M1586.72,940.016l.4-1.074.009-.023a.7.7,0,0,1,1.311.478l-.4,1.125a.705.705,0,1,1-1.328-.475l0,0Z" transform="translate(-1379.099 -923.188)" fill="#ffde95"/>
      <path id="Trazado_150767" data-name="Trazado 150767" d="M1592.773,921.374l.268-1.113.006-.025a.673.673,0,0,1,1.311.307l-.266,1.166a.681.681,0,1,1-1.327-.3v0Z" transform="translate(-1383.969 -908.176)" fill="#ffde95"/>
      <path id="Trazado_150768" data-name="Trazado 150768" d="M1596.5,902.216l.122-1.138,0-.026a.648.648,0,0,1,1.29.13l-.113,1.191a.656.656,0,0,1-1.306-.124v0Z" transform="translate(-1386.968 -892.761)" fill="#ffde95"/>
      <path id="Trazado_150769" data-name="Trazado 150769" d="M1597.5,882.829l-.037-1.143v-.027a.624.624,0,0,1,1.247-.048l.054,1.2a.631.631,0,0,1-1.262.057v-.035Z" transform="translate(-1387.746 -877.178)" fill="#ffde95"/>
      <path id="Trazado_150770" data-name="Trazado 150770" d="M1595.172,863.6l-.205-1.124,0-.027a.6.6,0,0,1,1.178-.223l.23,1.175a.607.607,0,0,1-1.191.233v0Z" transform="translate(-1385.735 -861.739)" fill="#ffde95"/>
    </g>
    <g id="Grupo_107150" data-name="Grupo 107150" transform="translate(251.551 333.332)">
      <path id="Trazado_150771" data-name="Trazado 150771" d="M615.6,1149.137l.717-.947a.589.589,0,1,1,.939.711l0,0-.011.015-.7.913-.011.015a.585.585,0,0,1-.931-.709Z" transform="translate(-615.482 -1130.997)" fill="#ffde95"/>
      <path id="Trazado_150772" data-name="Trazado 150772" d="M628,1134.2l.81-.869a.6.6,0,0,1,.88.821l0,0-.012.013-.791.837-.012.013a.6.6,0,0,1-.872-.818Z" transform="translate(-625.381 -1119.134)" fill="#ffde95"/>
      <path id="Trazado_150773" data-name="Trazado 150773" d="M641.876,1120.633l.891-.785a.614.614,0,0,1,.812.922l0,0-.013.012-.87.756-.013.011a.61.61,0,0,1-.8-.919Z" transform="translate(-636.455 -1108.362)" fill="#ffde95"/>
      <path id="Trazado_150774" data-name="Trazado 150774" d="M657.024,1108.485l.961-.7a.627.627,0,1,1,.737,1.014l0,0-.014.01-.937.672-.014.01a.623.623,0,0,1-.729-1.011Z" transform="translate(-648.548 -1098.73)" fill="#ffde95"/>
      <path id="Trazado_150775" data-name="Trazado 150775" d="M673.249,1097.788l1.018-.61a.64.64,0,0,1,.657,1.1l0,0-.014.008-.994.586-.014.008a.636.636,0,0,1-.65-1.093Z" transform="translate(-661.5 -1090.256)" fill="#ffde95"/>
      <path id="Trazado_150776" data-name="Trazado 150776" d="M690.366,1088.542l1.065-.522a.652.652,0,0,1,.574,1.171l0,0-.014.007-1.04.5-.014.007a.648.648,0,0,1-.567-1.166Z" transform="translate(-675.166 -1082.94)" fill="#ffde95"/>
      <path id="Trazado_150777" data-name="Trazado 150777" d="M708.209,1080.734l1.1-.436a.665.665,0,0,1,.489,1.237l0,0-.014.006-1.077.417-.015.005a.661.661,0,0,1-.482-1.231Z" transform="translate(-689.413 -1076.772)" fill="#ffde95"/>
      <path id="Trazado_150778" data-name="Trazado 150778" d="M726.628,1074.347l1.132-.35a.677.677,0,0,1,.4,1.293h0l-.014,0-1.1.335-.015,0a.674.674,0,0,1-.395-1.288Z" transform="translate(-704.119 -1071.738)" fill="#ffde95"/>
      <path id="Trazado_150779" data-name="Trazado 150779" d="M745.517,1069.391l1.155-.265a.681.681,0,1,1,.3,1.328h0l-.014,0-1.127.256-.014,0a.68.68,0,0,1-.3-1.325Z" transform="translate(-719.204 -1067.848)" fill="#ffde95"/>
      <path id="Trazado_150780" data-name="Trazado 150780" d="M764.75,1065.816l1.171-.182a.685.685,0,0,1,.21,1.355h0l-.014,0-1.143.174-.014,0a.684.684,0,0,1-.208-1.352Z" transform="translate(-734.568 -1065.058)" fill="#ffde95"/>
      <path id="Trazado_150781" data-name="Trazado 150781" d="M784.211,1063.614l1.181-.1a.69.69,0,0,1,.115,1.375h-.016l-1.152.094h-.014a.689.689,0,0,1-.114-1.372Z" transform="translate(-750.113 -1063.366)" fill="#ffde95"/>
      <path id="Trazado_150782" data-name="Trazado 150782" d="M803.8,1062.79l1.185-.015a.694.694,0,1,1,.018,1.388h-.016l-1.156.012h-.015a.693.693,0,0,1-.017-1.386Z" transform="translate(-765.759 -1062.775)" fill="#ffde95"/>
      <path id="Trazado_150783" data-name="Trazado 150783" d="M823.424,1063.048l1.182.06a.7.7,0,0,1-.071,1.4h-.014l-1.156-.062h-.013a.7.7,0,0,1,.073-1.393Z" transform="translate(-781.436 -1062.993)" fill="#ffde95"/>
      <path id="Trazado_150784" data-name="Trazado 150784" d="M842.988,1064.46l1.175.13a.7.7,0,1,1-.155,1.4H844l-1.151-.13h-.012a.7.7,0,0,1,.156-1.395Z" transform="translate(-797.069 -1064.121)" fill="#ffde95"/>
      <path id="Trazado_150785" data-name="Trazado 150785" d="M862.435,1067.008l1.165.2a.707.707,0,1,1-.234,1.4h0l-.011,0-1.142-.194-.011,0a.706.706,0,0,1,.235-1.392Z" transform="translate(-812.609 -1066.157)" fill="#ffde95"/>
      <path id="Trazado_150786" data-name="Trazado 150786" d="M881.71,1070.616l1.153.256a.712.712,0,0,1-.309,1.39h0l-.011,0-1.131-.254-.011,0a.71.71,0,0,1,.31-1.386Z" transform="translate(-828.013 -1069.041)" fill="#ffde95"/>
      <path id="Trazado_150787" data-name="Trazado 150787" d="M900.774,1075.2l1.138.312a.716.716,0,0,1-.378,1.381h0l-.01,0-1.119-.308-.01,0a.715.715,0,0,1,.379-1.378Z" transform="translate(-843.25 -1072.707)" fill="#ffde95"/>
      <path id="Trazado_150788" data-name="Trazado 150788" d="M919.6,1080.685l1.123.362a.72.72,0,0,1-.442,1.371h0l-.009,0-1.1-.359-.009,0a.719.719,0,0,1,.443-1.368Z" transform="translate(-858.296 -1077.091)" fill="#ffde95"/>
      <path id="Trazado_150789" data-name="Trazado 150789" d="M938.159,1086.983l1.105.407a.725.725,0,1,1-.5,1.36h0l-.008,0-1.088-.4-.008,0a.723.723,0,0,1,.5-1.357Z" transform="translate(-873.135 -1082.127)" fill="#ffde95"/>
      <path id="Trazado_150790" data-name="Trazado 150790" d="M956.445,1094.02l1.09.45a.729.729,0,0,1-.556,1.348h0l-.007,0-1.074-.446-.007,0a.728.728,0,0,1,.557-1.345Z" transform="translate(-887.755 -1087.754)" fill="#ffde95"/>
      <path id="Trazado_150791" data-name="Trazado 150791" d="M974.466,1101.73l1.074.488a.733.733,0,0,1-.607,1.336h0l-.006,0-1.06-.484-.007,0a.732.732,0,0,1,.607-1.333Z" transform="translate(-902.164 -1093.921)" fill="#ffde95"/>
      <path id="Trazado_150792" data-name="Trazado 150792" d="M992.218,1110.047l1.056.521a.738.738,0,0,1-.653,1.323h0l-.006,0-1.042-.517-.006,0a.737.737,0,0,1,.653-1.32Z" transform="translate(-916.361 -1100.574)" fill="#ffde95"/>
      <path id="Trazado_150793" data-name="Trazado 150793" d="M1009.695,1118.9l1.04.551a.742.742,0,1,1-.7,1.311h0l-.006,0-1.028-.548-.006,0a.741.741,0,0,1,.7-1.308Z" transform="translate(-930.337 -1107.66)" fill="#ffde95"/>
      <path id="Trazado_150794" data-name="Trazado 150794" d="M1026.917,1128.253l1.024.577a.747.747,0,0,1-.733,1.3h0l0,0-1.014-.574,0,0a.745.745,0,0,1,.733-1.3Z" transform="translate(-944.112 -1115.139)" fill="#ffde95"/>
      <path id="Trazado_150795" data-name="Trazado 150795" d="M1043.89,1138.009l1.01.6a.751.751,0,0,1-.766,1.292h0l0,0-1-.6,0,0a.749.749,0,0,1,.766-1.289Z" transform="translate(-957.689 -1122.945)" fill="#ffde95"/>
      <path id="Trazado_150796" data-name="Trazado 150796" d="M1060.661,1148.113l1,.617a.755.755,0,0,1-.794,1.285h0l0,0-.99-.615,0,0a.754.754,0,0,1,.794-1.282Z" transform="translate(-971.106 -1131.032)" fill="#ffde95"/>
      <path id="Trazado_150797" data-name="Trazado 150797" d="M1077.254,1158.506l.988.631a.76.76,0,0,1-.818,1.28h0l0,0-.981-.63,0,0a.758.758,0,0,1,.818-1.277Z" transform="translate(-984.382 -1139.35)" fill="#ffde95"/>
      <path id="Trazado_150798" data-name="Trazado 150798" d="M1093.692,1169.12l.98.642a.764.764,0,1,1-.837,1.278h0l-.975-.642h0a.763.763,0,0,1,.837-1.275Z" transform="translate(-997.536 -1147.847)" fill="#ffde95"/>
      <path id="Trazado_150799" data-name="Trazado 150799" d="M1110.017,1179.908l.974.651a.767.767,0,1,1-.854,1.274l-.972-.65a.767.767,0,1,1,.85-1.277Z" transform="translate(-1010.602 -1156.484)" fill="#ffde95"/>
      <path id="Trazado_150800" data-name="Trazado 150800" d="M1126.3,1190.846l.97.657a.763.763,0,0,1-.855,1.263l-.97-.654a.764.764,0,1,1,.853-1.268Z" transform="translate(-1023.64 -1165.242)" fill="#ffde95"/>
      <path id="Trazado_150801" data-name="Trazado 150801" d="M1142.542,1201.853l.968.658a.759.759,0,0,1-.851,1.256l-.97-.656a.76.76,0,0,1,.851-1.259Z" transform="translate(-1036.655 -1174.057)" fill="#ffde95"/>
      <path id="Trazado_150802" data-name="Trazado 150802" d="M1158.782,1212.862l.969.655a.754.754,0,0,1-.843,1.251l-.972-.655a.756.756,0,0,1,.844-1.253Z" transform="translate(-1049.668 -1182.876)" fill="#ffde95"/>
      <path id="Trazado_150803" data-name="Trazado 150803" d="M1175.053,1223.82l.971.65a.75.75,0,0,1-.832,1.249l-.976-.65a.751.751,0,1,1,.833-1.251Z" transform="translate(-1062.707 -1191.655)" fill="#ffde95"/>
      <path id="Trazado_150804" data-name="Trazado 150804" d="M1191.391,1234.672l.977.641h0a.746.746,0,0,1-.817,1.248l-.982-.642a.747.747,0,0,1,.818-1.251h0Z" transform="translate(-1075.801 -1200.348)" fill="#ffde95"/>
      <path id="Trazado_150805" data-name="Trazado 150805" d="M1207.83,1245.359l.984.629,0,0a.742.742,0,0,1-.8,1.251l-.991-.631a.743.743,0,1,1,.8-1.254h0Z" transform="translate(-1088.978 -1208.912)" fill="#ffde95"/>
      <path id="Trazado_150806" data-name="Trazado 150806" d="M1224.425,1255.794l.994.607,0,0a.738.738,0,0,1-.767,1.26l-1-.61a.739.739,0,0,1,.766-1.263h0Z" transform="translate(-1102.284 -1217.276)" fill="#ffde95"/>
      <path id="Trazado_150807" data-name="Trazado 150807" d="M1241.252,1265.833l1.01.578.006,0a.733.733,0,0,1-.727,1.273l-1.023-.583a.734.734,0,1,1,.727-1.276h0Z" transform="translate(-1115.779 -1225.324)" fill="#ffde95"/>
      <path id="Trazado_150808" data-name="Trazado 150808" d="M1258.368,1275.361l1.028.542.007,0a.729.729,0,0,1-.679,1.29l-1.044-.548a.73.73,0,0,1,.679-1.293h0Z" transform="translate(-1129.509 -1232.965)" fill="#ffde95"/>
      <path id="Trazado_150809" data-name="Trazado 150809" d="M1275.818,1284.249l1.048.5.009,0a.725.725,0,0,1-.621,1.31l-1.067-.5a.726.726,0,1,1,.621-1.313h0Z" transform="translate(-1143.509 -1240.094)" fill="#ffde95"/>
      <path id="Trazado_150810" data-name="Trazado 150810" d="M1293.64,1292.352l1.07.445.011,0a.721.721,0,0,1-.552,1.331l-1.092-.452a.722.722,0,1,1,.552-1.334h0Z" transform="translate(-1157.813 -1246.596)" fill="#ffde95"/>
      <path id="Trazado_150811" data-name="Trazado 150811" d="M1311.857,1299.5l1.092.381.013,0a.716.716,0,0,1-.47,1.353l-1.119-.387a.718.718,0,0,1,.47-1.356h0Z" transform="translate(-1172.437 -1252.336)" fill="#ffde95"/>
      <path id="Trazado_150812" data-name="Trazado 150812" d="M1330.472,1305.515l1.114.3.015,0a.712.712,0,0,1-.375,1.374l-1.144-.311a.713.713,0,1,1,.374-1.377h0Z" transform="translate(-1187.385 -1257.163)" fill="#ffde95"/>
      <path id="Trazado_150813" data-name="Trazado 150813" d="M1349.462,1310.181l1.132.217.017,0a.708.708,0,0,1-.265,1.391l-1.167-.221a.709.709,0,0,1,.264-1.394h0Z" transform="translate(-1202.641 -1260.911)" fill="#ffde95"/>
      <path id="Trazado_150814" data-name="Trazado 150814" d="M1368.758,1313.286l1.145.117.02,0a.7.7,0,0,1-.141,1.4l-1.184-.118a.705.705,0,0,1,.14-1.4h0Z" transform="translate(-1218.146 -1263.406)" fill="#ffde95"/>
      <path id="Trazado_150815" data-name="Trazado 150815" d="M1388.25,1314.625l1.149.006h.021a.7.7,0,0,1-.005,1.4l-1.191,0a.7.7,0,0,1,0-1.4h.023Z" transform="translate(-1233.813 -1264.483)" fill="#ffde95"/>
      <path id="Trazado_150816" data-name="Trazado 150816" d="M1407.8,1313.557l1.141-.114.024,0a.7.7,0,0,1,.139,1.383c-.4.04-.793.086-1.189.121a.7.7,0,0,1-.132-1.387Z" transform="translate(-1249.536 -1263.531)" fill="#ffde95"/>
      <path id="Trazado_150817" data-name="Trazado 150817" d="M1427.1,1310.277l1.119-.245.023-.005a.691.691,0,0,1,.3,1.35l-1.165.258a.692.692,0,0,1-.3-1.352h0Z" transform="translate(-1265.055 -1260.786)" fill="#ffde95"/>
      <path id="Trazado_150818" data-name="Trazado 150818" d="M1445.986,1304.837l1.087-.369.021-.007a.687.687,0,0,1,.444,1.3l-1.129.386a.688.688,0,1,1-.446-1.3h0Z" transform="translate(-1280.245 -1256.312)" fill="#ffde95"/>
      <path id="Trazado_150819" data-name="Trazado 150819" d="M1464.224,1297.39l1.04-.483.02-.009a.682.682,0,0,1,.577,1.237l-1.078.5a.684.684,0,1,1-.579-1.239h0Z" transform="translate(-1294.91 -1250.234)" fill="#ffde95"/>
      <path id="Trazado_150820" data-name="Trazado 150820" d="M1481.617,1288.091l.987-.59.018-.01a.678.678,0,0,1,.7,1.163l-1.021.613a.68.68,0,1,1-.7-1.165h0Z" transform="translate(-1308.893 -1242.674)" fill="#ffde95"/>
      <path id="Trazado_150821" data-name="Trazado 150821" d="M1498.03,1277.1l.926-.686.016-.012a.67.67,0,0,1,.8,1.074l-.953.716a.674.674,0,1,1-.809-1.077l0,0Z" transform="translate(-1322.086 -1233.768)" fill="#ffde95"/>
      <path id="Trazado_150822" data-name="Trazado 150822" d="M1513.328,1264.586l.852-.774.015-.013a.658.658,0,0,1,.887.971l-.876.806a.661.661,0,1,1-.9-.974l0,0Z" transform="translate(-1334.385 -1223.639)" fill="#ffde95"/>
      <path id="Trazado_150823" data-name="Trazado 150823" d="M1527.333,1250.646l.771-.855.013-.015a.646.646,0,0,1,.962.861l-.792.888a.649.649,0,1,1-.969-.863l0,0Z" transform="translate(-1345.642 -1212.375)" fill="#ffde95"/>
      <path id="Trazado_150824" data-name="Trazado 150824" d="M1539.9,1235.4l.681-.929.012-.016a.633.633,0,0,1,1.024.746l-.7.965a.637.637,0,0,1-1.032-.747l0,0Z" transform="translate(-1355.746 -1200.071)" fill="#ffde95"/>
      <path id="Trazado_150825" data-name="Trazado 150825" d="M1550.89,1219l.58-.993.01-.017a.621.621,0,0,1,1.074.623l-.594,1.031a.625.625,0,0,1-1.083-.624l0,0Z" transform="translate(-1364.577 -1186.842)" fill="#ffde95"/>
      <path id="Trazado_150826" data-name="Trazado 150826" d="M1560.114,1201.591l.47-1.048.008-.019a.609.609,0,0,1,1.112.495l-.479,1.088a.612.612,0,1,1-1.121-.494l0,0Z" transform="translate(-1371.992 -1172.811)" fill="#ffde95"/>
      <path id="Trazado_150827" data-name="Trazado 150827" d="M1567.406,1183.332l.349-1.094.006-.019a.6.6,0,0,1,1.137.359l-.355,1.135a.6.6,0,0,1-1.146-.359v0Z" transform="translate(-1377.853 -1158.106)" fill="#ffde95"/>
      <path id="Trazado_150828" data-name="Trazado 150828" d="M1572.6,1165.46l.175-.877,0-.016a.585.585,0,0,1,1.148.225l-.176.911a.588.588,0,0,1-1.155-.223v0Z" transform="translate(-1382.027 -1143.923)" fill="#ffde95"/>
    </g>
    <g id="Grupo_107156" data-name="Grupo 107156" transform="translate(262.774 154.127)">
      <path id="Trazado_150829" data-name="Trazado 150829" d="M729.232,208.058l-3.25-1.694a15.961,15.961,0,0,0-1.249-5.018l2.073-3.019a.3.3,0,0,0-.006-.349l-2.614-3.534a.3.3,0,0,0-.332-.108l-3.493,1.1a15.96,15.96,0,0,0-4.434-2.662l-.669-3.6a.3.3,0,0,0-.251-.243l-4.347-.65a.3.3,0,0,0-.312.159l-1.693,3.249a15.964,15.964,0,0,0-5.018,1.249l-3.019-2.073a.3.3,0,0,0-.349.006l-3.534,2.614a.3.3,0,0,0-.108.332l1.1,3.493a15.967,15.967,0,0,0-2.662,4.434l-3.6.669a.3.3,0,0,0-.243.251l-.65,4.347a.3.3,0,0,0,.159.312l3.249,1.694a15.963,15.963,0,0,0,1.249,5.018l-2.073,3.019a.3.3,0,0,0,.006.349l2.614,3.533a.3.3,0,0,0,.333.108l3.493-1.1a15.959,15.959,0,0,0,4.434,2.662l.669,3.6a.3.3,0,0,0,.252.243l4.347.65a.3.3,0,0,0,.312-.159l1.693-3.249a15.965,15.965,0,0,0,5.019-1.249l3.019,2.073a.3.3,0,0,0,.349-.006l3.533-2.614a.3.3,0,0,0,.108-.332l-1.1-3.493a15.965,15.965,0,0,0,2.662-4.434l3.6-.669a.3.3,0,0,0,.243-.251l.65-4.347A.3.3,0,0,0,729.232,208.058Z" transform="translate(-686.838 -183.18)" fill="#ffb206"/>
      <g id="Grupo_107151" data-name="Grupo 107151" transform="translate(18.85 20.218)">
        <path id="Trazado_150830" data-name="Trazado 150830" d="M770.814,272.818a4.292,4.292,0,1,1,2.725-7.612h0a4.291,4.291,0,0,1-2.725,7.612Zm.007-7.8a3.511,3.511,0,1,0,2.224.794A3.508,3.508,0,0,0,770.821,265.016Z" transform="translate(-766.527 -264.236)" fill="#be860a"/>
      </g>
      <g id="Grupo_107154" data-name="Grupo 107154" transform="translate(0 0)">
        <g id="Grupo_107152" data-name="Grupo 107152" transform="translate(0 31.217)" opacity="0.64">
          <path id="Trazado_150831" data-name="Trazado 150831" d="M893.271,322.888a.976.976,0,0,1-.9-1.354c.192-.457.372-.926.534-1.4a.975.975,0,0,1,1.844.635c-.176.511-.371,1.022-.58,1.518A.976.976,0,0,1,893.271,322.888Z" transform="translate(-848.406 -319.479)" fill="#8f52f5"/>
          <path id="Trazado_150832" data-name="Trazado 150832" d="M705.246,361.068a.975.975,0,0,1-.1-.005,24.538,24.538,0,0,1-3.242-.548.975.975,0,0,1,.454-1.9,22.594,22.594,0,0,0,2.984.5.975.975,0,0,1-.1,1.946Zm5.122-.041a.975.975,0,0,1-.112-1.944,22.825,22.825,0,0,0,2.977-.551.975.975,0,1,1,.483,1.89,24.781,24.781,0,0,1-3.232.6A1.076,1.076,0,0,1,710.368,361.027Zm-13.061-2.215a.972.972,0,0,1-.427-.1,24.5,24.5,0,0,1-2.852-1.638.975.975,0,0,1,1.083-1.622,22.5,22.5,0,0,0,2.623,1.508.976.976,0,0,1-.428,1.852Zm20.965-.16a.975.975,0,0,1-.441-1.846,22.433,22.433,0,0,0,2.6-1.544.975.975,0,1,1,1.106,1.606,24.4,24.4,0,0,1-2.829,1.679A.972.972,0,0,1,718.273,358.652Zm-27.634-4.7a.971.971,0,0,1-.7-.3,24.472,24.472,0,0,1-2.118-2.517.975.975,0,0,1,1.574-1.152,22.567,22.567,0,0,0,1.949,2.315.975.975,0,0,1-.7,1.652Zm34.227-.262a.975.975,0,0,1-.714-1.64c.324-.348.643-.713.948-1.084.335-.409.659-.834.964-1.264a.975.975,0,1,1,1.591,1.128c-.331.467-.684.928-1.047,1.371-.33.4-.676.8-1.028,1.178A.973.973,0,0,1,724.866,353.69Z" transform="translate(-684.489 -343.355)" fill="#8f52f5"/>
          <path id="Trazado_150833" data-name="Trazado 150833" d="M673.4,324.5a.976.976,0,0,1-.894-.585c-.216-.494-.418-1-.6-1.509a.975.975,0,1,1,1.835-.661c.168.467.354.934.553,1.388a.976.976,0,0,1-.893,1.366Z" transform="translate(-671.851 -320.775)" fill="#8f52f5"/>
        </g>
        <g id="Grupo_107153" data-name="Grupo 107153" transform="translate(0.613)" opacity="0.64">
          <path id="Trazado_150834" data-name="Trazado 150834" d="M675.9,229.285a.976.976,0,0,1-.891-1.371c.219-.493.457-.986.708-1.463a.975.975,0,1,1,1.727.907c-.231.439-.45.892-.651,1.346A.976.976,0,0,1,675.9,229.285Z" transform="translate(-674.928 -213.338)" fill="#8f52f5"/>
          <path id="Trazado_150835" data-name="Trazado 150835" d="M731.187,175.226a.974.974,0,0,1-.816-.44,22.55,22.55,0,0,0-1.8-2.373.975.975,0,1,1,1.473-1.278A24.365,24.365,0,0,1,732,173.715a.975.975,0,0,1-.814,1.511Zm-37.762-2.185a.975.975,0,0,1-.747-1.6,24.725,24.725,0,0,1,2.234-2.34.975.975,0,1,1,1.319,1.437,22.836,22.836,0,0,0-2.057,2.154A.973.973,0,0,1,693.425,173.041Zm32.2-3.726a.972.972,0,0,1-.585-.2,22.715,22.715,0,0,0-2.493-1.628.975.975,0,0,1,.956-1.7,24.675,24.675,0,0,1,2.708,1.768.975.975,0,0,1-.586,1.755ZM699.63,167.8a.975.975,0,0,1-.492-1.818,24.446,24.446,0,0,1,2.9-1.439.975.975,0,0,1,.749,1.8,22.586,22.586,0,0,0-2.666,1.324A.972.972,0,0,1,699.63,167.8Zm18.757-2.169a.983.983,0,0,1-.286-.043,22.545,22.545,0,0,0-2.9-.68.975.975,0,0,1,.319-1.925,24.573,24.573,0,0,1,3.149.739.976.976,0,0,1-.285,1.908Zm-11.143-.641a.975.975,0,0,1-.174-1.935,24.71,24.71,0,0,1,3.213-.372.975.975,0,1,1,.1,1.948,22.821,22.821,0,0,0-2.958.342A.955.955,0,0,1,707.244,164.993Z" transform="translate(-688.962 -162.685)" fill="#8f52f5"/>
          <path id="Trazado_150836" data-name="Trazado 150836" d="M895.177,241.91a.976.976,0,0,1-.931-.688c-.147-.477-.311-.952-.488-1.413a.975.975,0,1,1,1.822-.7c.192.5.37,1.018.53,1.535a.975.975,0,0,1-.644,1.219A.964.964,0,0,1,895.177,241.91Z" transform="translate(-850.137 -223.393)" fill="#8f52f5"/>
        </g>
      </g>
      <g id="Grupo_107155" data-name="Grupo 107155" transform="translate(12.142 13.511)">
        <path id="Trazado_150837" data-name="Trazado 150837" d="M743.851,252.539a11,11,0,0,1-11.012-10.967,11.156,11.156,0,0,1,.123-1.651,11,11,0,0,1,19.715-4.914,11.071,11.071,0,0,1,1.186,2.018.39.39,0,0,1-.711.322,10.276,10.276,0,0,0-1.1-1.876h0a10.216,10.216,0,0,0-18.316,4.566,10.361,10.361,0,0,0-.114,1.534,10.219,10.219,0,0,0,19.65,3.906.39.39,0,1,1,.72.3,10.99,10.99,0,0,1-10.138,6.764Z" transform="translate(-732.838 -230.548)" fill="#be860a"/>
      </g>
    </g>
    <g id="Grupo_107162" data-name="Grupo 107162" transform="translate(303.193 186.667)">
      <g id="Grupo_107157" data-name="Grupo 107157" transform="translate(0 14.866)" opacity="0.64">
        <path id="Trazado_150838" data-name="Trazado 150838" d="M1000.658,440.31a.39.39,0,0,1-.3-.64c.2-.241.4-.493.582-.749a.39.39,0,1,1,.632.458c-.2.27-.4.536-.615.791A.389.389,0,0,1,1000.658,440.31Z" transform="translate(-975.301 -431.2)" fill="#8f52f5"/>
        <path id="Trazado_150839" data-name="Trazado 150839" d="M891.952,426.547a.39.39,0,0,1-.021-.78,13.672,13.672,0,0,0,1.863-.229.39.39,0,1,1,.148.766,14.482,14.482,0,0,1-1.97.242Zm-1.93-.028-.033,0a14.622,14.622,0,0,1-1.961-.3.39.39,0,0,1,.169-.762,13.847,13.847,0,0,0,1.856.282.39.39,0,0,1-.032.779Zm5.713-.7a.39.39,0,0,1-.126-.759,13.736,13.736,0,0,0,1.732-.727.39.39,0,1,1,.35.7,14.545,14.545,0,0,1-1.83.768A.384.384,0,0,1,895.735,425.815Zm-9.474-.132a.386.386,0,0,1-.135-.024,14.548,14.548,0,0,1-1.809-.814.39.39,0,0,1,.368-.688,13.692,13.692,0,0,0,1.712.771.39.39,0,0,1-.135.756Zm12.918-1.6a.39.39,0,0,1-.221-.712,13.913,13.913,0,0,0,1.473-1.165.39.39,0,0,1,.525.578,14.681,14.681,0,0,1-1.557,1.23A.386.386,0,0,1,899.179,424.085Zm-16.314-.219a.389.389,0,0,1-.229-.075,14.367,14.367,0,0,1-1.52-1.275.39.39,0,1,1,.541-.562,13.649,13.649,0,0,0,1.438,1.206.39.39,0,0,1-.23.705Zm-2.774-2.67a.39.39,0,0,1-.307-.149c-.236-.3-.463-.612-.675-.93q-.234-.35-.445-.707a.39.39,0,0,1,.672-.4q.2.339.422.671c.2.3.416.6.639.88a.39.39,0,0,1-.306.632Zm-1.956-3.32a.39.39,0,0,1-.36-.24,14.4,14.4,0,0,1-.639-1.879.39.39,0,1,1,.754-.2,13.717,13.717,0,0,0,.6,1.778.389.389,0,0,1-.359.541Z" transform="translate(-876.673 -412.384)" fill="#8f52f5"/>
        <path id="Trazado_150840" data-name="Trazado 150840" d="M875.339,402.542a.39.39,0,0,1-.387-.343c-.04-.329-.069-.664-.086-1a.39.39,0,0,1,.37-.41.384.384,0,0,1,.409.37c.016.316.044.633.081.944a.39.39,0,0,1-.34.434Z" transform="translate(-874.867 -400.79)" fill="#8f52f5"/>
      </g>
      <g id="Grupo_107158" data-name="Grupo 107158" transform="translate(3.408 0)" opacity="0.64">
        <path id="Trazado_150841" data-name="Trazado 150841" d="M892.376,348.66a.39.39,0,0,1-.295-.645c.221-.256.45-.5.681-.735a.39.39,0,0,1,.554.55c-.218.219-.434.453-.644.7A.389.389,0,0,1,892.376,348.66Z" transform="translate(-891.986 -342.975)" fill="#8f52f5"/>
        <path id="Trazado_150842" data-name="Trazado 150842" d="M925.31,338.092a.39.39,0,0,1-.381-.309,13.717,13.717,0,0,0-.505-1.776.39.39,0,1,1,.734-.264,14.429,14.429,0,0,1,.534,1.878.39.39,0,0,1-.3.463A.4.4,0,0,1,925.31,338.092Zm-1.28-3.566a.39.39,0,0,1-.346-.21,13.975,13.975,0,0,0-.776-1.31q-.091-.136-.184-.268a.39.39,0,1,1,.638-.449q.1.141.195.284a14.689,14.689,0,0,1,.819,1.384.39.39,0,0,1-.346.57Zm-2.18-3.1a.388.388,0,0,1-.286-.125,13.787,13.787,0,0,0-1.342-1.267.39.39,0,1,1,.5-.6,14.45,14.45,0,0,1,1.419,1.34.39.39,0,0,1-.286.655Zm-18.985-1.59a.39.39,0,0,1-.238-.7c.259-.2.523-.388.783-.562s.552-.356.839-.522a.39.39,0,1,1,.39.676c-.272.157-.54.323-.8.495s-.5.344-.741.532A.389.389,0,0,1,902.865,329.836Zm16.06-.819a.386.386,0,0,1-.2-.058,13.838,13.838,0,0,0-1.632-.863.39.39,0,1,1,.317-.713,14.523,14.523,0,0,1,1.725.912.39.39,0,0,1-.206.722Zm-12.774-1.072a.39.39,0,0,1-.148-.751,14.48,14.48,0,0,1,1.853-.614.39.39,0,0,1,.195.756,13.677,13.677,0,0,0-1.752.581A.387.387,0,0,1,906.15,327.946Zm9.313-.47a.391.391,0,0,1-.11-.016,13.842,13.842,0,0,0-1.8-.4.39.39,0,1,1,.118-.771,14.621,14.621,0,0,1,1.9.422.39.39,0,0,1-.109.765ZM909.82,327a.39.39,0,0,1-.045-.778,14.5,14.5,0,0,1,1.95-.1.39.39,0,0,1-.015.78,13.368,13.368,0,0,0-1.844.092A.359.359,0,0,1,909.82,327Z" transform="translate(-900.386 -326.122)" fill="#8f52f5"/>
        <path id="Trazado_150843" data-name="Trazado 150843" d="M1017,393.585a.39.39,0,0,1-.39-.388c0-.316-.014-.635-.037-.947a.39.39,0,1,1,.778-.057c.025.33.038.667.039,1a.39.39,0,0,1-.388.392Z" transform="translate(-991.765 -378.748)" fill="#8f52f5"/>
      </g>
      <g id="Grupo_107161" data-name="Grupo 107161" transform="translate(3.536 3.709)">
        <path id="Trazado_150844" data-name="Trazado 150844" d="M914.376,356.875a.169.169,0,0,0-.075-.182l-1.75-1.1a9,9,0,0,0-.477-2.874l1.3-1.6a.17.17,0,0,0,.012-.2l-1.31-2.1a.17.17,0,0,0-.182-.075l-2.011.461a9,9,0,0,0-2.371-1.693l-.215-2.053a.17.17,0,0,0-.13-.148l-2.413-.559a.17.17,0,0,0-.182.075l-1.1,1.749a8.986,8.986,0,0,0-2.874.477l-1.6-1.3a.17.17,0,0,0-.2-.012l-2.1,1.31a.17.17,0,0,0-.075.182l.461,2.011a8.992,8.992,0,0,0-1.693,2.371l-2.053.215a.17.17,0,0,0-.148.13l-.559,2.412a.169.169,0,0,0,.075.182l1.749,1.1a9,9,0,0,0,.477,2.874l-1.3,1.6a.17.17,0,0,0-.012.2l1.31,2.1a.169.169,0,0,0,.182.076l2.011-.461a8.992,8.992,0,0,0,2.371,1.693l.215,2.053a.169.169,0,0,0,.13.148l2.412.559a.17.17,0,0,0,.182-.075l1.1-1.749a8.991,8.991,0,0,0,2.874-.477l1.6,1.3a.17.17,0,0,0,.2.012l2.1-1.31a.169.169,0,0,0,.076-.182L909.923,362a9,9,0,0,0,1.693-2.371l2.054-.215a.17.17,0,0,0,.148-.13Z" transform="translate(-892.628 -344.75)" fill="#ffb206"/>
        <g id="Grupo_107159" data-name="Grupo 107159" transform="translate(8.287 8.287)">
          <path id="Trazado_150845" data-name="Trazado 150845" d="M936.84,391.551a2.574,2.574,0,1,1,.052,0Zm0-4.4h-.036a1.809,1.809,0,0,0-1.219,3.112,1.765,1.765,0,0,0,1.289.5,1.809,1.809,0,0,0,1.219-3.112h0A1.8,1.8,0,0,0,936.842,387.153Z" transform="translate(-934.252 -386.373)" fill="#be860a"/>
        </g>
        <g id="Grupo_107160" data-name="Grupo 107160" transform="translate(4.46 4.505)">
          <path id="Trazado_150846" data-name="Trazado 150846" d="M921.4,380.1a6.365,6.365,0,1,1,5.391-9.733h0l0,.007a6.43,6.43,0,0,1,.555,1.125h0l.006.016.026.069a.386.386,0,0,1,.023.133.39.39,0,0,1-.757.132,5.644,5.644,0,0,0-.52-1.07l-.033-.052a5.6,5.6,0,0,0-5.747-2.48h0a5.585,5.585,0,1,0,6.013,8.038.39.39,0,0,1,.695.356A6.363,6.363,0,0,1,921.4,380.1Z" transform="translate(-915.03 -367.375)" fill="#be860a"/>
        </g>
      </g>
    </g>
  </g>
</svg>
