<svg xmlns="http://www.w3.org/2000/svg" xmlns:xlink="http://www.w3.org/1999/xlink" width="169" height="169" viewBox="0 0 169 169">
  <defs>
    <filter id="Trazado_600889" x="0" y="0" width="169" height="169" filterUnits="userSpaceOnUse">
      <feOffset dx="3" dy="3" input="SourceAlpha"/>
      <feGaussianBlur stdDeviation="3" result="blur"/>
      <feFlood flood-opacity="0.231"/>
      <feComposite operator="in" in2="blur"/>
      <feComposite in="SourceGraphic"/>
    </filter>
  </defs>
  <g id="Grupo_157334" data-name="Grupo 157334" transform="translate(-981 -5964)">
    <g transform="matrix(1, 0, 0, 1, 981, 5964)" filter="url(#Trazado_600889)">
      <g id="Trazado_600889-2" data-name="Trazado 600889" transform="translate(6 6)" fill="#fff">
        <path d="M 75.5 148 C 65.71124267578125 148 56.21686935424805 146.0835266113281 47.2806510925293 142.3038330078125 C 42.98537063598633 140.487060546875 38.84234619140625 138.23828125 34.96665191650391 135.6199188232422 C 31.12700080871582 133.0259094238281 27.51628303527832 130.0467681884766 24.23476028442383 126.7652359008789 C 20.95323944091797 123.4837188720703 17.97408676147461 119.8730010986328 15.38008689880371 116.0333480834961 C 12.76171779632568 112.1576538085938 10.51293468475342 108.0146331787109 8.696173667907715 103.7193450927734 C 4.916478157043457 94.78312683105469 3 85.28875732421875 3 75.5 C 3 65.71124267578125 4.916478157043457 56.21686935424805 8.696173667907715 47.2806510925293 C 10.51293468475342 42.98537063598633 12.76171779632568 38.84234619140625 15.38008689880371 34.96665191650391 C 17.97408676147461 31.12700080871582 20.95323944091797 27.51628303527832 24.23476028442383 24.23476028442383 C 27.51628303527832 20.95323944091797 31.12700080871582 17.97408676147461 34.96665191650391 15.38008689880371 C 38.84234619140625 12.76171779632568 42.98537063598633 10.51293468475342 47.2806510925293 8.696173667907715 C 56.21686935424805 4.916478157043457 65.71124267578125 3 75.5 3 C 85.28875732421875 3 94.78312683105469 4.916478157043457 103.7193450927734 8.696173667907715 C 108.0146331787109 10.51293468475342 112.1576538085938 12.76171779632568 116.0333480834961 15.38008689880371 C 119.8730010986328 17.97408676147461 123.4837188720703 20.95323944091797 126.7652359008789 24.23476028442383 C 130.0467681884766 27.51628303527832 133.0259094238281 31.12700080871582 135.6199188232422 34.96665191650391 C 138.23828125 38.84234619140625 140.487060546875 42.98537063598633 142.3038330078125 47.2806510925293 C 146.0835266113281 56.21686935424805 148 65.71124267578125 148 75.5 C 148 85.28875732421875 146.0835266113281 94.78312683105469 142.3038330078125 103.7193450927734 C 140.487060546875 108.0146331787109 138.23828125 112.1576538085938 135.6199188232422 116.0333480834961 C 133.0259094238281 119.8730010986328 130.0467681884766 123.4837188720703 126.7652359008789 126.7652359008789 C 123.4837188720703 130.0467681884766 119.8730010986328 133.0259094238281 116.0333480834961 135.6199188232422 C 112.1576538085938 138.23828125 108.0146331787109 140.487060546875 103.7193450927734 142.3038330078125 C 94.78312683105469 146.0835266113281 85.28875732421875 148 75.5 148 Z" stroke="none"/>
        <path d="M 75.5 6 C 37.17757415771484 6 6 37.17757415771484 6 75.5 C 6 113.8224258422852 37.17757415771484 145 75.5 145 C 113.8224258422852 145 145 113.8224258422852 145 75.5 C 145 37.17757415771484 113.8224258422852 6 75.5 6 M 75.5 0 C 117.1974945068359 0 151 33.80249786376953 151 75.5 C 151 117.1974945068359 117.1974945068359 151 75.5 151 C 33.80249786376953 151 0 117.1974945068359 0 75.5 C 0 33.80249786376953 33.80249786376953 0 75.5 0 Z" stroke="none" fill="#ff6148"/>
      </g>
    </g>
    <g id="lista-de-verificacion" transform="translate(1031.003 6005.5)">
      <path id="Trazado_150432" data-name="Trazado 150432" d="M13.75,10h52.5A3.75,3.75,0,0,1,70,13.75V83.125a3.75,3.75,0,0,1-3.75,3.75H13.75A3.75,3.75,0,0,1,10,83.125V13.75A3.75,3.75,0,0,1,13.75,10Zm0,0" transform="translate(-8.438 -8.438)" fill="#d2e1f1"/>
      <path id="Trazado_150433" data-name="Trazado 150433" d="M85.989,50H97.5v64.375H50V50H61.511" transform="translate(-42.188 -42.188)" fill="#fff"/>
      <path id="Trazado_150434" data-name="Trazado 150434" d="M130.152,21.25H147a3.32,3.32,0,0,0,3.32-3.32V10H126.832v7.93A3.321,3.321,0,0,0,130.152,21.25Zm0,0" transform="translate(-107.015 -8.438)" fill="#ff6977"/>
      <path id="Trazado_150435" data-name="Trazado 150435" d="M130.152,21.25H147a3.32,3.32,0,0,0,3.32-3.32V10H126.832v7.93A3.321,3.321,0,0,0,130.152,21.25Zm0,0" transform="translate(-107.015 -8.438)" fill="#727997"/>
      <path id="Trazado_150436" data-name="Trazado 150436" d="M314.355,155.162l18.307-18.307a4.132,4.132,0,0,1,5.844,5.844L320.2,161.006l-10.535,4.69Zm0,0" transform="translate(-261.279 -114.45)" fill="#ffb206"/>
      <path id="Trazado_150437" data-name="Trazado 150437" d="M320.2,266.4l-5.844-5.844-4.691,10.534Zm0,0" transform="translate(-261.279 -219.846)" fill="#98a1b3"/>
      <path id="Trazado_150438" data-name="Trazado 150438" d="M449.836,144.708l2.009-2.009A4.132,4.132,0,0,0,446,136.855l-2.009,2.009Zm0,0" transform="translate(-374.618 -114.45)" fill="#e01650"/>
      <path id="Trazado_150439" data-name="Trazado 150439" d="M98,130h10v10H98Zm0,0" transform="translate(-82.688 -109.688)" fill="#2effc7"/>
      <path id="Trazado_150440" data-name="Trazado 150440" d="M98,240h10v10H98Zm0,0" transform="translate(-82.688 -202.5)" fill="#2effc7"/>
      <path id="Trazado_150441" data-name="Trazado 150441" d="M98,350h10v10H98Zm0,0" transform="translate(-82.688 -295.313)" fill="#ff6148"/>
      <path id="Trazado_150442" data-name="Trazado 150442" d="M193.563,452a1.563,1.563,0,1,0,1.1.458A1.575,1.575,0,0,0,193.563,452Zm0,0" transform="translate(-162 -381.375)"/>
      <path id="Trazado_150443" data-name="Trazado 150443" d="M78.332,21.3a5.7,5.7,0,0,0-8.054,0l-7.153,7.153V5.313A5.319,5.319,0,0,0,57.813,0H5.313A5.319,5.319,0,0,0,0,5.313V74.688A5.319,5.319,0,0,0,5.313,80h52.5a5.319,5.319,0,0,0,5.313-5.312V44.561L78.332,29.354A5.7,5.7,0,0,0,78.332,21.3ZM60,5.313V31.578L56.875,34.7V7.813A1.562,1.562,0,0,0,55.313,6.25H44.87V3.125H57.813A2.19,2.19,0,0,1,60,5.313ZM51.469,48.163l2.109-4.739,2.629,2.629ZM41.745,3.125V9.492a1.76,1.76,0,0,1-1.758,1.758H23.138A1.76,1.76,0,0,1,21.38,9.492V3.125Zm16.068,73.75H5.313a2.19,2.19,0,0,1-2.187-2.187V5.313A2.19,2.19,0,0,1,5.313,3.125H18.255V6.25H7.813A1.562,1.562,0,0,0,6.25,7.813V72.188A1.562,1.562,0,0,0,7.813,73.75h17.5a1.563,1.563,0,0,0,0-3.125H9.375V9.375h8.88v.117a4.889,4.889,0,0,0,4.883,4.883H39.987A4.889,4.889,0,0,0,44.87,9.492V9.375h8.88V37.828l-1.78,1.779a1.581,1.581,0,0,0-.322.469l-4.69,10.534a1.563,1.563,0,0,0,2.063,2.064l4.729-2.106V70.625H37.813a1.563,1.563,0,0,0,0,3.125h17.5a1.563,1.563,0,0,0,1.563-1.562V49.177l2.68-1.193a1.558,1.558,0,0,0,.445-.3v27A2.19,2.19,0,0,1,57.813,76.875ZM70.3,32.968,58.92,44.347l-3.635-3.635L69.374,26.624l3.635,3.635Zm5.824-5.823-.9.9-3.634-3.634.9-.9a2.57,2.57,0,0,1,3.635,3.634Zm0,0"/>
      <path id="Trazado_150444" data-name="Trazado 150444" d="M99.563,120h-10A1.562,1.562,0,0,0,88,121.563v10a1.562,1.562,0,0,0,1.563,1.563h10a1.562,1.562,0,0,0,1.563-1.562v-10A1.562,1.562,0,0,0,99.563,120ZM98,130H91.125v-6.875H98Zm0,0" transform="translate(-74.25 -101.25)"/>
      <path id="Trazado_150445" data-name="Trazado 150445" d="M99.563,230h-10A1.562,1.562,0,0,0,88,231.563v10a1.562,1.562,0,0,0,1.563,1.563h10a1.562,1.562,0,0,0,1.563-1.562v-10A1.562,1.562,0,0,0,99.563,230ZM98,240H91.125v-6.875H98Zm0,0" transform="translate(-74.25 -194.063)"/>
      <path id="Trazado_150446" data-name="Trazado 150446" d="M99.563,340h-10A1.562,1.562,0,0,0,88,341.563v10a1.562,1.562,0,0,0,1.563,1.563h10a1.562,1.562,0,0,0,1.563-1.562v-10A1.562,1.562,0,0,0,99.563,340ZM98,350H91.125v-6.875H98Zm0,0" transform="translate(-74.25 -286.875)"/>
      <path id="Trazado_150447" data-name="Trazado 150447" d="M212.335,139.147a1.562,1.562,0,0,0,2.209,0l7.054-7.054a1.563,1.563,0,0,0-2.21-2.209l-5.949,5.949-2.371-2.371a1.563,1.563,0,0,0-2.21,2.209Zm0,0" transform="translate(-175.839 -109.203)"/>
      <path id="Trazado_150448" data-name="Trazado 150448" d="M212.335,249.15a1.562,1.562,0,0,0,2.209,0L221.6,242.1a1.563,1.563,0,0,0-2.21-2.21l-5.949,5.95-2.371-2.371a1.563,1.563,0,0,0-2.21,2.209Zm0,0" transform="translate(-175.839 -202.018)"/>
      <path id="Trazado_150449" data-name="Trazado 150449" d="M224.616,356.726l2.422,2.422a1.562,1.562,0,0,0,2.209-2.209l-2.422-2.422,2.422-2.422a1.562,1.562,0,0,0-2.209-2.209l-2.422,2.422-2.422-2.422a1.563,1.563,0,0,0-2.21,2.209l2.422,2.422-2.422,2.422a1.563,1.563,0,0,0,2.21,2.209Zm0,0" transform="translate(-185.225 -294.828)"/>
    </g>
  </g>
</svg>
