<svg xmlns="http://www.w3.org/2000/svg" width="93.974" height="100.75" viewBox="0 0 93.974 100.75">
  <g id="evaluacion" transform="translate(-17.241 -0.003)">
    <g id="Grupo_157216" data-name="Grupo 157216" transform="translate(18.817 1.577)">
      <g id="Grupo_157211" data-name="Grupo 157211">
        <path id="Trazado_600872" data-name="Trazado 600872" d="M97.013,50.352a4.384,4.384,0,0,1,4.376,4.376v80.516a4.384,4.384,0,0,1-4.376,4.376H29.625a4.384,4.384,0,0,1-4.376-4.376V54.728a4.384,4.384,0,0,1,4.376-4.376H97.013Z" transform="translate(-25.249 -42.018)" fill="#837683" fill-rule="evenodd"/>
        <path id="Trazado_600873" data-name="Trazado 600873" d="M361.248,139.621H366.9a4.384,4.384,0,0,0,4.376-4.376V54.729a4.384,4.384,0,0,0-4.376-4.376h-5.647Z" transform="translate(-295.131 -42.019)" fill="#685e68" fill-rule="evenodd"/>
        <path id="Trazado_600874" data-name="Trazado 600874" d="M118.182,81.287H58.152a1.972,1.972,0,0,0-1.968,1.968v73.158a1.972,1.972,0,0,0,1.968,1.968h60.03a1.972,1.972,0,0,0,1.968-1.968V83.255A1.972,1.972,0,0,0,118.182,81.287Z" transform="translate(-50.097 -66.866)" fill="#eceff1" fill-rule="evenodd"/>
        <path id="Trazado_600875" data-name="Trazado 600875" d="M361.248,158.381h1.968c.062,0,.123,0,.184-.008a1.972,1.972,0,0,0,1.784-1.959V83.256A1.972,1.972,0,0,0,363.4,81.3q-.091-.009-.184-.008h-1.968Z" transform="translate(-295.131 -66.867)" fill="#d1d1d6" fill-rule="evenodd"/>
        <path id="Trazado_600876" data-name="Trazado 600876" d="M135.069,13.691h6.237a1.932,1.932,0,0,0,1.807-1.19,7.441,7.441,0,0,1,13.67,0,1.932,1.932,0,0,0,1.807,1.19h6.237a1.971,1.971,0,0,1,1.968,1.968V23.1a1.971,1.971,0,0,1-1.968,1.968H135.069A1.971,1.971,0,0,1,133.1,23.1V15.658a1.971,1.971,0,0,1,1.968-1.968Z" transform="translate(-111.878 -8.002)" fill="#e3a76f" fill-rule="evenodd"/>
        <path id="Trazado_600877" data-name="Trazado 600877" d="M162.86,46.32H133.1a1.971,1.971,0,0,0,1.968,1.968h29.759A1.971,1.971,0,0,0,166.8,46.32V38.878a1.972,1.972,0,0,0-1.968-1.968v7.442a1.971,1.971,0,0,1-1.968,1.968Z" transform="translate(-111.878 -31.222)" fill="#c48958" fill-rule="evenodd"/>
      </g>
      <g id="Grupo_157212" data-name="Grupo 157212" transform="translate(15.849 26.857)">
        <path id="Trazado_600878" data-name="Trazado 600878" d="M108.31,144.484h7.636a2.527,2.527,0,0,1,2.52,2.52v7.636a2.527,2.527,0,0,1-2.52,2.52H108.31a2.527,2.527,0,0,1-2.52-2.52V147A2.527,2.527,0,0,1,108.31,144.484Z" transform="translate(-105.79 -144.484)" fill="#2effc7" fill-rule="evenodd"/>
        <path id="Trazado_600879" data-name="Trazado 600879" d="M117.881,145.61a2.528,2.528,0,0,1,1.49,2.3v7.636a2.527,2.527,0,0,1-2.52,2.52h-7.636a2.528,2.528,0,0,1-2.3-1.49,2.5,2.5,0,0,0,1.03.222h7.636a2.527,2.527,0,0,0,2.52-2.52V146.64A2.5,2.5,0,0,0,117.881,145.61Z" transform="translate(-106.695 -145.388)" fill="#2effc7" fill-rule="evenodd"/>
      </g>
      <g id="Grupo_157213" data-name="Grupo 157213" transform="translate(15.849 48.274)">
        <path id="Trazado_600880" data-name="Trazado 600880" d="M108.31,253.326h7.636a2.527,2.527,0,0,1,2.52,2.52v7.636a2.527,2.527,0,0,1-2.52,2.52H108.31a2.527,2.527,0,0,1-2.52-2.52v-7.636A2.527,2.527,0,0,1,108.31,253.326Z" transform="translate(-105.79 -253.326)" fill="#6cf5c2" fill-rule="evenodd"/>
        <path id="Trazado_600881" data-name="Trazado 600881" d="M117.881,254.452a2.528,2.528,0,0,1,1.49,2.3v7.636a2.527,2.527,0,0,1-2.52,2.52h-7.636a2.528,2.528,0,0,1-2.3-1.49,2.5,2.5,0,0,0,1.03.222h7.636a2.527,2.527,0,0,0,2.52-2.52v-7.636a2.5,2.5,0,0,0-.222-1.03Z" transform="translate(-106.695 -254.23)" fill="#00e499" fill-rule="evenodd"/>
      </g>
      <g id="Grupo_157214" data-name="Grupo 157214" transform="translate(15.849 69.692)">
        <path id="Trazado_600882" data-name="Trazado 600882" d="M108.31,362.167h7.636a2.527,2.527,0,0,1,2.52,2.52v7.636a2.527,2.527,0,0,1-2.52,2.52H108.31a2.527,2.527,0,0,1-2.52-2.52v-7.636A2.527,2.527,0,0,1,108.31,362.167Z" transform="translate(-105.79 -362.167)" fill="#8ac9fe" fill-rule="evenodd"/>
        <path id="Trazado_600883" data-name="Trazado 600883" d="M117.881,363.293a2.528,2.528,0,0,1,1.49,2.3v7.636a2.527,2.527,0,0,1-2.52,2.52h-7.636a2.528,2.528,0,0,1-2.3-1.49,2.5,2.5,0,0,0,1.03.222h7.636a2.527,2.527,0,0,0,2.52-2.52v-7.636A2.5,2.5,0,0,0,117.881,363.293Z" transform="translate(-106.695 -363.071)" fill="#60b7ff" fill-rule="evenodd"/>
      </g>
      <g id="Grupo_157215" data-name="Grupo 157215" transform="translate(59.872 17.317)">
        <path id="Trazado_600884" data-name="Trazado 600884" d="M329.509,135.475l21.562-37.347a4.252,4.252,0,0,1,5.8-1.554l1.47.849a4.253,4.253,0,0,1,1.554,5.8l-21.562,37.347-7.3,4.215a1.014,1.014,0,0,1-1.521-.878Z" transform="translate(-329.509 -96.007)" fill="#e3a76f" fill-rule="evenodd"/>
        <path id="Trazado_600885" data-name="Trazado 600885" d="M372.967,106.621a4.256,4.256,0,0,1,.677,5.125l-21.562,37.347-5.453,3.149Z" transform="translate(-343.259 -104.532)" fill="#c48958" fill-rule="evenodd"/>
        <path id="Trazado_600886" data-name="Trazado 600886" d="M329.509,305.007v-8.431l8.822,5.093-7.3,4.215a1.014,1.014,0,0,1-1.521-.878Z" transform="translate(-329.509 -257.109)" fill="#685e68" fill-rule="evenodd"/>
      </g>
    </g>
    <path id="Trazado_600887" data-name="Trazado 600887" d="M56.274,74.176A1.574,1.574,0,0,1,57.848,72.6h18a1.574,1.574,0,1,1,0,3.148h-18A1.574,1.574,0,0,1,56.274,74.176Zm0,6.861a1.574,1.574,0,0,1,1.574-1.574h9a1.574,1.574,0,0,1,0,3.148h-9a1.574,1.574,0,0,1-1.574-1.574Zm0-30.457a1.574,1.574,0,0,1,1.574-1.574h18a1.574,1.574,0,1,1,0,3.148h-18A1.574,1.574,0,0,1,56.274,50.58Zm0,6.864a1.574,1.574,0,0,1,1.574-1.574h9a1.574,1.574,0,0,1,0,3.148h-9a1.575,1.575,0,0,1-1.574-1.574Zm0-26.1a1.574,1.574,0,0,1,1.574-1.574h18a1.574,1.574,0,1,1,0,3.148h-18A1.574,1.574,0,0,1,56.274,31.339Zm0,6.864a1.574,1.574,0,0,1,1.574-1.574h9a1.574,1.574,0,0,1,0,3.148h-9A1.575,1.575,0,0,1,56.274,38.2Zm51.433-13.251L86.933,60.937l-1.684-.974,22.058-38.208a2.664,2.664,0,0,1,.4,3.2ZM93.382,94.8V56.062l-2.94,5.091V93.09a1.574,1.574,0,0,1-1.574,1.574H24.9a1.574,1.574,0,0,1-1.574-1.574V16A1.574,1.574,0,0,1,24.9,14.424H38.465v-2.94H23.192a2.806,2.806,0,0,0-2.8,2.8V94.8a2.806,2.806,0,0,0,2.8,2.8H90.58a2.806,2.806,0,0,0,2.8-2.8ZM73.733,20.217H40.039a1.575,1.575,0,0,1-1.574-1.574v-1.07H26.478V91.516H87.294V65.028l-7.82,4.516a1.574,1.574,0,0,1-2.361-1.363V57.993a1.555,1.555,0,0,1,.213-.787l9.969-17.269V17.573H75.308v1.07a1.576,1.576,0,0,1-1.574,1.574ZM41.613,8.84h8.041a1.575,1.575,0,0,0,1.532-1.2,5.866,5.866,0,0,1,11.4,0,1.573,1.573,0,0,0,1.531,1.2h8.042v8.229H41.613ZM90.58,11.484H75.308v2.94H88.868A1.574,1.574,0,0,1,90.442,16V34.482l2.94-5.088V14.287a2.806,2.806,0,0,0-2.8-2.8ZM80.26,60.718l4.1,2.367-4.1,2.367Zm21.356-39.287L80.837,57.416l1.685.972L104.578,20.18A2.664,2.664,0,0,0,101.616,21.432Zm6.694-2.855-1.476-.848a5.824,5.824,0,0,0-7.948,2.129L96.53,23.938V14.287a5.957,5.957,0,0,0-5.95-5.951H75.308V7.265a1.575,1.575,0,0,0-1.574-1.574H65.267a9.019,9.019,0,0,0-16.762,0H40.039a1.574,1.574,0,0,0-1.574,1.574V8.336H23.192a5.958,5.958,0,0,0-5.951,5.951V94.8a5.957,5.957,0,0,0,5.951,5.951H90.58A5.956,5.956,0,0,0,96.53,94.8V50.61l13.906-24.084a5.828,5.828,0,0,0-2.126-7.95ZM58.854,7.675a1.968,1.968,0,1,0-1.968,1.968A1.971,1.971,0,0,0,58.854,7.675ZM45.765,81.425a.958.958,0,0,1-.945.945H37.184a.957.957,0,0,1-.944-.945V73.788a.958.958,0,0,1,.944-.945H44.82a.958.958,0,0,1,.945.945v1.427l-2.344,2.127L40.776,74.7a1.575,1.575,0,0,0-2.228,2.226l3.71,3.707a1.57,1.57,0,0,0,2.17.053l1.338-1.214v1.958Zm5.551-11.248a1.574,1.574,0,1,1,2.116,2.332l-4.518,4.1v4.817a4.1,4.1,0,0,1-4.093,4.093H37.184a4.1,4.1,0,0,1-4.093-4.093V73.788a4.1,4.1,0,0,1,4.093-4.093H44.82a4.1,4.1,0,0,1,3.9,2.842ZM45.765,60.008a.957.957,0,0,1-.945.944H37.184a.957.957,0,0,1-.944-.944V52.371a.958.958,0,0,1,.944-.946H44.82a.958.958,0,0,1,.945.946V53.8l-2.344,2.127-2.646-2.649A1.575,1.575,0,0,0,38.547,55.5l3.71,3.707a1.575,1.575,0,0,0,2.17.053l1.338-1.216v1.96ZM51.316,48.76a1.574,1.574,0,1,1,2.116,2.332l-4.518,4.1v4.817A4.1,4.1,0,0,1,44.82,64.1H37.184a4.1,4.1,0,0,1-4.093-4.093V52.371a4.1,4.1,0,0,1,4.093-4.095H44.82a4.1,4.1,0,0,1,3.9,2.843ZM45.765,30.954v1.424l-2.344,2.127-2.646-2.646a1.575,1.575,0,0,0-2.228,2.227l3.71,3.707a1.573,1.573,0,0,0,2.17.052l1.338-1.215v1.958a.958.958,0,0,1-.945.946H37.184a.958.958,0,0,1-.944-.946V30.954a.958.958,0,0,1,.944-.947H44.82a.958.958,0,0,1,.945.946Zm-12.675,0a4.1,4.1,0,0,1,4.093-4.095H44.82a4.1,4.1,0,0,1,3.9,2.841l2.6-2.357a1.574,1.574,0,1,1,2.116,2.33l-4.518,4.1v4.815a4.1,4.1,0,0,1-4.093,4.095H37.184a4.1,4.1,0,0,1-4.093-4.095Z" transform="translate(0 0)" fill-rule="evenodd"/>
  </g>
</svg>
