<svg xmlns="http://www.w3.org/2000/svg" xmlns:xlink="http://www.w3.org/1999/xlink" width="85" height="81.147" viewBox="0 0 85 81.147">
  <defs>
    <clipPath id="clip-path">
      <rect id="Rect치ngulo_44652" data-name="Rect치ngulo 44652" width="52.812" height="52.812" fill="#fff"/>
    </clipPath>
  </defs>
  <g id="Grupo_156813" data-name="Grupo 156813" transform="translate(-8312 9410)">
    <rect id="Rect치ngulo_44649" data-name="Rect치ngulo 44649" width="85" height="81.147" rx="10" transform="translate(8312 -9410)" fill="#083142"/>
    <g id="Grupo_156808" data-name="Grupo 156808" transform="translate(8328 -9396)">
      <g id="Grupo_156803" data-name="Grupo 156803">
        <g id="Grupo_156802" data-name="Grupo 156802" clip-path="url(#clip-path)">
          <path id="Trazado_599489" data-name="Trazado 599489" d="M521.194,3.094H510.879a1.547,1.547,0,0,1,0-3.094h10.315a1.547,1.547,0,1,1,0,3.094" transform="translate(-469.93)" fill="#fff"/>
        </g>
      </g>
      <g id="Grupo_156805" data-name="Grupo 156805">
        <g id="Grupo_156804" data-name="Grupo 156804" clip-path="url(#clip-path)">
          <path id="Trazado_599490" data-name="Trazado 599490" d="M289.069,243.093H282.88a1.547,1.547,0,0,1,0-3.094h6.189a1.547,1.547,0,0,1,0,3.094" transform="translate(-259.569 -221.432)" fill="#fff"/>
        </g>
      </g>
      <g id="Grupo_156807" data-name="Grupo 156807">
        <g id="Grupo_156806" data-name="Grupo 156806" clip-path="url(#clip-path)">
          <path id="Trazado_599491" data-name="Trazado 599491" d="M577.547,11.346A1.547,1.547,0,0,1,576,9.8V1.547a1.547,1.547,0,0,1,3.094,0V9.8a1.547,1.547,0,0,1-1.547,1.547" transform="translate(-531.44)" fill="#fff"/>
          <path id="Trazado_599492" data-name="Trazado 599492" d="M540.64,124.2A4.647,4.647,0,0,1,536,119.559V108.213a1.547,1.547,0,0,1,1.547-1.547h6.189a1.547,1.547,0,0,1,1.547,1.547v11.346a4.647,4.647,0,0,1-4.642,4.642m-1.547-14.441v9.8a1.547,1.547,0,1,0,3.094,0v-9.8Z" transform="translate(-494.533 -98.414)" fill="#fff"/>
          <path id="Trazado_599493" data-name="Trazado 599493" d="M11.862,3.094H1.547A1.547,1.547,0,0,1,1.547,0H11.862a1.547,1.547,0,1,1,0,3.094" fill="#fff"/>
          <path id="Trazado_599494" data-name="Trazado 599494" d="M68.213,11.346A1.547,1.547,0,0,1,66.666,9.8V1.547a1.547,1.547,0,0,1,3.094,0V9.8a1.547,1.547,0,0,1-1.547,1.547" transform="translate(-61.509)" fill="#fff"/>
          <path id="Trazado_599495" data-name="Trazado 599495" d="M31.308,124.2a4.647,4.647,0,0,1-4.642-4.642V108.213a1.547,1.547,0,0,1,1.547-1.547H34.4a1.547,1.547,0,0,1,1.547,1.547v11.346a4.647,4.647,0,0,1-4.642,4.642M29.76,109.76v9.8a1.547,1.547,0,1,0,3.094,0v-9.8Z" transform="translate(-24.603 -98.414)" fill="#fff"/>
          <path id="Trazado_599496" data-name="Trazado 599496" d="M322.879,33.887a1.547,1.547,0,0,1-1.547-1.547V28.214a1.547,1.547,0,1,1,3.094,0V32.34a1.547,1.547,0,0,1-1.547,1.547" transform="translate(-296.473 -24.604)" fill="#fff"/>
          <path id="Trazado_599497" data-name="Trazado 599497" d="M132.04,101.661H117.6a1.547,1.547,0,0,1-1.468-1.058l-1.71-5.131h-6.208a1.547,1.547,0,0,1-1.547-1.547V87.736a1.547,1.547,0,0,1,1.547-1.547h5.175a2.544,2.544,0,0,0,2.311-1.3c1.474-2.97,5.055-4.889,9.121-4.889s7.647,1.919,9.121,4.889a2.545,2.545,0,0,0,2.311,1.3h5.175a1.547,1.547,0,0,1,1.547,1.547v6.189a1.547,1.547,0,0,1-1.547,1.547h-6.208l-1.71,5.131a1.547,1.547,0,0,1-1.468,1.058m-13.325-3.094h12.21l1.71-5.131a1.547,1.547,0,0,1,1.468-1.058h5.776V89.283h-3.627a5.654,5.654,0,0,1-5.082-3.019c-.941-1.9-3.493-3.17-6.35-3.17s-5.408,1.274-6.35,3.17a5.654,5.654,0,0,1-5.082,3.019H109.76v3.094h5.776A1.547,1.547,0,0,1,117,93.436Z" transform="translate(-98.414 -73.811)" fill="#fff"/>
          <path id="Trazado_599498" data-name="Trazado 599498" d="M173.27,424.325h-20.63A4.647,4.647,0,0,1,148,419.683V407.306a4.647,4.647,0,0,1,4.642-4.642h20.63a4.647,4.647,0,0,1,4.642,4.642v12.378a4.647,4.647,0,0,1-4.642,4.642m-20.63-18.567a1.549,1.549,0,0,0-1.547,1.547v12.378a1.549,1.549,0,0,0,1.547,1.547h20.63a1.549,1.549,0,0,0,1.547-1.547V407.306a1.549,1.549,0,0,0-1.547-1.547Z" transform="translate(-136.55 -371.514)" fill="#fff"/>
          <path id="Trazado_599499" data-name="Trazado 599499" d="M313.673,480.678A5.673,5.673,0,1,1,319.346,475h0a5.68,5.68,0,0,1-5.673,5.673m0-8.252a2.579,2.579,0,1,0,2.579,2.579,2.582,2.582,0,0,0-2.579-2.579" transform="translate(-284.173 -433.024)" fill="#fff"/>
          <path id="Trazado_599500" data-name="Trazado 599500" d="M217.76,470.879a1.547,1.547,0,1,1-1.547-1.547,1.547,1.547,0,0,1,1.547,1.547" transform="translate(-198.059 -433.024)" fill="#fff"/>
          <path id="Trazado_599501" data-name="Trazado 599501" d="M376.214,329.489a1.547,1.547,0,0,1-1.547-1.547v-6.4a1.547,1.547,0,0,1,3.094,0v6.4a1.547,1.547,0,0,1-1.547,1.547" transform="translate(-345.682 -295.244)" fill="#fff"/>
          <path id="Trazado_599502" data-name="Trazado 599502" d="M269.546,329.489A1.547,1.547,0,0,1,268,327.941v-6.4a1.547,1.547,0,0,1,3.094,0v6.4a1.547,1.547,0,0,1-1.547,1.547" transform="translate(-247.266 -295.244)" fill="#fff"/>
          <path id="Trazado_599503" data-name="Trazado 599503" d="M577.547,300.553A1.547,1.547,0,0,1,576,299.006V294.88a1.547,1.547,0,0,1,3.094,0v4.126a1.547,1.547,0,0,1-1.547,1.547" transform="translate(-531.44 -270.641)" fill="#fff"/>
          <path id="Trazado_599504" data-name="Trazado 599504" d="M68.213,300.553a1.547,1.547,0,0,1-1.547-1.547V294.88a1.547,1.547,0,1,1,3.094,0v4.126a1.547,1.547,0,0,1-1.547,1.547" transform="translate(-61.509 -270.641)" fill="#fff"/>
        </g>
      </g>
    </g>
  </g>
</svg>
