<svg xmlns="http://www.w3.org/2000/svg" width="85" height="81.147" viewBox="0 0 85 81.147">
  <g id="Grupo_156814" data-name="Grupo 156814" transform="translate(-8312 9676)">
    <rect id="Rectángulo_44645" data-name="Rectángulo 44645" width="85" height="81.147" rx="10" transform="translate(8312 -9676)" fill="#083142"/>
    <g id="Layer_2" data-name="Layer 2" transform="translate(8328 -9662)">
      <path id="Trazado_599487" data-name="Trazado 599487" d="M46.661,1H6.644A5.654,5.654,0,0,0,1,6.644V39.821a5.654,5.654,0,0,0,5.644,5.644h1.2a1.71,1.71,0,0,0,0-3.42h-1.2A2.223,2.223,0,0,1,4.42,39.821V14.681H48.884V39.821a2.223,2.223,0,0,1-2.223,2.223h-1.2a1.71,1.71,0,1,0,0,3.42h1.2A5.654,5.654,0,0,0,52.3,39.821V6.644A5.654,5.654,0,0,0,46.661,1Zm2.223,10.261H4.42V6.644A2.223,2.223,0,0,1,6.644,4.42H46.661a2.223,2.223,0,0,1,2.223,2.223Z" transform="translate(0 0)" fill="#fff"/>
      <ellipse id="Elipse_5052" data-name="Elipse 5052" cx="2.128" cy="1.596" rx="2.128" ry="1.596" transform="translate(7.498 6.434)" fill="#fff"/>
      <circle id="Elipse_5053" data-name="Elipse 5053" cx="1.596" cy="1.596" r="1.596" transform="translate(12.819 6.434)" fill="#fff"/>
      <circle id="Elipse_5054" data-name="Elipse 5054" cx="1.596" cy="1.596" r="1.596" transform="translate(18.139 6.434)" fill="#fff"/>
      <path id="Trazado_599488" data-name="Trazado 599488" d="M22.391,13A15.391,15.391,0,1,0,37.783,28.391,15.391,15.391,0,0,0,22.391,13ZM34.226,26.681H29.189a27.646,27.646,0,0,0-1.838-9.168A11.983,11.983,0,0,1,34.226,26.681ZM22.391,40.362c-.917,0-3.054-3.591-3.376-10.261h6.752C25.446,36.771,23.308,40.362,22.391,40.362ZM19.016,26.681c.322-6.67,2.459-10.261,3.376-10.261s3.054,3.591,3.376,10.261Zm-1.59-9.168a27.646,27.646,0,0,0-1.832,9.168H10.557a11.983,11.983,0,0,1,6.875-9.168ZM10.557,30.1h5.036a27.646,27.646,0,0,0,1.838,9.168A11.983,11.983,0,0,1,10.557,30.1ZM27.351,39.27A27.646,27.646,0,0,0,29.189,30.1h5.036A11.983,11.983,0,0,1,27.351,39.27Z" transform="translate(4.261 8.522)" fill="#fff"/>
    </g>
  </g>
</svg>
