<svg xmlns="http://www.w3.org/2000/svg" width="77.762" height="99" viewBox="0 0 77.762 99">
  <g id="Grupo_156787" data-name="Grupo 156787" transform="translate(-234 -4365)">
    <g id="procesamiento-de-datos" transform="translate(233 4364)">
      <circle id="Elipse_5043" data-name="Elipse 5043" cx="23.5" cy="23.5" r="23.5" transform="translate(10 5)" fill="#c2daf2"/>
      <path id="Trazado_599467" data-name="Trazado 599467" d="M41.488,28.136a12.351,12.351,0,0,0,0-4.393L44.05,22.17a15.271,15.271,0,0,0-3.763-6.957l-1.485.912a1.741,1.741,0,0,1-1.958-.051,11.144,11.144,0,0,0-1.682-1.031,1.967,1.967,0,0,1-1.02-1.78V11.442a13.33,13.33,0,0,0-3.954-.552q-.6.008-1.187.073V20.5a4.7,4.7,0,0,1,1.368-.2A5.406,5.406,0,0,1,35.5,25.94a5.406,5.406,0,0,1-5.131,5.644,4.7,4.7,0,0,1-1.368-.2v9.537a12.989,12.989,0,0,0,1.549.072,13.343,13.343,0,0,0,3.591-.559V38.616a1.968,1.968,0,0,1,1.02-1.78,11.128,11.128,0,0,0,1.682-1.031,1.741,1.741,0,0,1,1.958-.05l1.478.908a15.267,15.267,0,0,0,3.771-6.953Z" transform="translate(7.118 2.514)" fill="#2effc7"/>
      <g id="Grupo_156785" data-name="Grupo 156785" transform="translate(69.983 2.254)">
        <path id="Trazado_599468" data-name="Trazado 599468" d="M56,2h7.525V9.525H56Z" transform="translate(-56 -2)" fill="#d96d6d"/>
        <path id="Trazado_599469" data-name="Trazado 599469" d="M56,20h7.525v7.525H56Z" transform="translate(-56 2.576)" fill="#d96d6d"/>
        <path id="Trazado_599470" data-name="Trazado 599470" d="M56,38h7.525v7.525H56Z" transform="translate(-56 7.152)" fill="#d96d6d"/>
      </g>
      <path id="Trazado_599471" data-name="Trazado 599471" d="M14.542,36C7.615,36,2,38.433,2,41.435v21.74c0,3,5.615,5.435,12.542,5.435s12.542-2.433,12.542-5.435V41.435C27.085,38.433,21.469,36,14.542,36Z" transform="translate(0.254 8.898)" fill="#608cbf"/>
      <ellipse id="Elipse_5044" data-name="Elipse 5044" cx="12.542" cy="5.435" rx="12.542" ry="5.435" transform="translate(2.254 44.898)" fill="#72a6e4"/>
      <path id="Trazado_599472" data-name="Trazado 599472" d="M14.542,51.546C7.615,51.546,2,49.113,2,46.111v7.247c0,3,5.615,5.435,12.542,5.435s12.542-2.433,12.542-5.435V46.111C27.085,49.113,21.469,51.546,14.542,51.546Z" transform="translate(0.254 11.469)" fill="#72a6e4"/>
      <path id="Trazado_599474" data-name="Trazado 599474" d="M30.622,30.585a3.445,3.445,0,0,1-1-.149A1.254,1.254,0,0,0,28,31.636v9.537a1.254,1.254,0,0,0,1.122,1.247,14.267,14.267,0,0,0,1.508.081h.19a14.612,14.612,0,0,0,3.929-.611,1.254,1.254,0,0,0,.9-1.2V38.871a.736.736,0,0,1,.323-.656,12.321,12.321,0,0,0,1.872-1.146.5.5,0,0,1,.555.011l1.478.908a1.258,1.258,0,0,0,1.563-.2,16.541,16.541,0,0,0,4.083-7.523,1.255,1.255,0,0,0-.562-1.366L43.1,27.754a13.279,13.279,0,0,0,0-3.118l1.859-1.143a1.253,1.253,0,0,0,.562-1.364A16.53,16.53,0,0,0,41.447,14.6a1.252,1.252,0,0,0-1.563-.2l-1.484.911a.492.492,0,0,1-.556.01,12.611,12.611,0,0,0-1.871-1.146.735.735,0,0,1-.324-.656V11.7a1.254,1.254,0,0,0-.9-1.2,14.094,14.094,0,0,0-4.323-.6c-.442,0-.878.033-1.308.08A1.255,1.255,0,0,0,28,11.218v9.535a1.254,1.254,0,0,0,1.619,1.2,3.457,3.457,0,0,1,1-.148,4.162,4.162,0,0,1,3.877,4.39,4.162,4.162,0,0,1-3.877,4.39Zm0-11.288h-.114V12.4a11.847,11.847,0,0,1,2.632.272v.848a3.228,3.228,0,0,0,1.715,2.9,9.941,9.941,0,0,1,1.493.915,2.987,2.987,0,0,0,3.363.113l.589-.361a14.031,14.031,0,0,1,2.544,4.762l-1.759,1.082a1.253,1.253,0,0,0-.579,1.282,11.071,11.071,0,0,1,0,3.964,1.256,1.256,0,0,0,.579,1.284l1.759,1.08A14.043,14.043,0,0,1,40.294,35.3l-.582-.358a2.992,2.992,0,0,0-3.362.113,9.828,9.828,0,0,1-1.492.915,3.226,3.226,0,0,0-1.717,2.9v.843a11.872,11.872,0,0,1-2.355.277c-.091,0-.183,0-.277,0v-6.9a6.64,6.64,0,0,0,6.5-6.9,6.664,6.664,0,0,0-6.385-6.9Z" transform="translate(6.864 2.26)"/>
      <path id="Trazado_599478" data-name="Trazado 599478" d="M14.8,70.118c7.865,0,13.8-2.876,13.8-6.689V41.689c0-3.813-5.931-6.689-13.8-6.689S1,37.876,1,41.689V63.43C1,67.242,6.931,70.118,14.8,70.118Zm0-32.61c6.994,0,11.288,2.435,11.288,4.18S21.79,45.87,14.8,45.87,3.508,43.435,3.508,41.689,7.8,37.508,14.8,37.508ZM3.508,45.624c2.454,1.689,6.509,2.755,11.288,2.755s8.834-1.066,11.288-2.755v3.312c0,1.745-4.294,4.18-11.288,4.18S3.508,50.682,3.508,48.936Zm0,7.246c2.454,1.689,6.509,2.754,11.288,2.754s8.834-1.066,11.288-2.754v3.312c0,1.747-4.294,4.182-11.288,4.182S3.508,57.929,3.508,56.182Zm0,7.247c2.454,1.689,6.509,2.755,11.288,2.755s8.834-1.066,11.288-2.755V63.43c0,1.745-4.294,4.18-11.288,4.18S3.508,65.175,3.508,63.43Z" transform="translate(0 8.644)"/>
      <path id="Trazado_599479" data-name="Trazado 599479" d="M75.983,1H68.457A1.254,1.254,0,0,0,67.2,2.254V4.763H62.186a1.254,1.254,0,0,0-1.254,1.254V27.339H57.106A25.069,25.069,0,1,0,10.962,42.127l2.11-1.355a22.578,22.578,0,1,1,19.012,10.4,22.847,22.847,0,0,1-2.38-.124l-.26,2.494A25.061,25.061,0,0,0,57.106,29.847h3.826V51.169a1.254,1.254,0,0,0,1.254,1.254H67.2v2.508a1.254,1.254,0,0,0,1.254,1.254h7.525a1.254,1.254,0,0,0,1.254-1.254V47.406a1.254,1.254,0,0,0-1.254-1.254H68.457A1.254,1.254,0,0,0,67.2,47.406v2.508H63.44V29.847H67.2v2.508a1.254,1.254,0,0,0,1.254,1.254h7.525a1.254,1.254,0,0,0,1.254-1.254V24.83a1.254,1.254,0,0,0-1.254-1.254H68.457A1.254,1.254,0,0,0,67.2,24.83v2.508H63.44V7.271H67.2V9.78a1.254,1.254,0,0,0,1.254,1.254h7.525A1.254,1.254,0,0,0,77.237,9.78V2.254A1.254,1.254,0,0,0,75.983,1ZM69.711,48.661h5.017v5.017H69.711Zm0-22.576h5.017V31.1H69.711ZM74.728,8.525H69.711V3.508h5.017Z" transform="translate(1.525 0)"/>
    </g>
    <g id="Layer_x0020_1" transform="translate(244.126 4409.136)">
      <g id="_331888192" transform="translate(0.318 0.73)">
        <g id="Grupo_156786" data-name="Grupo 156786">
          <path id="_331889080" d="M3.263,32.824h41.58V2.851H3.263ZM45.9,34.945H2.2a1.061,1.061,0,0,1-1.061-1.061V1.791A1.06,1.06,0,0,1,2.2.73H45.9a1.061,1.061,0,0,1,1.06,1.061V33.884A1.061,1.061,0,0,1,45.9,34.945Z" transform="translate(7.176 -0.73)" fill-rule="evenodd"/>
          <path id="_331888672" d="M3.752,23.451H35.471V3.34H3.752Zm32.779,2.121H2.692a1.061,1.061,0,0,1-1.061-1.06V2.279a1.06,1.06,0,0,1,1.06-1.06h33.84a1.061,1.061,0,0,1,1.06,1.061V24.511a1.061,1.061,0,0,1-1.061,1.061Z" transform="translate(11.618 3.712)" fill-rule="evenodd"/>
          <path id="_331888960" d="M1.377,20.611a1.061,1.061,0,0,1-.921-1.586L8.776,4.446A1.061,1.061,0,0,1,10.618,5.5L2.3,20.076a1.059,1.059,0,0,1-.922.535Zm60.339,0a1.059,1.059,0,0,1-.922-.535L52.476,5.5a1.061,1.061,0,0,1,1.842-1.051l8.319,14.578a1.061,1.061,0,0,1-.92,1.586Z" transform="translate(-0.318 28.182)" fill-rule="evenodd"/>
          <path id="_331889032" d="M2.439,10.7H60.654V7.478H2.439ZM61.715,12.82H1.378a1.061,1.061,0,0,1-1.061-1.06V6.417A1.061,1.061,0,0,1,1.378,5.357H61.715a1.061,1.061,0,0,1,1.06,1.061v5.342a1.061,1.061,0,0,1-1.061,1.061Z" transform="translate(-0.317 41.315)" fill-rule="evenodd"/>
          <path id="_331888504" d="M16.15,12.414a1.059,1.059,0,0,1-.994-.694L13.391,6.935H6.515L4.75,11.72a1.061,1.061,0,0,1-1.991-.734L4.78,5.507a1.06,1.06,0,0,1,1-.693H14.13a1.061,1.061,0,0,1,1,.694l2.02,5.479a1.062,1.062,0,0,1-1,1.428Z" transform="translate(21.277 36.379)" fill-rule="evenodd"/>
          <path id="_331888792" d="M38.867,6.484H2.57a1.061,1.061,0,1,1,0-2.121h36.3a1.061,1.061,0,0,1,0,2.121Z" transform="translate(10.511 32.281)" fill-rule="evenodd"/>
          <path id="_331889176" d="M9.76,6.935H2.57a1.06,1.06,0,1,1,0-2.121H9.76a1.061,1.061,0,0,1,0,2.121Z" transform="translate(10.511 36.379)" fill-rule="evenodd"/>
          <path id="_331888912" d="M12.646,6.935H5.455a1.06,1.06,0,1,1,0-2.121h7.191a1.061,1.061,0,0,1,0,2.121Z" transform="translate(36.732 36.379)" fill-rule="evenodd"/>
        </g>
        <path id="_331888624" d="M33.56,21.54V1.429H1.841V21.54Z" transform="translate(13.529 5.623)" fill="#c0eced" fill-rule="evenodd"/>
        <path id="_331888432" d="M42.933,30.913V.94H1.352V30.913Zm-2.81-26.1V27.043A1.061,1.061,0,0,1,39.062,28.1H5.223a1.061,1.061,0,0,1-1.061-1.06V4.811a1.06,1.06,0,0,1,1.06-1.06h33.84a1.061,1.061,0,0,1,1.06,1.061Z" transform="translate(9.087 1.181)" fill="#7a6d79" fill-rule="evenodd"/>
        <path id="_331888216" d="M12.3,8.381,11.064,5.024H4.188L2.95,8.381Z" transform="translate(23.603 38.29)" fill="#b2afaf" fill-rule="evenodd"/>
        <path id="_331888144" d="M57.288,16.579,50.18,4.122H7.712L.6,16.579h21.4l1.765-4.785a1.06,1.06,0,0,1,1-.693h8.354a1.061,1.061,0,0,1,1,.694l1.765,4.785h21.4ZM38.843,12.161A1.06,1.06,0,0,1,39.9,11.1h7.191a1.061,1.061,0,0,1,0,2.121H39.9a1.06,1.06,0,0,1-1.061-1.06Zm-19.795,0a1.06,1.06,0,0,1-1.061,1.06H10.8a1.06,1.06,0,1,1,0-2.121h7.191a1.06,1.06,0,0,1,1.061,1.061ZM47.095,8.671H10.8a1.061,1.061,0,1,1,0-2.121h36.3a1.061,1.061,0,0,1,0,2.121Z" transform="translate(2.283 30.093)" fill="#dcd7d8" fill-rule="evenodd"/>
        <path id="_331887736" d="M58.743,8.788V5.567H.528V8.788H58.743Z" transform="translate(1.594 43.226)" fill="#7a6d79" fill-rule="evenodd"/>
      </g>
    </g>
    <path id="Sustracción_2" data-name="Sustracción 2" d="M-6444,11733.923h0a13.157,13.157,0,0,1-8.527-4.517A14.331,14.331,0,0,1-6456,11720a14.329,14.329,0,0,1,3.472-9.405,13.158,13.158,0,0,1,8.528-4.518v27.845Z" transform="translate(6708.999 -7328)" fill="none" stroke="#000" stroke-linecap="round" stroke-width="2.5"/>
  </g>
</svg>
