<svg xmlns="http://www.w3.org/2000/svg" width="400" height="360" viewBox="0 0 400 360">
  <g id="Grupo_157348" data-name="Grupo 157348" transform="translate(-9061 7863)">
    <g id="Grupo_157347" data-name="Grupo 157347" transform="translate(284 588)">
      <path id="Trazado_600983" data-name="Trazado 600983" d="M15,0H385a15,15,0,0,1,15,15V345a15,15,0,0,1-15,15H15A15,15,0,0,1,0,345V15A15,15,0,0,1,15,0Z" transform="translate(8777 -8451)" fill="#ffe5cf"/>
      <path id="Trazado_600986" data-name="Trazado 600986" d="M18.5,0h253a18.5,18.5,0,0,1,0,37H18.5a18.5,18.5,0,0,1,0-37Z" transform="translate(8833.5 -8183)" fill="#fff"/>
      <path id="Feature_One" data-name="Feature One" d="M105.171,12.474H103.5V17h-3.085V4.2h5.036a5.621,5.621,0,0,1,3.56,1.01,3.421,3.421,0,0,1,1.283,2.853,4.155,4.155,0,0,1-.541,2.213,3.837,3.837,0,0,1-1.692,1.422l2.672,5.167V17h-3.3ZM103.5,10.1h1.951a1.751,1.751,0,0,0,1.323-.463,1.788,1.788,0,0,0,.444-1.291,1.809,1.809,0,0,0-.448-1.3,1.735,1.735,0,0,0-1.318-.471H103.5Zm13.122,7.075a4.889,4.889,0,0,1-3.542-1.305,4.507,4.507,0,0,1-1.354-3.4v-.246a5.84,5.84,0,0,1,.541-2.575,3.955,3.955,0,0,1,1.578-1.727,4.763,4.763,0,0,1,2.461-.611,4.117,4.117,0,0,1,3.164,1.244,4.887,4.887,0,0,1,1.16,3.467v1.151h-5.889a2.135,2.135,0,0,0,.694,1.257,2.066,2.066,0,0,0,1.389.457,2.662,2.662,0,0,0,2.2-.984l1.354,1.6a3.784,3.784,0,0,1-1.569,1.217A5.3,5.3,0,0,1,116.623,17.176ZM116.289,9.6q-1.3,0-1.547,1.723h2.988v-.229a1.467,1.467,0,0,0-.36-1.1A1.434,1.434,0,0,0,116.289,9.6Zm9.211,3.876L127,7.49h3.12l-3.1,9.51H124l-3.1-9.51h3.129ZM134.131,17H131.16V7.49h2.971ZM130.984,5.029a1.334,1.334,0,0,1,.457-1.043,1.934,1.934,0,0,1,2.373,0,1.334,1.334,0,0,1,.457,1.043,1.334,1.334,0,0,1-.457,1.043,1.934,1.934,0,0,1-2.373,0A1.334,1.334,0,0,1,130.984,5.029Zm9.949,9.3a.684.684,0,0,0-.4-.606,6.016,6.016,0,0,0-1.5-.475,6.853,6.853,0,0,1-1.828-.646,3.062,3.062,0,0,1-1.1-.971,2.319,2.319,0,0,1-.378-1.31,2.628,2.628,0,0,1,1.081-2.158,4.453,4.453,0,0,1,2.83-.848,4.934,4.934,0,0,1,3.023.853,2.666,2.666,0,0,1,1.143,2.241h-2.971q0-1.143-1.2-1.143a1.194,1.194,0,0,0-.782.259.8.8,0,0,0-.316.646.737.737,0,0,0,.387.642,3.654,3.654,0,0,0,1.235.4,10.671,10.671,0,0,1,1.49.378,2.706,2.706,0,0,1,2.145,2.646,2.491,2.491,0,0,1-1.156,2.118,5.068,5.068,0,0,1-2.993.817,5.172,5.172,0,0,1-2.18-.439,3.645,3.645,0,0,1-1.494-1.2,2.707,2.707,0,0,1-.536-1.591H138.2a1.145,1.145,0,0,0,.439.962,1.808,1.808,0,0,0,1.081.3,1.422,1.422,0,0,0,.91-.246A.787.787,0,0,0,140.934,14.328ZM148.3,17h-2.971V7.49H148.3ZM145.152,5.029a1.334,1.334,0,0,1,.457-1.043,1.934,1.934,0,0,1,2.373,0,1.334,1.334,0,0,1,.457,1.043,1.334,1.334,0,0,1-.457,1.043,1.934,1.934,0,0,1-2.373,0A1.334,1.334,0,0,1,145.152,5.029Zm4.6,7.128a5.613,5.613,0,0,1,.554-2.536,3.96,3.96,0,0,1,1.591-1.709,4.791,4.791,0,0,1,2.435-.6,4.373,4.373,0,0,1,3.366,1.323,5.076,5.076,0,0,1,1.23,3.6v.105a4.925,4.925,0,0,1-1.235,3.529,4.384,4.384,0,0,1-3.344,1.305,4.434,4.434,0,0,1-3.261-1.217,4.761,4.761,0,0,1-1.327-3.3Zm2.962.185a3.538,3.538,0,0,0,.413,1.934,1.376,1.376,0,0,0,1.222.615q1.582,0,1.617-2.435v-.3q0-2.558-1.635-2.558-1.485,0-1.608,2.206ZM154.732,3.5h3.129l-2.443,2.76-2.417,0Zm8.218,3.99.1,1.116a3.225,3.225,0,0,1,2.716-1.292,2.713,2.713,0,0,1,2.219.888,4.226,4.226,0,0,1,.76,2.672V17h-2.971V11a1.6,1.6,0,0,0-.29-1.059,1.342,1.342,0,0,0-1.055-.338,1.413,1.413,0,0,0-1.292.686V17h-2.962V7.49Z" transform="translate(8844.5 -8177)" fill="#12263f"/>
      <path id="Trazado_600984" data-name="Trazado 600984" d="M90.5,0C140.482,0,181,40.742,181,91s-40.518,91-90.5,91S0,141.258,0,91,40.518,0,90.5,0Z" transform="translate(8887 -8393)" fill="#ffb476"/>
      <path id="Trazado_599444" data-name="Trazado 599444" d="M67.528,2H8V111.9H85.844V20.316Z" transform="translate(8941.185 -8355.016)" fill="#f1f2f2"/>
      <path id="Trazado_599445" data-name="Trazado 599445" d="M4.25,23.5H38.593V34.948H4.25Z" transform="translate(8927.764 -8278.064)" fill="#0a879f"/>
      <path id="Trazado_599446" data-name="Trazado 599446" d="M10.729,23.5h5.82V34.948h-5.82Z" transform="translate(8950.952 -8278.064)" fill="#037989"/>
      <path id="Trazado_599447" data-name="Trazado 599447" d="M7.309,21H44.477a4.309,4.309,0,0,1,4.309,4.309v7.139H3V25.309A4.309,4.309,0,0,1,7.309,21Z" transform="translate(8923.289 -8287.013)" fill="#07d0b9"/>
      <path id="Trazado_599448" data-name="Trazado 599448" d="M15.637,21H11.058a4.313,4.313,0,0,1,4.314,4.313v7.134h4.579V25.313A4.313,4.313,0,0,0,15.637,21Z" transform="translate(8952.13 -8287.013)" fill="#00ba9f"/>
      <path id="Trazado_599449" data-name="Trazado 599449" d="M21.623,56.791H10.175l-4.3-34.43a10.106,10.106,0,1,1,20.056,0Z" transform="translate(8933.285 -8322.804)" fill="#0a879f"/>
      <path id="Trazado_599450" data-name="Trazado 599450" d="M10.147,11a10.033,10.033,0,0,0-2.747.43,10.074,10.074,0,0,1,7.267,10.93l-4.323,34.43h5.527l4.3-34.43A10.106,10.106,0,0,0,10.147,11Z" transform="translate(8939.037 -8322.804)" fill="#037989"/>
      <path id="Trazado_599451" data-name="Trazado 599451" d="M24.579,2H20V21.3a3.6,3.6,0,0,0,3.6,3.6h13.71A1,1,0,0,1,38.316,25.9v86H42.9V20.316Z" transform="translate(8984.134 -8355.016)" fill="#d1d3d4"/>
      <path id="Trazado_599452" data-name="Trazado 599452" d="M21,2V20.316H39.316" transform="translate(8987.713 -8355.016)" fill="#f1f2f2"/>
      <path id="Trazado_600985" data-name="Trazado 600985" d="M16.027,0A16.027,16.027,0,1,1,0,16.027,16.027,16.027,0,0,1,16.027,0Z" transform="translate(8981.238 -8325.541)" fill="#95d6a4"/>
      <path id="Trazado_599453" data-name="Trazado 599453" d="M20.29,8A16.429,16.429,0,0,0,18,8.229a15.954,15.954,0,0,1,0,31.6,16.43,16.43,0,0,0,2.29.229A16.027,16.027,0,1,0,20.29,8Z" transform="translate(8976.976 -8333.541)" fill="#78c2a4"/>
      <g id="Grupo_156784" data-name="Grupo 156784" transform="translate(8924 -8355.305)">
        <path id="Trazado_599454" data-name="Trazado 599454" d="M107.15,20.485,88.834,2.169A2.29,2.29,0,0,0,87.213,1.5H27.685A2.29,2.29,0,0,0,25.4,3.79V43.128a11.933,11.933,0,0,0-7,3.778,12.364,12.364,0,0,0-3.008,9.735L19.369,88.5H9.1a6.6,6.6,0,0,0-6.6,6.6v7.139a2.29,2.29,0,0,0,2.29,2.29H8.224v9.158a2.29,2.29,0,0,0,2.29,2.29h95.016a2.29,2.29,0,0,0,2.29-2.29V22.106a2.29,2.29,0,0,0-.669-1.621ZM89.5,9.316l10.5,10.5H89.5ZM19.928,56.074a7.83,7.83,0,0,1,1.9-6.141,8.082,8.082,0,0,1,11.722,0,7.83,7.83,0,0,1,1.9,6.141L31.389,88.5H23.98ZM7.079,95.1A2.024,2.024,0,0,1,9.1,93.082H46.271A2.024,2.024,0,0,1,48.291,95.1V99.95H7.079Zm20.606,16.3H12.8v-6.869H42.567V111.4Zm19.461,0v-6.869H50.58a2.29,2.29,0,0,0,2.29-2.29V95.1a6.6,6.6,0,0,0-6.6-6.6H36l3.984-31.861a12.364,12.364,0,0,0-3.008-9.735,11.933,11.933,0,0,0-7-3.778V6.079H84.924V22.106a2.29,2.29,0,0,0,2.29,2.29H103.24v87Z" transform="translate(-2.5 -1.5)" fill="#083142"/>
        <path id="Trazado_599455" data-name="Trazado 599455" d="M30.908,10.671l-7.537,7.542L20.413,15.25a2.292,2.292,0,0,0-3.242,3.242l4.579,4.579a2.29,2.29,0,0,0,3.242,0l9.158-9.158a2.292,2.292,0,1,0-3.242-3.242Z" transform="translate(47.605 28.92)" fill="#083142"/>
        <path id="Trazado_599456" data-name="Trazado 599456" d="M48.843,19.5H16.79a2.29,2.29,0,1,0,0,4.579H48.843a2.29,2.29,0,1,0,0-4.579Z" transform="translate(40.449 62.924)" fill="#083142"/>
        <path id="Trazado_599457" data-name="Trazado 599457" d="M48.843,17.5H16.79a2.29,2.29,0,0,0,0,4.579H48.843a2.29,2.29,0,1,0,0-4.579Z" transform="translate(40.449 55.765)" fill="#083142"/>
        <path id="Trazado_599458" data-name="Trazado 599458" d="M38.106,21.5H19.79a2.29,2.29,0,1,0,0,4.579H38.106a2.29,2.29,0,1,0,0-4.579Z" transform="translate(51.186 70.082)" fill="#083142"/>
        <path id="Trazado_599459" data-name="Trazado 599459" d="M32.816,7.5A18.316,18.316,0,1,0,51.133,25.816,18.316,18.316,0,0,0,32.816,7.5Zm0,32.054A13.737,13.737,0,1,1,46.554,25.816,13.737,13.737,0,0,1,32.816,39.554Z" transform="translate(40.449 19.975)" fill="#083142"/>
      </g>
    </g>
  </g>
</svg>
